<svg xmlns="http://www.w3.org/2000/svg" xmlns:xlink="http://www.w3.org/1999/xlink" width="93.934" height="93.934" viewBox="0 0 93.934 93.934">
  <defs>
    <filter id="Trazado_982547" x="0" y="0" width="93.934" height="93.934" filterUnits="userSpaceOnUse">
      <feOffset dy="3" input="SourceAlpha"/>
      <feGaussianBlur stdDeviation="3" result="blur"/>
      <feFlood flood-opacity="0.161"/>
      <feComposite operator="in" in2="blur"/>
      <feComposite in="SourceGraphic"/>
    </filter>
  </defs>
  <g id="Grupo_1178746" data-name="Grupo 1178746" transform="translate(-189 -784)">
    <g id="Grupo_1173782" data-name="Grupo 1173782" transform="translate(198 790)">
      <g id="Grupo_1167337" data-name="Grupo 1167337">
        <g id="Grupo_1166720" data-name="Grupo 1166720">
          <g id="Grupo_1164305" data-name="Grupo 1164305">
            <g id="Grupo_1163948" data-name="Grupo 1163948">
              <g id="Grupo_1158168" data-name="Grupo 1158168">
                <g id="Grupo_1152576" data-name="Grupo 1152576">
                  <g id="Grupo_1148633" data-name="Grupo 1148633">
                    <g id="Grupo_1148525" data-name="Grupo 1148525">
                      <g transform="matrix(1, 0, 0, 1, -9, -6)" filter="url(#Trazado_982547)">
                        <g id="Trazado_982547-2" data-name="Trazado 982547" transform="translate(9 6)" fill="#e8edf7">
                          <path d="M 37.966796875 74.43359375 C 33.04315185546875 74.43359375 28.26757431030273 73.46962738037109 23.77274131774902 71.56847381591797 C 19.43047523498535 69.73184967041016 15.53040790557861 67.10224914550781 12.18087482452393 63.75271987915039 C 8.831341743469238 60.4031867980957 6.201741218566895 56.50312042236328 4.365118980407715 52.16086196899414 C 2.463963508605957 47.66601943969727 1.499996900558472 42.89044189453125 1.499996900558472 37.966796875 C 1.499996900558472 33.04315185546875 2.463963508605957 28.26757431030273 4.365118980407715 23.77274131774902 C 6.201741218566895 19.43047523498535 8.831341743469238 15.53040790557861 12.18087482452393 12.18087482452393 C 15.53040790557861 8.831341743469238 19.43047523498535 6.201741218566895 23.77274131774902 4.365118980407715 C 28.26757431030273 2.463963508605957 33.04315185546875 1.499996900558472 37.966796875 1.499996900558472 C 42.89044189453125 1.499996900558472 47.66601943969727 2.463963508605957 52.16086196899414 4.365118980407715 C 56.50312042236328 6.201741218566895 60.4031867980957 8.831341743469238 63.75271987915039 12.18087482452393 C 67.10224914550781 15.53040790557861 69.73184967041016 19.43047523498535 71.56847381591797 23.77274131774902 C 73.46962738037109 28.26757431030273 74.43359375 33.04315185546875 74.43359375 37.966796875 C 74.43359375 42.89044189453125 73.46962738037109 47.66601943969727 71.56847381591797 52.16086196899414 C 69.73184967041016 56.50313186645508 67.10224914550781 60.4031867980957 63.75271987915039 63.75271987915039 C 60.4031867980957 67.10224914550781 56.50313186645508 69.73184967041016 52.16086196899414 71.56847381591797 C 47.66601943969727 73.46962738037109 42.89044189453125 74.43359375 37.966796875 74.43359375 Z" stroke="none"/>
                          <path d="M 37.966796875 3 C 33.2449836730957 3 28.66600799560547 3.924095153808594 24.35705947875977 5.746635437011719 C 20.19359588623047 7.507637023925781 16.45379638671875 10.02928161621094 13.24153518676758 13.24153518676758 C 10.02927398681641 16.45379638671875 7.507621765136719 20.19359588623047 5.746635437011719 24.35705947875977 C 3.924095153808594 28.66600799560547 3 33.2449836730957 3 37.966796875 C 3 42.6886100769043 3.924095153808594 47.26758575439453 5.746635437011719 51.57653427124023 C 7.507621765136719 55.73999786376953 10.02927398681641 59.47979736328125 13.24153518676758 62.69205856323242 C 16.45379638671875 65.90431976318359 20.19359588623047 68.42597198486328 24.35705947875977 70.18695831298828 C 28.66600799560547 72.00949859619141 33.2449836730957 72.93359375 37.966796875 72.93359375 C 42.6886100769043 72.93359375 47.26758575439453 72.00949859619141 51.57653427124023 70.18695831298828 C 55.73999786376953 68.42597198486328 59.47979736328125 65.90431976318359 62.69205856323242 62.69205856323242 C 65.90431976318359 59.47979736328125 68.42597198486328 55.73999786376953 70.18695831298828 51.57653427124023 C 72.00949859619141 47.26758575439453 72.93359375 42.6886100769043 72.93359375 37.966796875 C 72.93359375 33.2449836730957 72.00949859619141 28.66600799560547 70.18695831298828 24.35705947875977 C 68.42597198486328 20.19359588623047 65.90431976318359 16.45379638671875 62.69205856323242 13.24153518676758 C 59.47979736328125 10.02928161621094 55.73999786376953 7.507637023925781 51.57653427124023 5.746635437011719 C 47.26758575439453 3.924095153808594 42.6886100769043 3 37.966796875 3 M 37.966796875 0 C 58.93528366088867 0 75.93359375 16.99832153320312 75.93359375 37.966796875 C 75.93359375 58.93528366088867 58.93528366088867 75.93359375 37.966796875 75.93359375 C 16.99831008911133 75.93359375 0 58.93528366088867 0 37.966796875 C 0 16.99832153320312 16.99831008911133 0 37.966796875 0 Z" stroke="none" fill="#2e5bb6"/>
                        </g>
                      </g>
                    </g>
                  </g>
                </g>
              </g>
            </g>
          </g>
        </g>
      </g>
    </g>
    <g id="budget_1_" data-name="budget (1)" transform="translate(195.997 771.13)">
      <path id="Trazado_1038023" data-name="Trazado 1038023" d="M88.907,99.1a.786.786,0,0,1-.23-.556V79.694A18.831,18.831,0,0,0,71.73,92.085a9.67,9.67,0,0,1,9.117,16.979h1.759a2.64,2.64,0,0,1,2.637,2.637v1.666a2.624,2.624,0,0,1-.763,1.851,2.631,2.631,0,0,1,.76,1.711,19.012,19.012,0,0,0,4.221.473,18.733,18.733,0,0,0,12.772-4.98Z" transform="translate(-49.895 -41.029)" fill="#547dbf"/>
      <path id="Trazado_1038024" data-name="Trazado 1038024" d="M54.015,70.85,40.351,57.187V37.864a.785.785,0,0,0-.785-.785A20.437,20.437,0,0,0,21.1,48.763a.785.785,0,0,0,1.418.673,18.972,18.972,0,0,1,16.268-10.77V57.512a.782.782,0,0,0,.23.555L52.339,71.394a18.738,18.738,0,0,1-12.772,4.98,19.019,19.019,0,0,1-2.293-.138.785.785,0,0,0-.189,1.558,20.659,20.659,0,0,0,2.482.15,20.3,20.3,0,0,0,14.448-5.984.786.786,0,0,0,0-1.11Zm-27.749-11.7h-1.18a.915.915,0,1,1,0-1.8h3.032a.785.785,0,1,0,0-1.57H26.46v-1.24a.785.785,0,1,0-1.57,0v1.247a2.471,2.471,0,1,0,.195,4.936h1.18a.915.915,0,1,1,0,1.8H23.233a.785.785,0,1,0,0,1.57h1.658v1.24a.785.785,0,1,0,1.57,0V64.085a2.471,2.471,0,1,0-.195-4.936Zm0,0h-1.18a.915.915,0,1,1,0-1.8h3.032a.785.785,0,1,0,0-1.57H26.46v-1.24a.785.785,0,1,0-1.57,0v1.247a2.471,2.471,0,1,0,.195,4.936h1.18a.915.915,0,1,1,0,1.8H23.233a.785.785,0,1,0,0,1.57h1.658v1.24a.785.785,0,1,0,1.57,0V64.085a2.471,2.471,0,1,0-.195-4.936Zm0,0h-1.18a.915.915,0,1,1,0-1.8h3.032a.785.785,0,1,0,0-1.57H26.46v-1.24a.785.785,0,1,0-1.57,0v1.247a2.471,2.471,0,1,0,.195,4.936h1.18a.915.915,0,1,1,0,1.8H23.233a.785.785,0,1,0,0,1.57h1.658v1.24a.785.785,0,1,0,1.57,0V64.085a2.471,2.471,0,1,0-.195-4.936Zm0,0h-1.18a.915.915,0,1,1,0-1.8h3.032a.785.785,0,1,0,0-1.57H26.46v-1.24a.785.785,0,1,0-1.57,0v1.247a2.471,2.471,0,1,0,.195,4.936h1.18a.915.915,0,1,1,0,1.8H23.233a.785.785,0,1,0,0,1.57h1.658v1.24a.785.785,0,1,0,1.57,0V64.085a2.471,2.471,0,1,0-.195-4.936Zm0,0h-1.18a.915.915,0,1,1,0-1.8h3.032a.785.785,0,1,0,0-1.57H26.46v-1.24a.785.785,0,1,0-1.57,0v1.247a2.471,2.471,0,1,0,.195,4.936h1.18a.915.915,0,1,1,0,1.8H23.233a.785.785,0,1,0,0,1.57h1.658v1.24a.785.785,0,1,0,1.57,0V64.085a2.471,2.471,0,1,0-.195-4.936Zm0,0h-1.18a.915.915,0,1,1,0-1.8h3.032a.785.785,0,1,0,0-1.57H26.46v-1.24a.785.785,0,1,0-1.57,0v1.247a2.471,2.471,0,1,0,.195,4.936h1.18a.915.915,0,1,1,0,1.8H23.233a.785.785,0,1,0,0,1.57h1.658v1.24a.785.785,0,1,0,1.57,0V64.085a2.471,2.471,0,1,0-.195-4.936Zm6.445,8.888h-1.76a9.672,9.672,0,1,0-10.552,0h-1.76A2.639,2.639,0,0,0,16,70.672v1.667a2.625,2.625,0,0,0,.762,1.851A2.628,2.628,0,0,0,16,76.043v1.666a2.639,2.639,0,0,0,2.636,2.636H32.711a2.64,2.64,0,0,0,2.637-2.636V76.043a2.632,2.632,0,0,0-.762-1.852,2.63,2.63,0,0,0,.762-1.851V70.672A2.64,2.64,0,0,0,32.711,68.036Zm-15.138-8.1a8.1,8.1,0,1,1,8.1,8.1A8.112,8.112,0,0,1,17.573,59.933ZM33.778,77.709a1.068,1.068,0,0,1-1.067,1.066H18.639a1.067,1.067,0,0,1-1.066-1.066V76.043a1.068,1.068,0,0,1,1.066-1.067H32.711a1.069,1.069,0,0,1,1.067,1.067v1.666Zm0-5.369a1.068,1.068,0,0,1-1.067,1.066H18.639a1.067,1.067,0,0,1-1.066-1.066V70.672a1.067,1.067,0,0,1,1.066-1.066H32.711a1.068,1.068,0,0,1,1.067,1.066v1.667ZM26.46,65.332V64.085a2.471,2.471,0,1,0-.195-4.936h-1.18a.915.915,0,1,1,0-1.8h3.032a.785.785,0,1,0,0-1.57H26.46v-1.24a.785.785,0,0,0-1.57,0v1.247a2.471,2.471,0,1,0,.195,4.936h1.18a.915.915,0,1,1,0,1.8H23.233a.785.785,0,1,0,0,1.57h1.658v1.24a.785.785,0,1,0,1.57,0Zm-.195-6.184h-1.18a.915.915,0,1,1,0-1.8h3.032a.785.785,0,1,0,0-1.57H26.46v-1.24a.785.785,0,1,0-1.57,0v1.247a2.471,2.471,0,1,0,.195,4.936h1.18a.915.915,0,1,1,0,1.8H23.233a.785.785,0,1,0,0,1.57h1.658v1.24a.785.785,0,1,0,1.57,0V64.085a2.471,2.471,0,1,0-.195-4.936Zm0,0h-1.18a.915.915,0,1,1,0-1.8h3.032a.785.785,0,1,0,0-1.57H26.46v-1.24a.785.785,0,1,0-1.57,0v1.247a2.471,2.471,0,1,0,.195,4.936h1.18a.915.915,0,1,1,0,1.8H23.233a.785.785,0,1,0,0,1.57h1.658v1.24a.785.785,0,1,0,1.57,0V64.085a2.471,2.471,0,1,0-.195-4.936Zm0,0h-1.18a.915.915,0,1,1,0-1.8h3.032a.785.785,0,1,0,0-1.57H26.46v-1.24a.785.785,0,1,0-1.57,0v1.247a2.471,2.471,0,1,0,.195,4.936h1.18a.915.915,0,1,1,0,1.8H23.233a.785.785,0,1,0,0,1.57h1.658v1.24a.785.785,0,1,0,1.57,0V64.085a2.471,2.471,0,1,0-.195-4.936Zm0,0h-1.18a.915.915,0,1,1,0-1.8h3.032a.785.785,0,1,0,0-1.57H26.46v-1.24a.785.785,0,1,0-1.57,0v1.247a2.471,2.471,0,1,0,.195,4.936h1.18a.915.915,0,1,1,0,1.8H23.233a.785.785,0,1,0,0,1.57h1.658v1.24a.785.785,0,1,0,1.57,0V64.085a2.471,2.471,0,1,0-.195-4.936Zm37.613-2.422H44.232a.785.785,0,0,0-.556,1.339L57.57,71.961a.787.787,0,0,0,1.11,0,20.306,20.306,0,0,0,5.984-14.449A.785.785,0,0,0,63.879,56.727ZM58.113,70.284,46.126,58.3H63.078A18.717,18.717,0,0,1,58.113,70.284Zm5.1-16.041A20.456,20.456,0,0,0,42.776,33.87a.784.784,0,0,0-.785.785V54.3a.785.785,0,0,0,.785.785h19.65a.785.785,0,0,0,.785-.785C63.21,54.283,63.209,54.263,63.208,54.243Zm-19.648-.725V35.455A18.888,18.888,0,0,1,61.623,53.518Z"/>
      <path id="Trazado_1038025" data-name="Trazado 1038025" d="M297.405,67.082H279.343V49.02A18.888,18.888,0,0,1,297.405,67.082Z" transform="translate(-235.782 -13.565)" fill="#ea4335"/>
      <path id="Trazado_1038026" data-name="Trazado 1038026" d="M320.8,267.29a18.717,18.717,0,0,1-4.964,11.987L303.853,267.29Z" transform="translate(-257.727 -208.993)" fill="#41b75d"/>
      <path id="Trazado_1038027" data-name="Trazado 1038027" d="M39.1,426.67v3.8H32.068A1.067,1.067,0,0,1,31,429.4v-1.666a1.068,1.068,0,0,1,1.066-1.067Z" transform="translate(-13.429 -351.695)" fill="#fac31f"/>
      <path id="Trazado_1038028" data-name="Trazado 1038028" d="M116.535,427.737V429.4a1.068,1.068,0,0,1-1.067,1.066h-7.035v-3.8h7.035A1.069,1.069,0,0,1,116.535,427.737Z" transform="translate(-82.757 -351.695)" fill="#e2ab25"/>
      <path id="Trazado_1038029" data-name="Trazado 1038029" d="M39.1,375.36v3.8H32.068A1.067,1.067,0,0,1,31,378.093v-1.667a1.067,1.067,0,0,1,1.066-1.066Z" transform="translate(-13.429 -305.754)" fill="#fac31f"/>
      <path id="Trazado_1038030" data-name="Trazado 1038030" d="M116.535,376.426v1.667a1.068,1.068,0,0,1-1.067,1.066h-7.035v-3.8h7.035A1.068,1.068,0,0,1,116.535,376.426Z" transform="translate(-82.757 -305.754)" fill="#e2ab25"/>
      <path id="Trazado_1038031" data-name="Trazado 1038031" d="M39.7,214.388h-1.18a2.471,2.471,0,1,1-.195-4.936V208.2a.784.784,0,0,1,.785-.785V205.5a8.1,8.1,0,1,0,0,16.206v-1.919A.784.784,0,0,1,38.32,219v-1.24H36.662a.785.785,0,0,1,0-1.57H39.7a.915.915,0,1,0,0-1.8Zm-2.248-2.472a1,1,0,0,0,1.067.9h.59v-1.8h-.59A1,1,0,0,0,37.447,211.916Z" transform="translate(-13.429 -153.669)" fill="#fac31f"/>
      <path id="Trazado_1038032" data-name="Trazado 1038032" d="M116.535,213.6a8.113,8.113,0,0,1-8.1,8.1v-1.919a.785.785,0,0,0,.785-.785v-1.247a2.471,2.471,0,1,0-.195-4.936h-.59v-1.8h2.441a.785.785,0,1,0,0-1.57h-1.657V208.2a.785.785,0,0,0-.785-.785V205.5A8.113,8.113,0,0,1,116.535,213.6Z" transform="translate(-82.757 -153.669)" fill="#e2ab25"/>
    </g>
  </g>
</svg>
