<svg xmlns="http://www.w3.org/2000/svg" xmlns:xlink="http://www.w3.org/1999/xlink" width="93.934" height="93.934" viewBox="0 0 93.934 93.934">
  <defs>
    <filter id="Trazado_982547" x="0" y="0" width="93.934" height="93.934" filterUnits="userSpaceOnUse">
      <feOffset dy="3" input="SourceAlpha"/>
      <feGaussianBlur stdDeviation="3" result="blur"/>
      <feFlood flood-opacity="0.161"/>
      <feComposite operator="in" in2="blur"/>
      <feComposite in="SourceGraphic"/>
    </filter>
  </defs>
  <g id="Grupo_1179660" data-name="Grupo 1179660" transform="translate(-189 -2607)">
    <g id="Grupo_1173782" data-name="Grupo 1173782" transform="translate(-0.033 621)">
      <g id="Grupo_1167337" data-name="Grupo 1167337" transform="translate(198.033 1992)">
        <g id="Grupo_1166720" data-name="Grupo 1166720">
          <g id="Grupo_1164305" data-name="Grupo 1164305">
            <g id="Grupo_1163948" data-name="Grupo 1163948">
              <g id="Grupo_1158168" data-name="Grupo 1158168">
                <g id="Grupo_1152576" data-name="Grupo 1152576">
                  <g id="Grupo_1148633" data-name="Grupo 1148633">
                    <g id="Grupo_1148525" data-name="Grupo 1148525">
                      <g transform="matrix(1, 0, 0, 1, -9, -6)" filter="url(#Trazado_982547)">
                        <g id="Trazado_982547-2" data-name="Trazado 982547" transform="translate(9 6)" fill="#e8edf7">
                          <path d="M 37.966796875 74.43359375 C 33.04315185546875 74.43359375 28.26757431030273 73.46962738037109 23.77274131774902 71.56847381591797 C 19.43047523498535 69.73184967041016 15.53040790557861 67.10224914550781 12.18087482452393 63.75271987915039 C 8.831341743469238 60.4031867980957 6.201741218566895 56.50312042236328 4.365118980407715 52.16086196899414 C 2.463963508605957 47.66601943969727 1.499996900558472 42.89044189453125 1.499996900558472 37.966796875 C 1.499996900558472 33.04315185546875 2.463963508605957 28.26757431030273 4.365118980407715 23.77274131774902 C 6.201741218566895 19.43047523498535 8.831341743469238 15.53040790557861 12.18087482452393 12.18087482452393 C 15.53040790557861 8.831341743469238 19.43047523498535 6.201741218566895 23.77274131774902 4.365118980407715 C 28.26757431030273 2.463963508605957 33.04315185546875 1.499996900558472 37.966796875 1.499996900558472 C 42.89044189453125 1.499996900558472 47.66601943969727 2.463963508605957 52.16086196899414 4.365118980407715 C 56.50312042236328 6.201741218566895 60.4031867980957 8.831341743469238 63.75271987915039 12.18087482452393 C 67.10224914550781 15.53040790557861 69.73184967041016 19.43047523498535 71.56847381591797 23.77274131774902 C 73.46962738037109 28.26757431030273 74.43359375 33.04315185546875 74.43359375 37.966796875 C 74.43359375 42.89044189453125 73.46962738037109 47.66601943969727 71.56847381591797 52.16086196899414 C 69.73184967041016 56.50313186645508 67.10224914550781 60.4031867980957 63.75271987915039 63.75271987915039 C 60.4031867980957 67.10224914550781 56.50313186645508 69.73184967041016 52.16086196899414 71.56847381591797 C 47.66601943969727 73.46962738037109 42.89044189453125 74.43359375 37.966796875 74.43359375 Z" stroke="none"/>
                          <path d="M 37.966796875 3 C 33.2449836730957 3 28.66600799560547 3.924095153808594 24.35705947875977 5.746635437011719 C 20.19359588623047 7.507637023925781 16.45379638671875 10.02928161621094 13.24153518676758 13.24153518676758 C 10.02927398681641 16.45379638671875 7.507621765136719 20.19359588623047 5.746635437011719 24.35705947875977 C 3.924095153808594 28.66600799560547 3 33.2449836730957 3 37.966796875 C 3 42.6886100769043 3.924095153808594 47.26758575439453 5.746635437011719 51.57653427124023 C 7.507621765136719 55.73999786376953 10.02927398681641 59.47979736328125 13.24153518676758 62.69205856323242 C 16.45379638671875 65.90431976318359 20.19359588623047 68.42597198486328 24.35705947875977 70.18695831298828 C 28.66600799560547 72.00949859619141 33.2449836730957 72.93359375 37.966796875 72.93359375 C 42.6886100769043 72.93359375 47.26758575439453 72.00949859619141 51.57653427124023 70.18695831298828 C 55.73999786376953 68.42597198486328 59.47979736328125 65.90431976318359 62.69205856323242 62.69205856323242 C 65.90431976318359 59.47979736328125 68.42597198486328 55.73999786376953 70.18695831298828 51.57653427124023 C 72.00949859619141 47.26758575439453 72.93359375 42.6886100769043 72.93359375 37.966796875 C 72.93359375 33.2449836730957 72.00949859619141 28.66600799560547 70.18695831298828 24.35705947875977 C 68.42597198486328 20.19359588623047 65.90431976318359 16.45379638671875 62.69205856323242 13.24153518676758 C 59.47979736328125 10.02928161621094 55.73999786376953 7.507637023925781 51.57653427124023 5.746635437011719 C 47.26758575439453 3.924095153808594 42.6886100769043 3 37.966796875 3 M 37.966796875 0 C 58.93528366088867 0 75.93359375 16.99832153320312 75.93359375 37.966796875 C 75.93359375 58.93528366088867 58.93528366088867 75.93359375 37.966796875 75.93359375 C 16.99831008911133 75.93359375 0 58.93528366088867 0 37.966796875 C 0 16.99832153320312 16.99831008911133 0 37.966796875 0 Z" stroke="none" fill="#2e5bb6"/>
                        </g>
                      </g>
                    </g>
                  </g>
                </g>
              </g>
            </g>
          </g>
        </g>
      </g>
    </g>
    <g id="_01-Economic_Crisis" data-name="01-Economic Crisis" transform="translate(210 2625)">
      <circle id="Elipse_12347" data-name="Elipse 12347" cx="20.69" cy="20.69" r="20.69" transform="translate(4.821 4.821)" fill="#64b5f6"/>
      <path id="Trazado_1038851" data-name="Trazado 1038851" d="M52.1,26.617A20.616,20.616,0,0,1,31.482,47.233c-.665,0-1.332-.032-1.982-.1A20.617,20.617,0,0,0,29.5,6.1c.65-.063,1.316-.1,1.982-.1A20.616,20.616,0,0,1,52.1,26.617Z" transform="translate(-5.694 -0.828)" fill="#42a5f5"/>
      <circle id="Elipse_12348" data-name="Elipse 12348" cx="11.756" cy="11.756" r="11.756" transform="translate(2.94 2.94)" fill="#ffd54f"/>
      <path id="Trazado_1038852" data-name="Trazado 1038852" d="M29.48,14.894A11.9,11.9,0,0,1,17.586,26.788,11.577,11.577,0,0,1,16,26.677,11.889,11.889,0,0,0,16,3.111,11.577,11.577,0,0,1,17.586,3,11.9,11.9,0,0,1,29.48,14.894Z" transform="translate(-2.899 -0.207)" fill="#ffca28"/>
      <circle id="Elipse_12349" data-name="Elipse 12349" cx="8.934" cy="8.934" r="8.934" transform="translate(5.762 5.762)" fill="#ffb74d"/>
      <path id="Trazado_1038853" data-name="Trazado 1038853" d="M17.312,24.3a8.722,8.722,0,1,1,0-17.159,8.726,8.726,0,0,0,0,17.159Z" transform="translate(-1.039 -1.035)" fill="#ffa726"/>
      <path id="Trazado_1038854" data-name="Trazado 1038854" d="M19.163,49.308l.333,3.307A20.63,20.63,0,0,1,8.3,41.934l2.141-2.141,2.379.793L15.992,39l3.172,1.586.793,3.172,1.586,2.379Z" transform="translate(-1.304 -7.661)" fill="#81c784"/>
      <path id="Trazado_1038855" data-name="Trazado 1038855" d="M53.167,45.722H51.581a.793.793,0,0,0-.793.793V50.48l-8.394-8.394a1.586,1.586,0,0,0-2.243,0l-2.843,2.843L29.379,37,27,39.379l9.187,9.187a1.586,1.586,0,0,0,2.243,0l2.843-2.843,7.137,7.137H44.445a.793.793,0,0,0-.793.793v1.586a.793.793,0,0,0,.793.793h7.929a1.586,1.586,0,0,0,1.586-1.586V46.515A.793.793,0,0,0,53.167,45.722Z" transform="translate(-5.176 -7.247)" fill="#ef5350"/>
      <path id="Trazado_1038856" data-name="Trazado 1038856" d="M54.05,26.38l-3.156,2.363H47.722l-2.379.793L42.965,27.95l-.793-3.172H39.793L39,21.606l2.379-3.965-1.586-4.758L42.465,8.61A20.616,20.616,0,0,1,54.05,26.38Z" transform="translate(-7.661 -1.369)" fill="#81c784"/>
      <path id="Trazado_1038857" data-name="Trazado 1038857" d="M54.673,26.38l-3.156,2.363h-.856c.04-.523.063-1.055.063-1.586A20.56,20.56,0,0,0,42.01,10.331L43.088,8.61A20.616,20.616,0,0,1,54.673,26.38Z" transform="translate(-8.284 -1.369)" fill="#66bb6a"/>
      <path id="Trazado_1038858" data-name="Trazado 1038858" d="M52.685,45.722h-.793a.793.793,0,0,0-.793.793V50.48L42.7,42.086a1.586,1.586,0,0,0-2.243,0l-2.843,2.843L29.689,37,28.5,38.189l9.119,9.119,3.965-3.965,8.394,8.394a1.586,1.586,0,0,0,2.707-1.121Z" transform="translate(-5.487 -7.247)" fill="#e53935"/>
      <path id="Trazado_1038859" data-name="Trazado 1038859" d="M16.273,16.669a1.191,1.191,0,0,0-1.189-1.189h-.793a2.769,2.769,0,0,1-.4-5.511V9.136a.793.793,0,0,1,1.586,0v.793h1.586a.793.793,0,0,1,0,1.586H14.291a1.189,1.189,0,0,0,0,2.379h.793a2.769,2.769,0,0,1,.4,5.511v.833a.793.793,0,1,1-1.586,0v-.793H12.308a.793.793,0,1,1,0-1.586h2.775a1.191,1.191,0,0,0,1.189-1.189Zm9.3-11.5a.767.767,0,0,1,.815-.771A21.408,21.408,0,0,1,44.068,36.939a.793.793,0,0,1-1.353-.828A19.749,19.749,0,0,0,45.584,26.6l-1.876,1.4a.79.79,0,0,1-.475.159H40.19l-2.256.752a.793.793,0,0,1-.691-.093l-2.379-1.586a.794.794,0,0,1-.329-.467L33.892,24.2h-1.76a.793.793,0,0,1-.769-.6L30.57,20.43a.792.792,0,0,1,.089-.6l2.191-3.652L31.38,11.766a.793.793,0,0,1,.08-.671l2.2-3.519a19.982,19.982,0,0,0-7.312-1.6.792.792,0,0,1-.77-.815Zm9.523,3.1L33,11.618l1.468,4.4a.793.793,0,0,1-.072.659l-2.21,3.683.563,2.253h1.76a.793.793,0,0,1,.769.6L36,26.091l1.8,1.2,2.011-.67a.79.79,0,0,1,.251-.041h2.908l2.607-1.952A19.688,19.688,0,0,0,35.1,8.263Zm2.1,34.715a.793.793,0,0,1-.263,1.09A21.408,21.408,0,0,1,4.4,26.389a.793.793,0,1,1,1.585-.044,20.031,20.031,0,0,0,1.283,6.539l1.313-1.313a.793.793,0,0,1,.811-.192l2.067.689,2.878-1.439a.794.794,0,0,1,.709,0l3.172,1.586a.793.793,0,0,1,.415.517l.76,3.039,1.51,2.265a.793.793,0,0,1-.025.916l-2.193,2.924.255,2.536a20.006,20.006,0,0,0,6.854,1.2,19.773,19.773,0,0,0,10.323-2.9.794.794,0,0,1,1.09.262ZM17.27,43.72l-.2-1.994a.793.793,0,0,1,.155-.555l2.042-2.723-1.275-1.912a.8.8,0,0,1-.11-.247l-.7-2.818-2.491-1.246L11.87,33.634a.8.8,0,0,1-.606.043l-1.914-.638L7.937,34.452a19.665,19.665,0,0,0,9.333,9.268ZM2,14.687A12.687,12.687,0,1,1,14.687,27.374,12.687,12.687,0,0,1,2,14.687Zm1.586,0a11.1,11.1,0,1,0,11.1-11.1A11.1,11.1,0,0,0,3.586,14.687Zm1.586,0A9.515,9.515,0,1,1,14.687,24.2a9.515,9.515,0,0,1-9.515-9.515Zm1.586,0a7.929,7.929,0,1,0,7.929-7.929,7.929,7.929,0,0,0-7.929,7.929ZM49.577,39.268V47.2A2.381,2.381,0,0,1,47.2,49.577H39.268a1.587,1.587,0,0,1-1.586-1.586V46.4a1.587,1.587,0,0,1,1.586-1.586h2.05L36.1,39.6,33.814,41.88a2.381,2.381,0,0,1-3.364,0l-9.187-9.187a.792.792,0,0,1,0-1.121l2.379-2.379a.792.792,0,0,1,1.121,0l7.369,7.369,2.283-2.283a2.436,2.436,0,0,1,3.364,0l7.04,7.04v-2.05A1.587,1.587,0,0,1,46.4,37.682h1.586A1.587,1.587,0,0,1,49.577,39.268Zm-1.586,0H46.4v3.965a.793.793,0,0,1-1.354.561L36.657,35.4a.794.794,0,0,0-1.121,0l-2.843,2.843a.792.792,0,0,1-1.121,0L24.2,30.874l-1.258,1.258,8.626,8.626a.794.794,0,0,0,1.121,0l2.843-2.843a.792.792,0,0,1,1.121,0l7.136,7.136a.793.793,0,0,1-.561,1.354H39.268v1.586H47.2a.794.794,0,0,0,.793-.793Z"/>
    </g>
  </g>
</svg>
