<svg xmlns="http://www.w3.org/2000/svg" xmlns:xlink="http://www.w3.org/1999/xlink" width="93.934" height="93.934" viewBox="0 0 93.934 93.934">
  <defs>
    <filter id="Trazado_982547" x="0" y="0" width="93.934" height="93.934" filterUnits="userSpaceOnUse">
      <feOffset dy="3" input="SourceAlpha"/>
      <feGaussianBlur stdDeviation="3" result="blur"/>
      <feFlood flood-opacity="0.161"/>
      <feComposite operator="in" in2="blur"/>
      <feComposite in="SourceGraphic"/>
    </filter>
  </defs>
  <g id="Grupo_1179673" data-name="Grupo 1179673" transform="translate(-609 -2607)">
    <g id="Grupo_1173794" data-name="Grupo 1173794" transform="translate(419.967 621)">
      <g id="Grupo_1167337" data-name="Grupo 1167337" transform="translate(198.033 1992)">
        <g id="Grupo_1166720" data-name="Grupo 1166720">
          <g id="Grupo_1164305" data-name="Grupo 1164305">
            <g id="Grupo_1163948" data-name="Grupo 1163948">
              <g id="Grupo_1158168" data-name="Grupo 1158168">
                <g id="Grupo_1152576" data-name="Grupo 1152576">
                  <g id="Grupo_1148633" data-name="Grupo 1148633">
                    <g id="Grupo_1148525" data-name="Grupo 1148525">
                      <g transform="matrix(1, 0, 0, 1, -9, -6)" filter="url(#Trazado_982547)">
                        <g id="Trazado_982547-2" data-name="Trazado 982547" transform="translate(9 6)" fill="#e8edf7">
                          <path d="M 37.966796875 74.43359375 C 33.04315185546875 74.43359375 28.26757431030273 73.46962738037109 23.77274131774902 71.56847381591797 C 19.43047523498535 69.73184967041016 15.53040790557861 67.10224914550781 12.18087482452393 63.75271987915039 C 8.831341743469238 60.4031867980957 6.201741218566895 56.50312042236328 4.365118980407715 52.16086196899414 C 2.463963508605957 47.66601943969727 1.499996900558472 42.89044189453125 1.499996900558472 37.966796875 C 1.499996900558472 33.04315185546875 2.463963508605957 28.26757431030273 4.365118980407715 23.77274131774902 C 6.201741218566895 19.43047523498535 8.831341743469238 15.53040790557861 12.18087482452393 12.18087482452393 C 15.53040790557861 8.831341743469238 19.43047523498535 6.201741218566895 23.77274131774902 4.365118980407715 C 28.26757431030273 2.463963508605957 33.04315185546875 1.499996900558472 37.966796875 1.499996900558472 C 42.89044189453125 1.499996900558472 47.66601943969727 2.463963508605957 52.16086196899414 4.365118980407715 C 56.50312042236328 6.201741218566895 60.4031867980957 8.831341743469238 63.75271987915039 12.18087482452393 C 67.10224914550781 15.53040790557861 69.73184967041016 19.43047523498535 71.56847381591797 23.77274131774902 C 73.46962738037109 28.26757431030273 74.43359375 33.04315185546875 74.43359375 37.966796875 C 74.43359375 42.89044189453125 73.46962738037109 47.66601943969727 71.56847381591797 52.16086196899414 C 69.73184967041016 56.50313186645508 67.10224914550781 60.4031867980957 63.75271987915039 63.75271987915039 C 60.4031867980957 67.10224914550781 56.50313186645508 69.73184967041016 52.16086196899414 71.56847381591797 C 47.66601943969727 73.46962738037109 42.89044189453125 74.43359375 37.966796875 74.43359375 Z" stroke="none"/>
                          <path d="M 37.966796875 3 C 33.2449836730957 3 28.66600799560547 3.924095153808594 24.35705947875977 5.746635437011719 C 20.19359588623047 7.507637023925781 16.45379638671875 10.02928161621094 13.24153518676758 13.24153518676758 C 10.02927398681641 16.45379638671875 7.507621765136719 20.19359588623047 5.746635437011719 24.35705947875977 C 3.924095153808594 28.66600799560547 3 33.2449836730957 3 37.966796875 C 3 42.6886100769043 3.924095153808594 47.26758575439453 5.746635437011719 51.57653427124023 C 7.507621765136719 55.73999786376953 10.02927398681641 59.47979736328125 13.24153518676758 62.69205856323242 C 16.45379638671875 65.90431976318359 20.19359588623047 68.42597198486328 24.35705947875977 70.18695831298828 C 28.66600799560547 72.00949859619141 33.2449836730957 72.93359375 37.966796875 72.93359375 C 42.6886100769043 72.93359375 47.26758575439453 72.00949859619141 51.57653427124023 70.18695831298828 C 55.73999786376953 68.42597198486328 59.47979736328125 65.90431976318359 62.69205856323242 62.69205856323242 C 65.90431976318359 59.47979736328125 68.42597198486328 55.73999786376953 70.18695831298828 51.57653427124023 C 72.00949859619141 47.26758575439453 72.93359375 42.6886100769043 72.93359375 37.966796875 C 72.93359375 33.2449836730957 72.00949859619141 28.66600799560547 70.18695831298828 24.35705947875977 C 68.42597198486328 20.19359588623047 65.90431976318359 16.45379638671875 62.69205856323242 13.24153518676758 C 59.47979736328125 10.02928161621094 55.73999786376953 7.507637023925781 51.57653427124023 5.746635437011719 C 47.26758575439453 3.924095153808594 42.6886100769043 3 37.966796875 3 M 37.966796875 0 C 58.93528366088867 0 75.93359375 16.99832153320312 75.93359375 37.966796875 C 75.93359375 58.93528366088867 58.93528366088867 75.93359375 37.966796875 75.93359375 C 16.99831008911133 75.93359375 0 58.93528366088867 0 37.966796875 C 0 16.99832153320312 16.99831008911133 0 37.966796875 0 Z" stroke="none" fill="#2e5bb6"/>
                        </g>
                      </g>
                    </g>
                  </g>
                </g>
              </g>
            </g>
          </g>
        </g>
      </g>
    </g>
    <g id="consumption" transform="translate(629 2624)">
      <g id="Grupo_1179671" data-name="Grupo 1179671" transform="translate(1.832 1.832)">
        <g id="Grupo_1179661" data-name="Grupo 1179661" transform="translate(16.642 28.291)">
          <path id="Trazado_1038860" data-name="Trazado 1038860" d="M48.627,37.664v8.321a1.669,1.669,0,0,1-1.664,1.664H22V36Z" transform="translate(-22 -36)" fill="#ff826e"/>
        </g>
        <g id="Grupo_1179662" data-name="Grupo 1179662" transform="translate(16.642 24.963)">
          <path id="Trazado_1038861" data-name="Trazado 1038861" d="M48.627,33.664v3.328L22,35.328V32l3.328.208,4.993.316,3.328.2,4.993.316,3.328.208,4.993.316Z" transform="translate(-22 -32)" fill="#fc6e51"/>
        </g>
        <g id="Grupo_1179663" data-name="Grupo 1179663" transform="translate(36.612 16.642)">
          <path id="Trazado_1038862" data-name="Trazado 1038862" d="M50.993,22v9.885L46,31.569V22Z" transform="translate(-46 -22)" fill="#b4dd7f"/>
        </g>
        <g id="Grupo_1179664" data-name="Grupo 1179664" transform="translate(28.291 9.985)">
          <path id="Trazado_1038863" data-name="Trazado 1038863" d="M40.993,14V30.018L36,29.7V14Z" transform="translate(-36 -14)" fill="#b4dd7f"/>
        </g>
        <g id="Grupo_1179665" data-name="Grupo 1179665" transform="translate(19.97 13.313)">
          <path id="Trazado_1038864" data-name="Trazado 1038864" d="M30.993,18V30.173L26,29.857V18Z" transform="translate(-26 -18)" fill="#b4dd7f"/>
        </g>
        <g id="Grupo_1179666" data-name="Grupo 1179666" transform="translate(8.321 14.978)">
          <path id="Trazado_1038865" data-name="Trazado 1038865" d="M20.321,21.664v1.664H13.664A1.676,1.676,0,0,1,12,21.664,1.669,1.669,0,0,1,13.664,20h4.993A1.669,1.669,0,0,1,20.321,21.664Z" transform="translate(-12 -20)" fill="#ccd1d9"/>
        </g>
        <g id="Grupo_1179667" data-name="Grupo 1179667" transform="translate(37.444 43.269)">
          <circle id="Elipse_12350" data-name="Elipse 12350" cx="3.5" cy="3.5" r="3.5" transform="translate(-0.276 -0.101)" fill="#969faa"/>
        </g>
        <g id="Grupo_1179668" data-name="Grupo 1179668" transform="translate(16.642 43.269)">
          <circle id="Elipse_12351" data-name="Elipse 12351" cx="3.5" cy="3.5" r="3.5" transform="translate(-0.474 -0.101)" fill="#969faa"/>
        </g>
        <g id="Grupo_1179669" data-name="Grupo 1179669" transform="translate(0 24.963)">
          <circle id="Elipse_12352" data-name="Elipse 12352" cx="8" cy="8" r="8" transform="translate(0.168 0.205)" fill="#fcd770"/>
        </g>
        <g id="Grupo_1179670" data-name="Grupo 1179670" transform="translate(15.494)">
          <path id="Trazado_1038866" data-name="Trazado 1038866" d="M55.052,18.642v4.993H49.843a14.555,14.555,0,0,0,.092-4.427A14.148,14.148,0,0,0,25.9,11.153H21.768L20.62,9.372l3.528-3.528L26,6.76a17.291,17.291,0,0,1,6.757-2.8L33.418,2H38.41l.666,1.964a17.291,17.291,0,0,1,6.757,2.8l1.847-.915,3.528,3.528-.915,1.847a17.291,17.291,0,0,1,2.8,6.757Z" transform="translate(-20.62 -2)" fill="#fcd770"/>
        </g>
      </g>
      <g id="Grupo_1179672" data-name="Grupo 1179672" transform="translate(1 1)">
        <path id="Trazado_1038867" data-name="Trazado 1038867" d="M10.5,38.328H12.16a.833.833,0,0,1,.832.832h1.664a2.5,2.5,0,0,0-2.5-2.5V35H10.5v1.664a2.5,2.5,0,1,0,0,4.993H12.16a.832.832,0,1,1,0,1.664H10.5a.833.833,0,0,1-.832-.832H8a2.5,2.5,0,0,0,2.5,2.5v1.664H12.16V44.985a2.5,2.5,0,1,0,0-4.993H10.5a.832.832,0,1,1,0-1.664Z" transform="translate(-2.175 -6.709)"/>
        <ellipse id="Elipse_12353" data-name="Elipse 12353" cx="1" cy="0.5" rx="1" ry="0.5" transform="translate(20 47)"/>
        <path id="Trazado_1038868" data-name="Trazado 1038868" d="M43.437,46.368v-.084h-23.3a.833.833,0,0,1-.832-.832v-.832H43.437a2.5,2.5,0,0,0,2.5-2.5V29.693l-1.664-.1V19.657H37.612v9.516l-1.664-.1V13H29.291V28.652l-1.664-.1V16.328H20.97v11.8l-1.664-.1v-7.54a2.5,2.5,0,0,0-2.5-2.5H11.817a2.5,2.5,0,1,0,0,4.993h5.825v8.9a9.153,9.153,0,1,0,0,10.493v3.075a2.49,2.49,0,0,0,1.173,2.109,4.168,4.168,0,1,0,6.294.388H39.3a4.122,4.122,0,0,0-.853,2.5,4.16,4.16,0,1,0,4.993-4.076Zm.832-9.237H37.883l.827-2.894,5.558.347Zm-8.116,0h-8.73l-1.047-3.665,10.634.665Zm-.476,1.664-1.189,4.16h-5.4L27.9,38.795Zm-8.321,4.16h-8.05v-4.16h6.861Zm16.081,0H36.219l1.189-4.16h6.861v3.328A.833.833,0,0,1,43.437,42.955Zm-4.16-21.634H42.6v8.164l-3.328-.208Zm-8.321-6.657h3.328v14.3l-3.328-.208Zm-8.321,3.328h3.328V28.444l-3.328-.208ZM44.269,31.255v1.661l-24.963-1.56V29.7ZM11.817,21.321a.832.832,0,0,1,0-1.664H16.81a.833.833,0,0,1,.832.832v.832Zm7.489,11.7,5.307.332,1.079,3.775H19.306Zm-9.153,11.6a7.489,7.489,0,1,1,7.489-7.489A7.5,7.5,0,0,1,10.153,44.619ZM24.3,50.444a2.5,2.5,0,1,1-2.5-2.5A2.5,2.5,0,0,1,24.3,50.444ZM42.6,52.94a2.5,2.5,0,1,1,2.5-2.5A2.5,2.5,0,0,1,42.6,52.94Z" transform="translate(-1 -3.015)"/>
        <circle id="Elipse_12354" data-name="Elipse 12354" cx="0.5" cy="0.5" r="0.5" transform="translate(41 47)"/>
        <path id="Trazado_1038869" data-name="Trazado 1038869" d="M53.6,17.177a18.076,18.076,0,0,0-2.558-6.187l.969-1.955L47.631,4.661l-1.955.969A18.076,18.076,0,0,0,39.49,3.072L38.792,1H32.6l-.7,2.073a18.089,18.089,0,0,0-6.187,2.558l-1.953-.969L19.337,9.09,21.1,11.817h4.924l.244-.245a13.314,13.314,0,0,1,22.623,7.575,13.64,13.64,0,0,1-.086,4.174l-.174.978h7.037V17.876ZM54,22.634h-3.42a15.348,15.348,0,0,0-.044-3.705,14.978,14.978,0,0,0-25.2-8.776H22.006l-.542-.837L24.1,6.683l1.756.87.4-.279a16.452,16.452,0,0,1,6.435-2.66l.482-.088L33.8,2.664h3.8l.628,1.861.482.088a16.452,16.452,0,0,1,6.435,2.66l.4.279,1.756-.87,2.685,2.685-.87,1.756.279.4a16.46,16.46,0,0,1,2.66,6.435l.088.482L54,19.071Z" transform="translate(-4.079 -1)"/>
      </g>
    </g>
  </g>
</svg>
