<svg xmlns="http://www.w3.org/2000/svg" xmlns:xlink="http://www.w3.org/1999/xlink" width="93.934" height="93.934" viewBox="0 0 93.934 93.934">
  <defs>
    <filter id="Trazado_982547" x="0" y="0" width="93.934" height="93.934" filterUnits="userSpaceOnUse">
      <feOffset dy="3" input="SourceAlpha"/>
      <feGaussianBlur stdDeviation="3" result="blur"/>
      <feFlood flood-opacity="0.161"/>
      <feComposite operator="in" in2="blur"/>
      <feComposite in="SourceGraphic"/>
    </filter>
  </defs>
  <g id="Grupo_1179675" data-name="Grupo 1179675" transform="translate(-1029 -2596)">
    <g id="Grupo_1173795" data-name="Grupo 1173795" transform="translate(839.967 610)">
      <g id="Grupo_1167337" data-name="Grupo 1167337" transform="translate(198.033 1992)">
        <g id="Grupo_1166720" data-name="Grupo 1166720">
          <g id="Grupo_1164305" data-name="Grupo 1164305">
            <g id="Grupo_1163948" data-name="Grupo 1163948">
              <g id="Grupo_1158168" data-name="Grupo 1158168">
                <g id="Grupo_1152576" data-name="Grupo 1152576">
                  <g id="Grupo_1148633" data-name="Grupo 1148633">
                    <g id="Grupo_1148525" data-name="Grupo 1148525">
                      <g transform="matrix(1, 0, 0, 1, -9, -6)" filter="url(#Trazado_982547)">
                        <g id="Trazado_982547-2" data-name="Trazado 982547" transform="translate(9 6)" fill="#e8edf7">
                          <path d="M 37.966796875 74.43359375 C 33.04315185546875 74.43359375 28.26757431030273 73.46962738037109 23.77274131774902 71.56847381591797 C 19.43047523498535 69.73184967041016 15.53040790557861 67.10224914550781 12.18087482452393 63.75271987915039 C 8.831341743469238 60.4031867980957 6.201741218566895 56.50312042236328 4.365118980407715 52.16086196899414 C 2.463963508605957 47.66601943969727 1.499996900558472 42.89044189453125 1.499996900558472 37.966796875 C 1.499996900558472 33.04315185546875 2.463963508605957 28.26757431030273 4.365118980407715 23.77274131774902 C 6.201741218566895 19.43047523498535 8.831341743469238 15.53040790557861 12.18087482452393 12.18087482452393 C 15.53040790557861 8.831341743469238 19.43047523498535 6.201741218566895 23.77274131774902 4.365118980407715 C 28.26757431030273 2.463963508605957 33.04315185546875 1.499996900558472 37.966796875 1.499996900558472 C 42.89044189453125 1.499996900558472 47.66601943969727 2.463963508605957 52.16086196899414 4.365118980407715 C 56.50312042236328 6.201741218566895 60.4031867980957 8.831341743469238 63.75271987915039 12.18087482452393 C 67.10224914550781 15.53040790557861 69.73184967041016 19.43047523498535 71.56847381591797 23.77274131774902 C 73.46962738037109 28.26757431030273 74.43359375 33.04315185546875 74.43359375 37.966796875 C 74.43359375 42.89044189453125 73.46962738037109 47.66601943969727 71.56847381591797 52.16086196899414 C 69.73184967041016 56.50313186645508 67.10224914550781 60.4031867980957 63.75271987915039 63.75271987915039 C 60.4031867980957 67.10224914550781 56.50313186645508 69.73184967041016 52.16086196899414 71.56847381591797 C 47.66601943969727 73.46962738037109 42.89044189453125 74.43359375 37.966796875 74.43359375 Z" stroke="none"/>
                          <path d="M 37.966796875 3 C 33.2449836730957 3 28.66600799560547 3.924095153808594 24.35705947875977 5.746635437011719 C 20.19359588623047 7.507637023925781 16.45379638671875 10.02928161621094 13.24153518676758 13.24153518676758 C 10.02927398681641 16.45379638671875 7.507621765136719 20.19359588623047 5.746635437011719 24.35705947875977 C 3.924095153808594 28.66600799560547 3 33.2449836730957 3 37.966796875 C 3 42.6886100769043 3.924095153808594 47.26758575439453 5.746635437011719 51.57653427124023 C 7.507621765136719 55.73999786376953 10.02927398681641 59.47979736328125 13.24153518676758 62.69205856323242 C 16.45379638671875 65.90431976318359 20.19359588623047 68.42597198486328 24.35705947875977 70.18695831298828 C 28.66600799560547 72.00949859619141 33.2449836730957 72.93359375 37.966796875 72.93359375 C 42.6886100769043 72.93359375 47.26758575439453 72.00949859619141 51.57653427124023 70.18695831298828 C 55.73999786376953 68.42597198486328 59.47979736328125 65.90431976318359 62.69205856323242 62.69205856323242 C 65.90431976318359 59.47979736328125 68.42597198486328 55.73999786376953 70.18695831298828 51.57653427124023 C 72.00949859619141 47.26758575439453 72.93359375 42.6886100769043 72.93359375 37.966796875 C 72.93359375 33.2449836730957 72.00949859619141 28.66600799560547 70.18695831298828 24.35705947875977 C 68.42597198486328 20.19359588623047 65.90431976318359 16.45379638671875 62.69205856323242 13.24153518676758 C 59.47979736328125 10.02928161621094 55.73999786376953 7.507637023925781 51.57653427124023 5.746635437011719 C 47.26758575439453 3.924095153808594 42.6886100769043 3 37.966796875 3 M 37.966796875 0 C 58.93528366088867 0 75.93359375 16.99832153320312 75.93359375 37.966796875 C 75.93359375 58.93528366088867 58.93528366088867 75.93359375 37.966796875 75.93359375 C 16.99831008911133 75.93359375 0 58.93528366088867 0 37.966796875 C 0 16.99832153320312 16.99831008911133 0 37.966796875 0 Z" stroke="none" fill="#2e5bb6"/>
                        </g>
                      </g>
                    </g>
                  </g>
                </g>
              </g>
            </g>
          </g>
        </g>
      </g>
    </g>
    <g id="Page-1" transform="translate(1050 2614.002)">
      <g id="_019---Technology-Engineering" data-name="019---Technology-Engineering" transform="translate(0 -0.003)">
        <path id="Shape" d="M9.8,27.509a16.725,16.725,0,0,0,15.858,16.7.885.885,0,0,1,.855.88v7.046a.886.886,0,0,1-.929.88c-.493-.021-.982-.058-1.464-.113a1.568,1.568,0,0,1-1.355-1.319L22.208,48.2a20.818,20.818,0,0,1-7.266-3.019l-2.8,2.006a1.583,1.583,0,0,1-1.9-.018c-.607-.51-1.2-1.038-1.768-1.611a23.2,23.2,0,0,1-1.61-1.774,1.583,1.583,0,0,1-.018-1.9l2.006-2.8a20.858,20.858,0,0,1-3.017-7.271l-3.387-.555a1.59,1.59,0,0,1-1.319-1.4,21.78,21.78,0,0,1,0-4.75,1.568,1.568,0,0,1,1.319-1.356L5.838,23.2a20.858,20.858,0,0,1,3.017-7.271l-2.006-2.8a1.583,1.583,0,0,1,.018-1.9,20.159,20.159,0,0,1,1.61-1.772,23.223,23.223,0,0,1,1.768-1.611,1.583,1.583,0,0,1,1.9-.018l2.8,2.007a20.837,20.837,0,0,1,7.266-3.02l.554-3.388A1.588,1.588,0,0,1,24.117,2.1q.721-.072,1.466-.1a.885.885,0,0,1,.926.88V9.927a.885.885,0,0,1-.855.88A16.725,16.725,0,0,0,9.8,27.509Z" transform="translate(-0.121 -1.118)" fill="#02a9f4"/>
        <path id="Shape-2" data-name="Shape" d="M26.5,10.806a.885.885,0,0,0,.855-.88V2.88A.885.885,0,0,0,26.425,2q-.742.031-1.466.1a1.51,1.51,0,0,0-.51.16.869.869,0,0,1,.264.616V9.927a.885.885,0,0,1-.855.88,16.726,16.726,0,0,0,0,33.408.885.885,0,0,1,.855.88v7.045a.87.87,0,0,1-.264.616,1.5,1.5,0,0,0,.506.152c.482.055.968.088,1.464.113a.886.886,0,0,0,.933-.881V45.09a.885.885,0,0,0-.855-.88,16.726,16.726,0,0,1,0-33.408Z" transform="translate(-0.963 -1.118)" fill="#0377bc"/>
        <path id="Shape-3" data-name="Shape" d="M28.194,41.552a.808.808,0,0,1-.841.815,13.195,13.195,0,0,1,0-26.336.808.808,0,0,1,.841.815Z" transform="translate(-1.804 -2.807)" fill="#a4c400"/>
        <path id="Shape-4" data-name="Shape" d="M28.771,16.03a13.2,13.2,0,0,0-2,.295.82.82,0,0,1,.2.52V41.552a.82.82,0,0,1-.2.52,13.2,13.2,0,0,0,2,.295.808.808,0,0,0,.841-.815V16.844a.808.808,0,0,0-.841-.815Z" transform="translate(-3.222 -2.807)" fill="#90ac00"/>
        <g id="Grupo_1179674" data-name="Grupo 1179674" transform="translate(32.547 2.641)">
          <circle id="Oval" cx="1.5" cy="1.5" r="1.5" transform="translate(0.454 0.359)" fill="#60a917"/>
          <circle id="Oval-2" data-name="Oval" cx="1.5" cy="1.5" r="1.5" transform="translate(0.454 44.359)" fill="#60a917"/>
          <ellipse id="Oval-3" data-name="Oval" cx="2" cy="1.5" rx="2" ry="1.5" transform="translate(8.454 35.359)" fill="#60a917"/>
          <ellipse id="Oval-4" data-name="Oval" cx="2" cy="1.5" rx="2" ry="1.5" transform="translate(15.454 22.359)" fill="#60a917"/>
          <circle id="Oval-5" data-name="Oval" cx="2" cy="2" r="2" transform="translate(8.454 8.359)" fill="#60a917"/>
        </g>
        <path id="Shape-5" data-name="Shape" d="M2.187,22.772A2.463,2.463,0,0,0,.137,24.9a22.76,22.76,0,0,0-.005,4.943,2.479,2.479,0,0,0,2.057,2.168l2.8.458a21.621,21.621,0,0,0,2.686,6.472l-1.648,2.3a2.468,2.468,0,0,0,.039,2.981,23.539,23.539,0,0,0,1.671,1.838c.54.541,1.137,1.085,1.854,1.687a2.456,2.456,0,0,0,2.949.034l2.313-1.659a21.616,21.616,0,0,0,6.465,2.686l.459,2.8a2.463,2.463,0,0,0,2.124,2.05c.5.056,1.011.1,1.524.117H25.5a1.789,1.789,0,0,0,1.231-.493,1.744,1.744,0,0,0,.539-1.265V44.969a1.766,1.766,0,0,0-1.69-1.755,15.847,15.847,0,0,1,0-31.65A1.767,1.767,0,0,0,27.269,9.8V2.759A1.766,1.766,0,0,0,25.428,1c-.512.02-1.02.057-1.54.11a2.453,2.453,0,0,0-2.111,2.06l-.458,2.8a21.622,21.622,0,0,0-6.465,2.687L12.54,7A2.463,2.463,0,0,0,9.57,7.05,23.948,23.948,0,0,0,7.741,8.711a21.275,21.275,0,0,0-1.687,1.856,2.463,2.463,0,0,0-.042,2.959L7.67,15.842a21.607,21.607,0,0,0-2.682,6.471Zm4.392.491A19.927,19.927,0,0,1,9.469,16.3a.88.88,0,0,0-.02-1L7.443,12.5a.7.7,0,0,1-.013-.832,19.373,19.373,0,0,1,1.549-1.7,22.547,22.547,0,0,1,1.68-1.534.7.7,0,0,1,.853,0l2.8,2.007a.88.88,0,0,0,1,.018,19.891,19.891,0,0,1,6.961-2.891.88.88,0,0,0,.691-.72l.553-3.387a.7.7,0,0,1,.575-.6c.465-.048.937-.083,1.424-.1L25.49,9.806a17.6,17.6,0,0,0,.019,35.164L25.5,52.019c-.472-.019-.94-.056-1.4-.108a.691.691,0,0,1-.584-.588l-.554-3.389a.88.88,0,0,0-.691-.72,19.9,19.9,0,0,1-6.961-2.892.88.88,0,0,0-1,.019l-2.8,2.009a.691.691,0,0,1-.819.022c-.647-.544-1.207-1.056-1.712-1.56a22.2,22.2,0,0,1-1.533-1.678.713.713,0,0,1,0-.855l2-2.8a.88.88,0,0,0,.019-1,19.916,19.916,0,0,1-2.89-6.964.88.88,0,0,0-.719-.691l-3.387-.555a.713.713,0,0,1-.592-.625A20.8,20.8,0,0,1,1.887,25.1a.691.691,0,0,1,.587-.586l3.386-.554a.88.88,0,0,0,.72-.694Z" transform="translate(0 -0.997)"/>
        <path id="Shape-6" data-name="Shape" d="M51.824,24.989a2.639,2.639,0,0,0-2.477,1.759H28.953V24.11H43.027a2.639,2.639,0,0,0,2.639-2.639v-4.56a2.639,2.639,0,1,0-1.759,0v4.56a.88.88,0,0,1-.88.88H28.953V19.712h9.676a.88.88,0,0,0,0-1.759H28.953V16.193h5.278a2.639,2.639,0,0,0,2.639-2.639V8.114a2.639,2.639,0,1,0-1.759,0v5.44a.88.88,0,0,1-.88.88h-5.51a1.626,1.626,0,0,0-1.544-.851,14.074,14.074,0,0,0,0,28.092h.1a1.622,1.622,0,0,0,1.441-.851h5.51a.88.88,0,0,1,.88.88v5.44a2.639,2.639,0,1,0,1.759,0V41.7a2.639,2.639,0,0,0-2.639-2.639H28.953V37.3h9.676a.88.88,0,0,0,0-1.759H28.953V32.906H43.027a.88.88,0,0,1,.88.88v4.56a2.639,2.639,0,1,0,1.759,0v-4.56a2.639,2.639,0,0,0-2.639-2.639H28.953V28.508H49.346a2.635,2.635,0,1,0,2.477-3.519ZM44.786,13.554a.88.88,0,1,1-.88.88A.88.88,0,0,1,44.786,13.554Zm-8.8-8.8a.88.88,0,1,1-.88.88A.88.88,0,0,1,35.99,4.758Zm0,45.741a.88.88,0,1,1,.88-.88A.88.88,0,0,1,35.99,50.5Zm8.8-8.8a.88.88,0,1,1,.88-.88A.88.88,0,0,1,44.786,41.7ZM15.758,27.628A12.33,12.33,0,0,1,27.194,15.345V39.912A12.33,12.33,0,0,1,15.758,27.628Zm36.065.88a.88.88,0,1,1,.88-.88A.88.88,0,0,1,51.824,28.508Z" transform="translate(-1.684 -1.237)"/>
      </g>
    </g>
  </g>
</svg>
