<svg xmlns="http://www.w3.org/2000/svg" xmlns:xlink="http://www.w3.org/1999/xlink" width="93.934" height="93.934" viewBox="0 0 93.934 93.934">
  <defs>
    <filter id="Trazado_982547" x="0" y="0" width="93.934" height="93.934" filterUnits="userSpaceOnUse">
      <feOffset dy="3" input="SourceAlpha"/>
      <feGaussianBlur stdDeviation="3" result="blur"/>
      <feFlood flood-opacity="0.161"/>
      <feComposite operator="in" in2="blur"/>
      <feComposite in="SourceGraphic"/>
    </filter>
  </defs>
  <g id="Grupo_1179676" data-name="Grupo 1179676" transform="translate(-189 -2779)">
    <g id="Grupo_1174889" data-name="Grupo 1174889" transform="translate(-0.033 793)">
      <g id="Grupo_1167337" data-name="Grupo 1167337" transform="translate(198.033 1992)">
        <g id="Grupo_1166720" data-name="Grupo 1166720">
          <g id="Grupo_1164305" data-name="Grupo 1164305">
            <g id="Grupo_1163948" data-name="Grupo 1163948">
              <g id="Grupo_1158168" data-name="Grupo 1158168">
                <g id="Grupo_1152576" data-name="Grupo 1152576">
                  <g id="Grupo_1148633" data-name="Grupo 1148633">
                    <g id="Grupo_1148525" data-name="Grupo 1148525">
                      <g transform="matrix(1, 0, 0, 1, -9, -6)" filter="url(#Trazado_982547)">
                        <g id="Trazado_982547-2" data-name="Trazado 982547" transform="translate(9 6)" fill="#e8edf7">
                          <path d="M 37.966796875 74.43359375 C 33.04315185546875 74.43359375 28.26757431030273 73.46962738037109 23.77274131774902 71.56847381591797 C 19.43047523498535 69.73184967041016 15.53040790557861 67.10224914550781 12.18087482452393 63.75271987915039 C 8.831341743469238 60.4031867980957 6.201741218566895 56.50312042236328 4.365118980407715 52.16086196899414 C 2.463963508605957 47.66601943969727 1.499996900558472 42.89044189453125 1.499996900558472 37.966796875 C 1.499996900558472 33.04315185546875 2.463963508605957 28.26757431030273 4.365118980407715 23.77274131774902 C 6.201741218566895 19.43047523498535 8.831341743469238 15.53040790557861 12.18087482452393 12.18087482452393 C 15.53040790557861 8.831341743469238 19.43047523498535 6.201741218566895 23.77274131774902 4.365118980407715 C 28.26757431030273 2.463963508605957 33.04315185546875 1.499996900558472 37.966796875 1.499996900558472 C 42.89044189453125 1.499996900558472 47.66601943969727 2.463963508605957 52.16086196899414 4.365118980407715 C 56.50312042236328 6.201741218566895 60.4031867980957 8.831341743469238 63.75271987915039 12.18087482452393 C 67.10224914550781 15.53040790557861 69.73184967041016 19.43047523498535 71.56847381591797 23.77274131774902 C 73.46962738037109 28.26757431030273 74.43359375 33.04315185546875 74.43359375 37.966796875 C 74.43359375 42.89044189453125 73.46962738037109 47.66601943969727 71.56847381591797 52.16086196899414 C 69.73184967041016 56.50313186645508 67.10224914550781 60.4031867980957 63.75271987915039 63.75271987915039 C 60.4031867980957 67.10224914550781 56.50313186645508 69.73184967041016 52.16086196899414 71.56847381591797 C 47.66601943969727 73.46962738037109 42.89044189453125 74.43359375 37.966796875 74.43359375 Z" stroke="none"/>
                          <path d="M 37.966796875 3 C 33.2449836730957 3 28.66600799560547 3.924095153808594 24.35705947875977 5.746635437011719 C 20.19359588623047 7.507637023925781 16.45379638671875 10.02928161621094 13.24153518676758 13.24153518676758 C 10.02927398681641 16.45379638671875 7.507621765136719 20.19359588623047 5.746635437011719 24.35705947875977 C 3.924095153808594 28.66600799560547 3 33.2449836730957 3 37.966796875 C 3 42.6886100769043 3.924095153808594 47.26758575439453 5.746635437011719 51.57653427124023 C 7.507621765136719 55.73999786376953 10.02927398681641 59.47979736328125 13.24153518676758 62.69205856323242 C 16.45379638671875 65.90431976318359 20.19359588623047 68.42597198486328 24.35705947875977 70.18695831298828 C 28.66600799560547 72.00949859619141 33.2449836730957 72.93359375 37.966796875 72.93359375 C 42.6886100769043 72.93359375 47.26758575439453 72.00949859619141 51.57653427124023 70.18695831298828 C 55.73999786376953 68.42597198486328 59.47979736328125 65.90431976318359 62.69205856323242 62.69205856323242 C 65.90431976318359 59.47979736328125 68.42597198486328 55.73999786376953 70.18695831298828 51.57653427124023 C 72.00949859619141 47.26758575439453 72.93359375 42.6886100769043 72.93359375 37.966796875 C 72.93359375 33.2449836730957 72.00949859619141 28.66600799560547 70.18695831298828 24.35705947875977 C 68.42597198486328 20.19359588623047 65.90431976318359 16.45379638671875 62.69205856323242 13.24153518676758 C 59.47979736328125 10.02928161621094 55.73999786376953 7.507637023925781 51.57653427124023 5.746635437011719 C 47.26758575439453 3.924095153808594 42.6886100769043 3 37.966796875 3 M 37.966796875 0 C 58.93528366088867 0 75.93359375 16.99832153320312 75.93359375 37.966796875 C 75.93359375 58.93528366088867 58.93528366088867 75.93359375 37.966796875 75.93359375 C 16.99831008911133 75.93359375 0 58.93528366088867 0 37.966796875 C 0 16.99832153320312 16.99831008911133 0 37.966796875 0 Z" stroke="none" fill="#2e5bb6"/>
                        </g>
                      </g>
                    </g>
                  </g>
                </g>
              </g>
            </g>
          </g>
        </g>
      </g>
    </g>
    <g id="coupon" transform="translate(212.999 2800)">
      <path id="XMLID_2545_" d="M45.15,10,51.8,16.647a5.656,5.656,0,0,1,0,8L45.15,31.293H12.315A2.314,2.314,0,0,1,10,28.979V12.313A2.314,2.314,0,0,1,12.315,10Z" transform="translate(-9.111 -9.111)" fill="#f5737f"/>
      <path id="XMLID_2483_" d="M87.9,64.006h12.6l2.456,2.456v12.6L79.736,102.281a2.313,2.313,0,0,1-3.272,0L64.679,90.5a2.313,2.313,0,0,1,0-3.272Z" transform="translate(-58.309 -58.314)" fill="#91def5"/>
      <circle id="XMLID_2590_" cx="1.424" cy="1.424" r="1.424" transform="translate(37.938 9.496)" fill="#f5737f"/>
      <circle id="XMLID_2480_" cx="1.779" cy="1.779" r="1.779" transform="translate(14.193 13.289)" fill="#fff"/>
      <circle id="XMLID_2476_" cx="1.779" cy="1.779" r="1.779" transform="translate(6.686 6.225)" fill="#fff"/>
      <path id="XMLID_1468_" d="M44.675,6.92l.6-.6a.889.889,0,1,0-1.258-1.258l-.6.6-.6-.6a.889.889,0,0,0-.629-.26h-.978L36.669.26A.89.89,0,0,0,36.04,0H3.2A3.206,3.206,0,0,0,0,3.2V19.869a3.206,3.206,0,0,0,3.2,3.2h7.748l-5.21,5.21a3.2,3.2,0,0,0,0,4.53L17.526,44.6a3.2,3.2,0,0,0,4.53,0l8.826-8.826a.889.889,0,0,0-1.258-1.258L20.8,43.338a1.424,1.424,0,0,1-2.014,0L7,31.554A1.424,1.424,0,0,1,7,29.54L29.957,6.582H41.821l.339.339L40.1,8.977a2.669,2.669,0,1,0,1.258,1.258l2.056-2.056.339.339V20.38l-8.472,8.472a.889.889,0,1,0,1.258,1.258l8.733-8.733a.89.89,0,0,0,.26-.629V8.148a.89.89,0,0,0-.26-.629Zm-28.7,9.037a.89.89,0,1,1,.89-.89A.891.891,0,0,1,15.971,15.958ZM29.589,4.8a.889.889,0,0,0-.629.26L18.618,15.406a2.674,2.674,0,1,0-2.308,2.308L12.73,21.293H3.2A1.426,1.426,0,0,1,1.78,19.869V3.2A1.426,1.426,0,0,1,3.2,1.779H35.671L38.7,4.8Zm9.365,7.47a.889.889,0,1,1,.54-1.595.8.8,0,0,0,.166.166.888.888,0,0,1-.705,1.429Z" transform="translate(0 0)"/>
      <path id="XMLID_1527_" d="M271.95,226.076a.889.889,0,0,0,.629-.26l2.012-2.012a.889.889,0,0,0-1.258-1.258l-1.383,1.384-4.4-4.4a.889.889,0,0,0-1.258,1.258l5.031,5.031A.89.89,0,0,0,271.95,226.076Z" transform="translate(-242.371 -199.767)"/>
      <path id="XMLID_1528_" d="M325.251,153.848a.89.89,0,0,0-1.258,0l-1.132,1.132-1.258-1.258,1.132-1.132a.889.889,0,1,0-1.258-1.258l-1.132,1.132-1.258-1.258,1.132-1.132a.889.889,0,1,0-1.258-1.258l-1.761,1.761a.889.889,0,0,0,0,1.258l5.031,5.031a.889.889,0,0,0,1.258,0l1.761-1.761A.889.889,0,0,0,325.251,153.848Z" transform="translate(-288.754 -135.345)"/>
      <path id="XMLID_1531_" d="M226.513,271.012a.889.889,0,1,0,.807-1.585l-6.666-3.4a.889.889,0,0,0-1.2,1.2l3.4,6.666a.889.889,0,0,0,1.585-.807l-.273-.535,1.811-1.811Zm-3.2-.128-1.032-2.026,2.026,1.032Z" transform="translate(-199.852 -242.284)"/>
      <path id="XMLID_1532_" d="M157.26,320.411a.889.889,0,1,0,1.258,1.258l1.258-1.258a2.668,2.668,0,0,0-3.614-3.919.891.891,0,0,0-.094.08l-.066.066a.889.889,0,1,1-1.258-1.258L156,314.122a.889.889,0,0,0-1.258-1.258l-1.258,1.258a2.668,2.668,0,0,0,3.771,3.775l0,0a.889.889,0,1,1,1.258,1.258Z" transform="translate(-139.125 -284.804)"/>
      <path id="XMLID_1533_" d="M98.984,63.379a.889.889,0,0,0-1.212.337L92.036,73.877a.889.889,0,1,0,1.549.874L99.321,64.59A.889.889,0,0,0,98.984,63.379Z" transform="translate(-83.746 -57.638)"/>
      <path id="XMLID_1536_" d="M70.506,62.662a2.668,2.668,0,1,0-2.668,2.668A2.671,2.671,0,0,0,70.506,62.662Zm-3.558,0a.89.89,0,1,1,.89.89A.891.891,0,0,1,66.948,62.662Z" transform="translate(-59.372 -54.659)"/>
      <path id="XMLID_1537_" d="M362.88,353.319a.89.89,0,1,0,.629.261A.894.894,0,0,0,362.88,353.319Z" transform="translate(-329.797 -321.897)"/>
    </g>
  </g>
</svg>
