<svg xmlns="http://www.w3.org/2000/svg" xmlns:xlink="http://www.w3.org/1999/xlink" width="190" height="164.336" viewBox="0 0 190 164.336">
  <defs>
    <clipPath id="clip-path">
      <rect id="Rectángulo_415521" data-name="Rectángulo 415521" width="190" height="143" transform="translate(180 6233)" fill="#fff" stroke="#707070" stroke-width="1" opacity="0.4"/>
    </clipPath>
  </defs>
  <g id="Grupo_1179470" data-name="Grupo 1179470" transform="translate(-180 -6233)">
    <g id="Enmascarar_grupo_1098801" data-name="Enmascarar grupo 1098801" clip-path="url(#clip-path)">
      <g id="Grupo_1179469" data-name="Grupo 1179469">
        <g id="Grupo_1179467" data-name="Grupo 1179467" transform="translate(73.796 6207.024)">
          <g id="Grupo_1179089" data-name="Grupo 1179089" transform="translate(106.204 45.423)">
            <path id="Trazado_1038589" data-name="Trazado 1038589" d="M137.452,168.424c-16.6-4.973-41.255-31.932-26.96-54.222,12.091-18.853,31.789-13.414,50.841-26.9,10.915-7.726,12.9-15.118,20.773-23.159,11.765-12.02,26.764-19.533,43.413-18.651C323.969,47.054,340.61,213.6,137.452,168.424Z" transform="translate(-106.204 -45.423)" fill="#fdf4ee"/>
          </g>
        </g>
        <g id="Grupo_1179466" data-name="Grupo 1179466">
          <g id="Grupo_1178798" data-name="Grupo 1178798" transform="translate(145.235 6211.709)">
            <path id="Trazado_1038178" data-name="Trazado 1038178" d="M68.347,183l16.909-30.6c4.062-3.416,9.086-6.486,14.036-6.872,7.607-.593,15.582.772,22.9,2.816,1.649-3.33,3.207-6.727,4.957-10,.543-1.018,3.969-8.53,4.733-8.53q6.451,2.289,13.084,4.014c-2.11,7.239-4.856,14.293-7.026,21.553,6.775,3.615,13.878,7.533,17.825,14.12,2.779,4.638,3.7,10.2,3.521,15.608a66.47,66.47,0,0,1-1.643,11.746H76.517A9.334,9.334,0,0,1,68.347,183Z" transform="translate(0 -28.802)" fill="#ff946a"/>
            <g id="Grupo_1178778" data-name="Grupo 1178778" transform="translate(67.17 116.92)">
              <path id="Trazado_1038179" data-name="Trazado 1038179" d="M68.347,189.192l16.911-30.609c3.66-3.074,8.1-5.864,12.566-6.668a44.514,44.514,0,0,0,57.5,23.093c.147.226.3.448.438.68,2.779,4.638,3.7,10.2,3.521,15.608a66.469,66.469,0,0,1-1.643,11.746H76.517A9.336,9.336,0,0,1,68.347,189.192Z" transform="translate(-67.17 -151.915)" fill="#f2b64c"/>
            </g>
            <g id="Grupo_1178779" data-name="Grupo 1178779" transform="translate(93.485 116.919)">
              <path id="Trazado_1038180" data-name="Trazado 1038180" d="M112.649,169.353a49.392,49.392,0,0,1-8.926-16.073,19.373,19.373,0,0,1,4.34-1.366,44.514,44.514,0,0,0,57.5,23.093c.147.226.3.448.438.68a22.814,22.814,0,0,1,1.975,4.278,32.689,32.689,0,0,1-8.943,2.654,61.442,61.442,0,0,1-25.015-.639A41.969,41.969,0,0,1,112.649,169.353Z" transform="translate(-103.723 -151.914)" fill="#e2a23b"/>
            </g>
            <path id="Trazado_1038181" data-name="Trazado 1038181" d="M183.278,212.936a65.29,65.29,0,0,1,1.606-9.556,15.453,15.453,0,0,1,1.273-3.81,28.246,28.246,0,0,1-.721,3.934c-.476,2.415-.995,5.772-1.362,9.511-.114,1.165-.21,2.291-.3,3.373H183C183.074,215.283,183.162,214.13,183.278,212.936Z" transform="translate(-32.444 -48.342)" fill="#e2a23b"/>
            <path id="Trazado_1038182" data-name="Trazado 1038182" d="M92.4,192.58c2.22-6.53,4.346-12.4,5.949-16.626.8-2.113,1.467-3.816,1.949-4.985a9.3,9.3,0,0,1,.823-1.788,9.27,9.27,0,0,1-.531,1.895c-.392,1.2-.977,2.934-1.709,5.07l-5.723,16.692-5.069,15.039H87.44C88.713,203.721,90.425,198.383,92.4,192.58Z" transform="translate(-5.678 -39.831)" fill="#e2a23b"/>
            <g id="Grupo_1178780" data-name="Grupo 1178780" transform="translate(137.608 164.893)">
              <path id="Trazado_1038183" data-name="Trazado 1038183" d="M187.627,234.046c.911-2.887,1.22-5.914,2.433-8.709.4-.927.562-2.263,1.477-2.833.287-.179,2.831-.93,2.818-.957-.619-1.377-4.041-1.794-5.34-2.076a59.3,59.3,0,0,0-8.285-.82c-3.426-.256-7.114-.13-9.933,1.834a8.963,8.963,0,0,0-3.272,4.008c-.633,1.578-4,8.75-1.744,9.655,1.565.628,3.484-4.586,4.2-5.676a17.286,17.286,0,0,1,2.04-2.549q.675-.687,1.412-1.309c.307-.257,1.181-.685,1.345-1.025a45.849,45.849,0,0,0-3.993,12.855c-.106.685-.053,1.6.616,1.785,1.327.356,2.685-3.273,3.031-4.157,1.392-3.554,3.15-7.413,6.24-9.811a49.314,49.314,0,0,1-1.571,5.652,25.783,25.783,0,0,0-1.793,6.347c-.083.667.131,3.409,1.442,2.44a2.316,2.316,0,0,0,.563-.706,42.369,42.369,0,0,0,2.371-4.317,74.616,74.616,0,0,1,4.651-8.727,36.994,36.994,0,0,0-1.723,9.021c-.044.688-.007,1.5.567,1.883a1.366,1.366,0,0,0,1.623-.26A3.508,3.508,0,0,0,187.627,234.046Z" transform="translate(-165.013 -218.552)" fill="#ff946a"/>
            </g>
            <g id="Grupo_1178781" data-name="Grupo 1178781" transform="translate(86.499 165.431)">
              <path id="Trazado_1038184" data-name="Trazado 1038184" d="M99.689,234.793c-.911-2.887-1.22-5.914-2.433-8.709-.737-1.7-1.076-2.965-2.878-3.8-1.3-.6,1.315-1.343,1.635-1.449a17.25,17.25,0,0,1,4.457-1.069c2.039-.108,4.065-.21,6.114-.364,3.426-.256,7.114-.13,9.933,1.834a8.958,8.958,0,0,1,3.272,4.008,22.078,22.078,0,0,1,1.166,2.636,24.324,24.324,0,0,0,1.313,3.7c.359.826.381,3.517-.824,3.753a.718.718,0,0,1-.472-.114,4.336,4.336,0,0,1-1.564-1.88c-.721-1.354-1.232-2.839-2.074-4.121a17.24,17.24,0,0,0-2.04-2.549c-.45-.458-.92-.9-1.412-1.308-.307-.257-1.181-.685-1.345-1.025a45.852,45.852,0,0,1,3.993,12.855c.106.685.053,1.605-.616,1.785-.6.162-1.106-.456-1.425-.991-2.623-4.4-5.44-8.622-8.1-13.02.283,2.093,1.38,4.01,2.133,5.957a19.507,19.507,0,0,1,1.262,5.44c.051.623.4,4.287-1.22,3.088a2.317,2.317,0,0,1-.563-.706,42.364,42.364,0,0,1-2.371-4.317,74.615,74.615,0,0,0-4.651-8.727,36.993,36.993,0,0,1,1.723,9.021c.044.688.007,1.5-.567,1.883a1.366,1.366,0,0,1-1.623-.26A3.5,3.5,0,0,1,99.689,234.793Z" transform="translate(-94.019 -219.3)" fill="#ff946a"/>
            </g>
            <g id="Grupo_1178782" data-name="Grupo 1178782" transform="translate(125.038 101.004)" opacity="0.23">
              <path id="Trazado_1038185" data-name="Trazado 1038185" d="M161.99,150.5a45.4,45.4,0,0,1-14.437-8.017c.683-1.394,1.376-2.785,2.106-4.151.543-1.018,3.969-8.529,4.733-8.529q6.451,2.289,13.084,4.014C165.84,139.432,163.825,144.933,161.99,150.5Z" transform="translate(-147.553 -129.806)" fill="#ffa279"/>
            </g>
            <g id="Grupo_1178783" data-name="Grupo 1178783" transform="translate(162.813 77.853)">
              <path id="Trazado_1038186" data-name="Trazado 1038186" d="M205.284,98.175a4.228,4.228,0,0,1,5.159.919,7.46,7.46,0,0,1,1.716,5.274c-.115,5.96-5.611,12.98-12.135,11.16" transform="translate(-200.024 -97.648)" fill="#f28564"/>
            </g>
            <g id="Grupo_1178784" data-name="Grupo 1178784" transform="translate(167.408 81.677)">
              <path id="Trazado_1038187" data-name="Trazado 1038187" d="M206.448,113.157c-.109-.04.014-.685.212-1.726a27.722,27.722,0,0,1,1.024-4.067,8.481,8.481,0,0,1,2.335-3.587c.861-.724,1.559-.885,1.594-.8.059.114-.508.454-1.188,1.215a10.562,10.562,0,0,0-1.967,3.451c-.533,1.487-.877,2.921-1.236,3.934S206.552,113.195,206.448,113.157Z" transform="translate(-206.407 -102.96)" fill="#d67456"/>
            </g>
            <g id="Grupo_1178785" data-name="Grupo 1178785" transform="translate(73.743 26.973)">
              <path id="Trazado_1038188" data-name="Trazado 1038188" d="M135.522,41.294a15.538,15.538,0,0,0-7.356-10.81,25.437,25.437,0,0,0-12.883-3.5,37.739,37.739,0,0,0-20.255,5.3A15.887,15.887,0,0,0,89.4,37.374c-1.427,2.344-1.877,5.246-3.63,7.357-1.665,2-4.263,3-6.121,4.825-2.591,2.548-3.433,6.422-3.338,10.054.116,4.453,1.818,9.3,5.776,11.342,2.31,1.193,5.3,1.416,6.844,3.507,1.574,2.13.851,5.081.651,7.722A13.791,13.791,0,0,0,92.4,91.992a9.692,9.692,0,0,0,9.322,3.456c1.113-.256,2.293-.74,3.348-.3,1.169.484,1.627,1.856,2.341,2.9,1.642,2.4,4.957,3.183,7.817,2.634s5.381-2.168,7.823-3.754" transform="translate(-76.3 -26.973)" fill="#824e51"/>
            </g>
            <g id="Grupo_1178786" data-name="Grupo 1178786" transform="translate(117.089 47.225)">
              <path id="Trazado_1038189" data-name="Trazado 1038189" d="M146.69,112.87c-4.324-5.933-6.518-13.795-8.3-21.394-2.6-11.058-4.049-24.358,6.453-32.2,6.149-4.594,16.728-4.581,24.016-3.731,5.06.59,9.37,3.028,13.289,6.168,2.383,1.91,3.409,5.063,4.061,7.931a76.718,76.718,0,0,1,1.883,10.007,86.851,86.851,0,0,1-.915,21.692c-1.119,7.054-3.177,13.076-9.195,17.453-4.964,3.61-12.141,4.545-18.036,3.065A23.243,23.243,0,0,1,146.69,112.87Z" transform="translate(-136.51 -55.104)" fill="#ff946a"/>
            </g>
            <g id="Grupo_1178787" data-name="Grupo 1178787" transform="translate(108.397 80.622)">
              <path id="Trazado_1038190" data-name="Trazado 1038190" d="M136.187,103.182c-.012-.389-.367-.672-.706-.863-2-1.127-5.484-1.168-7.347.31a9.476,9.476,0,0,0-3.683,6.813,10.359,10.359,0,0,0,4.857,9.079,12.31,12.31,0,0,0,10.392,1.063" transform="translate(-124.437 -101.495)" fill="#ff946a"/>
            </g>
            <g id="Grupo_1178788" data-name="Grupo 1178788" transform="translate(141.448 90.51)">
              <path id="Trazado_1038191" data-name="Trazado 1038191" d="M170.894,120.255a11.813,11.813,0,0,1-.5-5.025,20.32,20.32,0,0,0,4.41,2.748,27.575,27.575,0,0,0,4.883,1.9c-1.727,1.682-3.719,3.82-6.414,2.769A4.532,4.532,0,0,1,170.894,120.255Z" transform="translate(-170.346 -115.23)" fill="#fff"/>
            </g>
            <g id="Grupo_1178789" data-name="Grupo 1178789" transform="translate(113.355 83.859)">
              <path id="Trazado_1038192" data-name="Trazado 1038192" d="M138.708,118.992c.014.05-.249.189-.769.31a4.436,4.436,0,0,1-2.286-.063,2.858,2.858,0,0,1-1.386-.94,2.686,2.686,0,0,1-.524-1.89,2.809,2.809,0,0,1,.993-1.935,5.352,5.352,0,0,1,.944-.543,1.347,1.347,0,0,0,.584-.541,2.527,2.527,0,0,0,.091-1.717,7.772,7.772,0,0,0-.677-1.682,10.036,10.036,0,0,0-1.878-2.5,4.95,4.95,0,0,0-1.719-1.161c-.463-.167-.754-.171-.757-.236-.007-.047.289-.159.837-.075a4.4,4.4,0,0,1,2.029,1.037,9.408,9.408,0,0,1,2.155,2.566,7.97,7.97,0,0,1,.8,1.854,3.235,3.235,0,0,1-.152,2.309,2.169,2.169,0,0,1-.921.867,5.207,5.207,0,0,0-.825.45,2.08,2.08,0,0,0-.742,1.383,2.025,2.025,0,0,0,.316,1.4,2.334,2.334,0,0,0,1.038.8,4.992,4.992,0,0,0,2.045.293C138.4,118.964,138.694,118.933,138.708,118.992Z" transform="translate(-131.324 -105.991)" fill="#d67456"/>
            </g>
            <g id="Grupo_1178790" data-name="Grupo 1178790" transform="translate(149.424 68.762)">
              <path id="Trazado_1038193" data-name="Trazado 1038193" d="M182.586,106.335c-.012-.069.338-.147.9-.413a5.1,5.1,0,0,0,1.938-1.672,3.313,3.313,0,0,0,.324-3.446,7.05,7.05,0,0,0-1.435-1.718,19.626,19.626,0,0,1-1.852-1.831,4.2,4.2,0,0,1-1.032-2.563,9.175,9.175,0,0,1,.36-2.451A31.376,31.376,0,0,1,183,88.361a11.532,11.532,0,0,1,1.675-3.34,30.694,30.694,0,0,1-1.125,3.533c-.341,1.086-.708,2.389-1.024,3.857a9.046,9.046,0,0,0-.293,2.247,3.436,3.436,0,0,0,.865,2.076c1.043,1.26,2.566,2.214,3.322,3.722a3.655,3.655,0,0,1,.315,2.322,4.291,4.291,0,0,1-.844,1.817,4.823,4.823,0,0,1-2.29,1.626C182.963,106.411,182.59,106.378,182.586,106.335Z" transform="translate(-181.426 -85.02)" fill="#d67456"/>
            </g>
            <g id="Grupo_1178791" data-name="Grupo 1178791" transform="translate(147.56 87.194)">
              <path id="Trazado_1038194" data-name="Trazado 1038194" d="M178.96,110.661c.191-.125.536.066.77.425s.269.751.078.875-.536-.066-.77-.425S178.769,110.786,178.96,110.661Z" transform="translate(-178.837 -110.623)" fill="#d67456"/>
            </g>
            <g id="Grupo_1178792" data-name="Grupo 1178792" transform="translate(158.286 76.311)">
              <path id="Trazado_1038195" data-name="Trazado 1038195" d="M194.156,102.374c-.343-.032-.475-1.577-.4-3.456s.334-3.407.678-3.412.638,1.546.559,3.462S194.495,102.406,194.156,102.374Z" transform="translate(-193.735 -95.506)" fill="#d67456"/>
            </g>
            <g id="Grupo_1178793" data-name="Grupo 1178793" transform="translate(138.479 75.801)">
              <path id="Trazado_1038196" data-name="Trazado 1038196" d="M166.646,101.543c-.341-.024-.51-1.554-.378-3.416s.516-3.353.857-3.328.51,1.554.378,3.416S166.988,101.567,166.646,101.543Z" transform="translate(-166.223 -94.799)" fill="#d67456"/>
            </g>
            <g id="Grupo_1178794" data-name="Grupo 1178794" transform="translate(156.951 63.135)">
              <path id="Trazado_1038197" data-name="Trazado 1038197" d="M192.213,80.738c-.553-1.249-.525-2.548.938-3.2,2.8-1.255,7.291,1.32,8.948,3.492,1.289,1.689.515,3.008-1.464,3.23C197.989,84.551,193.358,83.327,192.213,80.738Z" transform="translate(-191.881 -77.204)" fill="#d67456"/>
            </g>
            <g id="Grupo_1178795" data-name="Grupo 1178795" transform="translate(134.18 63.267)">
              <path id="Trazado_1038198" data-name="Trazado 1038198" d="M170.847,81.048c.612-1.221.646-2.52-.783-3.245-2.732-1.387-7.346.97-9.1,3.06-1.368,1.626-.659,2.98,1.307,3.3C164.9,84.58,169.58,83.579,170.847,81.048Z" transform="translate(-160.251 -77.387)" fill="#d67456"/>
            </g>
            <g id="Grupo_1178796" data-name="Grupo 1178796" transform="translate(110.203 40.133)">
              <path id="Trazado_1038199" data-name="Trazado 1038199" d="M127.573,62.317c.98-4.779,4.153-10.141,9.681-9.288,3.728-12.65,18.033-6.223,27.074-5.549,5.664.422,11.454-1.574,16.97-.167,4.857,1.24,8.888,5.1,11.077,9.781a27.72,27.72,0,0,1,1.983,15.256A1.98,1.98,0,0,1,194,73.406a1.85,1.85,0,0,1-.929.484A55.806,55.806,0,0,1,182.347,75.9a73.212,73.212,0,0,0-5.219-8.061,27.36,27.36,0,0,0,.886,8.136c.3,1.137-14.2,2.667-15.553,2.764-1.214-2.813-1.165-5.65-3.172-8.024l-1.4,6.73a3.882,3.882,0,0,1-.7,1.8,3.543,3.543,0,0,1-1.818.923,151.671,151.671,0,0,1-19.765,4.09c-4.618.639-5.963-.649-7.285-5.27a36.553,36.553,0,0,1-.848-16.109C127.5,62.69,127.535,62.5,127.573,62.317Z" transform="translate(-126.945 -45.252)" fill="#955d5e"/>
            </g>
            <g id="Grupo_1178797" data-name="Grupo 1178797" transform="translate(110.075 50.682)">
              <path id="Trazado_1038200" data-name="Trazado 1038200" d="M145.8,76.912a17.982,17.982,0,0,1-9.138,16.028,4.168,4.168,0,0,1-1.449.546,4.094,4.094,0,0,1-3.2-1.51c-4.463-4.479-5.4-11.361-5.235-17.682.125-4.918.487-12.782,6.437-14.389" transform="translate(-126.768 -59.906)" fill="#955d5e"/>
            </g>
            <path id="Trazado_1038201" data-name="Trazado 1038201" d="M190.191,118.952a7.385,7.385,0,0,1,12.511-5.32c-.148,1.176-.307,2.351-.493,3.52a37.067,37.067,0,0,1-2.357,8.83,7.386,7.386,0,0,1-9.661-7.03Z" transform="translate(-34.457 -23.692)" fill="#ffa279" opacity="0.23"/>
            <circle id="Elipse_12288" data-name="Elipse 12288" cx="7.281" cy="7.281" r="7.281" transform="translate(123.139 84.549) rotate(-9.189)" fill="#ffa279" opacity="0.23"/>
          </g>
          <g id="Grupo_1179413" data-name="Grupo 1179413" transform="translate(-132.702 6069.681)">
            <path id="Trazado_1038649" data-name="Trazado 1038649" d="M493.159,293.355H448.918a3.542,3.542,0,0,1-3.542-3.542V260.062a3.542,3.542,0,0,1,3.542-3.542H493.16a3.542,3.542,0,0,1,3.542,3.542v29.751A3.542,3.542,0,0,1,493.159,293.355Z" fill="#8ed1d0"/>
            <g id="Grupo_1179412" data-name="Grupo 1179412" transform="translate(449.844 263.363)">
              <g id="Grupo_1179404" data-name="Grupo 1179404" transform="translate(3.921)">
                <g id="Grupo_1179401" data-name="Grupo 1179401" transform="translate(0 0.478)">
                  <path id="Trazado_1038650" data-name="Trazado 1038650" d="M471.212,293.951l-.359-.552,11.974-7.786,4.905,3.058,15.735-9.921.351.557-16.085,10.142-4.9-3.055Z" transform="translate(-470.853 -278.75)" fill="#5e3b3b"/>
                </g>
                <g id="Grupo_1179403" data-name="Grupo 1179403" transform="translate(32.021)">
                  <g id="Grupo_1179402" data-name="Grupo 1179402">
                    <path id="Trazado_1038651" data-name="Trazado 1038651" d="M568.089,277.376l1.968-.077-.917,1.743Z" transform="translate(-568.089 -277.299)" fill="#5e3b3b"/>
                  </g>
                </g>
              </g>
              <g id="Grupo_1179410" data-name="Grupo 1179410" transform="translate(3.852 6.096)">
                <g id="Grupo_1179405" data-name="Grupo 1179405" transform="translate(0 12.42)">
                  <rect id="Rectángulo_415516" data-name="Rectángulo 415516" width="4.047" height="4.633" fill="#ff6b57"/>
                </g>
                <g id="Grupo_1179406" data-name="Grupo 1179406" transform="translate(7.66 7.338)">
                  <rect id="Rectángulo_415517" data-name="Rectángulo 415517" width="4.047" height="9.715" fill="#fefefe"/>
                </g>
                <g id="Grupo_1179407" data-name="Grupo 1179407" transform="translate(15.319 10.213)">
                  <rect id="Rectángulo_415518" data-name="Rectángulo 415518" width="4.047" height="6.841" fill="#ff6b57"/>
                </g>
                <g id="Grupo_1179408" data-name="Grupo 1179408" transform="translate(22.978 5.519)">
                  <rect id="Rectángulo_415519" data-name="Rectángulo 415519" width="4.047" height="11.535" fill="#fefefe"/>
                </g>
                <g id="Grupo_1179409" data-name="Grupo 1179409" transform="translate(30.637)">
                  <rect id="Rectángulo_415520" data-name="Rectángulo 415520" width="4.047" height="17.054" fill="#fefefe"/>
                </g>
              </g>
              <g id="Grupo_1179411" data-name="Grupo 1179411" transform="translate(0 2.13)">
                <path id="Trazado_1038652" data-name="Trazado 1038652" d="M501,304.908H458.945V283.766h.659V304.25H501Z" transform="translate(-458.945 -283.766)" fill="#5e3b3b"/>
              </g>
            </g>
          </g>
        </g>
      </g>
    </g>
    <g id="Grupo_1178778-2" data-name="Grupo 1178778" transform="translate(212.405 6328.436)">
      <path id="Trazado_1038179-2" data-name="Trazado 1038179" d="M68.347,189.192l16.911-30.609c3.66-3.074,8.1-5.864,12.566-6.668a44.514,44.514,0,0,0,57.5,23.093c.147.226.3.448.438.68,2.779,4.638,3.7,10.2,3.521,15.608a66.469,66.469,0,0,1-1.643,11.746H76.517A9.336,9.336,0,0,1,68.347,189.192Z" transform="translate(-67.17 -151.915)" fill="#f2b64c"/>
    </g>
    <g id="Grupo_1178779-2" data-name="Grupo 1178779" transform="translate(238.72 6328.436)">
      <path id="Trazado_1038180-2" data-name="Trazado 1038180" d="M112.649,169.353a49.392,49.392,0,0,1-8.926-16.073,19.373,19.373,0,0,1,4.34-1.366,44.514,44.514,0,0,0,57.5,23.093c.147.226.3.448.438.68a22.814,22.814,0,0,1,1.975,4.278,32.689,32.689,0,0,1-8.943,2.654,61.442,61.442,0,0,1-25.015-.639A41.969,41.969,0,0,1,112.649,169.353Z" transform="translate(-103.723 -151.914)" fill="#e2a23b"/>
    </g>
    <g id="Grupo_1178781-2" data-name="Grupo 1178781" transform="translate(231.734 6376.948)">
      <path id="Trazado_1038184-2" data-name="Trazado 1038184" d="M99.689,234.793c-.911-2.887-1.22-5.914-2.433-8.709-.737-1.7-1.076-2.965-2.878-3.8-1.3-.6,1.315-1.343,1.635-1.449a17.25,17.25,0,0,1,4.457-1.069c2.039-.108,4.065-.21,6.114-.364,3.426-.256,7.114-.13,9.933,1.834a8.958,8.958,0,0,1,3.272,4.008,22.078,22.078,0,0,1,1.166,2.636,24.324,24.324,0,0,0,1.313,3.7c.359.826.381,3.517-.824,3.753a.718.718,0,0,1-.472-.114,4.336,4.336,0,0,1-1.564-1.88c-.721-1.354-1.232-2.839-2.074-4.121a17.24,17.24,0,0,0-2.04-2.549c-.45-.458-.92-.9-1.412-1.308-.307-.257-1.181-.685-1.345-1.025a45.852,45.852,0,0,1,3.993,12.855c.106.685.053,1.605-.616,1.785-.6.162-1.106-.456-1.425-.991-2.623-4.4-5.44-8.622-8.1-13.02.283,2.093,1.38,4.01,2.133,5.957a19.507,19.507,0,0,1,1.262,5.44c.051.623.4,4.287-1.22,3.088a2.317,2.317,0,0,1-.563-.706,42.364,42.364,0,0,1-2.371-4.317,74.615,74.615,0,0,0-4.651-8.727,36.993,36.993,0,0,1,1.723,9.021c.044.688.007,1.5-.567,1.883a1.366,1.366,0,0,1-1.623-.26A3.5,3.5,0,0,1,99.689,234.793Z" transform="translate(-94.019 -219.3)" fill="#ff946a"/>
    </g>
    <g id="Grupo_1178780-2" data-name="Grupo 1178780" transform="translate(-203.157 6476.919)">
      <path id="Trazado_1038183-2" data-name="Trazado 1038183" d="M187.627,234.046c.911-2.887,1.22-5.914,2.433-8.709.4-.927.562-2.263,1.477-2.833.287-.179,2.831-.93,2.818-.957-.619-1.377-4.041-1.794-5.34-2.076a59.3,59.3,0,0,0-8.285-.82c-3.426-.256-7.114-.13-9.933,1.834a8.963,8.963,0,0,0-3.272,4.008c-.633,1.578-4,8.75-1.744,9.655,1.565.628,3.484-4.586,4.2-5.676a17.286,17.286,0,0,1,2.04-2.549q.675-.687,1.412-1.309c.307-.257,1.181-.685,1.345-1.025a45.849,45.849,0,0,0-3.993,12.855c-.106.685-.053,1.6.616,1.785,1.327.356,2.685-3.273,3.031-4.157,1.392-3.554,3.15-7.413,6.24-9.811a49.314,49.314,0,0,1-1.571,5.652,25.783,25.783,0,0,0-1.793,6.347c-.083.667.131,3.409,1.442,2.44a2.316,2.316,0,0,0,.563-.706,42.369,42.369,0,0,0,2.371-4.317,74.616,74.616,0,0,1,4.651-8.727,36.994,36.994,0,0,0-1.723,9.021c-.044.688-.007,1.5.567,1.883a1.366,1.366,0,0,0,1.623-.26A3.508,3.508,0,0,0,187.627,234.046Z" transform="translate(319.987 -322.063)" fill="#ff946a"/>
    </g>
  </g>
</svg>
