<svg xmlns="http://www.w3.org/2000/svg" xmlns:xlink="http://www.w3.org/1999/xlink" width="295" height="164.923" viewBox="0 0 295 164.923">
  <defs>
    <clipPath id="clip-path">
      <rect id="Rectángulo_415522" data-name="Rectángulo 415522" width="295" height="150" transform="translate(705 6376)" fill="#fff" stroke="#707070" stroke-width="1"/>
    </clipPath>
  </defs>
  <g id="Grupo_1179472" data-name="Grupo 1179472" transform="translate(-705 -6376)">
    <g id="Enmascarar_grupo_1098802" data-name="Enmascarar grupo 1098802" clip-path="url(#clip-path)">
      <g id="Grupo_1179471" data-name="Grupo 1179471">
        <g id="Grupo_1179090" data-name="Grupo 1179090" transform="translate(663 6337.654)">
          <g id="Grupo_1179089" data-name="Grupo 1179089" transform="translate(106.204 45.423)">
            <path id="Trazado_1038589" data-name="Trazado 1038589" d="M145.176,198.829c-20.7-6.2-51.453-39.826-33.624-67.626,15.079-23.513,39.648-16.73,63.409-33.548,13.613-9.635,16.093-18.856,25.907-28.883,14.673-14.991,33.38-24.362,54.144-23.261C377.8,47.457,398.554,255.167,145.176,198.829Z" transform="translate(-106.204 -45.423)" fill="#fdf4ee"/>
          </g>
        </g>
        <g id="Grupo_1179465" data-name="Grupo 1179465">
          <g id="Grupo_1178912" data-name="Grupo 1178912" transform="translate(361.451 6126.349)">
            <path id="Trazado_1038284" data-name="Trazado 1038284" d="M620.38,354.447c-8.805,1.007-19.754,2.284-19.754,2.284l-9.965-16.338-10.681,5.62,4.18,15.034s-22.495,3.191-25.2,9.619c-2.144,5.1-16.9,34.2-22.924,46.047a10.8,10.8,0,0,0,10.569,8.593H555.7l16.834-20.794,9.609,20.794H631a10.8,10.8,0,0,0,10.8-10.8V370.393C635.807,363.562,626.144,353.787,620.38,354.447Z" transform="translate(-3.903 -23.771)" fill="#ea8465"/>
            <g id="Grupo_1178887" data-name="Grupo 1178887" transform="translate(522.298 256.729)">
              <path id="Trazado_1038285" data-name="Trazado 1038285" d="M634.261,345.8a23.3,23.3,0,0,0-1.817-33.59c-4.04-3.475-9.168-5.474-13.049-9.148-4.551-4.306-3.388-9.395-3.123-15.1a37.788,37.788,0,0,0-1.209-11.2c-2.145-8.309-7.508-14.8-15.646-17.514a19.265,19.265,0,0,0-4.713-1.09c-1.211-.085-2.43.029-3.64-.062-6.51-.492-12.02-2.284-18.639-.774a25.5,25.5,0,0,0-14.835,9.183c-2.729,3.637-2.568,8.639-5.772,12.061a21.12,21.12,0,0,1-5.544,3.731c-6.843,3.733-13.76,9.4-14.407,17.17-.44,5.291,2.18,10.241,3.936,15.12,1.118,3.106,2.189,6.746.421,9.535-.988,1.558-2.675,2.5-4.182,3.561-9.246,6.53-11.586,18.466-8.394,28.845a29.55,29.55,0,0,0,17.6,18.687" transform="translate(-522.298 -256.729)" fill="#f2b64c"/>
            </g>
            <g id="Grupo_1178888" data-name="Grupo 1178888" transform="translate(587.449 304.602)" opacity="0.23">
              <path id="Trazado_1038286" data-name="Trazado 1038286" d="M636.3,323.6c-2.136,1.921-1.833,5.575-.032,7.815s4.649,3.342,7.427,4.074,5.675,1.21,8.194,2.593c6.122,3.36,8.4,11.56,6.5,18.279-1.329,4.7-4.92,9.19-9.77,9.765-3.235.384-6.381-1-9.43-2.144a72.218,72.218,0,0,0-9.982-2.955,29.382,29.382,0,0,1-6.271-1.767c-4.107-1.925-6.849-6.043-8.167-10.383s-1.4-8.945-1.468-13.48" transform="translate(-613.306 -323.601)" fill="#f2b64c"/>
            </g>
            <path id="Trazado_1038287" data-name="Trazado 1038287" d="M620.38,360.012c-3.776.432-7.945.913-11.477,1.323-2.835,5.882-8.572,9.974-14.177,13.7a8.085,8.085,0,0,1-8.034.283c-5.751.2-10.123-2.508-14.586-6.179-5.35,1.584-11.935,4.213-13.146,7.091-2.144,5.1-16.9,34.2-22.924,46.047a10.8,10.8,0,0,0,10.569,8.593H555.7l16.834-20.794,9.609,20.794H631a10.8,10.8,0,0,0,10.8-10.8V375.958C635.806,369.127,626.144,359.352,620.38,360.012Z" transform="translate(-3.903 -29.335)" fill="#af4741"/>
            <g id="Grupo_1178889" data-name="Grupo 1178889" transform="translate(530.587 261.919)" opacity="0.23">
              <path id="Trazado_1038288" data-name="Trazado 1038288" d="M583.321,264.606a15.981,15.981,0,0,0-13.315,2.162,21.456,21.456,0,0,0-8.172,10.987c-.745,2.166-1.221,4.472-2.5,6.374-4.869,7.253-17.586,6.337-15.9,17.705.6,4.073,2.6,6.862,4.022,10.46,4.834,12.249-8.536,20.643-12.356,30.838a20.471,20.471,0,0,0,1.251,16.712c3.184,5.853,9.168,8.513,14.665,11.758,4.363,2.576,8.285,4.2,13.3,2.381,6.775-2.458,12.14-6.956,19.383-8.505,2.376-.508,4.843-.823,6.995-1.951,4.019-2.106,6.161-6.637,7.191-11.056,3.047-13.068-1.379-26.9-8.487-38.286" transform="translate(-533.876 -263.98)" fill="#f2b64c"/>
            </g>
            <path id="Trazado_1038289" data-name="Trazado 1038289" d="M622.518,407.477s8.063-32.2,9.589-52.734c-8.221.944-17.165,1.988-17.165,1.988l-9.965-16.338-10.681,5.62,4.18,15.034a109.877,109.877,0,0,0-12.054,2.529C592.354,372.514,611.652,400.8,622.518,407.477Z" transform="translate(-18.219 -23.77)" fill="#ea8465"/>
            <g id="Grupo_1178890" data-name="Grupo 1178890" transform="translate(568.203 330.973)">
              <path id="Trazado_1038290" data-name="Trazado 1038290" d="M620.933,361.73a20.007,20.007,0,0,1-3.465,5.426,17.356,17.356,0,0,1-13.8,5.814,14.771,14.771,0,0,1-10.279-5.333c-2.037.407-4.484.949-6.974,1.634,5.933,8.937,25.231,37.228,36.1,43.9,0,0,8.063-32.2,9.589-52.734C628.2,360.888,624.129,361.359,620.933,361.73Z" transform="translate(-586.421 -360.439)" fill="#fff"/>
            </g>
            <g id="Grupo_1178891" data-name="Grupo 1178891" transform="translate(570.108 331.651)">
              <path id="Trazado_1038291" data-name="Trazado 1038291" d="M621.689,362a20.006,20.006,0,0,1-3.465,5.426,17.357,17.357,0,0,1-13.8,5.814,14.772,14.772,0,0,1-10.279-5.333c-1.513.3-3.254.68-5.068,1.135a19.5,19.5,0,0,0,12.175,8.329,22.02,22.02,0,0,0,18.816-5.308,25.068,25.068,0,0,0,6.913-10.676Z" transform="translate(-589.082 -361.385)" fill="#c35449"/>
            </g>
            <path id="Trazado_1038292" data-name="Trazado 1038292" d="M639.817,439.293c-.723-1.659-1.377-2.974-1.865-3.861a5.494,5.494,0,0,0-.848-1.329c-.1.056.893,2.05,2.193,5.406,1.231,3.183,2.8,7.586,4.638,12.422h.849C642.9,446.985,641.211,442.51,639.817,439.293Z" transform="translate(-32.616 -50.394)" fill="#8c3533"/>
            <path id="Trazado_1038293" data-name="Trazado 1038293" d="M678.493,428.384V426.51c-1.3-3.4-2.777-7.3-4.318-11.44-2.5-6.719-4.688-12.826-6.272-17.249l-1.9-5.232a10.107,10.107,0,0,0-.79-1.888,10.127,10.127,0,0,0,.5,1.986c.367,1.263.934,3.08,1.659,5.315,1.45,4.473,3.561,10.617,6.059,17.344C675.225,420.176,676.974,424.642,678.493,428.384Z" transform="translate(-40.603 -38.064)" fill="#8c3533"/>
            <g id="Grupo_1178892" data-name="Grupo 1178892" transform="translate(562.119 367.119)">
              <path id="Trazado_1038294" data-name="Trazado 1038294" d="M588.073,432.487c.2-.093-1.909-4.995-4.709-10.947s-5.229-10.7-5.428-10.609,1.909,4.995,4.709,10.947S587.874,432.581,588.073,432.487Z" transform="translate(-577.923 -410.93)" fill="#8c3533"/>
            </g>
            <path id="Trazado_1038295" data-name="Trazado 1038295" d="M664.21,422.24l-18.1,5.95.722,2.84,18.5-6.051Z" transform="translate(-35.177 -47.024)" fill="#8c3533"/>
            <g id="Grupo_1178893" data-name="Grupo 1178893" transform="translate(598.188 386.541)">
              <path id="Trazado_1038296" data-name="Trazado 1038296" d="M630.027,441.5h.123a1.721,1.721,0,1,0,0-3.443h-.123a1.721,1.721,0,0,0,0,3.443Z" transform="translate(-628.306 -438.06)" fill="#f2b64c"/>
            </g>
            <g id="Grupo_1178894" data-name="Grupo 1178894" transform="translate(601.946 396.785)">
              <path id="Trazado_1038297" data-name="Trazado 1038297" d="M635.221,455.812a1.722,1.722,0,0,0,0-3.443,1.722,1.722,0,0,0,0,3.443Z" transform="translate(-633.556 -452.369)" fill="#f2b64c"/>
            </g>
            <g id="Grupo_1178895" data-name="Grupo 1178895" transform="translate(576.077 316.623)" opacity="0.12">
              <path id="Trazado_1038298" data-name="Trazado 1038298" d="M615.095,351.859,608.1,340.394l-10.681,5.62,2.839,10.214q1.716-.237,3.409-.594A59.192,59.192,0,0,0,615.095,351.859Z" transform="translate(-597.421 -340.394)" fill="#ea8465"/>
            </g>
            <g id="Grupo_1178896" data-name="Grupo 1178896" transform="translate(550.24 289.746)">
              <path id="Trazado_1038299" data-name="Trazado 1038299" d="M570.065,303.755a5.293,5.293,0,0,0-5.935.008,7.333,7.333,0,0,0-2.715,5.2,12.09,12.09,0,0,0,8.251,12.943" transform="translate(-561.33 -302.849)" fill="#dd775f"/>
            </g>
            <g id="Grupo_1178897" data-name="Grupo 1178897" transform="translate(552.85 293)">
              <path id="Trazado_1038300" data-name="Trazado 1038300" d="M570.18,319.535a4.734,4.734,0,0,0,.243-2.052,14.869,14.869,0,0,0-.765-4.947,9.4,9.4,0,0,0-2.82-4.174c-1.023-.825-1.826-1.035-1.859-.95-.058.112.626.5,1.481,1.367a10.921,10.921,0,0,1,2.449,4.023,20.981,20.981,0,0,1,.954,4.711A6.285,6.285,0,0,0,570.18,319.535Z" transform="translate(-564.975 -307.394)" fill="#c4634d"/>
            </g>
            <g id="Grupo_1178898" data-name="Grupo 1178898" transform="translate(557.516 262.431)">
              <path id="Trazado_1038301" data-name="Trazado 1038301" d="M602.117,325.849a21.416,21.416,0,0,0,4.775-2.516c5.129-3.605,8.275-10.156,11.456-15.4,4.567-7.524,8.027-20.751,3.94-29.074-4.74-9.651-16.088-14.787-26.565-14.112-6.174.4-12.416,2.785-16.337,7.706a30.4,30.4,0,0,0-4.9,10.469,76.094,76.094,0,0,0-2.853,17.7c-.291,5.51-.426,11.515,2.735,16.4,3.269,5.053,9.418,8.549,15.247,9.776A22.531,22.531,0,0,0,602.117,325.849Z" transform="translate(-571.493 -264.693)" fill="#ea8465"/>
            </g>
            <g id="Grupo_1178899" data-name="Grupo 1178899" transform="translate(596.286 301.208)">
              <path id="Trazado_1038302" data-name="Trazado 1038302" d="M634.246,319.141a7.931,7.931,0,0,1,8.337,12.616,11.594,11.594,0,0,1-3.928,2.947c-4.091,2.035-9.362,2.57-13.005-.188" transform="translate(-625.65 -318.861)" fill="#ea8465"/>
            </g>
            <g id="Grupo_1178900" data-name="Grupo 1178900" transform="translate(602.454 304.031)">
              <path id="Trazado_1038303" data-name="Trazado 1038303" d="M634.267,335.182c-.019.051.232.225.765.335a3.633,3.633,0,0,0,2.282-.314,2.364,2.364,0,0,0,1.182-1.256,1.821,1.821,0,0,0,.046-1.047,2.387,2.387,0,0,0-.5-.934,8.792,8.792,0,0,0-1.538-1.257,1.7,1.7,0,0,1-.82-1.339,3.753,3.753,0,0,1,.7-1.647,11.589,11.589,0,0,1,3.472-3.5c1.51-.971,2.633-1.244,2.594-1.388a5.179,5.179,0,0,0-2.914.842,10.356,10.356,0,0,0-2.652,2.019,11.023,11.023,0,0,0-1.236,1.548,4.342,4.342,0,0,0-.86,2.1,2.1,2.1,0,0,0,.37,1.242,3.589,3.589,0,0,0,.808.817,9.346,9.346,0,0,1,1.453,1.106,1.249,1.249,0,0,1,.375,1.208,1.767,1.767,0,0,1-.787.936,3.831,3.831,0,0,1-1.938.519C634.571,335.173,634.287,335.117,634.267,335.182Z" transform="translate(-634.266 -322.804)" fill="#c4634d"/>
            </g>
            <g id="Grupo_1178901" data-name="Grupo 1178901" transform="translate(569.676 279.178)">
              <path id="Trazado_1038304" data-name="Trazado 1038304" d="M591.672,314.379c.034-.052-.311-.293-.84-.813a5.878,5.878,0,0,1-1.583-2.589,4.288,4.288,0,0,1-.046-2.036,3.489,3.489,0,0,1,1.145-1.948c.621-.528,1.5-.854,2.355-1.46a5.539,5.539,0,0,0,1.888-2.569,8.426,8.426,0,0,0,.5-3.092,19.219,19.219,0,0,0-.284-2.838c-.293-1.766-.573-3.345-.816-4.674a23.837,23.837,0,0,0-.954-4.273,23.922,23.922,0,0,0,.4,4.36l.647,4.7a11.268,11.268,0,0,1-.237,5.54,4.849,4.849,0,0,1-1.6,2.222c-.72.535-1.629.886-2.37,1.531a4.11,4.11,0,0,0-1.316,2.374,4.733,4.733,0,0,0,.153,2.329,5.634,5.634,0,0,0,1.918,2.66C591.245,314.268,591.648,314.419,591.672,314.379Z" transform="translate(-588.479 -288.087)" fill="#c4634d"/>
            </g>
            <g id="Grupo_1178902" data-name="Grupo 1178902" transform="translate(575.273 303.873)">
              <path id="Trazado_1038305" data-name="Trazado 1038305" d="M597.853,322.77c-.056-.21-.508-.27-.967-.039s-.683.626-.549.8.52.1.9-.086S597.912,322.983,597.853,322.77Z" transform="translate(-596.298 -322.583)" fill="#c4634d"/>
            </g>
            <g id="Grupo_1178903" data-name="Grupo 1178903" transform="translate(566.163 289.492)">
              <path id="Trazado_1038306" data-name="Trazado 1038306" d="M583.824,308.4c.324.056.836-1.216,1.142-2.842s.293-3-.03-3.063-.834,1.206-1.142,2.842S583.5,308.347,583.824,308.4Z" transform="translate(-583.571 -302.495)" fill="#c4634d"/>
            </g>
            <g id="Grupo_1178904" data-name="Grupo 1178904" transform="translate(583.532 292.843)">
              <path id="Trazado_1038307" data-name="Trazado 1038307" d="M608.057,312.468c.32.078.867-1.043,1.222-2.5s.382-2.707.062-2.786-.867,1.043-1.222,2.5S607.737,312.39,608.057,312.468Z" transform="translate(-607.835 -307.176)" fill="#c4634d"/>
            </g>
            <g id="Grupo_1178905" data-name="Grupo 1178905" transform="translate(558.844 275.155)">
              <path id="Trazado_1038308" data-name="Trazado 1038308" d="M575.816,288.439c2.152.387,9.943-.178,7.966-4.068-2.451-4.822-13.159.727-9.782,3.365A4.073,4.073,0,0,0,575.816,288.439Z" transform="translate(-573.348 -282.468)" fill="#c4634d"/>
            </g>
            <g id="Grupo_1178906" data-name="Grupo 1178906" transform="translate(581.73 278.806)">
              <path id="Trazado_1038309" data-name="Trazado 1038309" d="M612.174,295.043c-2.151-.392-9.249-3.652-6.034-6.6,3.985-3.657,12.068,5.294,7.981,6.58A4.061,4.061,0,0,1,612.174,295.043Z" transform="translate(-605.317 -287.568)" fill="#c4634d"/>
            </g>
            <g id="Grupo_1178907" data-name="Grupo 1178907" transform="translate(571.82 306.989)">
              <path id="Trazado_1038310" data-name="Trazado 1038310" d="M591.474,327.866a4.3,4.3,0,0,0,2.441,3.415,4.4,4.4,0,0,0,4.7-.81,4.49,4.49,0,0,0,1.336-3.536A13.593,13.593,0,0,1,591.474,327.866Z" transform="translate(-591.474 -326.936)" fill="#fff"/>
            </g>
            <g id="Grupo_1178908" data-name="Grupo 1178908" transform="translate(574.108 262.85)" opacity="0.12">
              <path id="Trazado_1038311" data-name="Trazado 1038311" d="M599.28,265.279a13.071,13.071,0,0,0,2.125,21.4c1.822,1.009,3.932,1.616,5.381,3.113,1.49,1.537,2.016,3.733,2.651,5.777a40.106,40.106,0,0,0,2.35,5.881,9.692,9.692,0,0,0,1.834,2.754,7.435,7.435,0,0,0,2.183,1.4,11.476,11.476,0,0,0,15.176-15.053" transform="translate(-594.671 -265.279)" fill="#ea8465"/>
            </g>
            <g id="Grupo_1178909" data-name="Grupo 1178909" transform="translate(576.9 258.369)">
              <path id="Trazado_1038312" data-name="Trazado 1038312" d="M604.53,259.02a15.278,15.278,0,0,0,.074,24.271c3.1,2.519,7.253,4.194,9.269,7.472,1.627,2.645,1.544,5.871,2.849,8.654a9.368,9.368,0,0,0,8.433,5.289c2.843.052,8.4-1.461,8.879-4.873.215-1.515-.718-3.1-.685-4.658.052-2.437.618-4.882.728-7.329.211-4.683-.25-9.548-2.44-13.768a18.25,18.25,0,0,0-1.691-2.668c-5.061-6.625-14.35-9.371-22.969-11.693-1.48-.4-3.121-.79-4.524-.213" transform="translate(-598.57 -259.02)" fill="#f2b64c"/>
            </g>
            <g id="Grupo_1178910" data-name="Grupo 1178910" transform="translate(542.525 398.507)">
              <path id="Trazado_1038313" data-name="Trazado 1038313" d="M565.958,469.64q.051.676.062,1.352a2.457,2.457,0,0,1-.263,1.378.909.909,0,0,1-1.222.347,1.333,1.333,0,0,1-.381-.571l-5.409-12.309q.164,1.967.328,3.934a10.6,10.6,0,0,1-.436,4.851c-.386,1-1.247,2-2.176.588a4.117,4.117,0,0,1-.492-1.481c-.66-3.309-1.906-8.426-5.419-9.823a29.536,29.536,0,0,1,10.526-3.028,16.572,16.572,0,0,1,10.22,2.008,11.56,11.56,0,0,1,4,4.263c.468.838,2.6,5.055.334,4.5-1.1-.272-2.076-2.377-2.783-3.192a10.908,10.908,0,0,0-3.484-2.831,42.015,42.015,0,0,1,2.674,5.434,10.509,10.509,0,0,1,1.055,5.839,1.184,1.184,0,0,1-.405.8c-.546.377-1.242-.2-1.626-.737-1.339-1.889-2.285-4.015-3.552-5.947a31,31,0,0,0-4.559-5.179A23.335,23.335,0,0,1,565.958,469.64Z" transform="translate(-550.552 -454.775)" fill="#ea8465"/>
            </g>
            <g id="Grupo_1178911" data-name="Grupo 1178911" transform="translate(607.494 396.656)">
              <path id="Trazado_1038314" data-name="Trazado 1038314" d="M652,467.057q-.051.675-.062,1.352a2.456,2.456,0,0,0,.263,1.378.909.909,0,0,0,1.222.347,1.332,1.332,0,0,0,.381-.571c1.3-2.954,2.206-6.265,4.01-8.963a17.212,17.212,0,0,1,2.178-2.645,28.213,28.213,0,0,0-1,6.574,7.046,7.046,0,0,0,.591,3.573.781.781,0,0,0,.37.394c.373.14.712-.259.913-.6,1.318-2.27,1.39-4.707,2.279-7.174a12.583,12.583,0,0,1,1.646-3.261c.293-.4,1.993-2.446,2.612-2.136a29.54,29.54,0,0,0-10.526-3.028,16.573,16.573,0,0,0-10.22,2.008,11.56,11.56,0,0,0-4,4.263c-.468.838-2.6,5.055-.334,4.5,1.1-.272,2.076-2.377,2.783-3.192a10.916,10.916,0,0,1,3.484-2.831,41.927,41.927,0,0,0-2.673,5.434,10.509,10.509,0,0,0-1.055,5.839,1.183,1.183,0,0,0,.405.8c.545.378,1.242-.2,1.626-.737,1.339-1.889,2.285-4.015,3.552-5.947a31.01,31.01,0,0,1,4.559-5.179A23.332,23.332,0,0,0,652,467.057Z" transform="translate(-641.306 -452.19)" fill="#ea8465"/>
            </g>
          </g>
          <g id="Grupo_1179328" data-name="Grupo 1179328" transform="translate(164.848 6000.25)">
            <g id="Grupo_1179234" data-name="Grupo 1179234" transform="translate(547.152 446.062)">
              <g id="Grupo_1179233" data-name="Grupo 1179233" transform="translate(0 0)">
                <g id="Grupo_1179217" data-name="Grupo 1179217" transform="translate(0)">
                  <g id="Grupo_1179211" data-name="Grupo 1179211">
                    <g id="Grupo_1179203" data-name="Grupo 1179203">
                      <g id="Grupo_1179202" data-name="Grupo 1179202">
                        <circle id="Elipse_12316" data-name="Elipse 12316" cx="34.307" cy="34.307" r="34.307" transform="matrix(0.948, -0.318, 0.318, 0.948, 0, 21.846)" fill="#ffc457"/>
                      </g>
                    </g>
                    <g id="Grupo_1179206" data-name="Grupo 1179206" transform="translate(9.199 9.228)">
                      <g id="Grupo_1179205" data-name="Grupo 1179205" transform="translate(0 0)">
                        <g id="Grupo_1179204" data-name="Grupo 1179204" transform="translate(0)">
                          <circle id="Elipse_12317" data-name="Elipse 12317" cx="24.686" cy="24.686" r="24.686" transform="matrix(0.834, -0.553, 0.553, 0.834, 0, 27.278)" fill="#ffe9ab"/>
                        </g>
                      </g>
                    </g>
                    <g id="Grupo_1179208" data-name="Grupo 1179208" transform="translate(8.407 8.433)">
                      <g id="Grupo_1179207" data-name="Grupo 1179207">
                        <path id="Trazado_1038619" data-name="Trazado 1038619" d="M577.043,523.408a35.013,35.013,0,1,1,34.747-60.771l-.727,1.2a33.611,33.611,0,1,0,.309,57.266l.741,1.19a35.034,35.034,0,0,1-35.07,1.116Z" transform="translate(-558.606 -457.552)" fill="#7c4a4a"/>
                      </g>
                    </g>
                    <g id="Grupo_1179210" data-name="Grupo 1179210" transform="translate(70.062 22.121)">
                      <g id="Grupo_1179209" data-name="Grupo 1179209">
                        <path id="Trazado_1038620" data-name="Trazado 1038620" d="M643.71,518.877l-1.11-.855a33.268,33.268,0,0,0,6.351-14.11,33.638,33.638,0,0,0-6.348-26.86l1.112-.853a35.036,35.036,0,0,1,6.611,27.979A34.649,34.649,0,0,1,643.71,518.877Z" transform="translate(-642.6 -476.199)" fill="#7c4a4a"/>
                      </g>
                    </g>
                  </g>
                  <g id="Grupo_1179216" data-name="Grupo 1179216" transform="translate(32.311 23.568)">
                    <g id="Grupo_1179215" data-name="Grupo 1179215">
                      <g id="Grupo_1179214" data-name="Grupo 1179214">
                        <g id="Grupo_1179213" data-name="Grupo 1179213">
                          <g id="Grupo_1179212" data-name="Grupo 1179212">
                            <path id="Trazado_1038621" data-name="Trazado 1038621" d="M596.616,513.549a8.289,8.289,0,0,1-4.535-3.642,8.176,8.176,0,0,1-.709-5.668l.432-2.229,5.935,1.148-.5,2.568q-.573,2.956,2.681,3.586t3.844-2.424a5.67,5.67,0,0,0-.481-3.638,17.672,17.672,0,0,0-3.534-4.379,20.551,20.551,0,0,1-4.436-5.836,8.814,8.814,0,0,1-.566-5.339,8.011,8.011,0,0,1,2.687-4.86,8.308,8.308,0,0,1,5.452-1.71l.572-2.956,5.136.994-.572,2.956a7.585,7.585,0,0,1,5.2,9.25l-.187.969-5.934-1.148.253-1.308q.581-3-2.558-3.612t-3.7,2.3a5.254,5.254,0,0,0,.518,3.443,19.223,19.223,0,0,0,3.533,4.379,20.913,20.913,0,0,1,4.423,5.909,9.094,9.094,0,0,1,.542,5.46,8.358,8.358,0,0,1-2.786,5.067,8.24,8.24,0,0,1-5.57,1.713l-.656,3.393-5.136-.994Z" transform="translate(-591.171 -478.17)" fill="#ffc457"/>
                          </g>
                        </g>
                      </g>
                    </g>
                  </g>
                </g>
                <g id="Grupo_1179232" data-name="Grupo 1179232" transform="translate(29.966 14.929)">
                  <g id="Grupo_1179224" data-name="Grupo 1179224">
                    <g id="Grupo_1179223" data-name="Grupo 1179223">
                      <g id="Grupo_1179222" data-name="Grupo 1179222">
                        <g id="Grupo_1179221" data-name="Grupo 1179221">
                          <g id="Grupo_1179220" data-name="Grupo 1179220">
                            <g id="Grupo_1179219" data-name="Grupo 1179219">
                              <g id="Grupo_1179218" data-name="Grupo 1179218">
                                <path id="Trazado_1038622" data-name="Trazado 1038622" d="M587.976,468.891a12.134,12.134,0,0,1,2.115,7.713h0a12.174,12.174,0,0,1,7.614-2.488h0a12.155,12.155,0,0,1-2.122-7.716h0A12.17,12.17,0,0,1,587.976,468.891Z" transform="translate(-587.976 -466.4)" fill="#fff9ee"/>
                              </g>
                            </g>
                          </g>
                        </g>
                      </g>
                    </g>
                  </g>
                  <g id="Grupo_1179231" data-name="Grupo 1179231" transform="translate(14.48 50.452)">
                    <g id="Grupo_1179230" data-name="Grupo 1179230">
                      <g id="Grupo_1179229" data-name="Grupo 1179229">
                        <g id="Grupo_1179228" data-name="Grupo 1179228">
                          <g id="Grupo_1179227" data-name="Grupo 1179227">
                            <g id="Grupo_1179226" data-name="Grupo 1179226">
                              <g id="Grupo_1179225" data-name="Grupo 1179225">
                                <path id="Trazado_1038623" data-name="Trazado 1038623" d="M607.7,536.581a7.057,7.057,0,0,1,1.23,4.482h0a7.076,7.076,0,0,1,4.425-1.446h0a7.065,7.065,0,0,1-1.233-4.484h0A7.068,7.068,0,0,1,607.7,536.581Z" transform="translate(-607.703 -535.133)" fill="#fff9ee"/>
                              </g>
                            </g>
                          </g>
                        </g>
                      </g>
                    </g>
                  </g>
                </g>
              </g>
            </g>
            <g id="Grupo_1179327" data-name="Grupo 1179327" transform="translate(629.671 483.209)">
              <g id="Grupo_1179323" data-name="Grupo 1179323" transform="translate(0 0)">
                <g id="Grupo_1179301" data-name="Grupo 1179301">
                  <g id="Grupo_1179236" data-name="Grupo 1179236" transform="translate(0 28.434)">
                    <g id="Grupo_1179235" data-name="Grupo 1179235">
                      <rect id="Rectángulo_415497" data-name="Rectángulo 415497" width="66.557" height="12.882" fill="#ffc457"/>
                    </g>
                  </g>
                  <g id="Grupo_1179238" data-name="Grupo 1179238" transform="translate(14.015 14.194)">
                    <g id="Grupo_1179237" data-name="Grupo 1179237">
                      <rect id="Rectángulo_415498" data-name="Rectángulo 415498" width="66.557" height="12.882" fill="#ffc457"/>
                    </g>
                  </g>
                  <g id="Grupo_1179240" data-name="Grupo 1179240" transform="translate(0.045)">
                    <g id="Grupo_1179239" data-name="Grupo 1179239">
                      <rect id="Rectángulo_415499" data-name="Rectángulo 415499" width="66.557" height="12.882" fill="#ffc457"/>
                    </g>
                  </g>
                  <g id="Grupo_1179246" data-name="Grupo 1179246" transform="translate(58.893)">
                    <g id="Grupo_1179245" data-name="Grupo 1179245">
                      <g id="Grupo_1179244" data-name="Grupo 1179244">
                        <g id="Grupo_1179243" data-name="Grupo 1179243">
                          <g id="Grupo_1179242" data-name="Grupo 1179242">
                            <g id="Grupo_1179241" data-name="Grupo 1179241">
                              <rect id="Rectángulo_415500" data-name="Rectángulo 415500" width="1.401" height="12.882" fill="#7c4a4a"/>
                            </g>
                          </g>
                        </g>
                      </g>
                    </g>
                  </g>
                  <g id="Grupo_1179252" data-name="Grupo 1179252" transform="translate(51.886)">
                    <g id="Grupo_1179251" data-name="Grupo 1179251">
                      <g id="Grupo_1179250" data-name="Grupo 1179250">
                        <g id="Grupo_1179249" data-name="Grupo 1179249">
                          <g id="Grupo_1179248" data-name="Grupo 1179248">
                            <g id="Grupo_1179247" data-name="Grupo 1179247">
                              <rect id="Rectángulo_415501" data-name="Rectángulo 415501" width="1.401" height="12.882" fill="#7c4a4a"/>
                            </g>
                          </g>
                        </g>
                      </g>
                    </g>
                  </g>
                  <g id="Grupo_1179258" data-name="Grupo 1179258" transform="translate(30.862)">
                    <g id="Grupo_1179257" data-name="Grupo 1179257">
                      <g id="Grupo_1179256" data-name="Grupo 1179256">
                        <g id="Grupo_1179255" data-name="Grupo 1179255">
                          <g id="Grupo_1179254" data-name="Grupo 1179254">
                            <g id="Grupo_1179253" data-name="Grupo 1179253">
                              <rect id="Rectángulo_415502" data-name="Rectángulo 415502" width="1.401" height="12.882" fill="#7c4a4a"/>
                            </g>
                          </g>
                        </g>
                      </g>
                    </g>
                  </g>
                  <g id="Grupo_1179264" data-name="Grupo 1179264" transform="translate(16.848)">
                    <g id="Grupo_1179263" data-name="Grupo 1179263">
                      <g id="Grupo_1179262" data-name="Grupo 1179262">
                        <g id="Grupo_1179261" data-name="Grupo 1179261">
                          <g id="Grupo_1179260" data-name="Grupo 1179260">
                            <g id="Grupo_1179259" data-name="Grupo 1179259">
                              <rect id="Rectángulo_415503" data-name="Rectángulo 415503" width="1.401" height="12.882" fill="#7c4a4a"/>
                            </g>
                          </g>
                        </g>
                      </g>
                    </g>
                  </g>
                  <g id="Grupo_1179267" data-name="Grupo 1179267" transform="translate(72.864 14.195)">
                    <g id="Grupo_1179266" data-name="Grupo 1179266">
                      <g id="Grupo_1179265" data-name="Grupo 1179265">
                        <rect id="Rectángulo_415504" data-name="Rectángulo 415504" width="1.401" height="12.882" fill="#7c4a4a"/>
                      </g>
                    </g>
                  </g>
                  <g id="Grupo_1179273" data-name="Grupo 1179273" transform="translate(65.856 14.195)">
                    <g id="Grupo_1179272" data-name="Grupo 1179272">
                      <g id="Grupo_1179271" data-name="Grupo 1179271">
                        <g id="Grupo_1179270" data-name="Grupo 1179270">
                          <g id="Grupo_1179269" data-name="Grupo 1179269">
                            <g id="Grupo_1179268" data-name="Grupo 1179268">
                              <rect id="Rectángulo_415505" data-name="Rectángulo 415505" width="1.401" height="12.882" fill="#7c4a4a"/>
                            </g>
                          </g>
                        </g>
                      </g>
                    </g>
                  </g>
                  <g id="Grupo_1179276" data-name="Grupo 1179276" transform="translate(44.833 14.195)">
                    <g id="Grupo_1179275" data-name="Grupo 1179275">
                      <g id="Grupo_1179274" data-name="Grupo 1179274">
                        <rect id="Rectángulo_415506" data-name="Rectángulo 415506" width="1.401" height="12.882" fill="#7c4a4a"/>
                      </g>
                    </g>
                  </g>
                  <g id="Grupo_1179282" data-name="Grupo 1179282" transform="translate(37.826 14.195)">
                    <g id="Grupo_1179281" data-name="Grupo 1179281">
                      <g id="Grupo_1179280" data-name="Grupo 1179280">
                        <g id="Grupo_1179279" data-name="Grupo 1179279">
                          <g id="Grupo_1179278" data-name="Grupo 1179278">
                            <g id="Grupo_1179277" data-name="Grupo 1179277">
                              <rect id="Rectángulo_415507" data-name="Rectángulo 415507" width="1.401" height="12.882" fill="#7c4a4a"/>
                            </g>
                          </g>
                        </g>
                      </g>
                    </g>
                  </g>
                  <g id="Grupo_1179285" data-name="Grupo 1179285" transform="translate(30.818 28.433)">
                    <g id="Grupo_1179284" data-name="Grupo 1179284">
                      <g id="Grupo_1179283" data-name="Grupo 1179283">
                        <rect id="Rectángulo_415508" data-name="Rectángulo 415508" width="1.401" height="12.882" fill="#7c4a4a"/>
                      </g>
                    </g>
                  </g>
                  <g id="Grupo_1179288" data-name="Grupo 1179288" transform="translate(16.803 28.433)">
                    <g id="Grupo_1179287" data-name="Grupo 1179287">
                      <g id="Grupo_1179286" data-name="Grupo 1179286">
                        <rect id="Rectángulo_415509" data-name="Rectángulo 415509" width="1.401" height="12.882" fill="#7c4a4a"/>
                      </g>
                    </g>
                  </g>
                  <g id="Grupo_1179291" data-name="Grupo 1179291" transform="translate(9.796 28.433)">
                    <g id="Grupo_1179290" data-name="Grupo 1179290">
                      <g id="Grupo_1179289" data-name="Grupo 1179289">
                        <rect id="Rectángulo_415510" data-name="Rectángulo 415510" width="1.401" height="12.882" fill="#7c4a4a"/>
                      </g>
                    </g>
                  </g>
                  <g id="Grupo_1179297" data-name="Grupo 1179297" transform="translate(0.037 12.807)">
                    <g id="Grupo_1179296" data-name="Grupo 1179296">
                      <g id="Grupo_1179295" data-name="Grupo 1179295">
                        <g id="Grupo_1179294" data-name="Grupo 1179294">
                          <g id="Grupo_1179293" data-name="Grupo 1179293">
                            <g id="Grupo_1179292" data-name="Grupo 1179292">
                              <rect id="Rectángulo_415511" data-name="Rectángulo 415511" width="66.2" height="1.401" fill="#7c4a4a"/>
                            </g>
                          </g>
                        </g>
                      </g>
                    </g>
                  </g>
                  <g id="Grupo_1179300" data-name="Grupo 1179300" transform="translate(14.06 27.136)">
                    <g id="Grupo_1179299" data-name="Grupo 1179299">
                      <g id="Grupo_1179298" data-name="Grupo 1179298">
                        <rect id="Rectángulo_415512" data-name="Rectángulo 415512" width="66.512" height="1.401" fill="#7c4a4a"/>
                      </g>
                    </g>
                  </g>
                </g>
                <g id="Grupo_1179308" data-name="Grupo 1179308" transform="translate(19.131 12.808)">
                  <g id="Grupo_1179307" data-name="Grupo 1179307">
                    <g id="Grupo_1179306" data-name="Grupo 1179306">
                      <g id="Grupo_1179305" data-name="Grupo 1179305">
                        <g id="Grupo_1179304" data-name="Grupo 1179304">
                          <g id="Grupo_1179303" data-name="Grupo 1179303">
                            <g id="Grupo_1179302" data-name="Grupo 1179302">
                              <path id="Trazado_1038624" data-name="Trazado 1038624" d="M685.633,520a12.312,12.312,0,0,1,5.6,5.873h0a12.354,12.354,0,0,1,5.605-5.884h0a12.329,12.329,0,0,1-5.605-5.872h0A12.336,12.336,0,0,1,685.633,520Z" transform="translate(-685.633 -514.118)" fill="#fff9ee"/>
                            </g>
                          </g>
                        </g>
                      </g>
                    </g>
                  </g>
                </g>
                <g id="Grupo_1179315" data-name="Grupo 1179315" transform="translate(41.625 32.003)">
                  <g id="Grupo_1179314" data-name="Grupo 1179314">
                    <g id="Grupo_1179313" data-name="Grupo 1179313">
                      <g id="Grupo_1179312" data-name="Grupo 1179312">
                        <g id="Grupo_1179311" data-name="Grupo 1179311">
                          <g id="Grupo_1179310" data-name="Grupo 1179310">
                            <g id="Grupo_1179309" data-name="Grupo 1179309">
                              <path id="Trazado_1038625" data-name="Trazado 1038625" d="M716.277,543.638A7.052,7.052,0,0,1,719.484,547h0a7.073,7.073,0,0,1,3.211-3.37h0a7.061,7.061,0,0,1-3.211-3.364h0A7.068,7.068,0,0,1,716.277,543.638Z" transform="translate(-716.277 -540.268)" fill="#fff9ee"/>
                            </g>
                          </g>
                        </g>
                      </g>
                    </g>
                  </g>
                </g>
                <g id="Grupo_1179322" data-name="Grupo 1179322" transform="translate(55.685 3.615)">
                  <g id="Grupo_1179321" data-name="Grupo 1179321">
                    <g id="Grupo_1179320" data-name="Grupo 1179320">
                      <g id="Grupo_1179319" data-name="Grupo 1179319">
                        <g id="Grupo_1179318" data-name="Grupo 1179318">
                          <g id="Grupo_1179317" data-name="Grupo 1179317">
                            <g id="Grupo_1179316" data-name="Grupo 1179316">
                              <path id="Trazado_1038626" data-name="Trazado 1038626" d="M735.431,504.964a7.053,7.053,0,0,1,3.207,3.364h0a7.076,7.076,0,0,1,3.211-3.37h0a7.061,7.061,0,0,1-3.211-3.364h0A7.069,7.069,0,0,1,735.431,504.964Z" transform="translate(-735.431 -501.594)" fill="#fff9ee"/>
                            </g>
                          </g>
                        </g>
                      </g>
                    </g>
                  </g>
                </g>
              </g>
              <g id="Grupo_1179326" data-name="Grupo 1179326" transform="translate(79.872 14.195)">
                <g id="Grupo_1179325" data-name="Grupo 1179325">
                  <g id="Grupo_1179324" data-name="Grupo 1179324">
                    <rect id="Rectángulo_415513" data-name="Rectángulo 415513" width="1.401" height="14.343" fill="#7c4a4a"/>
                  </g>
                </g>
              </g>
            </g>
          </g>
        </g>
      </g>
    </g>
    <g id="Grupo_1178910-2" data-name="Grupo 1178910" transform="translate(906.364 6522.855)">
      <path id="Trazado_1038313-2" data-name="Trazado 1038313" d="M565.958,469.64q.051.676.062,1.352a2.457,2.457,0,0,1-.263,1.378.909.909,0,0,1-1.222.347,1.333,1.333,0,0,1-.381-.571l-5.409-12.309q.164,1.967.328,3.934a10.6,10.6,0,0,1-.436,4.851c-.386,1-1.247,2-2.176.588a4.117,4.117,0,0,1-.492-1.481c-.66-3.309-1.906-8.426-5.419-9.823a29.536,29.536,0,0,1,10.526-3.028,16.572,16.572,0,0,1,10.22,2.008,11.56,11.56,0,0,1,4,4.263c.468.838,2.6,5.055.334,4.5-1.1-.272-2.076-2.377-2.783-3.192a10.908,10.908,0,0,0-3.484-2.831,42.015,42.015,0,0,1,2.674,5.434,10.509,10.509,0,0,1,1.055,5.839,1.184,1.184,0,0,1-.405.8c-.546.377-1.242-.2-1.626-.737-1.339-1.889-2.285-4.015-3.552-5.947a31,31,0,0,0-4.559-5.179A23.335,23.335,0,0,1,565.958,469.64Z" transform="translate(-550.552 -454.775)" fill="#ea8465"/>
    </g>
    <g id="Grupo_1178911-2" data-name="Grupo 1178911" transform="translate(971.334 6521.005)">
      <path id="Trazado_1038314-2" data-name="Trazado 1038314" d="M652,467.057q-.051.675-.062,1.352a2.456,2.456,0,0,0,.263,1.378.909.909,0,0,0,1.222.347,1.332,1.332,0,0,0,.381-.571c1.3-2.954,2.206-6.265,4.01-8.963a17.212,17.212,0,0,1,2.178-2.645,28.213,28.213,0,0,0-1,6.574,7.046,7.046,0,0,0,.591,3.573.781.781,0,0,0,.37.394c.373.14.712-.259.913-.6,1.318-2.27,1.39-4.707,2.279-7.174a12.583,12.583,0,0,1,1.646-3.261c.293-.4,1.993-2.446,2.612-2.136a29.54,29.54,0,0,0-10.526-3.028,16.573,16.573,0,0,0-10.22,2.008,11.56,11.56,0,0,0-4,4.263c-.468.838-2.6,5.055-.334,4.5,1.1-.272,2.076-2.377,2.783-3.192a10.916,10.916,0,0,1,3.484-2.831,41.927,41.927,0,0,0-2.673,5.434,10.509,10.509,0,0,0-1.055,5.839,1.183,1.183,0,0,0,.405.8c.545.378,1.242-.2,1.626-.737,1.339-1.889,2.285-4.015,3.552-5.947a31.01,31.01,0,0,1,4.559-5.179A23.332,23.332,0,0,0,652,467.057Z" transform="translate(-641.306 -452.19)" fill="#ea8465"/>
    </g>
  </g>
</svg>
