<svg xmlns="http://www.w3.org/2000/svg" xmlns:xlink="http://www.w3.org/1999/xlink" width="113" height="113" viewBox="0 0 113 113">
  <defs>
    <filter id="Trazado_982547" x="0" y="0" width="113" height="113" filterUnits="userSpaceOnUse">
      <feOffset dy="3" input="SourceAlpha"/>
      <feGaussianBlur stdDeviation="3" result="blur"/>
      <feFlood flood-opacity="0.161"/>
      <feComposite operator="in" in2="blur"/>
      <feComposite in="SourceGraphic"/>
    </filter>
  </defs>
  <g id="Grupo_1179474" data-name="Grupo 1179474" transform="translate(-171 -8402)">
    <g id="Grupo_1173822" data-name="Grupo 1173822" transform="translate(0 5121)">
      <g id="Grupo_1167519" data-name="Grupo 1167519" transform="translate(180 3287)">
        <g id="Grupo_1166845" data-name="Grupo 1166845" transform="translate(0)">
          <g id="Grupo_1166720" data-name="Grupo 1166720">
            <g id="Grupo_1164305" data-name="Grupo 1164305">
              <g id="Grupo_1163948" data-name="Grupo 1163948">
                <g id="Grupo_1158168" data-name="Grupo 1158168">
                  <g id="Grupo_1152576" data-name="Grupo 1152576">
                    <g id="Grupo_1148633" data-name="Grupo 1148633">
                      <g id="Grupo_1148525" data-name="Grupo 1148525">
                        <g transform="matrix(1, 0, 0, 1, -9, -6)" filter="url(#Trazado_982547)">
                          <g id="Trazado_982547-2" data-name="Trazado 982547" transform="translate(9 6)" fill="#e8edf7">
                            <path d="M 47.5 93.5 C 41.28937149047852 93.5 35.26533508300781 92.28397369384766 29.59518623352051 89.88570404052734 C 24.11771965026855 87.56893157958984 19.19813346862793 84.25196075439453 14.97309303283691 80.02691650390625 C 10.74804019927979 75.80186462402344 7.431066513061523 70.88229370117188 5.114293098449707 65.40481567382812 C 2.716026782989502 59.73468017578125 1.5 53.71062850952148 1.5 47.5 C 1.5 41.28937149047852 2.716026782989502 35.26533508300781 5.114293098449707 29.59518623352051 C 7.431066513061523 24.11771965026855 10.74804019927979 19.19813346862793 14.97309303283691 14.97309303283691 C 19.19813346862793 10.74804019927979 24.11771965026855 7.431066513061523 29.59518623352051 5.114293098449707 C 35.26533508300781 2.716026782989502 41.28937149047852 1.5 47.5 1.5 C 53.71062850952148 1.5 59.73468017578125 2.716026782989502 65.40481567382812 5.114293098449707 C 70.88229370117188 7.431066513061523 75.80186462402344 10.74804019927979 80.02691650390625 14.97309303283691 C 84.25196075439453 19.19813346862793 87.56893157958984 24.11771965026855 89.88570404052734 29.59518623352051 C 92.28397369384766 35.26533508300781 93.5 41.28937149047852 93.5 47.5 C 93.5 53.71062850952148 92.28397369384766 59.73468017578125 89.88570404052734 65.40481567382812 C 87.56893157958984 70.88229370117188 84.25196075439453 75.80186462402344 80.02691650390625 80.02691650390625 C 75.80186462402344 84.25196075439453 70.88229370117188 87.56893157958984 65.40481567382812 89.88570404052734 C 59.73468017578125 92.28397369384766 53.71062850952148 93.5 47.5 93.5 Z" stroke="none"/>
                            <path d="M 47.5 3 C 41.49121475219727 3 35.66376876831055 4.176155090332031 30.17950439453125 6.495796203613281 C 24.88084411621094 8.736953735351562 20.12152099609375 11.94598388671875 16.03375244140625 16.03375244140625 C 11.94598388671875 20.12152099609375 8.736953735351562 24.88084411621094 6.495796203613281 30.17950439453125 C 4.176155090332031 35.66376876831055 3 41.49121475219727 3 47.5 C 3 53.50878524780273 4.176155090332031 59.33623123168945 6.495796203613281 64.82049560546875 C 8.736953735351562 70.11915588378906 11.94598388671875 74.87847900390625 16.03375244140625 78.96624755859375 C 20.12152099609375 83.05401611328125 24.88084411621094 86.26304626464844 30.17950439453125 88.50419616699219 C 35.66376876831055 90.82384490966797 41.49121475219727 92 47.5 92 C 53.50878524780273 92 59.33623123168945 90.82384490966797 64.82049560546875 88.50419616699219 C 70.11915588378906 86.26304626464844 74.87847900390625 83.05401611328125 78.96624755859375 78.96624755859375 C 83.05401611328125 74.87847900390625 86.26304626464844 70.11915588378906 88.50419616699219 64.82049560546875 C 90.82384490966797 59.33623123168945 92 53.50878524780273 92 47.5 C 92 41.49121475219727 90.82384490966797 35.66376876831055 88.50419616699219 30.17950439453125 C 86.26304626464844 24.88084411621094 83.05401611328125 20.12152099609375 78.96624755859375 16.03375244140625 C 74.87847900390625 11.94598388671875 70.11915588378906 8.736953735351562 64.82049560546875 6.495796203613281 C 59.33623123168945 4.176155090332031 53.50878524780273 3 47.5 3 M 47.5 0 C 73.7335205078125 0 95 21.2664794921875 95 47.5 C 95 73.7335205078125 73.7335205078125 95 47.5 95 C 21.2664794921875 95 0 73.7335205078125 0 47.5 C 0 21.2664794921875 21.2664794921875 0 47.5 0 Z" stroke="none" fill="#bfcde9"/>
                          </g>
                        </g>
                      </g>
                    </g>
                  </g>
                </g>
              </g>
            </g>
          </g>
        </g>
      </g>
    </g>
    <g id="Page-1" transform="translate(197.5 8425.498)">
      <g id="_083---Money-Bag" data-name="083---Money-Bag">
        <path id="Shape" d="M36.36,26H35a2.006,2.006,0,0,0-2,2V56.56C29.64,58.34,25.49,59,21,59,9.95,59,1,55,1,41A23.892,23.892,0,0,1,5.36,27.25,47.529,47.529,0,0,1,10.63,21H31.5a2.546,2.546,0,0,0,.74-.11l-.18.17A49.279,49.279,0,0,1,36.36,26Z" fill="#ff9801"/>
        <path id="Shape-2" data-name="Shape" d="M32.06,21.06l.18-.17a2.546,2.546,0,0,1-.74.11H29.124l-.064.06A49.28,49.28,0,0,1,33.36,26H32a2.006,2.006,0,0,0-2,2V56.56a24.221,24.221,0,0,1-10.5,2.411c.5.018.993.029,1.5.029,4.49,0,8.64-.66,12-2.44V28a2.006,2.006,0,0,1,2-2h1.36a49.279,49.279,0,0,0-4.3-4.94Z" fill="#f57c00"/>
        <path id="Shape-3" data-name="Shape" d="M32.06,21.06,32,21" fill="#ff9801"/>
        <path id="Shape-4" data-name="Shape" d="M34,18.5a2.509,2.509,0,0,1-1.76,2.39,2.546,2.546,0,0,1-.74.11h-21a2.5,2.5,0,1,1,0-5h21A2.492,2.492,0,0,1,34,18.5Z" fill="sienna"/>
        <path id="Shape-5" data-name="Shape" d="M33.27,16.73A2.5,2.5,0,0,0,31.5,16h-3a2.5,2.5,0,0,1,.74,4.89,2.546,2.546,0,0,1-.74.11h3a2.546,2.546,0,0,0,.74-.11,2.506,2.506,0,0,0,1.03-4.16Z" fill="#783e22"/>
        <rect id="Rectangle-path" width="26" height="33" rx="2" transform="translate(33 26)" fill="#02a9f4"/>
        <path id="Shape-6" data-name="Shape" d="M57,26H54a2.006,2.006,0,0,1,2,2V57a2.006,2.006,0,0,1-2,2h3a2.006,2.006,0,0,0,2-2V28A2.006,2.006,0,0,0,57,26Z" fill="#0377bc"/>
        <rect id="Rectangle-path-2" data-name="Rectangle-path" width="16" height="6" rx="1" transform="translate(38 31)" fill="#00bcd4"/>
        <path id="Shape-7" data-name="Shape" d="M53,31H50a1,1,0,0,1,1,1v4a1,1,0,0,1-1,1h3a1,1,0,0,0,1-1V32A1,1,0,0,0,53,31Z" fill="#00838f"/>
        <path id="Shape-8" data-name="Shape" d="M29,16H13S4.36,4.42,7,2C8.34.77,10.5,4,13.99,4s3.5-3,7-3S24.49,4,28,4,33.66.77,35,2C37.64,4.42,29,16,29,16Z" fill="#ff9801"/>
        <path id="Shape-9" data-name="Shape" d="M35,2c-.662-.608-1.526-.125-2.652.517C33.655,5.738,26,16,26,16h3S37.64,4.42,35,2Z" fill="#f57c00"/>
        <path id="Shape-10" data-name="Shape" d="M25,4a5.957,5.957,0,0,0,1.55-.216C24.4,3.1,23.924,1,20.99,1a4.647,4.647,0,0,0-1.5.232C21.584,1.932,22.082,4,25,4Z" fill="#f57c00"/>
        <path id="Shape-11" data-name="Shape" d="M10.99,4a4.685,4.685,0,0,0,1.45-.217C9.843,3.086,8.129.964,7,2a1.394,1.394,0,0,0-.348.518A8.664,8.664,0,0,0,10.99,4Z" fill="#f57c00"/>
        <g id="Grupo_1179473" data-name="Grupo 1179473">
          <path id="Shape-12" data-name="Shape" d="M27,34.5a1,1,0,0,0,2,0c0-3.308-3.06-6.042-7-6.444V27a1,1,0,0,0-2,0v1.056c-3.94.4-7,3.136-7,6.444s3.06,6.042,7,6.444v8.988c-2.833-.358-5-2.207-5-4.432a1,1,0,0,0-2,0c0,3.308,3.06,6.042,7,6.444V53a1,1,0,0,0,2,0V51.944c3.94-.4,7-3.136,7-6.444s-3.06-6.042-7-6.444V30.068C24.833,30.426,27,32.275,27,34.5Zm-12,0c0-2.225,2.167-4.074,5-4.432v8.864C17.167,38.574,15,36.725,15,34.5Zm12,11c0,2.225-2.167,4.074-5,4.432V41.068C24.833,41.426,27,43.275,27,45.5Z"/>
          <path id="Shape-13" data-name="Shape" d="M3.6,30.173a1,1,0,0,0-1.328.486A24.4,24.4,0,0,0,0,41C0,53.607,7.065,60,21,60a32.337,32.337,0,0,0,8.357-.963,1,1,0,1,0-.514-1.933A30.832,30.832,0,0,1,21,58C8.215,58,2,52.439,2,41a22.114,22.114,0,0,1,2.087-9.5A1,1,0,0,0,3.6,30.173Z"/>
          <path id="Shape-14" data-name="Shape" d="M57,25H35a3,3,0,0,0-3,3V57a3,3,0,0,0,3,3H57a3,3,0,0,0,3-3V28A3,3,0,0,0,57,25Zm1,32a1,1,0,0,1-1,1H35a1,1,0,0,1-1-1V28a1,1,0,0,1,1-1H57a1,1,0,0,1,1,1Z"/>
          <path id="Shape-15" data-name="Shape" d="M39,38H53a2,2,0,0,0,2-2V32a2,2,0,0,0-2-2H39a2,2,0,0,0-2,2v4A2,2,0,0,0,39,38Zm0-6H53v4H39Z"/>
          <path id="Shape-16" data-name="Shape" d="M41,41H38a1,1,0,0,0,0,2h3a1,1,0,0,0,0-2Z"/>
          <path id="Shape-17" data-name="Shape" d="M41,45H38a1,1,0,0,0,0,2h3a1,1,0,0,0,0-2Z"/>
          <path id="Shape-18" data-name="Shape" d="M41,49H38a1,1,0,0,0,0,2h3a1,1,0,0,0,0-2Z"/>
          <path id="Shape-19" data-name="Shape" d="M41,53H38a1,1,0,0,0,0,2h3a1,1,0,0,0,0-2Z"/>
          <path id="Shape-20" data-name="Shape" d="M48,41H45a1,1,0,0,0,0,2h3a1,1,0,0,0,0-2Z"/>
          <path id="Shape-21" data-name="Shape" d="M48,45H45a1,1,0,0,0,0,2h3a1,1,0,0,0,0-2Z"/>
          <path id="Shape-22" data-name="Shape" d="M48,49H45a1,1,0,0,0,0,2h3a1,1,0,0,0,0-2Z"/>
          <path id="Shape-23" data-name="Shape" d="M48,53H45a1,1,0,0,0,0,2h3a1,1,0,0,0,0-2Z"/>
          <path id="Shape-24" data-name="Shape" d="M55,41H52a1,1,0,0,0,0,2h3a1,1,0,0,0,0-2Z"/>
          <path id="Shape-25" data-name="Shape" d="M55,45H52a1,1,0,0,0,0,2h3a1,1,0,0,0,0-2Z"/>
          <path id="Shape-26" data-name="Shape" d="M55,49H52a1,1,0,0,0,0,2h3a1,1,0,0,0,0-2Z"/>
          <path id="Shape-27" data-name="Shape" d="M55,53H52a1,1,0,0,0,0,2h3a1,1,0,0,0,0-2Z"/>
          <path id="Shape-28" data-name="Shape" d="M6.325,1.263C3.692,3.675,8.318,11.115,11.044,15H10.5a3.48,3.48,0,0,0-2.477,1.022A3.525,3.525,0,0,0,7,18.5a3.489,3.489,0,0,0,1.754,3.015A47.1,47.1,0,0,0,5.46,25.4a1,1,0,1,0,1.6,1.2,48.326,48.326,0,0,1,4-4.6H31.5a3.5,3.5,0,1,0,0-7h-.544c2.725-3.885,7.351-11.324,4.72-13.737-1.21-1.108-2.62-.3-3.863.407A7.713,7.713,0,0,1,28,3a3.874,3.874,0,0,1-2.851-1.26,5.821,5.821,0,0,0-8.3,0A3.874,3.874,0,0,1,13.993,3a7.681,7.681,0,0,1-3.81-1.33C8.941.961,7.532.156,6.325,1.263ZM32.563,17.438A1.5,1.5,0,0,1,31.5,20h-21a1.5,1.5,0,1,1,0-3h21a1.51,1.51,0,0,1,1.063.438ZM13.993,5a5.821,5.821,0,0,0,4.151-1.741,3.854,3.854,0,0,1,5.7,0A5.825,5.825,0,0,0,28,5a9.581,9.581,0,0,0,4.809-1.594,4.182,4.182,0,0,1,1.519-.669C35.354,3.677,32.642,9.346,28.5,15H26V10a1,1,0,0,0-2,0v5H18V10a1,1,0,0,0-2,0v5H13.508C9.362,9.346,6.65,3.677,7.69,2.722a4.964,4.964,0,0,1,1.5.684A9.561,9.561,0,0,0,13.993,5Z"/>
        </g>
      </g>
    </g>
  </g>
</svg>
