<svg xmlns="http://www.w3.org/2000/svg" xmlns:xlink="http://www.w3.org/1999/xlink" width="400" height="376" viewBox="0 0 400 376">
  <defs>
    <clipPath id="clip-path">
      <rect id="Rectángulo_415491" data-name="Rectángulo 415491" width="400" height="376" transform="translate(180 3098)" fill="#fff" stroke="#707070" stroke-width="1" opacity="0.66"/>
    </clipPath>
    <clipPath id="clip-path-2">
      <path id="Trazado_1038433" data-name="Trazado 1038433" d="M77.6,339.467a30.5,30.5,0,0,0,4.83-1.758,43.381,43.381,0,0,0,4.173-2.148,46.894,46.894,0,0,0,7.044-5.068,50.659,50.659,0,0,0,10.3-12.387,50.11,50.11,0,0,0,5.981-14.955A46.389,46.389,0,0,0,111,294.537a43.221,43.221,0,0,0-.118-4.7,30.379,30.379,0,0,0-.782-5.092,30.3,30.3,0,0,0-4.846,1.748,42.915,42.915,0,0,0-4.182,2.143,46.331,46.331,0,0,0-7.048,5.067,50.057,50.057,0,0,0-10.274,12.4A50.606,50.606,0,0,0,77.8,321.082a46.791,46.791,0,0,0-1.083,8.611,43.288,43.288,0,0,0,.109,4.692A30.4,30.4,0,0,0,77.6,339.467Z" transform="translate(-76.699 -284.748)"/>
    </clipPath>
    <clipPath id="clip-path-3">
      <path id="Trazado_1038436" data-name="Trazado 1038436" d="M446.531,373.439a40.824,40.824,0,0,0,1.515-6.723,58.027,58.027,0,0,0,.6-6.263,62.779,62.779,0,0,0-.619-11.619,69.217,69.217,0,0,0-19.061-38.173,62.229,62.229,0,0,0-8.937-7.454,57.939,57.939,0,0,0-5.385-3.269,40.748,40.748,0,0,0-6.312-2.805,40.609,40.609,0,0,0-1.537,6.734,57.772,57.772,0,0,0-.61,6.269,62.25,62.25,0,0,0,.613,11.621,67.176,67.176,0,0,0,6.558,20.575,67.9,67.9,0,0,0,12.583,17.558,62.792,62.792,0,0,0,8.932,7.457,58.3,58.3,0,0,0,5.372,3.275A40.788,40.788,0,0,0,446.531,373.439Z" transform="translate(-406.134 -297.133)"/>
    </clipPath>
    <clipPath id="clip-path-4">
      <path id="Trazado_1038439" data-name="Trazado 1038439" d="M421.047,213.729s-10.608-11.987-14.593-27.895-5.544-37-23.319-32.132c-8.911,2.441-15.427,23.04,3.06,41.04C404.02,212.1,421.047,213.729,421.047,213.729Z" transform="translate(-374.35 -152.99)"/>
    </clipPath>
    <clipPath id="clip-path-5">
      <path id="Trazado_1038442" data-name="Trazado 1038442" d="M67.46,365.864s14.074-7.624,23.271-21.2,17.893-32.856,32.923-22.189c7.534,5.347,6.593,26.933-16.945,37.5C84.015,370.168,67.46,365.864,67.46,365.864Z" transform="translate(-67.46 -319.38)"/>
    </clipPath>
  </defs>
  <g id="Enmascarar_grupo_1098800" data-name="Enmascarar grupo 1098800" transform="translate(-180 -3098)" clip-path="url(#clip-path)">
    <g id="Grupo_1179078" data-name="Grupo 1179078" transform="translate(180 3135.269)">
      <path id="Trazado_1038430" data-name="Trazado 1038430" d="M402.285,363.122s62.634-60.377,14.53-112.408S317.42,219.993,246.474,145.487,105.969,46.6,63.463,107.608,20.715,312.173,99.389,363.121h302.9Z" transform="translate(-34.984 -73.098)" fill="#fdf4ee"/>
      <g id="OBJECTS" transform="translate(5.771 6.358)">
        <g id="Grupo_1178950" data-name="Grupo 1178950" transform="translate(6.441 190.512)">
          <g id="Grupo_1178946" data-name="Grupo 1178946" transform="translate(314.661)">
            <path id="Trazado_1038431" data-name="Trazado 1038431" d="M77.6,339.467a30.5,30.5,0,0,0,4.83-1.758,43.381,43.381,0,0,0,4.173-2.148,46.894,46.894,0,0,0,7.044-5.068,50.659,50.659,0,0,0,10.3-12.387,50.11,50.11,0,0,0,5.981-14.955A46.389,46.389,0,0,0,111,294.537a43.221,43.221,0,0,0-.118-4.7,30.379,30.379,0,0,0-.782-5.092,30.3,30.3,0,0,0-4.846,1.748,42.915,42.915,0,0,0-4.182,2.143,46.331,46.331,0,0,0-7.048,5.067,50.057,50.057,0,0,0-10.274,12.4A50.606,50.606,0,0,0,77.8,321.082a46.791,46.791,0,0,0-1.083,8.611,43.288,43.288,0,0,0,.109,4.692A30.4,30.4,0,0,0,77.6,339.467Z" transform="translate(-76.699 -284.748)" fill="#f15774"/>
            <g id="Grupo_1178945" data-name="Grupo 1178945">
              <g id="Grupo_1178944" data-name="Grupo 1178944" clip-path="url(#clip-path-2)">
                <path id="Trazado_1038432" data-name="Trazado 1038432" d="M85.8,298.4l-3.2-18.8-.46-2.7c-.07-.411.562-.575.633-.161q1.62,9.518,3.238,19.039.149.882.3,1.763l4.819-8.111q-1.6-9.4-3.2-18.8l-.46-2.7c-.071-.411.562-.576.633-.161q1.618,9.518,3.238,19.038.149.882.3,1.763l.886-1.491,3.055-5.141c.482-.811.92-1.681,1.459-2.456.023-.034.042-.071.062-.105a.326.326,0,0,1,.561.333q-1.86,3.132-3.722,6.265-.893,1.5-1.785,3,8.278-3.269,16.557-6.535l2.457-.97c.39-.153.547.481.161.633L94.03,288.937l-2.406.951q-2.4,4.034-4.791,8.065l16.557-6.534,2.458-.97c.39-.154.547.48.161.633L88.7,297.913l-2.406.95q-.6,1.017-1.207,2.033L81.5,306.928l16.557-6.535,2.457-.97c.39-.153.547.481.161.633l-17.309,6.832-2.406.951L76.17,315.9l16.558-6.535,2.457-.969c.39-.154.547.48.161.633l-17.309,6.832-2.406.95-1.259,2.117q-1.766,2.975-3.534,5.947L87.4,318.343l2.457-.97c.39-.154.547.48.161.632l-17.309,6.832-2.406.951-4.333,7.293,14.754-5.824q1.12-.442,2.243-.885c.39-.154.547.48.161.633l-15.6,6.157-2.1.828-.346.582-3.055,5.141c-.482.81-.92,1.681-1.458,2.456-.023.033-.042.07-.062.105a.326.326,0,0,1-.561-.333l3.722-6.264,1.194-2.01q-1.452-8.542-2.906-17.082l-.407-2.4c-.071-.411.561-.575.632-.161q1.465,8.614,2.931,17.229.131.776.263,1.551,2.22-3.736,4.438-7.471l-3.2-18.8-.46-2.7c-.07-.412.562-.576.633-.162q1.62,9.52,3.238,19.039.151.882.3,1.763l2.206-3.713,2.612-4.4q-1.6-9.4-3.2-18.8l-.46-2.7c-.07-.411.562-.576.633-.161q1.62,9.518,3.238,19.038.149.882.3,1.763l4.819-8.111-3.2-18.8-.46-2.7c-.07-.411.562-.576.633-.161q1.62,9.518,3.238,19.038.149.882.3,1.763l2.257-3.8Q84.525,300.558,85.8,298.4Z" transform="translate(-61.607 -283.545)" fill="#be1b28"/>
              </g>
            </g>
          </g>
          <g id="Grupo_1178949" data-name="Grupo 1178949" transform="translate(0 11.52)">
            <path id="Trazado_1038434" data-name="Trazado 1038434" d="M446.531,373.439a40.824,40.824,0,0,0,1.515-6.723,58.027,58.027,0,0,0,.6-6.263,62.779,62.779,0,0,0-.619-11.619,69.217,69.217,0,0,0-19.061-38.173,62.229,62.229,0,0,0-8.937-7.454,57.939,57.939,0,0,0-5.385-3.269,40.748,40.748,0,0,0-6.312-2.805,40.609,40.609,0,0,0-1.537,6.734,57.772,57.772,0,0,0-.61,6.269,62.25,62.25,0,0,0,.613,11.621,67.176,67.176,0,0,0,6.558,20.575,67.9,67.9,0,0,0,12.583,17.558,62.792,62.792,0,0,0,8.932,7.457,58.3,58.3,0,0,0,5.372,3.275A40.788,40.788,0,0,0,446.531,373.439Z" transform="translate(-406.134 -297.133)" fill="#f15774"/>
            <g id="Grupo_1178948" data-name="Grupo 1178948">
              <g id="Grupo_1178947" data-name="Grupo 1178947" clip-path="url(#clip-path-3)">
                <path id="Trazado_1038435" data-name="Trazado 1038435" d="M438.56,316.778l-23.527-10-3.385-1.44c-.515-.219-.243-1.05.276-.83l23.826,10.132,2.206.939q-2.831-5.656-5.663-11.311l-23.527-10-3.385-1.439c-.515-.22-.244-1.051.276-.831l23.826,10.132,2.205.939q-.519-1.039-1.04-2.078-1.794-3.584-3.59-7.17c-.566-1.131-1.23-2.255-1.714-3.425-.02-.05-.049-.1-.073-.146a.438.438,0,0,1,.782-.392l4.374,8.736q1.049,2.1,2.1,4.19,2.308-11.708,4.616-23.415.342-1.737.685-3.475c.109-.552.938-.27.83.276q-2.412,12.239-4.826,24.478-.335,1.7-.671,3.4,2.816,5.623,5.631,11.247,2.306-11.708,4.615-23.415.342-1.737.685-3.475c.109-.552.938-.27.831.276q-2.412,12.238-4.826,24.478-.335,1.7-.672,3.4l1.419,2.835,4.212,8.412q2.306-11.707,4.615-23.415.343-1.738.685-3.475c.109-.552.938-.27.831.276q-2.414,12.238-4.826,24.477-.335,1.7-.672,3.4,2.817,5.623,5.631,11.248,2.308-11.709,4.616-23.415.343-1.738.686-3.475c.108-.552.938-.27.83.276q-2.412,12.238-4.826,24.477-.335,1.7-.671,3.4.738,1.478,1.478,2.953,2.076,4.148,4.152,8.294,2.308-11.709,4.616-23.416.342-1.737.685-3.474c.108-.552.938-.27.83.276q-2.411,12.238-4.826,24.477-.335,1.7-.671,3.4,2.545,5.086,5.092,10.17l4.113-20.864.625-3.171c.109-.553.938-.27.831.276q-2.175,11.029-4.349,22.061-.292,1.483-.584,2.965l.406.811,3.589,7.17c.566,1.131,1.23,2.255,1.714,3.425.021.05.05.1.074.146a.438.438,0,0,1-.782.393l-4.373-8.736-1.4-2.8-21.379-9.09-3-1.277c-.515-.219-.243-1.05.276-.83l21.561,9.168,1.94.826-5.214-10.418-23.527-10-3.385-1.44c-.515-.219-.243-1.051.276-.831l23.826,10.132,2.206.939q-1.3-2.588-2.593-5.178l-3.07-6.133-23.527-10-3.385-1.44c-.516-.219-.244-1.051.276-.831l23.826,10.133,2.205.938-5.663-11.31-23.526-10-3.386-1.44c-.515-.219-.243-1.05.276-.83l23.827,10.132,2.205.938q-1.326-2.648-2.653-5.3Q440.067,319.785,438.56,316.778Z" transform="translate(-426.266 -295.628)" fill="#be1b28"/>
              </g>
            </g>
          </g>
        </g>
        <ellipse id="Elipse_12311" data-name="Elipse 12311" cx="192.919" cy="11.951" rx="192.919" ry="11.951" transform="translate(7.074 271.202)" fill="#f4dace"/>
        <g id="Grupo_1178957" data-name="Grupo 1178957" transform="translate(31.866 67.955)">
          <g id="Grupo_1178953" data-name="Grupo 1178953">
            <path id="Trazado_1038437" data-name="Trazado 1038437" d="M421.047,213.729s-10.608-11.987-14.593-27.895-5.544-37-23.319-32.132c-8.911,2.441-15.427,23.04,3.06,41.04C404.02,212.1,421.047,213.729,421.047,213.729Z" transform="translate(-374.35 -152.99)" fill="#709fe4"/>
            <g id="Grupo_1178952" data-name="Grupo 1178952">
              <g id="Grupo_1178951" data-name="Grupo 1178951" clip-path="url(#clip-path-4)">
                <path id="Trazado_1038438" data-name="Trazado 1038438" d="M379.057,152.977l17.35,10.3,1.787,1.061a67.309,67.309,0,0,1-1.226-16.752q.091-1.73.262-3.454c.047-.469.767-.347.721.119a67.645,67.645,0,0,0,.949,19.928l10.361-13.7,1.559-2.062c.284-.375.841.1.558.472q-5.423,7.174-10.847,14.347l-1.432,1.9c.3,1.405.639,2.8,1.04,4.189a65.176,65.176,0,0,0,2.691,7.5q6.23-8.4,12.46-16.8l1.783-2.4c.281-.378.837.095.559.472l-12.825,17.286q-.818,1.1-1.636,2.205a70.207,70.207,0,0,0,5.282,9.73l4.218-6.459,7.528-11.528q.859-1.317,1.72-2.633c.256-.393.813.082.558.472l-4.694,7.188-7.528,11.528-1.369,2.1c.154.232.3.468.457.7a79.064,79.064,0,0,0,6.408,8.171q4.328-8.642,8.659-17.285.622-1.245,1.246-2.488c.21-.42.874-.115.663.306q-4.452,8.891-8.906,17.78l-1.139,2.273q2.465,2.708,5.151,5.205,1.076,1,2.185,1.961,2.244-8.455,4.489-16.909l.661-2.492c.12-.451.841-.335.721.12q-2.324,8.754-4.648,17.508l-.611,2.3a89.6,89.6,0,0,0,7.918,6.053c1.165.791,2.348,1.552,3.556,2.272.56.333,1.185.611,1.721.98a.565.565,0,0,0,.074.039c.416.216.112.88-.306.663a51.424,51.424,0,0,1-4.486-2.71,88.685,88.685,0,0,1-9.013-6.813l-10.248-.5L397,204.3l-3.775-.185c-.47-.023-.345-.743.119-.721l10.315.506,16.441.806,2.695.132c-.18-.158-.366-.31-.543-.468a88.642,88.642,0,0,1-6.605-6.548l-13.021-2.868q-10.478-2.308-20.958-4.615l-4.8-1.058c-.458-.1-.34-.822.119-.721l13.153,2.9,20.958,4.615,3.729.821c-1.707-1.938-3.328-3.949-4.841-6.042q-.8-1.109-1.563-2.249a.437.437,0,0,1-.314,0l-12.8-4.846-20.37-7.712-4.635-1.755c-.44-.166-.132-.829.306-.663l12.8,4.846,20.37,7.712,4.085,1.547a70.955,70.955,0,0,1-5.381-9.916l-9.29-4.524-14.851-7.233-3.457-1.685a.365.365,0,0,1,.306-.663l9.4,4.58,14.85,7.233,2.58,1.256q-1.013-2.393-1.836-4.863a64.052,64.052,0,0,1-1.8-6.619l-17.2-10.212-2.44-1.449C378.35,153.4,378.653,152.736,379.057,152.977Z" transform="translate(-387.029 -152.351)" fill="#2450a5"/>
              </g>
            </g>
          </g>
          <g id="Grupo_1178956" data-name="Grupo 1178956" transform="translate(271.77 154.771)">
            <path id="Trazado_1038440" data-name="Trazado 1038440" d="M67.46,365.864s14.074-7.624,23.271-21.2,17.893-32.856,32.923-22.189c7.534,5.347,6.593,26.933-16.945,37.5C84.015,370.168,67.46,365.864,67.46,365.864Z" transform="translate(-67.46 -319.38)" fill="#709fe4"/>
            <g id="Grupo_1178955" data-name="Grupo 1178955">
              <g id="Grupo_1178954" data-name="Grupo 1178954" clip-path="url(#clip-path-5)">
                <path id="Trazado_1038441" data-name="Trazado 1038441" d="M129.97,327.637l-19.83,3.73-2.043.384a67.3,67.3,0,0,0,6.9-15.318q.509-1.655.938-3.334c.117-.457-.6-.589-.718-.136a67.673,67.673,0,0,1-7.724,18.395l-5.034-16.426-.758-2.471c-.138-.448-.823-.2-.686.252q2.636,8.6,5.27,17.2.349,1.136.7,2.271c-.767,1.216-1.562,2.416-2.414,3.578a64.871,64.871,0,0,1-5.1,6.122q-2.973-10.025-5.947-20.051l-.851-2.871c-.134-.45-.819-.2-.686.253q3.06,10.318,6.121,20.636.391,1.316.78,2.632a70.209,70.209,0,0,1-8.3,7.33q-.873-3.756-1.748-7.513l-3.12-13.409q-.356-1.533-.713-3.064c-.106-.456-.792-.2-.686.252q.972,4.18,1.945,8.361l3.12,13.41q.283,1.218.567,2.437c-.224.166-.443.337-.669.5a79.155,79.155,0,0,1-8.82,5.481q-1.105-9.6-2.208-19.206l-.318-2.764c-.054-.466-.781-.408-.728.06L79.48,354.11q.145,1.263.29,2.525-3.244,1.7-6.623,3.124-1.353.569-2.725,1.093.79-8.711,1.58-17.423.117-1.284.233-2.567c.042-.465-.675-.6-.717-.135q-.818,9.02-1.636,18.041l-.215,2.374a89.59,89.59,0,0,1-9.514,2.971c-1.365.343-2.737.653-4.121.915-.639.122-1.323.168-1.951.331a.515.515,0,0,1-.084.011c-.465.06-.407.789.06.728a51.34,51.34,0,0,0,5.143-1.007A88.7,88.7,0,0,0,70,361.78l9.8,3.042L95.523,369.7l3.61,1.12c.448.14.579-.579.135-.718q-4.931-1.531-9.863-3.061l-15.721-4.878-2.577-.8c.222-.086.448-.165.671-.253a88.2,88.2,0,0,0,8.45-3.888l13.215,1.77,21.27,2.849,4.873.652c.465.062.6-.655.135-.718l-13.349-1.788L85.1,357.138l-3.784-.507q3.4-1.854,6.618-4.016,1.134-.769,2.24-1.577a.436.436,0,0,0,.294.111l13.685-.164,21.78-.261,4.957-.06c.47-.006.407-.733-.061-.727l-13.685.165q-10.89.131-21.78.26L91,350.415a71.1,71.1,0,0,0,8.454-7.469l10.277-1.067,16.431-1.7,3.824-.4a.366.366,0,0,0-.06-.728l-10.4,1.079-16.43,1.7-2.854.3q1.771-1.9,3.391-3.939a63.9,63.9,0,0,0,3.955-5.6l19.658-3.7,2.79-.524C130.488,328.278,130.432,327.549,129.97,327.637Z" transform="translate(-58.007 -318.881)" fill="#2450a5"/>
              </g>
            </g>
          </g>
        </g>
        <g id="Grupo_1178994" data-name="Grupo 1178994" transform="translate(0 44.677)">
          <g id="Grupo_1178975" data-name="Grupo 1178975" transform="translate(266.252)">
            <path id="Trazado_1038443" data-name="Trazado 1038443" d="M87.016,162.449s-6-18.121,10.831-34.485C97.847,127.963,107.175,148.21,87.016,162.449Z" transform="translate(-19.457 -127.964)" fill="#709fe4"/>
            <g id="Grupo_1178958" data-name="Grupo 1178958" transform="translate(0 14.771)">
              <path id="Trazado_1038444" data-name="Trazado 1038444" d="M92.884,230.972a51.93,51.93,0,0,0,5.653-2.2,105.546,105.546,0,0,0,14.254-7.7,119.547,119.547,0,0,0,18.62-14.712A124.773,124.773,0,0,0,150.37,183a138.8,138.8,0,0,0,15.119-33.354q.758-2.481,1.432-4.986c.2-.732-.909-1.175-1.109-.434a141.372,141.372,0,0,1-14.376,34.739,124.433,124.433,0,0,1-18.612,24.325,120.162,120.162,0,0,1-18.688,15.48,106.778,106.778,0,0,1-14.8,8.333c-1.532.7-3.083,1.367-4.658,1.971a18.323,18.323,0,0,0-2.177.778.517.517,0,0,1-.1.031c-.735.223-.25,1.312.475,1.09Z" transform="translate(-92.044 -143.844)" fill="#2450a5"/>
            </g>
            <g id="Grupo_1178960" data-name="Grupo 1178960" transform="translate(52.368 15.373)">
              <path id="Trazado_1038445" data-name="Trazado 1038445" d="M109.567,179.112s-11.382-16.368-1.337-34.621C108.23,144.491,123.472,161.59,109.567,179.112Z" transform="translate(-104.087 -144.491)" fill="#709fe4"/>
              <g id="Grupo_1178959" data-name="Grupo 1178959" transform="translate(3.241 16.069)">
                <path id="Trazado_1038446" data-name="Trazado 1038446" d="M110.77,162.432a39.137,39.137,0,0,1,.539,7.139,51.9,51.9,0,0,1-2.653,16.59c-.244.724.864,1.163,1.109.434a52.866,52.866,0,0,0,2.729-16.9,40.832,40.832,0,0,0-.546-7.448c-.14-.752-1.318-.572-1.178.184Z" transform="translate(-108.621 -161.766)" fill="#2450a5"/>
              </g>
            </g>
            <g id="Grupo_1178962" data-name="Grupo 1178962" transform="translate(61.575 29.184)">
              <path id="Trazado_1038447" data-name="Trazado 1038447" d="M71.714,172.306s13.978,5.407,26.723-11.075C98.437,161.23,82.251,152.574,71.714,172.306Z" transform="translate(-66.2 -159.339)" fill="#709fe4"/>
              <g id="Grupo_1178961" data-name="Grupo 1178961" transform="translate(0 4.757)">
                <path id="Trazado_1038448" data-name="Trazado 1038448" d="M104.255,165.623a39.092,39.092,0,0,0-6.763,2.349,51.87,51.87,0,0,0-14.163,9.038c-.567.512-1.411-.329-.84-.845a52.855,52.855,0,0,1,14.418-9.231,40.807,40.807,0,0,1,7.05-2.464c.746-.17,1.049.981.3,1.152Z" transform="translate(-82.299 -164.454)" fill="#2450a5"/>
              </g>
            </g>
            <g id="Grupo_1178964" data-name="Grupo 1178964" transform="translate(51.031 47.683)">
              <path id="Trazado_1038449" data-name="Trazado 1038449" d="M79.3,190.709s16.166,6.917,29.967-8.691C109.268,182.017,91.112,171.712,79.3,190.709Z" transform="translate(-73.543 -179.227)" fill="#709fe4"/>
              <g id="Grupo_1178963" data-name="Grupo 1178963" transform="translate(0 4.36)">
                <path id="Trazado_1038450" data-name="Trazado 1038450" d="M115.5,185.093a39.166,39.166,0,0,0-6.9,1.9,51.882,51.882,0,0,0-14.726,8.088c-.6.473-1.386-.421-.783-.9a52.892,52.892,0,0,1,14.993-8.264,40.772,40.772,0,0,1,7.2-2c.754-.121.982,1.048.222,1.17Z" transform="translate(-92.875 -183.915)" fill="#2450a5"/>
              </g>
            </g>
            <g id="Grupo_1178966" data-name="Grupo 1178966" transform="translate(39.06 34.991)">
              <path id="Trazado_1038451" data-name="Trazado 1038451" d="M123.981,196.725s-11.959-12.89-1.913-31.143C122.067,165.581,137.887,179.2,123.981,196.725Z" transform="translate(-118.05 -165.582)" fill="#709fe4"/>
              <g id="Grupo_1178965" data-name="Grupo 1178965" transform="translate(3.693 12.59)">
                <path id="Trazado_1038452" data-name="Trazado 1038452" d="M124.591,179.783a39.138,39.138,0,0,1,.539,7.139,51.9,51.9,0,0,1-2.653,16.59c-.244.724.864,1.163,1.109.434a52.894,52.894,0,0,0,2.729-16.9,40.839,40.839,0,0,0-.546-7.448c-.141-.751-1.319-.571-1.178.185Z" transform="translate(-122.442 -179.117)" fill="#2450a5"/>
              </g>
            </g>
            <g id="Grupo_1178968" data-name="Grupo 1178968" transform="translate(39.624 65.728)">
              <path id="Trazado_1038453" data-name="Trazado 1038453" d="M84.972,206.2s18.711,10.863,35.468-1.517C120.439,204.684,100.491,190.093,84.972,206.2Z" transform="translate(-78.584 -198.626)" fill="#709fe4"/>
              <g id="Grupo_1178967" data-name="Grupo 1178967" transform="translate(0 4.062)">
                <path id="Trazado_1038454" data-name="Trazado 1038454" d="M127.527,204.219a39.191,39.191,0,0,0-7.148.415,51.905,51.905,0,0,0-16.091,4.832c-.686.339-1.267-.7-.579-1.042a52.889,52.889,0,0,1,16.389-4.949,40.808,40.808,0,0,1,7.454-.447c.765.04.743,1.232-.025,1.192Z" transform="translate(-103.4 -202.993)" fill="#2450a5"/>
              </g>
            </g>
            <g id="Grupo_1178970" data-name="Grupo 1178970" transform="translate(29.842 80.656)">
              <path id="Trazado_1038455" data-name="Trazado 1038455" d="M100.459,218.158s10.738,13.925,30.4,7.031C130.859,225.19,120.036,207.337,100.459,218.158Z" transform="translate(-93.627 -214.675)" fill="#709fe4"/>
              <g id="Grupo_1178969" data-name="Grupo 1178969" transform="translate(0 2.876)">
                <path id="Trazado_1038456" data-name="Trazado 1038456" d="M137.83,221.415a39.107,39.107,0,0,0-6.953-1.71,51.873,51.873,0,0,0-16.8-.124c-.754.121-1-1.044-.246-1.166a52.917,52.917,0,0,1,17.12.1,40.758,40.758,0,0,1,7.255,1.769c.718.264.346,1.4-.376,1.131Z" transform="translate(-113.371 -217.767)" fill="#2450a5"/>
              </g>
            </g>
            <g id="Grupo_1178972" data-name="Grupo 1178972" transform="translate(23.663 52.312)">
              <path id="Trazado_1038457" data-name="Trazado 1038457" d="M137.2,215.138s-9.27-14.941,4.085-30.934C141.285,184.2,154.2,200.6,137.2,215.138Z" transform="translate(-133.835 -184.204)" fill="#709fe4"/>
              <g id="Grupo_1178971" data-name="Grupo 1178971" transform="translate(0 12.808)">
                <path id="Trazado_1038458" data-name="Trazado 1038458" d="M145.346,198.527a39.226,39.226,0,0,1-.838,7.11,51.882,51.882,0,0,1-5.781,15.776c-.378.664.625,1.307,1.005.639a52.867,52.867,0,0,0,5.914-16.066,40.842,40.842,0,0,0,.89-7.414c.006-.766-1.184-.814-1.191-.045Z" transform="translate(-138.643 -197.974)" fill="#2450a5"/>
              </g>
            </g>
            <g id="Grupo_1178974" data-name="Grupo 1178974" transform="translate(11.18 94.605)">
              <path id="Trazado_1038459" data-name="Trazado 1038459" d="M121.553,231.888s9.1,15.044,29.416,10.407C150.969,242.293,142.223,223.338,121.553,231.888Z" transform="translate(-114.696 -229.672)" fill="#709fe4"/>
              <g id="Grupo_1178973" data-name="Grupo 1178973" transform="translate(0 1.486)">
                <path id="Trazado_1038460" data-name="Trazado 1038460" d="M157.856,237a39.072,39.072,0,0,0-6.716-2.481,51.883,51.883,0,0,0-16.681-2.013c-.763.035-.88-1.15-.113-1.186a52.871,52.871,0,0,1,17,2.025,40.84,40.84,0,0,1,7.011,2.574c.684.341.186,1.425-.5,1.081Z" transform="translate(-133.826 -231.27)" fill="#2450a5"/>
              </g>
            </g>
          </g>
          <g id="Grupo_1178993" data-name="Grupo 1178993" transform="translate(0 66.239)">
            <path id="Trazado_1038461" data-name="Trazado 1038461" d="M456.5,226s-19.038,1.4-30.8-18.918C425.7,207.083,447.609,202.976,456.5,226Z" transform="translate(-425.699 -199.708)" fill="#709fe4"/>
            <g id="Grupo_1178976" data-name="Grupo 1178976" transform="translate(13.296 14.501)">
              <path id="Trazado_1038462" data-name="Trazado 1038462" d="M439.516,307.707a51.784,51.784,0,0,0-.757-6.019,105.611,105.611,0,0,0-3.992-15.7,119.557,119.557,0,0,0-9.725-21.648,124.7,124.7,0,0,0-18.022-24.084,138.759,138.759,0,0,0-28.657-22.8q-2.221-1.341-4.485-2.605c-.661-.37-1.361.6-.692.969a141.331,141.331,0,0,1,30.181,22.417,124.387,124.387,0,0,1,19.048,23.983,120.144,120.144,0,0,1,10.451,21.9,106.726,106.726,0,0,1,4.472,16.382c.308,1.658.573,3.323.774,5a18.551,18.551,0,0,0,.223,2.3.522.522,0,0,1,.007.1c.038.766,1.213.563,1.175-.2Z" transform="translate(-372.914 -214.766)" fill="#2450a5"/>
            </g>
            <g id="Grupo_1178978" data-name="Grupo 1178978" transform="translate(9.571 29.199)">
              <path id="Trazado_1038463" data-name="Trazado 1038463" d="M445.977,240.862s-18.651,7.045-33.9-7.151C412.076,233.711,432.378,223.1,445.977,240.862Z" transform="translate(-412.076 -230.567)" fill="#709fe4"/>
              <g id="Grupo_1178977" data-name="Grupo 1178977" transform="translate(16.01 4.831)">
                <path id="Trazado_1038464" data-name="Trazado 1038464" d="M406.063,236.947a39.1,39.1,0,0,1,7.055,1.22,51.878,51.878,0,0,1,15.442,6.621c.643.413,1.339-.553.692-.969a52.885,52.885,0,0,0-15.723-6.77,40.859,40.859,0,0,0-7.357-1.287c-.764-.048-.876,1.138-.109,1.185Z" transform="translate(-405.541 -235.76)" fill="#2450a5"/>
              </g>
            </g>
            <g id="Grupo_1178980" data-name="Grupo 1178980" transform="translate(29.478)">
              <path id="Trazado_1038465" data-name="Trazado 1038465" d="M423.412,227.793s8.654-12.236-4.22-28.617C419.192,199.177,406.847,212.761,423.412,227.793Z" transform="translate(-414.77 -199.176)" fill="#709fe4"/>
              <g id="Grupo_1178979" data-name="Grupo 1178979" transform="translate(4.63 10.384)">
                <path id="Trazado_1038466" data-name="Trazado 1038466" d="M415.589,210.91a39.091,39.091,0,0,0,.628,7.132,51.88,51.88,0,0,0,5.309,15.94c.358.675-.664,1.288-1.025.609a52.885,52.885,0,0,1-5.435-16.234,40.9,40.9,0,0,1-.669-7.439c.017-.765,1.208-.778,1.192-.008Z" transform="translate(-414.391 -210.339)" fill="#2450a5"/>
              </g>
            </g>
            <g id="Grupo_1178982" data-name="Grupo 1178982" transform="translate(44.898 11.577)">
              <path id="Trazado_1038467" data-name="Trazado 1038467" d="M405.249,242.8s10.653-13.99-1.116-31.182C404.132,211.622,389.709,226.714,405.249,242.8Z" transform="translate(-398.041 -211.622)" fill="#709fe4"/>
              <g id="Grupo_1178981" data-name="Grupo 1178981" transform="translate(4.268 12.762)">
                <path id="Trazado_1038468" data-name="Trazado 1038468" d="M401.058,225.951a39.153,39.153,0,0,0,.157,7.158,51.9,51.9,0,0,0,4.249,16.255c.313.7-.747,1.242-1.061.54a52.91,52.91,0,0,1-4.357-16.557,40.777,40.777,0,0,1-.178-7.465c.068-.763,1.257-.7,1.19.07Z" transform="translate(-399.764 -225.342)" fill="#2450a5"/>
              </g>
            </g>
            <g id="Grupo_1178984" data-name="Grupo 1178984" transform="translate(25.316 46.183)">
              <path id="Trazado_1038469" data-name="Trazado 1038469" d="M429.291,258.543S413.873,267,398.622,252.8C398.622,252.8,415.693,240.783,429.291,258.543Z" transform="translate(-398.622 -248.826)" fill="#709fe4"/>
              <g id="Grupo_1178983" data-name="Grupo 1178983" transform="translate(12.779 4.251)">
                <path id="Trazado_1038470" data-name="Trazado 1038470" d="M392.609,254.584a39.186,39.186,0,0,1,7.054,1.22,51.929,51.929,0,0,1,15.443,6.621c.642.413,1.339-.554.692-.969a52.852,52.852,0,0,0-15.724-6.77,40.864,40.864,0,0,0-7.356-1.288c-.765-.047-.877,1.139-.109,1.186Z" transform="translate(-392.086 -253.397)" fill="#2450a5"/>
              </g>
            </g>
            <g id="Grupo_1178986" data-name="Grupo 1178986" transform="translate(59.307 21.894)">
              <path id="Trazado_1038471" data-name="Trazado 1038471" d="M384.569,257.48s15.1-15.495,7.183-34.766C391.752,222.713,372.734,238.5,384.569,257.48Z" transform="translate(-380.69 -222.714)" fill="#709fe4"/>
              <g id="Grupo_1178985" data-name="Grupo 1178985" transform="translate(3.106 16.272)">
                <path id="Trazado_1038472" data-name="Trazado 1038472" d="M391.464,240.94a39.206,39.206,0,0,0-1.341,7.033,51.922,51.922,0,0,0,.76,16.784c.161.748-.99,1.059-1.151.307a52.857,52.857,0,0,1-.8-17.1,40.876,40.876,0,0,1,1.385-7.338c.224-.732,1.374-.42,1.148.315Z" transform="translate(-388.579 -240.208)" fill="#2450a5"/>
              </g>
            </g>
            <g id="Grupo_1178988" data-name="Grupo 1178988" transform="translate(69.901 40.592)">
              <path id="Trazado_1038473" data-name="Trazado 1038473" d="M367.591,270.581s16.123-7.016,14.236-27.765C381.826,242.816,361.873,248.956,367.591,270.581Z" transform="translate(-366.074 -242.816)" fill="#709fe4"/>
              <g id="Grupo_1178987" data-name="Grupo 1178987" transform="translate(0 10.513)">
                <path id="Trazado_1038474" data-name="Trazado 1038474" d="M382.89,255.02a39.189,39.189,0,0,0-3.355,6.325,51.842,51.842,0,0,0-4.218,16.262c-.067.761-1.258.719-1.191-.046a52.867,52.867,0,0,1,4.274-16.577,40.891,40.891,0,0,1,3.485-6.605c.431-.632,1.438,0,1,.642Z" transform="translate(-374.123 -254.118)" fill="#2450a5"/>
              </g>
            </g>
            <g id="Grupo_1178990" data-name="Grupo 1178990" transform="translate(39.197 64.183)">
              <path id="Trazado_1038475" data-name="Trazado 1038475" d="M414.494,281.49s-16.752,5.344-29-11.509C385.492,269.981,404.547,261.454,414.494,281.49Z" transform="translate(-385.492 -268.178)" fill="#709fe4"/>
              <g id="Grupo_1178989" data-name="Grupo 1178989" transform="translate(12.358 4.621)">
                <path id="Trazado_1038476" data-name="Trazado 1038476" d="M380.109,274.311a39.233,39.233,0,0,1,6.69,2.549,51.915,51.915,0,0,1,13.889,9.454c.552.528,1.419-.287.865-.819a52.86,52.86,0,0,0-14.137-9.656,40.906,40.906,0,0,0-6.973-2.672c-.741-.192-1.079.951-.334,1.144Z" transform="translate(-379.691 -273.146)" fill="#2450a5"/>
              </g>
            </g>
            <g id="Grupo_1178992" data-name="Grupo 1178992" transform="translate(76.954 63.54)">
              <path id="Trazado_1038477" data-name="Trazado 1038477" d="M355.482,293.473s16.81-5.158,17.269-25.987C372.75,267.485,352.233,271.342,355.482,293.473Z" transform="translate(-353.266 -267.486)" fill="#709fe4"/>
              <g id="Grupo_1178991" data-name="Grupo 1178991" transform="translate(0 9.596)">
                <path id="Trazado_1038478" data-name="Trazado 1038478" d="M375.079,278.762a39.132,39.132,0,0,0-4.045,5.907,51.9,51.9,0,0,0-6.022,15.685c-.152.749-1.33.573-1.178-.18a52.9,52.9,0,0,1,6.111-15.991,40.8,40.8,0,0,1,4.207-6.171c.5-.58,1.429.166.926.75Z" transform="translate(-363.821 -277.802)" fill="#2450a5"/>
              </g>
            </g>
          </g>
        </g>
        <g id="Grupo_1178998" data-name="Grupo 1178998" transform="translate(72.117 20.042)">
          <g id="Grupo_1178995" data-name="Grupo 1178995" transform="translate(0 18.897)">
            <path id="Trazado_1038479" data-name="Trazado 1038479" d="M266.146,170.914l6.636-1.2a46.38,46.38,0,0,1,9.1-21.975l-3.841-5.541a1.708,1.708,0,0,1,.188-2.094l4.871-4.871a1.707,1.707,0,0,1,2.094-.189l5.541,3.84a46.37,46.37,0,0,1,21.976-9.1l1.2-6.636a1.708,1.708,0,0,1,1.614-1.348h6.888a1.707,1.707,0,0,1,1.614,1.348l1.2,6.636a46.374,46.374,0,0,1,21.976,9.1l5.541-3.84a1.707,1.707,0,0,1,2.094.189l4.871,4.871a1.708,1.708,0,0,1,.188,2.094l-3.841,5.541a46.359,46.359,0,0,1,9.1,21.975l6.636,1.2a1.707,1.707,0,0,1,1.347,1.614v6.889a1.7,1.7,0,0,1-1.347,1.613l-6.636,1.2a46.378,46.378,0,0,1-9.1,21.976l3.841,5.541a1.708,1.708,0,0,1-.188,2.094l-4.871,4.871a1.706,1.706,0,0,1-2.094.188l-5.541-3.84a46.374,46.374,0,0,1-21.976,9.1l-1.2,6.636a1.707,1.707,0,0,1-1.614,1.348h-6.888a1.707,1.707,0,0,1-1.614-1.348l-1.2-6.636a46.37,46.37,0,0,1-21.976-9.1l-5.541,3.84a1.707,1.707,0,0,1-2.094-.188l-4.871-4.871a1.708,1.708,0,0,1-.188-2.094l3.841-5.541a46.359,46.359,0,0,1-9.1-21.976l-6.636-1.2a1.705,1.705,0,0,1-1.347-1.613v-6.889A1.706,1.706,0,0,1,266.146,170.914ZM318.973,198.3a22.33,22.33,0,1,0-22.33-22.33A22.331,22.331,0,0,0,318.973,198.3Z" transform="translate(-264.799 -121.796)" fill="#f1af77"/>
            <path id="Trazado_1038480" data-name="Trazado 1038480" d="M320.8,148.038a29.767,29.767,0,1,1-29.767,29.767A29.768,29.768,0,0,1,320.8,148.038Zm0,50.537a20.77,20.77,0,1,0-20.769-20.77A20.77,20.77,0,0,0,320.8,198.575Z" transform="translate(-266.629 -123.629)" fill="#e87d34"/>
          </g>
          <g id="Grupo_1178996" data-name="Grupo 1178996" transform="translate(173.677 39.378)">
            <path id="Trazado_1038481" data-name="Trazado 1038481" d="M119.86,175.681l4.306-.78a30.082,30.082,0,0,1,5.9-14.258l-2.491-3.6a1.109,1.109,0,0,1,.122-1.359l3.161-3.16a1.107,1.107,0,0,1,1.358-.122l3.6,2.492a30.077,30.077,0,0,1,14.258-5.9l.78-4.3a1.108,1.108,0,0,1,1.047-.874h4.469a1.108,1.108,0,0,1,1.047.874l.78,4.3a30.083,30.083,0,0,1,14.258,5.9l3.6-2.492a1.108,1.108,0,0,1,1.358.122l3.161,3.16a1.108,1.108,0,0,1,.122,1.359l-2.491,3.6a30.1,30.1,0,0,1,5.9,14.258l4.3.78a1.108,1.108,0,0,1,.874,1.047V181.2a1.107,1.107,0,0,1-.874,1.046l-4.3.78a30.1,30.1,0,0,1-5.9,14.258l2.491,3.6a1.108,1.108,0,0,1-.122,1.358L177.41,205.4a1.108,1.108,0,0,1-1.358.122l-3.6-2.492a30.083,30.083,0,0,1-14.258,5.9l-.78,4.3a1.108,1.108,0,0,1-1.047.874H151.9a1.108,1.108,0,0,1-1.047-.874l-.78-4.3a30.09,30.09,0,0,1-14.258-5.9l-3.6,2.492a1.108,1.108,0,0,1-1.358-.122l-3.161-3.161a1.106,1.106,0,0,1-.122-1.358l2.491-3.6a30.1,30.1,0,0,1-5.9-14.258l-4.306-.78a1.107,1.107,0,0,1-.874-1.046v-4.469A1.109,1.109,0,0,1,119.86,175.681Zm34.275,17.77a14.488,14.488,0,1,0-14.488-14.488A14.489,14.489,0,0,0,154.135,193.45Z" transform="translate(-118.986 -143.815)" fill="#f1af77"/>
            <path id="Trazado_1038482" data-name="Trazado 1038482" d="M155.325,160.838a19.313,19.313,0,1,1-19.313,19.313A19.313,19.313,0,0,1,155.325,160.838Zm0,32.788a13.475,13.475,0,1,0-13.475-13.475A13.475,13.475,0,0,0,155.325,193.626Z" transform="translate(-120.176 -145.004)" fill="#e87d34"/>
          </g>
          <g id="Grupo_1178997" data-name="Grupo 1178997" transform="translate(117.995)">
            <path id="Trazado_1038483" data-name="Trazado 1038483" d="M193.485,127.478l3.512-.637a24.543,24.543,0,0,1,4.816-11.632l-2.032-2.933a.9.9,0,0,1,.1-1.108l2.578-2.578a.9.9,0,0,1,1.108-.1l2.933,2.032a24.545,24.545,0,0,1,11.632-4.817l.637-3.512a.905.905,0,0,1,.855-.713h3.646a.9.9,0,0,1,.854.713l.637,3.512a24.545,24.545,0,0,1,11.632,4.817l2.933-2.032a.9.9,0,0,1,1.108.1l2.577,2.578a.9.9,0,0,1,.1,1.108l-2.032,2.933a24.543,24.543,0,0,1,4.816,11.632l3.512.637a.9.9,0,0,1,.713.854v3.646a.9.9,0,0,1-.713.854l-3.512.637a24.543,24.543,0,0,1-4.816,11.632l2.032,2.933a.9.9,0,0,1-.1,1.108l-2.577,2.577a.9.9,0,0,1-1.108.1l-2.933-2.032a24.543,24.543,0,0,1-11.632,4.816l-.637,3.512a.9.9,0,0,1-.854.713h-3.646a.9.9,0,0,1-.855-.713l-.637-3.512a24.543,24.543,0,0,1-11.632-4.816l-2.933,2.032a.9.9,0,0,1-1.108-.1l-2.578-2.577a.9.9,0,0,1-.1-1.108l2.032-2.933A24.543,24.543,0,0,1,197,133.469l-3.512-.637a.9.9,0,0,1-.713-.854v-3.646A.9.9,0,0,1,193.485,127.478Zm27.961,14.5a11.819,11.819,0,1,0-11.82-11.819A11.818,11.818,0,0,0,221.446,141.975Z" transform="translate(-192.772 -101.48)" fill="#f1af77"/>
            <path id="Trazado_1038484" data-name="Trazado 1038484" d="M222.416,115.37a15.756,15.756,0,1,1-15.755,15.756A15.755,15.755,0,0,1,222.416,115.37Zm0,26.748a10.993,10.993,0,1,0-10.993-10.993A10.993,10.993,0,0,0,222.416,142.118Z" transform="translate(-193.742 -102.45)" fill="#e87d34"/>
          </g>
        </g>
        <g id="Grupo_1178999" data-name="Grupo 1178999" transform="translate(1.136 0)">
          <path id="Trazado_1038485" data-name="Trazado 1038485" d="M101.807,277.408l1.458-3.794,1.459,3.794,3.515,1.4-3.515,1.4-1.459,3.794-1.458-3.794-3.515-1.4Z" transform="translate(225.967 -93.459)" fill="#2450a5"/>
          <path id="Trazado_1038486" data-name="Trazado 1038486" d="M62.91,236.289l2.148-5.586,2.147,5.586,5.176,2.067-5.176,2.066-2.147,5.586-2.148-5.586-5.175-2.066Z" transform="translate(299.55 -90.462)" fill="#2450a5"/>
          <path id="Trazado_1038487" data-name="Trazado 1038487" d="M125.327,115.822l1.459-3.793,1.458,3.793,3.515,1.4-3.515,1.4-1.458,3.8-1.459-3.8-3.515-1.4Z" transform="translate(180.57 -82.174)" fill="#2450a5"/>
          <path id="Trazado_1038488" data-name="Trazado 1038488" d="M155.726,90.988l3.69-9.6,3.689,9.6L172,94.538l-8.892,3.55-3.689,9.6-3.69-9.6-8.892-3.55Z" transform="translate(117.056 -80.035)" fill="#2450a5"/>
          <path id="Trazado_1038489" data-name="Trazado 1038489" d="M341.331,85.519l2.148-5.586,2.147,5.586,5.176,2.067-5.176,2.066-2.147,5.586-2.148-5.586-5.175-2.066Z" transform="translate(-237.849 -79.933)" fill="#2450a5"/>
          <path id="Trazado_1038490" data-name="Trazado 1038490" d="M372.062,118.639l1.458-3.793,1.458,3.793,3.515,1.4-3.515,1.4-1.458,3.8-1.458-3.8-3.515-1.4Z" transform="translate(-295.67 -82.371)" fill="#2450a5"/>
          <path id="Trazado_1038491" data-name="Trazado 1038491" d="M439.43,267.192l3.689-9.6,3.689,9.6,8.892,3.549-8.892,3.55-3.689,9.6-3.689-9.6-8.893-3.55Z" transform="translate(-430.537 -92.34)" fill="#2450a5"/>
          <path id="Trazado_1038492" data-name="Trazado 1038492" d="M307.539,94.593,309,90.8l1.458,3.794,3.516,1.4-3.516,1.4L309,101.194,307.539,97.4,304.023,96Z" transform="translate(-171.128 -80.692)" fill="#2450a5"/>
          <path id="Trazado_1038493" data-name="Trazado 1038493" d="M232.715,188.515l1.458-3.794,1.459,3.794,3.514,1.4-3.514,1.4-1.459,3.794-1.458-3.794-3.515-1.4Z" transform="translate(-26.707 -87.251)" fill="#2450a5"/>
        </g>
        <g id="Grupo_1179032" data-name="Grupo 1179032" transform="translate(35.848 94.099)">
          <rect id="Rectángulo_415486" data-name="Rectángulo 415486" width="121.353" height="178.777" transform="translate(29.766 6.922)" fill="#fff"/>
          <path id="Trazado_1038494" data-name="Trazado 1038494" d="M418.037,188.539,388.27,367.316h29.767Z" transform="translate(-388.27 -181.617)" fill="#f1c4ba"/>
          <rect id="Rectángulo_415487" data-name="Rectángulo 415487" width="121.353" height="29.196" transform="translate(29.766 6.922)" fill="#f15774"/>
          <g id="Grupo_1179022" data-name="Grupo 1179022" transform="translate(34.836 47.995)">
            <g id="Grupo_1179010" data-name="Grupo 1179010">
              <g id="Grupo_1179004" data-name="Grupo 1179004">
                <g id="Grupo_1179000" data-name="Grupo 1179000" transform="translate(87.442)">
                  <path id="Trazado_1038495" data-name="Trazado 1038495" d="M263.255,256.469h23.774V232.695H263.255Zm23.045-.729H263.983V233.424H286.3Z" transform="translate(-263.255 -232.695)" fill="#f1af77"/>
                </g>
                <g id="Grupo_1179001" data-name="Grupo 1179001" transform="translate(58.294)">
                  <path id="Trazado_1038496" data-name="Trazado 1038496" d="M294.591,256.469h23.774V232.695H294.591Zm23.045-.729H295.319V233.424h22.317Z" transform="translate(-294.591 -232.695)" fill="#f1af77"/>
                </g>
                <g id="Grupo_1179002" data-name="Grupo 1179002" transform="translate(29.148)">
                  <path id="Trazado_1038497" data-name="Trazado 1038497" d="M325.926,256.469H349.7V232.695H325.926Zm23.045-.729H326.654V233.424h22.316Z" transform="translate(-325.926 -232.695)" fill="#f1af77"/>
                </g>
                <g id="Grupo_1179003" data-name="Grupo 1179003">
                  <path id="Trazado_1038498" data-name="Trazado 1038498" d="M357.262,256.469h23.774V232.695H357.262Zm23.045-.729H357.991V233.424h22.316Z" transform="translate(-357.262 -232.695)" fill="#f1af77"/>
                </g>
              </g>
              <g id="Grupo_1179009" data-name="Grupo 1179009" transform="translate(0 34.561)">
                <g id="Grupo_1179005" data-name="Grupo 1179005" transform="translate(87.442)">
                  <path id="Trazado_1038499" data-name="Trazado 1038499" d="M263.255,293.625h23.774V269.851H263.255ZM286.3,292.9H263.983V270.581H286.3Z" transform="translate(-263.255 -269.851)" fill="#f1af77"/>
                </g>
                <g id="Grupo_1179006" data-name="Grupo 1179006" transform="translate(58.294)">
                  <path id="Trazado_1038500" data-name="Trazado 1038500" d="M294.591,293.625h23.774V269.851H294.591Zm23.045-.728H295.319V270.581h22.317Z" transform="translate(-294.591 -269.851)" fill="#f1af77"/>
                </g>
                <g id="Grupo_1179007" data-name="Grupo 1179007" transform="translate(29.148)">
                  <path id="Trazado_1038501" data-name="Trazado 1038501" d="M325.926,293.625H349.7V269.851H325.926Zm23.045-.728H326.654V270.581h22.316Z" transform="translate(-325.926 -269.851)" fill="#f1af77"/>
                </g>
                <g id="Grupo_1179008" data-name="Grupo 1179008">
                  <path id="Trazado_1038502" data-name="Trazado 1038502" d="M357.262,293.625h23.774V269.851H357.262Zm23.045-.728H357.991V270.581h22.316Z" transform="translate(-357.262 -269.851)" fill="#f1af77"/>
                </g>
              </g>
            </g>
            <g id="Grupo_1179021" data-name="Grupo 1179021" transform="translate(0 69.123)">
              <g id="Grupo_1179015" data-name="Grupo 1179015">
                <g id="Grupo_1179011" data-name="Grupo 1179011" transform="translate(87.442)">
                  <path id="Trazado_1038503" data-name="Trazado 1038503" d="M263.255,330.782h23.774V307.008H263.255Zm23.045-.729H263.983V307.737H286.3Z" transform="translate(-263.255 -307.008)" fill="#f1af77"/>
                </g>
                <g id="Grupo_1179012" data-name="Grupo 1179012" transform="translate(58.294)">
                  <path id="Trazado_1038504" data-name="Trazado 1038504" d="M294.591,330.782h23.774V307.008H294.591Zm23.045-.729H295.319V307.737h22.317Z" transform="translate(-294.591 -307.008)" fill="#f1af77"/>
                </g>
                <g id="Grupo_1179013" data-name="Grupo 1179013" transform="translate(29.148)">
                  <path id="Trazado_1038505" data-name="Trazado 1038505" d="M325.926,330.782H349.7V307.008H325.926Zm23.045-.729H326.654V307.737h22.316Z" transform="translate(-325.926 -307.008)" fill="#f1af77"/>
                </g>
                <g id="Grupo_1179014" data-name="Grupo 1179014">
                  <path id="Trazado_1038506" data-name="Trazado 1038506" d="M357.262,330.782h23.774V307.008H357.262Zm23.045-.729H357.991V307.737h22.316Z" transform="translate(-357.262 -307.008)" fill="#f1af77"/>
                </g>
              </g>
              <g id="Grupo_1179020" data-name="Grupo 1179020" transform="translate(0 34.563)">
                <g id="Grupo_1179016" data-name="Grupo 1179016" transform="translate(87.442)">
                  <path id="Trazado_1038507" data-name="Trazado 1038507" d="M263.255,367.939h23.774V344.166H263.255Zm23.045-.729H263.983V344.894H286.3Z" transform="translate(-263.255 -344.166)" fill="#f1af77"/>
                </g>
                <g id="Grupo_1179017" data-name="Grupo 1179017" transform="translate(58.294)">
                  <path id="Trazado_1038508" data-name="Trazado 1038508" d="M294.591,367.939h23.774V344.166H294.591Zm23.045-.729H295.319V344.894h22.317Z" transform="translate(-294.591 -344.166)" fill="#f1af77"/>
                </g>
                <g id="Grupo_1179018" data-name="Grupo 1179018" transform="translate(29.148)">
                  <path id="Trazado_1038509" data-name="Trazado 1038509" d="M325.926,367.939H349.7V344.166H325.926Zm23.045-.729H326.654V344.894h22.316Z" transform="translate(-325.926 -344.166)" fill="#f1af77"/>
                </g>
                <g id="Grupo_1179019" data-name="Grupo 1179019">
                  <path id="Trazado_1038510" data-name="Trazado 1038510" d="M357.262,367.939h23.774V344.166H357.262Zm23.045-.729H357.991V344.894h22.316Z" transform="translate(-357.262 -344.166)" fill="#f1af77"/>
                </g>
              </g>
            </g>
          </g>
          <g id="Grupo_1179031" data-name="Grupo 1179031" transform="translate(36.269)">
            <g id="Grupo_1179026" data-name="Grupo 1179026" transform="translate(71.103)">
              <g id="Grupo_1179023" data-name="Grupo 1179023" transform="translate(14.468)">
                <path id="Trazado_1038511" data-name="Trazado 1038511" d="M281.09,194.89a3.811,3.811,0,1,0,3.811-3.811A3.811,3.811,0,0,0,281.09,194.89Z" transform="translate(-281.09 -181.794)" fill="#be1b28"/>
                <path id="Trazado_1038512" data-name="Trazado 1038512" d="M285.038,195.071h0a2,2,0,0,0,1.99-1.989v-10a2,2,0,0,0-1.99-1.989h0a1.994,1.994,0,0,0-1.989,1.989v10A1.994,1.994,0,0,0,285.038,195.071Z" transform="translate(-281.227 -181.097)" fill="#2450a5"/>
              </g>
              <g id="Grupo_1179024" data-name="Grupo 1179024" transform="translate(28.936)">
                <path id="Trazado_1038513" data-name="Trazado 1038513" d="M265.536,194.89a3.811,3.811,0,1,0,3.812-3.811A3.811,3.811,0,0,0,265.536,194.89Z" transform="translate(-265.536 -181.794)" fill="#be1b28"/>
                <path id="Trazado_1038514" data-name="Trazado 1038514" d="M269.486,195.071h0a1.994,1.994,0,0,0,1.989-1.989v-10a1.994,1.994,0,0,0-1.989-1.989h0a2,2,0,0,0-1.99,1.989v10A2,2,0,0,0,269.486,195.071Z" transform="translate(-265.675 -181.097)" fill="#2450a5"/>
              </g>
              <g id="Grupo_1179025" data-name="Grupo 1179025" transform="translate(0)">
                <path id="Trazado_1038515" data-name="Trazado 1038515" d="M296.644,194.89a3.811,3.811,0,1,0,3.811-3.811A3.811,3.811,0,0,0,296.644,194.89Z" transform="translate(-296.644 -181.794)" fill="#be1b28"/>
                <path id="Trazado_1038516" data-name="Trazado 1038516" d="M300.592,195.071h0a2,2,0,0,0,1.99-1.989v-10a2,2,0,0,0-1.99-1.989h0a1.994,1.994,0,0,0-1.989,1.989v10A1.994,1.994,0,0,0,300.592,195.071Z" transform="translate(-296.781 -181.097)" fill="#2450a5"/>
              </g>
            </g>
            <g id="Grupo_1179030" data-name="Grupo 1179030">
              <g id="Grupo_1179027" data-name="Grupo 1179027" transform="translate(14.467)">
                <path id="Trazado_1038517" data-name="Trazado 1038517" d="M357.532,194.89a3.811,3.811,0,1,0,3.812-3.811A3.811,3.811,0,0,0,357.532,194.89Z" transform="translate(-357.532 -181.794)" fill="#be1b28"/>
                <path id="Trazado_1038518" data-name="Trazado 1038518" d="M361.481,195.071h0a1.994,1.994,0,0,0,1.989-1.989v-10a1.994,1.994,0,0,0-1.989-1.989h0a2,2,0,0,0-1.99,1.989v10A2,2,0,0,0,361.481,195.071Z" transform="translate(-357.669 -181.097)" fill="#2450a5"/>
              </g>
              <g id="Grupo_1179028" data-name="Grupo 1179028" transform="translate(28.935)">
                <path id="Trazado_1038519" data-name="Trazado 1038519" d="M341.978,194.89a3.811,3.811,0,1,0,3.812-3.811A3.811,3.811,0,0,0,341.978,194.89Z" transform="translate(-341.978 -181.794)" fill="#be1b28"/>
                <path id="Trazado_1038520" data-name="Trazado 1038520" d="M345.927,195.071h0a1.994,1.994,0,0,0,1.989-1.989v-10a1.994,1.994,0,0,0-1.989-1.989h0a2,2,0,0,0-1.99,1.989v10A2,2,0,0,0,345.927,195.071Z" transform="translate(-342.115 -181.097)" fill="#2450a5"/>
              </g>
              <g id="Grupo_1179029" data-name="Grupo 1179029" transform="translate(0)">
                <path id="Trazado_1038521" data-name="Trazado 1038521" d="M373.085,194.89a3.811,3.811,0,1,0,3.811-3.811A3.811,3.811,0,0,0,373.085,194.89Z" transform="translate(-373.085 -181.794)" fill="#be1b28"/>
                <path id="Trazado_1038522" data-name="Trazado 1038522" d="M377.034,195.071h0a2,2,0,0,0,1.99-1.989v-10a2,2,0,0,0-1.99-1.989h0a1.994,1.994,0,0,0-1.989,1.989v10A2,2,0,0,0,377.034,195.071Z" transform="translate(-373.224 -181.097)" fill="#2450a5"/>
              </g>
            </g>
          </g>
          <path id="Trazado_1038523" data-name="Trazado 1038523" d="M393.131,217.735H388.27l4.861-29.2Z" transform="translate(-363.364 -181.617)" fill="#be1b28"/>
        </g>
        <g id="Grupo_1179040" data-name="Grupo 1179040" transform="translate(225.813 101.021)">
          <g id="Grupo_1179037" data-name="Grupo 1179037" transform="translate(8.565 5.815)">
            <path id="Trazado_1038524" data-name="Trazado 1038524" d="M142.038,280.141s2.339-1.245,2.509-3.045c-.169-1.8-2.509-3.044-2.509-3.044-55.424-34.578-43.395-79.26-43.395-79.26H198.1s12.029,44.682-43.395,79.26c0,0-2.339,1.244-2.51,3.044.17,1.8,2.51,3.045,2.51,3.045C210.13,314.719,198.1,359.4,198.1,359.4H98.643S86.614,314.719,142.038,280.141Z" transform="translate(-97.54 -194.791)" fill="#fcfafa"/>
            <g id="Grupo_1179036" data-name="Grupo 1179036" transform="translate(4.887 34.936)">
              <path id="Trazado_1038525" data-name="Trazado 1038525" d="M102.881,344.714c10.528,3,24.842,3.134,41.775-.833l2.358-71.345a74.157,74.157,0,0,1-36.063-32.39,85.977,85.977,0,0,0,37.787-3.583c18.947-6.1,32.068-4.591,40.4-1.633a74,74,0,0,1-38.68,37.6l2.286,69.193c.367-.109.728-.207,1.1-.32,21.058-6.453,33.6-4.878,40.085-2.766,1.823,11.256-.244,18.938-.244,18.938h-89.9A44.73,44.73,0,0,1,102.881,344.714Z" transform="translate(-102.793 -232.35)" fill="#f1af77"/>
              <g id="Grupo_1179035" data-name="Grupo 1179035" transform="translate(5.846 4.27)">
                <g id="Grupo_1179033" data-name="Grupo 1179033" transform="translate(11.487)">
                  <path id="Trazado_1038526" data-name="Trazado 1038526" d="M115.652,237.808a.867.867,0,1,0,.867-.867A.867.867,0,0,0,115.652,237.808Z" transform="translate(-54.789 -236.941)" fill="#f49c5b"/>
                  <path id="Trazado_1038527" data-name="Trazado 1038527" d="M128.789,239.961a1.762,1.762,0,1,0,1.762-1.762A1.762,1.762,0,0,0,128.789,239.961Z" transform="translate(-81.936 -237.029)" fill="#f49c5b"/>
                  <path id="Trazado_1038528" data-name="Trazado 1038528" d="M122.19,246.394a.854.854,0,1,0,.854-.854A.855.855,0,0,0,122.19,246.394Z" transform="translate(-67.384 -237.542)" fill="#f49c5b"/>
                  <path id="Trazado_1038529" data-name="Trazado 1038529" d="M128.789,255.049a1.762,1.762,0,1,0,1.762-1.762A1.761,1.761,0,0,0,128.789,255.049Z" transform="translate(-81.936 -238.083)" fill="#f49c5b"/>
                  <path id="Trazado_1038530" data-name="Trazado 1038530" d="M137.461,247.312a.854.854,0,1,0,.854-.855A.854.854,0,0,0,137.461,247.312Z" transform="translate(-96.859 -237.606)" fill="#f49c5b"/>
                  <path id="Trazado_1038531" data-name="Trazado 1038531" d="M145.53,241.923a.854.854,0,1,0,.855-.854A.855.855,0,0,0,145.53,241.923Z" transform="translate(-112.434 -237.229)" fill="#f49c5b"/>
                  <path id="Trazado_1038532" data-name="Trazado 1038532" d="M147.367,251.8a1.762,1.762,0,1,0,1.762-1.762A1.762,1.762,0,0,0,147.367,251.8Z" transform="translate(-117.794 -237.856)" fill="#f49c5b"/>
                  <path id="Trazado_1038533" data-name="Trazado 1038533" d="M138.381,260.289a.854.854,0,1,0,.854-.854A.854.854,0,0,0,138.381,260.289Z" transform="translate(-98.634 -238.512)" fill="#f49c5b"/>
                  <path id="Trazado_1038534" data-name="Trazado 1038534" d="M148.39,266.557a.854.854,0,1,0,.854-.854A.855.855,0,0,0,148.39,266.557Z" transform="translate(-117.954 -238.95)" fill="#f49c5b"/>
                  <path id="Trazado_1038535" data-name="Trazado 1038535" d="M158.726,248.23a.854.854,0,1,0,.855-.854A.855.855,0,0,0,158.726,248.23Z" transform="translate(-137.904 -237.67)" fill="#f49c5b"/>
                  <path id="Trazado_1038536" data-name="Trazado 1038536" d="M156.832,261.14a1.762,1.762,0,1,0,1.762-1.762A1.761,1.761,0,0,0,156.832,261.14Z" transform="translate(-136.063 -238.508)" fill="#f49c5b"/>
                  <path id="Trazado_1038537" data-name="Trazado 1038537" d="M170.488,253.694a1.762,1.762,0,1,0,1.762-1.762A1.761,1.761,0,0,0,170.488,253.694Z" transform="translate(-162.422 -237.988)" fill="#f49c5b"/>
                  <path id="Trazado_1038538" data-name="Trazado 1038538" d="M181.111,246.394a.854.854,0,1,0,.854-.854A.855.855,0,0,0,181.111,246.394Z" transform="translate(-181.111 -237.542)" fill="#f49c5b"/>
                </g>
                <g id="Grupo_1179034" data-name="Grupo 1179034" transform="translate(0 105.465)">
                  <path id="Trazado_1038539" data-name="Trazado 1038539" d="M108.289,351.191a.867.867,0,1,0,.867-.867A.867.867,0,0,0,108.289,351.191Z" transform="translate(-29.091 -350.324)" fill="#f49c5b"/>
                  <path id="Trazado_1038540" data-name="Trazado 1038540" d="M118.951,353.017a1.762,1.762,0,1,0,1.762-1.762A1.763,1.763,0,0,0,118.951,353.017Z" transform="translate(-51.46 -350.389)" fill="#f49c5b"/>
                  <path id="Trazado_1038541" data-name="Trazado 1038541" d="M111.069,361.5a.854.854,0,1,0,.854-.855A.854.854,0,0,0,111.069,361.5Z" transform="translate(-34.431 -351.044)" fill="#f49c5b"/>
                  <path id="Trazado_1038542" data-name="Trazado 1038542" d="M130.683,361.428a1.762,1.762,0,1,0,1.762-1.761A1.762,1.762,0,0,0,130.683,361.428Z" transform="translate(-74.105 -350.977)" fill="#f49c5b"/>
                  <path id="Trazado_1038543" data-name="Trazado 1038543" d="M142.23,362.414a.854.854,0,1,0,.854-.854A.854.854,0,0,0,142.23,362.414Z" transform="translate(-94.577 -351.109)" fill="#f49c5b"/>
                  <path id="Trazado_1038544" data-name="Trazado 1038544" d="M165.508,361.5a.854.854,0,1,0,.854-.855A.854.854,0,0,0,165.508,361.5Z" transform="translate(-139.508 -351.044)" fill="#f49c5b"/>
                  <path id="Trazado_1038545" data-name="Trazado 1038545" d="M153.9,359.535a1.762,1.762,0,1,0,1.762-1.763A1.761,1.761,0,0,0,153.9,359.535Z" transform="translate(-118.919 -350.844)" fill="#f49c5b"/>
                  <path id="Trazado_1038546" data-name="Trazado 1038546" d="M134.528,353.085a.854.854,0,1,0,.854-.854A.854.854,0,0,0,134.528,353.085Z" transform="translate(-79.712 -350.457)" fill="#f49c5b"/>
                  <path id="Trazado_1038547" data-name="Trazado 1038547" d="M175.2,359.6a.854.854,0,1,0,.855-.855A.854.854,0,0,0,175.2,359.6Z" transform="translate(-158.207 -350.912)" fill="#f49c5b"/>
                  <path id="Trazado_1038548" data-name="Trazado 1038548" d="M183.657,362.414a.854.854,0,1,0,.854-.854A.855.855,0,0,0,183.657,362.414Z" transform="translate(-174.539 -351.109)" fill="#f49c5b"/>
                  <path id="Trazado_1038549" data-name="Trazado 1038549" d="M191.51,359.535a1.761,1.761,0,1,0,1.762-1.763A1.761,1.761,0,0,0,191.51,359.535Z" transform="translate(-191.51 -350.844)" fill="#f49c5b"/>
                </g>
              </g>
            </g>
            <path id="Trazado_1038550" data-name="Trazado 1038550" d="M192.887,280.141s2.339-1.245,2.509-3.045c-.169-1.8-2.509-3.044-2.509-3.044-55.424-34.578-43.395-79.26-43.395-79.26h7.359s-12.029,44.683,43.395,79.26c0,0,2.339,1.244,2.509,3.044-.169,1.8-2.509,3.045-2.509,3.045-55.424,34.578-43.395,79.26-43.395,79.26h-7.359S137.464,314.719,192.887,280.141Z" transform="translate(-148.39 -194.791)" fill="#be1b28" opacity="0.1"/>
          </g>
          <g id="Grupo_1179038" data-name="Grupo 1179038">
            <path id="Trazado_1038551" data-name="Trazado 1038551" d="M88.333,195.591c0,3.878,4.308,7.052,9.573,7.052h99.647c5.265,0,9.572-3.173,9.572-7.052s-4.308-7.052-9.572-7.052H97.906C92.641,188.539,88.333,191.712,88.333,195.591Z" transform="translate(-88.333 -188.539)" fill="#be1b28"/>
            <path id="Trazado_1038552" data-name="Trazado 1038552" d="M197.553,203.171H97.906c-5.265,0-9.573-3.173-9.573-7.052H207.125C207.125,200,202.818,203.171,197.553,203.171Z" transform="translate(-88.333 -189.068)" fill="#db3347"/>
          </g>
          <g id="Grupo_1179039" data-name="Grupo 1179039" transform="translate(0 163.375)">
            <path id="Trazado_1038553" data-name="Trazado 1038553" d="M88.333,371.231c0,3.878,4.308,7.051,9.573,7.051h99.647c5.265,0,9.572-3.173,9.572-7.051s-4.308-7.051-9.572-7.051H97.906C92.641,364.18,88.333,367.353,88.333,371.231Z" transform="translate(-88.333 -364.18)" fill="#be1b28"/>
            <path id="Trazado_1038554" data-name="Trazado 1038554" d="M197.553,378.811H97.906c-5.265,0-9.573-3.173-9.573-7.051H207.125C207.125,375.638,202.818,378.811,197.553,378.811Z" transform="translate(-88.333 -364.709)" fill="#db3347"/>
          </g>
        </g>
        <g id="Grupo_1179077" data-name="Grupo 1179077" transform="translate(134.215 146.994)">
          <g id="Grupo_1179071" data-name="Grupo 1179071" transform="translate(5.184 0)">
            <g id="Grupo_1179050" data-name="Grupo 1179050" transform="translate(0 12.422)">
              <g id="Grupo_1179041" data-name="Grupo 1179041" transform="translate(0 0)">
                <rect id="Rectángulo_415488" data-name="Rectángulo 415488" width="88.317" height="34.146" transform="translate(43.548 93.671) rotate(-119.544)" fill="#2450a5"/>
                <path id="Trazado_1038555" data-name="Trazado 1038555" d="M239.335,267l15.209-8.618a5.228,5.228,0,0,0,7.125,1.969l35.582,62.785a5.228,5.228,0,0,0-1.97,7.125l-15.209,8.62a5.228,5.228,0,0,0-7.125-1.97l-35.583-62.785A5.227,5.227,0,0,0,239.335,267Z" transform="translate(-230.669 -251.812)" fill="#709fe4"/>
              </g>
              <g id="Grupo_1179049" data-name="Grupo 1179049" transform="translate(18.005 17.979)">
                <g id="Grupo_1179043" data-name="Grupo 1179043" transform="translate(6.949 17.159)">
                  <path id="Trazado_1038556" data-name="Trazado 1038556" d="M262.919,290.616a11.683,11.683,0,1,0,15.924,4.4A11.682,11.682,0,0,0,262.919,290.616Z" transform="translate(-256.994 -289.094)" fill="#2450a5"/>
                  <g id="Grupo_1179042" data-name="Grupo 1179042" transform="translate(3.577 4.736)">
                    <path id="Trazado_1038557" data-name="Trazado 1038557" d="M262.389,300.019a5.415,5.415,0,0,0,.413,3.452L261,304.494l.914,1.612,1.757-1a10.035,10.035,0,0,0,1.708,2.036,6.578,6.578,0,0,0,1.857,1.248l1.465-2a6.687,6.687,0,0,1-1.572-1,7.575,7.575,0,0,1-1.346-1.473l2.693-1.526a14.1,14.1,0,0,0,1.71,1.588,3.93,3.93,0,0,0,1.741.759,3.058,3.058,0,0,0,2.035-.45,3.572,3.572,0,0,0,1.744-2.277,5.327,5.327,0,0,0-.426-3.475l1.791-1.015-.913-1.612-1.757,1a8.165,8.165,0,0,0-2.839-2.715l-1.526,1.93a7.377,7.377,0,0,1,2.236,1.992l-2.741,1.553a13.279,13.279,0,0,0-1.671-1.577,3.838,3.838,0,0,0-1.728-.757,3.023,3.023,0,0,0-2.018.441A3.5,3.5,0,0,0,262.389,300.019Zm9.39,1.665a2.871,2.871,0,0,1-.938-.641l2.289-1.3a2.014,2.014,0,0,1,.052,1.165,1.2,1.2,0,0,1-.568.705A.943.943,0,0,1,271.779,301.684Zm-6.923-.527a1.083,1.083,0,0,1,.528-.683.961.961,0,0,1,.83-.076,2.972,2.972,0,0,1,.94.606l-2.225,1.26A2,2,0,0,1,264.856,301.157Z" transform="translate(-260.996 -294.186)" fill="#709fe4"/>
                  </g>
                </g>
                <g id="Grupo_1179048" data-name="Grupo 1179048">
                  <g id="Grupo_1179045" data-name="Grupo 1179045" transform="translate(26.71 47.131)">
                    <path id="Trazado_1038558" data-name="Trazado 1038558" d="M252.2,322a5.278,5.278,0,1,0,7.194,1.99A5.276,5.276,0,0,0,252.2,322Z" transform="translate(-249.524 -321.317)" fill="#2450a5"/>
                    <g id="Grupo_1179044" data-name="Grupo 1179044" transform="translate(1.616 2.138)">
                      <path id="Trazado_1038559" data-name="Trazado 1038559" d="M251.964,326.252a2.448,2.448,0,0,0,.185,1.559l-.816.462.413.728.793-.449a4.553,4.553,0,0,0,.772.919,2.99,2.99,0,0,0,.838.565l.661-.905a3.027,3.027,0,0,1-.711-.453,3.413,3.413,0,0,1-.606-.667l1.217-.689a6.214,6.214,0,0,0,.772.717,1.765,1.765,0,0,0,.786.343,1.381,1.381,0,0,0,.92-.2,1.609,1.609,0,0,0,.787-1.03,2.393,2.393,0,0,0-.192-1.57l.808-.459-.412-.728-.794.45a3.667,3.667,0,0,0-1.282-1.227l-.689.872a3.322,3.322,0,0,1,1.011.9l-1.238.7a6.182,6.182,0,0,0-.756-.712,1.744,1.744,0,0,0-.78-.342,1.366,1.366,0,0,0-.913.2A1.588,1.588,0,0,0,251.964,326.252Zm4.242.752a1.284,1.284,0,0,1-.423-.289l1.033-.586a.9.9,0,0,1,.023.525.539.539,0,0,1-.256.319A.426.426,0,0,1,256.205,327Zm-3.128-.237a.49.49,0,0,1,.239-.309.431.431,0,0,1,.375-.034,1.334,1.334,0,0,1,.424.274l-1,.568A.912.912,0,0,1,253.077,326.766Z" transform="translate(-251.333 -323.615)" fill="#709fe4"/>
                    </g>
                  </g>
                  <g id="Grupo_1179047" data-name="Grupo 1179047" transform="translate(0)">
                    <path id="Trazado_1038560" data-name="Trazado 1038560" d="M280.917,271.334a5.278,5.278,0,1,0,7.193,1.99A5.278,5.278,0,0,0,280.917,271.334Z" transform="translate(-278.24 -270.647)" fill="#2450a5"/>
                    <g id="Grupo_1179046" data-name="Grupo 1179046" transform="translate(1.616 2.137)">
                      <path id="Trazado_1038561" data-name="Trazado 1038561" d="M280.679,275.582a2.448,2.448,0,0,0,.186,1.559l-.816.462.413.728.792-.449a4.587,4.587,0,0,0,.772.919,2.97,2.97,0,0,0,.838.564l.662-.905a3.006,3.006,0,0,1-.711-.453,3.384,3.384,0,0,1-.606-.667l1.216-.689a6.361,6.361,0,0,0,.772.718,1.777,1.777,0,0,0,.787.343,1.379,1.379,0,0,0,.919-.2,1.612,1.612,0,0,0,.789-1.03,2.412,2.412,0,0,0-.193-1.57l.808-.458-.413-.729-.793.45a3.68,3.68,0,0,0-1.284-1.227l-.688.872a3.353,3.353,0,0,1,1.01.9l-1.238.7a6.2,6.2,0,0,0-.754-.712,1.753,1.753,0,0,0-.78-.341,1.37,1.37,0,0,0-.913.2A1.6,1.6,0,0,0,280.679,275.582Zm4.243.752a1.282,1.282,0,0,1-.425-.289l1.035-.586a.922.922,0,0,1,.023.526.542.542,0,0,1-.257.318A.422.422,0,0,1,284.922,276.334Zm-3.129-.237a.5.5,0,0,1,.239-.31.434.434,0,0,1,.375-.033,1.332,1.332,0,0,1,.426.274l-1.006.569A.9.9,0,0,1,281.793,276.1Z" transform="translate(-280.049 -272.945)" fill="#709fe4"/>
                    </g>
                  </g>
                </g>
              </g>
            </g>
            <g id="Grupo_1179060" data-name="Grupo 1179060" transform="translate(39.403 2.412)">
              <g id="Grupo_1179051" data-name="Grupo 1179051">
                <rect id="Rectángulo_415489" data-name="Rectángulo 415489" width="88.312" height="34.145" transform="matrix(-0.095, -0.995, 0.995, -0.095, 8.425, 91.167)" fill="#2450a5"/>
                <path id="Trazado_1038562" data-name="Trazado 1038562" d="M229.855,246.117l17.4-1.669a5.227,5.227,0,0,0,5.7,4.7l6.885,71.837a5.229,5.229,0,0,0-4.7,5.7l-17.4,1.668a5.227,5.227,0,0,0-5.7-4.7l-6.884-71.838A5.226,5.226,0,0,0,229.855,246.117Z" transform="translate(-221.302 -240.828)" fill="#709fe4"/>
              </g>
              <g id="Grupo_1179059" data-name="Grupo 1179059" transform="translate(9.511 13.335)">
                <g id="Grupo_1179053" data-name="Grupo 1179053" transform="translate(0 20.558)">
                  <path id="Trazado_1038563" data-name="Trazado 1038563" d="M241.807,277.048a11.683,11.683,0,1,0,12.744,10.516A11.684,11.684,0,0,0,241.807,277.048Z" transform="translate(-231.237 -276.994)" fill="#2450a5"/>
                  <g id="Grupo_1179052" data-name="Grupo 1179052" transform="translate(2.912 6.339)">
                    <path id="Trazado_1038564" data-name="Trazado 1038564" d="M237.5,285.4a5.42,5.42,0,0,0-1.032,3.32l-2.066.2.176,1.845,2.011-.193a10.054,10.054,0,0,0,.729,2.555,6.611,6.611,0,0,0,1.187,1.9l2.152-1.231a6.7,6.7,0,0,1-1.025-1.559,7.611,7.611,0,0,1-.629-1.895l3.081-.294a14.118,14.118,0,0,0,.913,2.147,3.93,3.93,0,0,0,1.28,1.4,3.057,3.057,0,0,0,2.042.418,3.571,3.571,0,0,0,2.522-1.368,5.319,5.319,0,0,0,1.028-3.348l2.048-.2-.177-1.844-2.01.192a8.132,8.132,0,0,0-1.485-3.636l-2.179,1.14a7.373,7.373,0,0,1,1.231,2.73l-3.137.3a13.532,13.532,0,0,0-.883-2.121,3.85,3.85,0,0,0-1.27-1.4,3.028,3.028,0,0,0-2.022-.42A3.5,3.5,0,0,0,237.5,285.4Zm7.894,5.349a2.856,2.856,0,0,1-.6-.965l2.619-.252a2.009,2.009,0,0,1-.427,1.085,1.2,1.2,0,0,1-.808.412A.946.946,0,0,1,245.391,290.746Zm-6.107-3.3a1.079,1.079,0,0,1,.761-.408.962.962,0,0,1,.79.27,2.992,2.992,0,0,1,.611.938l-2.546.244A1.992,1.992,0,0,1,239.284,287.441Z" transform="translate(-234.399 -283.809)" fill="#709fe4"/>
                  </g>
                </g>
                <g id="Grupo_1179058" data-name="Grupo 1179058" transform="translate(3.822)">
                  <g id="Grupo_1179055" data-name="Grupo 1179055" transform="translate(5.168 53.927)">
                    <path id="Trazado_1038565" data-name="Trazado 1038565" d="M240.12,312.893a5.278,5.278,0,1,0,5.757,4.75A5.278,5.278,0,0,0,240.12,312.893Z" transform="translate(-235.345 -312.869)" fill="#2450a5"/>
                    <g id="Grupo_1179054" data-name="Grupo 1179054" transform="translate(1.315 2.861)">
                      <path id="Trazado_1038566" data-name="Trazado 1038566" d="M238.172,316.664a2.456,2.456,0,0,0-.466,1.5l-.934.089.08.833.909-.087a4.516,4.516,0,0,0,.329,1.154,2.952,2.952,0,0,0,.536.857l.973-.555a3.014,3.014,0,0,1-.462-.705,3.377,3.377,0,0,1-.284-.856l1.392-.134a6.437,6.437,0,0,0,.412.97,1.776,1.776,0,0,0,.579.634,1.38,1.38,0,0,0,.922.189,1.614,1.614,0,0,0,1.139-.618,2.41,2.41,0,0,0,.464-1.512l.926-.088-.08-.833-.909.086a3.676,3.676,0,0,0-.671-1.643l-.985.514a3.343,3.343,0,0,1,.555,1.233l-1.417.136a6.05,6.05,0,0,0-.4-.959,1.747,1.747,0,0,0-.574-.631,1.37,1.37,0,0,0-.913-.19A1.6,1.6,0,0,0,238.172,316.664Zm3.567,2.416a1.28,1.28,0,0,1-.27-.436l1.183-.113a.906.906,0,0,1-.193.489.546.546,0,0,1-.365.186A.417.417,0,0,1,241.739,319.08Zm-2.76-1.492a.489.489,0,0,1,.345-.184.432.432,0,0,1,.356.121,1.364,1.364,0,0,1,.276.424l-1.151.11A.9.9,0,0,1,238.979,317.588Z" transform="translate(-236.772 -315.945)" fill="#709fe4"/>
                    </g>
                  </g>
                  <g id="Grupo_1179057" data-name="Grupo 1179057" transform="translate(0)">
                    <path id="Trazado_1038567" data-name="Trazado 1038567" d="M245.675,254.917a5.278,5.278,0,1,0,5.759,4.749A5.276,5.276,0,0,0,245.675,254.917Z" transform="translate(-240.901 -254.893)" fill="#2450a5"/>
                    <g id="Grupo_1179056" data-name="Grupo 1179056" transform="translate(1.315 2.864)">
                      <path id="Trazado_1038568" data-name="Trazado 1038568" d="M243.728,258.689a2.453,2.453,0,0,0-.466,1.5l-.933.09.08.833.909-.087a4.49,4.49,0,0,0,.329,1.154,2.992,2.992,0,0,0,.536.858l.973-.557a2.982,2.982,0,0,1-.462-.7,3.421,3.421,0,0,1-.284-.857l1.392-.133a6.3,6.3,0,0,0,.412.971,1.77,1.77,0,0,0,.579.633,1.383,1.383,0,0,0,.923.189,1.61,1.61,0,0,0,1.139-.618,2.4,2.4,0,0,0,.464-1.512l.926-.088-.08-.833-.909.087a3.682,3.682,0,0,0-.671-1.643l-.984.515a3.308,3.308,0,0,1,.555,1.233l-1.417.136a6.087,6.087,0,0,0-.4-.959,1.746,1.746,0,0,0-.574-.631,1.364,1.364,0,0,0-.913-.189A1.577,1.577,0,0,0,243.728,258.689Zm3.567,2.417a1.319,1.319,0,0,1-.27-.437l1.184-.114a.9.9,0,0,1-.193.489.535.535,0,0,1-.365.186A.425.425,0,0,1,247.3,261.106Zm-2.76-1.494a.488.488,0,0,1,.344-.184.432.432,0,0,1,.356.121,1.37,1.37,0,0,1,.276.424l-1.15.11A.914.914,0,0,1,244.535,259.612Z" transform="translate(-242.329 -257.972)" fill="#709fe4"/>
                    </g>
                  </g>
                </g>
              </g>
            </g>
            <g id="Grupo_1179070" data-name="Grupo 1179070" transform="translate(55.979)">
              <g id="Grupo_1179061" data-name="Grupo 1179061">
                <rect id="Rectángulo_415490" data-name="Rectángulo 415490" width="88.315" height="34.146" transform="translate(0 82.107) rotate(-68.389)" fill="#2450a5"/>
                <path id="Trazado_1038569" data-name="Trazado 1038569" d="M219.331,244.1l16.252,6.439a5.227,5.227,0,0,0,2.935,6.785l-26.579,67.094a5.228,5.228,0,0,0-6.785,2.935L188.9,320.918a5.227,5.227,0,0,0-2.935-6.785l26.579-67.095A5.228,5.228,0,0,0,219.331,244.1Z" transform="translate(-180.104 -238.392)" fill="#709fe4"/>
              </g>
              <g id="Grupo_1179069" data-name="Grupo 1179069" transform="translate(16.881 16.877)">
                <g id="Grupo_1179063" data-name="Grupo 1179063" transform="translate(3.57 18.776)">
                  <path id="Trazado_1038570" data-name="Trazado 1038570" d="M217.64,277.116a11.683,11.683,0,1,0,6.559,15.165A11.684,11.684,0,0,0,217.64,277.116Z" transform="translate(-201.651 -276.292)" fill="#2450a5"/>
                  <g id="Grupo_1179062" data-name="Grupo 1179062" transform="translate(3.301 5.42)">
                    <path id="Trazado_1038571" data-name="Trazado 1038571" d="M210.124,282.457a5.408,5.408,0,0,0-2.431,2.485l-1.929-.765-.683,1.724,1.878.743a10.071,10.071,0,0,0-.514,2.608,6.564,6.564,0,0,0,.193,2.229l2.478-.115a6.7,6.7,0,0,1-.2-1.854,7.521,7.521,0,0,1,.3-1.973l2.878,1.14a13.887,13.887,0,0,0-.165,2.327,3.926,3.926,0,0,0,.5,1.832,3.046,3.046,0,0,0,1.627,1.3,3.573,3.573,0,0,0,2.868-.069,5.334,5.334,0,0,0,2.44-2.512l1.912.758.683-1.724-1.878-.744a8.127,8.127,0,0,0,.334-3.914l-2.46.022a7.365,7.365,0,0,1-.149,2.991l-2.929-1.161a13.316,13.316,0,0,0,.18-2.291,3.84,3.84,0,0,0-.495-1.82,3.022,3.022,0,0,0-1.609-1.3A3.5,3.5,0,0,0,210.124,282.457Zm4.593,8.358a2.9,2.9,0,0,1-.09-1.133l2.446.97a2.015,2.015,0,0,1-.873.77,1.2,1.2,0,0,1-.907,0A.948.948,0,0,1,214.718,290.814Zm-3.932-5.724a1.092,1.092,0,0,1,.863-.018.962.962,0,0,1,.58.6,3.036,3.036,0,0,1,.117,1.113l-2.378-.943A2,2,0,0,1,210.786,285.09Z" transform="translate(-205.082 -282.119)" fill="#709fe4"/>
                  </g>
                </g>
                <g id="Grupo_1179068" data-name="Grupo 1179068">
                  <g id="Grupo_1179065" data-name="Grupo 1179065" transform="translate(0 50.365)">
                    <path id="Trazado_1038572" data-name="Trazado 1038572" d="M226.488,310.625a5.278,5.278,0,1,0,2.963,6.851A5.28,5.28,0,0,0,226.488,310.625Z" transform="translate(-219.265 -310.253)" fill="#2450a5"/>
                    <g id="Grupo_1179064" data-name="Grupo 1179064" transform="translate(1.491 2.449)">
                      <path id="Trazado_1038573" data-name="Trazado 1038573" d="M223.095,313.039a2.442,2.442,0,0,0-1.1,1.123l-.872-.346-.31.779.849.336a4.51,4.51,0,0,0-.233,1.178,2.934,2.934,0,0,0,.087,1.007l1.119-.052a3.033,3.033,0,0,1-.091-.838,3.4,3.4,0,0,1,.136-.891l1.3.515a6.418,6.418,0,0,0-.074,1.052,1.759,1.759,0,0,0,.226.827,1.388,1.388,0,0,0,.735.59,1.612,1.612,0,0,0,1.3-.033,2.4,2.4,0,0,0,1.1-1.135l.864.342.308-.779-.848-.336a3.672,3.672,0,0,0,.151-1.767l-1.111.01a3.329,3.329,0,0,1-.067,1.351l-1.324-.524a6.1,6.1,0,0,0,.082-1.034,1.721,1.721,0,0,0-.224-.822,1.369,1.369,0,0,0-.727-.586A1.572,1.572,0,0,0,223.095,313.039Zm2.075,3.776a1.308,1.308,0,0,1-.041-.513l1.105.439a.9.9,0,0,1-.394.348.533.533,0,0,1-.409,0A.421.421,0,0,1,225.17,316.814Zm-1.777-2.586a.482.482,0,0,1,.39-.007.429.429,0,0,1,.262.27,1.373,1.373,0,0,1,.053.5l-1.074-.425A.9.9,0,0,1,223.393,314.228Z" transform="translate(-220.816 -312.886)" fill="#709fe4"/>
                    </g>
                  </g>
                  <g id="Grupo_1179067" data-name="Grupo 1179067" transform="translate(19.954)">
                    <path id="Trazado_1038574" data-name="Trazado 1038574" d="M205.036,256.479A5.278,5.278,0,1,0,208,263.33,5.277,5.277,0,0,0,205.036,256.479Z" transform="translate(-197.813 -256.107)" fill="#2450a5"/>
                    <g id="Grupo_1179066" data-name="Grupo 1179066" transform="translate(1.491 2.448)">
                      <path id="Trazado_1038575" data-name="Trazado 1038575" d="M201.64,258.891a2.45,2.45,0,0,0-1.1,1.124l-.871-.346-.309.778.849.337a4.517,4.517,0,0,0-.233,1.178,2.94,2.94,0,0,0,.087,1.008l1.119-.053a2.991,2.991,0,0,1-.091-.837,3.348,3.348,0,0,1,.138-.891l1.3.514a6.321,6.321,0,0,0-.074,1.052,1.766,1.766,0,0,0,.227.828,1.379,1.379,0,0,0,.735.589,1.616,1.616,0,0,0,1.3-.032,2.4,2.4,0,0,0,1.1-1.135l.864.342.308-.779-.848-.336a3.673,3.673,0,0,0,.151-1.767l-1.112.01a3.326,3.326,0,0,1-.067,1.35l-1.323-.524a6.185,6.185,0,0,0,.081-1.034,1.727,1.727,0,0,0-.224-.822,1.365,1.365,0,0,0-.727-.586A1.58,1.58,0,0,0,201.64,258.891Zm2.075,3.776a1.306,1.306,0,0,1-.041-.513l1.105.438a.912.912,0,0,1-.394.348.54.54,0,0,1-.41,0A.426.426,0,0,1,203.715,262.667Zm-1.777-2.586a.49.49,0,0,1,.39-.007.428.428,0,0,1,.262.271,1.368,1.368,0,0,1,.053.5l-1.074-.426A.887.887,0,0,1,201.939,260.081Z" transform="translate(-199.362 -258.738)" fill="#709fe4"/>
                    </g>
                  </g>
                </g>
              </g>
            </g>
          </g>
          <g id="Grupo_1179076" data-name="Grupo 1179076" transform="translate(0 52.437)">
            <g id="Grupo_1179073" data-name="Grupo 1179073" transform="translate(6.162)">
              <path id="Trazado_1038576" data-name="Trazado 1038576" d="M179.311,365.353a9.378,9.378,0,0,0,9.351,9.351h100.9a9.377,9.377,0,0,0,9.35-9.351V303.688a9.378,9.378,0,0,0-9.35-9.351h-100.9a9.378,9.378,0,0,0-9.351,9.351Z" transform="translate(-179.311 -294.337)" fill="#f1c4ba"/>
              <path id="Trazado_1038577" data-name="Trazado 1038577" d="M259.59,294.338h7.8a47.882,47.882,0,0,0-7.874,25.962c0,23.332,17.873,43.674,44.351,54.4H259.59a9.378,9.378,0,0,1-9.351-9.351V303.688A9.378,9.378,0,0,1,259.59,294.338Z" transform="translate(-250.239 -294.337)" fill="#f4b6ab"/>
              <g id="Grupo_1179072" data-name="Grupo 1179072" transform="translate(2.444 2.695)">
                <path id="Trazado_1038578" data-name="Trazado 1038578" d="M191.134,372.212h3.393v-1.246h-3.392a7.9,7.9,0,0,1-2.04-.268l-.323,1.2A9.2,9.2,0,0,0,191.134,372.212Zm9.012,0h5.619v-1.246h-5.619Zm11.238,0H217v-1.246h-5.619Zm11.238,0h5.619v-1.246h-5.619Zm11.238,0h5.619v-1.246h-5.619Zm11.238,0h5.619v-1.246H245.1Zm11.238,0h5.619v-1.246h-5.619Zm11.237,0h5.619v-1.246h-5.619Zm11.238,0h5.619v-1.246h-5.619Zm11.385-.42a9.3,9.3,0,0,0,4.775-3.495l-1.019-.719a8.056,8.056,0,0,1-4.132,3.025Zm-106.347-3.18.988-.76a7.864,7.864,0,0,1-1.653-4.841l-1.247-.034v.034A9.091,9.091,0,0,0,183.851,368.611Zm111.556-5.966h1.246v-5.619h-1.246Zm-113.47-5.289h1.247v-5.619h-1.247Zm113.47-5.949h1.246v-5.619h-1.246Zm-113.47-5.288h1.247V340.5h-1.247Zm113.47-5.95h1.246v-5.619h-1.246Zm-113.47-5.288h1.247v-5.62h-1.247Zm113.47-5.95h1.246v-5.619h-1.246Zm-113.47-5.288h1.247v-5.619h-1.247Zm113.47-5.95h1.246v-5.619h-1.246ZM181.938,312.4h1.247v-5.619h-1.247Zm114.716-5.95v-.017a9.105,9.105,0,0,0-1.9-5.587l-.989.76a7.862,7.862,0,0,1,1.644,4.828Zm-112.008-4.6a8.064,8.064,0,0,1,4.137-3.017l-.37-1.189a9.306,9.306,0,0,0-4.784,3.484Zm104.867-3.1.326-1.2a9.152,9.152,0,0,0-2.386-.315h-3.369v1.247h3.369A7.914,7.914,0,0,1,289.513,298.754Zm-95.335-.273H199.8v-1.247h-5.619Zm11.238,0h5.619v-1.247h-5.619Zm11.238,0h5.619v-1.247h-5.619Zm11.238,0h5.619v-1.247h-5.619Zm11.238,0h5.619v-1.247h-5.619Zm11.238,0h5.619v-1.247h-5.619Zm11.238,0h5.619v-1.247h-5.619Zm11.238,0h5.619v-1.247h-5.619Z" transform="translate(-181.938 -297.234)" fill="#f48938"/>
              </g>
            </g>
            <path id="Trazado_1038579" data-name="Trazado 1038579" d="M252.338,303.689v61.665c0,.057-.007.111-.008.167-40.624-1.592-73.02-31.867-73.02-68.989,0-.734.018-1.465.042-2.193h63.636A9.377,9.377,0,0,1,252.338,303.689Z" transform="translate(-126.572 -294.337)" fill="#fff" opacity="0.1"/>
            <g id="Grupo_1179075" data-name="Grupo 1179075" transform="translate(0 27.54)">
              <path id="Trazado_1038580" data-name="Trazado 1038580" d="M261.993,349.232h36.916a11.194,11.194,0,0,0,11.162-11.162v-2.963a11.2,11.2,0,0,0-11.162-11.162H261.993a11.2,11.2,0,0,0-11.162,11.162v2.963A11.2,11.2,0,0,0,261.993,349.232Z" transform="translate(-250.831 -323.945)" fill="#f29251"/>
              <g id="Grupo_1179074" data-name="Grupo 1179074" transform="translate(35.364 2.318)">
                <ellipse id="Elipse_12312" data-name="Elipse 12312" cx="8.594" cy="8.594" rx="8.594" ry="8.594" transform="translate(3.965 20.689) rotate(-103.339)" fill="#be1b28"/>
                <path id="Trazado_1038581" data-name="Trazado 1038581" d="M262.36,329.393A8.591,8.591,0,0,0,273.448,341.9a8.592,8.592,0,1,1-11.088-12.509Z" transform="translate(-256.074 -326.644)" fill="#db3347"/>
              </g>
            </g>
          </g>
        </g>
      </g>
    </g>
  </g>
</svg>
