<svg xmlns="http://www.w3.org/2000/svg" xmlns:xlink="http://www.w3.org/1999/xlink" width="93.934" height="93.934" viewBox="0 0 93.934 93.934">
  <defs>
    <filter id="Trazado_982547" x="0" y="0" width="93.934" height="93.934" filterUnits="userSpaceOnUse">
      <feOffset dy="3" input="SourceAlpha"/>
      <feGaussianBlur stdDeviation="3" result="blur"/>
      <feFlood flood-opacity="0.161"/>
      <feComposite operator="in" in2="blur"/>
      <feComposite in="SourceGraphic"/>
    </filter>
  </defs>
  <g id="Grupo_1179545" data-name="Grupo 1179545" transform="translate(-609.033 -5891)">
    <g id="Grupo_1174866" data-name="Grupo 1174866" transform="translate(618.033 5897)">
      <g id="Grupo_1167337" data-name="Grupo 1167337">
        <g id="Grupo_1166720" data-name="Grupo 1166720">
          <g id="Grupo_1164305" data-name="Grupo 1164305">
            <g id="Grupo_1163948" data-name="Grupo 1163948">
              <g id="Grupo_1158168" data-name="Grupo 1158168">
                <g id="Grupo_1152576" data-name="Grupo 1152576">
                  <g id="Grupo_1148633" data-name="Grupo 1148633">
                    <g id="Grupo_1148525" data-name="Grupo 1148525">
                      <g transform="matrix(1, 0, 0, 1, -9, -6)" filter="url(#Trazado_982547)">
                        <g id="Trazado_982547-2" data-name="Trazado 982547" transform="translate(9 6)" fill="#e8edf7">
                          <path d="M 37.966796875 74.43359375 C 33.04315185546875 74.43359375 28.26757431030273 73.46962738037109 23.77274131774902 71.56847381591797 C 19.43047523498535 69.73184967041016 15.53040790557861 67.10224914550781 12.18087482452393 63.75271987915039 C 8.831341743469238 60.4031867980957 6.201741218566895 56.50312042236328 4.365118980407715 52.16086196899414 C 2.463963508605957 47.66601943969727 1.499996900558472 42.89044189453125 1.499996900558472 37.966796875 C 1.499996900558472 33.04315185546875 2.463963508605957 28.26757431030273 4.365118980407715 23.77274131774902 C 6.201741218566895 19.43047523498535 8.831341743469238 15.53040790557861 12.18087482452393 12.18087482452393 C 15.53040790557861 8.831341743469238 19.43047523498535 6.201741218566895 23.77274131774902 4.365118980407715 C 28.26757431030273 2.463963508605957 33.04315185546875 1.499996900558472 37.966796875 1.499996900558472 C 42.89044189453125 1.499996900558472 47.66601943969727 2.463963508605957 52.16086196899414 4.365118980407715 C 56.50312042236328 6.201741218566895 60.4031867980957 8.831341743469238 63.75271987915039 12.18087482452393 C 67.10224914550781 15.53040790557861 69.73184967041016 19.43047523498535 71.56847381591797 23.77274131774902 C 73.46962738037109 28.26757431030273 74.43359375 33.04315185546875 74.43359375 37.966796875 C 74.43359375 42.89044189453125 73.46962738037109 47.66601943969727 71.56847381591797 52.16086196899414 C 69.73184967041016 56.50313186645508 67.10224914550781 60.4031867980957 63.75271987915039 63.75271987915039 C 60.4031867980957 67.10224914550781 56.50313186645508 69.73184967041016 52.16086196899414 71.56847381591797 C 47.66601943969727 73.46962738037109 42.89044189453125 74.43359375 37.966796875 74.43359375 Z" stroke="none"/>
                          <path d="M 37.966796875 3 C 33.2449836730957 3 28.66600799560547 3.924095153808594 24.35705947875977 5.746635437011719 C 20.19359588623047 7.507637023925781 16.45379638671875 10.02928161621094 13.24153518676758 13.24153518676758 C 10.02927398681641 16.45379638671875 7.507621765136719 20.19359588623047 5.746635437011719 24.35705947875977 C 3.924095153808594 28.66600799560547 3 33.2449836730957 3 37.966796875 C 3 42.6886100769043 3.924095153808594 47.26758575439453 5.746635437011719 51.57653427124023 C 7.507621765136719 55.73999786376953 10.02927398681641 59.47979736328125 13.24153518676758 62.69205856323242 C 16.45379638671875 65.90431976318359 20.19359588623047 68.42597198486328 24.35705947875977 70.18695831298828 C 28.66600799560547 72.00949859619141 33.2449836730957 72.93359375 37.966796875 72.93359375 C 42.6886100769043 72.93359375 47.26758575439453 72.00949859619141 51.57653427124023 70.18695831298828 C 55.73999786376953 68.42597198486328 59.47979736328125 65.90431976318359 62.69205856323242 62.69205856323242 C 65.90431976318359 59.47979736328125 68.42597198486328 55.73999786376953 70.18695831298828 51.57653427124023 C 72.00949859619141 47.26758575439453 72.93359375 42.6886100769043 72.93359375 37.966796875 C 72.93359375 33.2449836730957 72.00949859619141 28.66600799560547 70.18695831298828 24.35705947875977 C 68.42597198486328 20.19359588623047 65.90431976318359 16.45379638671875 62.69205856323242 13.24153518676758 C 59.47979736328125 10.02928161621094 55.73999786376953 7.507637023925781 51.57653427124023 5.746635437011719 C 47.26758575439453 3.924095153808594 42.6886100769043 3 37.966796875 3 M 37.966796875 0 C 58.93528366088867 0 75.93359375 16.99832153320312 75.93359375 37.966796875 C 75.93359375 58.93528366088867 58.93528366088867 75.93359375 37.966796875 75.93359375 C 16.99831008911133 75.93359375 0 58.93528366088867 0 37.966796875 C 0 16.99832153320312 16.99831008911133 0 37.966796875 0 Z" stroke="none" fill="#2e5bb6"/>
                        </g>
                      </g>
                    </g>
                  </g>
                </g>
              </g>
            </g>
          </g>
        </g>
      </g>
    </g>
    <g id="idea" transform="translate(626.196 5910)">
      <g id="Grupo_1179541" data-name="Grupo 1179541" transform="translate(10.275 0.737)">
        <g id="Grupo_1179540" data-name="Grupo 1179540" transform="translate(0)">
          <g id="Grupo_1179536" data-name="Grupo 1179536" transform="translate(5.012)">
            <g id="Grupo_1179532" data-name="Grupo 1179532">
              <path id="Trazado_1038703" data-name="Trazado 1038703" d="M144.547,37.5a2.12,2.12,0,0,0,1.914-3.032l-2.2-4.617a2.106,2.106,0,0,1-.2-.88l-.042-3.391a17.886,17.886,0,1,0-35.77-.194,17.807,17.807,0,0,0,3.644,10.822,13.284,13.284,0,0,1,2.7,8.048V54.578h17.051v-4.9a1.849,1.849,0,0,1,2.117-1.829l5.148.755a3.071,3.071,0,0,0,3.517-3.039V39.611A2.107,2.107,0,0,1,144.547,37.5Z" transform="translate(-108.244 -7.504)" fill="#ffece3"/>
            </g>
            <g id="Grupo_1179534" data-name="Grupo 1179534" transform="translate(18.446 0.009)">
              <g id="Grupo_1179533" data-name="Grupo 1179533" transform="translate(0.981 39.741)">
                <path id="Trazado_1038704" data-name="Trazado 1038704" d="M308.08,412.092a1.849,1.849,0,0,0-2.117,1.829V419.4h3.965v-4.9a1.849,1.849,0,0,1,1.987-1.843Z" transform="translate(-305.963 -412.072)" fill="#ffddce"/>
              </g>
              <path id="Trazado_1038705" data-name="Trazado 1038705" d="M315.752,34.556l-2.2-4.617a2.106,2.106,0,0,1-.2-.88l-.042-3.391A18.019,18.019,0,0,0,295.981,7.6,18.094,18.094,0,0,1,309.34,25.091l.042,3.391a2.106,2.106,0,0,0,.2.88l2.2,4.617a2.12,2.12,0,0,1-1.914,3.032,2.107,2.107,0,0,0-2.128,2.107v5.956a3.071,3.071,0,0,1-3.341,3.059l3.789.556a3.071,3.071,0,0,0,3.517-3.039V39.7a2.107,2.107,0,0,1,2.128-2.107A2.12,2.12,0,0,0,315.752,34.556Z" transform="translate(-295.981 -7.597)" fill="#ffddce"/>
            </g>
            <path id="Trazado_1038706" data-name="Trazado 1038706" d="M163.574,450.34l-19.377-.019a1.743,1.743,0,0,1-1.741-1.743v-2.4a1.743,1.743,0,0,1,1.9-1.735l19.377,1.792a1.743,1.743,0,0,1,1.582,1.735v.624A1.743,1.743,0,0,1,163.574,450.34Z" transform="translate(-139.095 -401.509)" fill="#8db9c2"/>
            <g id="Grupo_1179535" data-name="Grupo 1179535" transform="translate(20.559 44.506)">
              <path id="Trazado_1038707" data-name="Trazado 1038707" d="M321.572,460.7l-2.414-.223v2.582a1.741,1.741,0,0,1-1.669,1.739l3.921,0a1.743,1.743,0,0,0,1.744-1.743v-.624A1.743,1.743,0,0,0,321.572,460.7Z" transform="translate(-317.489 -460.48)" fill="#7ba0b0"/>
            </g>
          </g>
          <g id="Grupo_1179539" data-name="Grupo 1179539" transform="translate(0 4.711)">
            <g id="Grupo_1179538" data-name="Grupo 1179538">
              <g id="Grupo_1179537" data-name="Grupo 1179537">
                <path id="Trazado_1038708" data-name="Trazado 1038708" d="M122.605,312.3h-3.114a3.011,3.011,0,0,1-3.011-3.011v-4.227h9.137v4.227A3.011,3.011,0,0,1,122.605,312.3Z" transform="translate(-110.659 -280.533)" fill="#daeaef"/>
                <path id="Trazado_1038709" data-name="Trazado 1038709" d="M145.209,305.058v4.227a3.012,3.012,0,0,1-2.57,2.979,3.042,3.042,0,0,0,.441.033h3.114a3.011,3.011,0,0,0,3.011-3.011v-4.227Z" transform="translate(-134.248 -280.533)" fill="#c9e2e7"/>
                <path id="Trazado_1038710" data-name="Trazado 1038710" d="M77.807,65.732A10.286,10.286,0,1,0,59.6,72.289a15.232,15.232,0,0,1,3.573,9.7v.016h8.7v-.016A15.022,15.022,0,0,1,75.4,72.339a10.243,10.243,0,0,0,2.4-6.607Z" transform="translate(-57.236 -55.447)" fill="#fbe77b"/>
                <path id="Trazado_1038711" data-name="Trazado 1038711" d="M143.3,55.448a10.213,10.213,0,0,0-1.866.2A10.286,10.286,0,0,1,147.3,72.339a15.022,15.022,0,0,0-3.531,9.653v.016H147.8v-.016a15.022,15.022,0,0,1,3.531-9.653,10.285,10.285,0,0,0-8.03-16.891Z" transform="translate(-133.165 -55.447)" fill="#fcdd2e"/>
                <path id="Trazado_1038712" data-name="Trazado 1038712" d="M114.756,295.859h-9.421a.942.942,0,0,1-.942-.942v-3.56a.942.942,0,0,1,.942-.942h9.421a.942.942,0,0,1,.942.942v3.56A.942.942,0,0,1,114.756,295.859Z" transform="translate(-99.76 -267.329)" fill="#eff3f5"/>
              </g>
            </g>
            <path id="Trazado_1038713" data-name="Trazado 1038713" d="M108.424,101.619a.922.922,0,0,1-.652-1.574,1.031,1.031,0,0,0,0-1.458l-.391-.391a1.031,1.031,0,0,0-1.458,0,.922.922,0,0,1-1.574-.652,1.031,1.031,0,0,0-1.031-1.031h-.554a1.031,1.031,0,0,0-1.031,1.031.922.922,0,0,1-1.574.652,1.031,1.031,0,0,0-1.458,0l-.391.391a1.031,1.031,0,0,0,0,1.458.922.922,0,0,1-.652,1.574,1.031,1.031,0,0,0-1.031,1.031v.554a1.031,1.031,0,0,0,1.031,1.031.922.922,0,0,1,.652,1.574,1.031,1.031,0,0,0,0,1.458l.391.391a1.031,1.031,0,0,0,1.458,0,.922.922,0,0,1,1.574.652,1.031,1.031,0,0,0,1.031,1.031h.554a1.031,1.031,0,0,0,1.031-1.031.922.922,0,0,1,1.574-.652,1.031,1.031,0,0,0,1.458,0l.391-.391a1.031,1.031,0,0,0,0-1.458.922.922,0,0,1,.652-1.574,1.031,1.031,0,0,0,1.031-1.031v-.554A1.031,1.031,0,0,0,108.424,101.619Zm-5.384,3.13a1.822,1.822,0,1,1,1.822-1.822A1.822,1.822,0,0,1,103.04,104.749Z" transform="translate(-92.754 -92.476)" fill="#d5b0ec"/>
          </g>
        </g>
        <path id="Trazado_1038714" data-name="Trazado 1038714" d="M173.184,290.414h-4a.942.942,0,0,1,.942.942v3.56a.942.942,0,0,1-.942.942h4a.942.942,0,0,0,.942-.942v-3.56A.942.942,0,0,0,173.184,290.414Z" transform="translate(-158.188 -262.617)" fill="#daeaef"/>
      </g>
      <g id="Grupo_1179543" data-name="Grupo 1179543" transform="translate(5.158 0)">
        <g id="Grupo_1179542" data-name="Grupo 1179542" transform="translate(0 0)">
          <path id="Trazado_1038715" data-name="Trazado 1038715" d="M155.153,5.828a.737.737,0,0,0,.737-.737V3.667a.737.737,0,0,0-1.475,0V5.09A.737.737,0,0,0,155.153,5.828Z" transform="translate(-139.751 -2.642)"/>
          <path id="Trazado_1038716" data-name="Trazado 1038716" d="M250.977,48.911l1.006-1.006a.737.737,0,1,0-1.043-1.043l-1.006,1.006a.737.737,0,0,0,1.043,1.043Z" transform="translate(-225.69 -42.063)"/>
          <path id="Trazado_1038717" data-name="Trazado 1038717" d="M50.1,247.706l-1.006,1.006a.737.737,0,0,0,1.043,1.043l1.006-1.006a.737.737,0,1,0-1.043-1.043Z" transform="translate(-44.579 -223.173)"/>
          <path id="Trazado_1038718" data-name="Trazado 1038718" d="M291.353,153.663a.737.737,0,1,0,0-1.475H289.93a.737.737,0,1,0,0,1.475Z" transform="translate(-261.286 -137.235)"/>
          <path id="Trazado_1038719" data-name="Trazado 1038719" d="M7.318,152.188H5.9a.737.737,0,1,0,0,1.475H7.318a.737.737,0,1,0,0-1.475Z" transform="translate(-5.158 -137.235)"/>
          <path id="Trazado_1038720" data-name="Trazado 1038720" d="M250.977,247.706a.737.737,0,0,0-1.043,1.043l.922.922a.737.737,0,1,0,1.043-1.043Z" transform="translate(-225.69 -223.173)"/>
          <path id="Trazado_1038721" data-name="Trazado 1038721" d="M50.1,48.912a.737.737,0,0,0,1.043-1.043l-1.006-1.006a.737.737,0,0,0-1.043,1.043Z" transform="translate(-44.579 -42.064)"/>
          <path id="Trazado_1038722" data-name="Trazado 1038722" d="M93.911,101.413a.185.185,0,0,1,.315.131A1.771,1.771,0,0,0,96,103.312h.554a1.771,1.771,0,0,0,1.769-1.769.185.185,0,0,1,.315-.131,1.769,1.769,0,0,0,2.5,0l.392-.392a1.769,1.769,0,0,0,0-2.5.185.185,0,0,1,.131-.315,1.771,1.771,0,0,0,1.769-1.769v-.554a1.771,1.771,0,0,0-1.769-1.769.185.185,0,0,1-.131-.315,1.769,1.769,0,0,0,0-2.5l-.391-.392a1.769,1.769,0,0,0-2.5,0,.185.185,0,0,1-.315-.131,1.771,1.771,0,0,0-1.769-1.769H96a1.771,1.771,0,0,0-1.769,1.769.185.185,0,0,1-.315.131,1.769,1.769,0,0,0-2.5,0l-.391.391a1.769,1.769,0,0,0,0,2.5.185.185,0,0,1-.131.315,1.771,1.771,0,0,0-1.769,1.769v.554A1.771,1.771,0,0,0,90.888,98.2a.185.185,0,0,1,.131.316,1.769,1.769,0,0,0,0,2.5l.392.392A1.771,1.771,0,0,0,93.911,101.413ZM90.888,96.73a.294.294,0,0,1-.294-.294v-.554a.294.294,0,0,1,.294-.294,1.66,1.66,0,0,0,1.173-2.833.294.294,0,0,1,0-.416l.391-.391a.294.294,0,0,1,.416,0A1.66,1.66,0,0,0,95.7,90.775.294.294,0,0,1,96,90.481h.554a.294.294,0,0,1,.294.294,1.66,1.66,0,0,0,2.833,1.173.294.294,0,0,1,.416,0l.392.392a.294.294,0,0,1,0,.416,1.66,1.66,0,0,0,1.173,2.833.294.294,0,0,1,.294.294v.554a.294.294,0,0,1-.294.294,1.66,1.66,0,0,0-1.173,2.833.294.294,0,0,1,0,.416l-.392.392a.294.294,0,0,1-.416,0,1.66,1.66,0,0,0-2.833,1.173.294.294,0,0,1-.294.294H96a.294.294,0,0,1-.294-.294,1.659,1.659,0,0,0-2.833-1.174.294.294,0,0,1-.416,0l-.392-.392a.294.294,0,0,1,0-.416,1.659,1.659,0,0,0-1.174-2.833Z" transform="translate(-80.87 -80.261)"/>
          <path id="Trazado_1038723" data-name="Trazado 1038723" d="M138.428,140.875a2.56,2.56,0,1,0-2.56-2.56A2.563,2.563,0,0,0,138.428,140.875Zm0-3.645a1.085,1.085,0,1,1-1.085,1.085A1.086,1.086,0,0,1,138.428,137.23Z" transform="translate(-123.025 -122.417)"/>
          <path id="Trazado_1038724" data-name="Trazado 1038724" d="M171.209,27.388l-2.2-4.617a1.38,1.38,0,0,1-.133-.572l-.042-3.382A18.755,18.755,0,0,0,150.278,0h-.065a18.6,18.6,0,0,0-9.44,2.567.737.737,0,1,0,.749,1.271,17.124,17.124,0,0,1,8.691-2.363h.06A17.279,17.279,0,0,1,167.36,18.826l.042,3.391a2.864,2.864,0,0,0,.276,1.188l2.2,4.617A1.381,1.381,0,0,1,168.637,30a2.842,2.842,0,0,0-2.872,2.844V38.8a2.334,2.334,0,0,1-2.673,2.309l-5.148-.755a2.587,2.587,0,0,0-2.962,2.559v1.629L139.405,43.1V40.659a.737.737,0,1,0-1.475,0v2.307l-.271-.025a2.481,2.481,0,0,0-2.708,2.469v2.4a2.483,2.483,0,0,0,2.478,2.48l19.377.018h0a2.479,2.479,0,0,0,2.48-2.48V47.2a2.469,2.469,0,0,0-2.252-2.469l-.58-.054V42.913a1.11,1.11,0,0,1,1.273-1.1l5.148.755a3.81,3.81,0,0,0,4.361-3.768V32.844a1.369,1.369,0,0,1,1.39-1.37,2.857,2.857,0,0,0,2.58-4.086ZM157.813,47.2v.624a1,1,0,0,1-1.005,1.005h0l-19.377-.019a1.007,1.007,0,0,1-1-1.005v-2.4a1,1,0,0,1,1.1-1l1.068.1h0L156.9,46.2a1,1,0,0,1,.913,1Z" transform="translate(-122.198 0)"/>
          <path id="Trazado_1038725" data-name="Trazado 1038725" d="M59.278,81.181h3.114a3.754,3.754,0,0,0,3.73-3.379,1.681,1.681,0,0,0,1-1.534v-3.56a1.679,1.679,0,0,0-.746-1.4,14.451,14.451,0,0,1,2.8-5.267,11.023,11.023,0,1,0-16.941-.054,14.972,14.972,0,0,1,2.84,5.326,1.679,1.679,0,0,0-.737,1.389v3.56a1.681,1.681,0,0,0,1.215,1.613A3.754,3.754,0,0,0,59.278,81.181Zm-3.257-4.708a.2.2,0,0,1-.2-.2v-3.56a.2.2,0,0,1,.2-.2h9.427a.2.2,0,0,1,.2.2v3.56a.2.2,0,0,1-.2.2Zm6.371,3.233H59.278a2.277,2.277,0,0,1-2.214-1.759h7.543A2.277,2.277,0,0,1,62.392,79.706ZM60.6,49.418A9.561,9.561,0,0,1,68.05,65.1a15.929,15.929,0,0,0-3.127,5.931H56.53a16.443,16.443,0,0,0-3.156-5.977A9.564,9.564,0,0,1,60.6,49.418Z" transform="translate(-45.329 -43.232)"/>
        </g>
      </g>
    </g>
  </g>
</svg>
