<svg xmlns="http://www.w3.org/2000/svg" xmlns:xlink="http://www.w3.org/1999/xlink" width="1328" height="576.33" viewBox="0 0 1328 576.33">
  <defs>
    <clipPath id="clip-path">
      <path id="Trazado_1015670" data-name="Trazado 1015670" d="M0,0H1328V576.33H0Z" transform="translate(-1645 2619)" fill="#cbe7ea" opacity="0.53"/>
    </clipPath>
  </defs>
  <g id="Enmascarar_grupo_1098790" data-name="Enmascarar grupo 1098790" transform="translate(1645 -2619)" clip-path="url(#clip-path)">
    <rect id="Fondo_Sección" width="1328" height="666" transform="translate(-1645 2619)" fill="#e3f3f4"/>
    <g id="Elipse_11825" data-name="Elipse 11825" transform="translate(-1820 3101)" fill="none" stroke="#bfcde9" stroke-linecap="round" stroke-linejoin="round" stroke-width="10" stroke-dasharray="25">
      <circle cx="137" cy="137" r="137" stroke="none"/>
      <circle cx="137" cy="137" r="132" fill="none"/>
    </g>
    <g id="Elipse_11826" data-name="Elipse 11826" transform="translate(-639 2433)" fill="none" stroke="#bfcde9" stroke-linecap="round" stroke-linejoin="round" stroke-width="10" stroke-dasharray="25">
      <circle cx="259.5" cy="259.5" r="259.5" stroke="none"/>
      <circle cx="259.5" cy="259.5" r="254.5" fill="none"/>
    </g>
    <circle id="Elipse_11827" data-name="Elipse 11827" cx="106.5" cy="106.5" r="106.5" transform="matrix(0.848, 0.53, -0.53, 0.848, -970.304, 3058.944)" fill="#98cfd6" opacity="0.8"/>
    <circle id="Elipse_11828" data-name="Elipse 11828" cx="82.332" cy="82.332" r="82.332" transform="matrix(0.848, 0.53, -0.53, 0.848, -1709.192, 3125.549)" fill="#183164" opacity="0.8"/>
    <circle id="Elipse_11829" data-name="Elipse 11829" cx="106.5" cy="106.5" r="106.5" transform="matrix(0.848, 0.53, -0.53, 0.848, -413.381, 2545.747)" fill="#98cfd6" opacity="0.8"/>
    <g id="Polígono_1" data-name="Polígono 1" transform="translate(-1686 2997)" fill="none">
      <path d="M139.5,0,279,242H0Z" stroke="none"/>
      <path d="M 139.5 20.02352905273438 L 17.30694580078125 232 L 261.6930541992188 232 L 139.5 20.02352905273438 M 139.5 0 L 279 242 L 0 242 L 139.5 0 Z" stroke="none" fill="#bfcde9"/>
    </g>
    <path id="Polígono_2" data-name="Polígono 2" d="M139.5,0,279,242H0Z" transform="matrix(0.848, 0.53, -0.53, 0.848, -1119.359, 2442.462)" fill="#98cfd6" opacity="0.8"/>
    <path id="Polígono_3" data-name="Polígono 3" d="M108,0,216,187H0Z" transform="matrix(0.848, 0.53, -0.53, 0.848, -786.905, 2822.105)" fill="#183164" opacity="0.8"/>
    <g id="Grupo_1169719" data-name="Grupo 1169719" transform="translate(383 209)">
      <g id="Rectángulo_414249" data-name="Rectángulo 414249" transform="translate(-725 2844)" fill="none" stroke="#bfcde9" stroke-width="5">
        <rect width="58" height="342" stroke="none"/>
        <rect x="2.5" y="2.5" width="53" height="337" fill="none"/>
      </g>
      <g id="Rectángulo_414250" data-name="Rectángulo 414250" transform="translate(-824 2899)" fill="none" stroke="#bfcde9" stroke-width="5">
        <rect width="58" height="287" stroke="none"/>
        <rect x="2.5" y="2.5" width="53" height="282" fill="none"/>
      </g>
      <g id="Rectángulo_414251" data-name="Rectángulo 414251" transform="translate(-923 2952)" fill="none" stroke="#bfcde9" stroke-width="5">
        <rect width="58" height="234" stroke="none"/>
        <rect x="2.5" y="2.5" width="53" height="229" fill="none"/>
      </g>
      <g id="Rectángulo_414252" data-name="Rectángulo 414252" transform="translate(-1022 3042)" fill="none" stroke="#bfcde9" stroke-width="5">
        <rect width="58" height="144" stroke="none"/>
        <rect x="2.5" y="2.5" width="53" height="139" fill="none"/>
      </g>
    </g>
    <g id="Grupo_1169720" data-name="Grupo 1169720" transform="translate(-1654 2562.804)" opacity="0.59">
      <rect id="Rectángulo_414253" data-name="Rectángulo 414253" width="26" height="152" transform="translate(0 0.196)" fill="#98cfd6"/>
      <rect id="Rectángulo_414254" data-name="Rectángulo 414254" width="26" height="128" transform="translate(44 24.196)" fill="#98cfd6"/>
      <rect id="Rectángulo_414255" data-name="Rectángulo 414255" width="26" height="104" transform="translate(88 48.196)" fill="#98cfd6"/>
      <rect id="Rectángulo_414256" data-name="Rectángulo 414256" width="26" height="64" transform="translate(132 88.196)" fill="#98cfd6"/>
    </g>
    <g id="Grupo_1169721" data-name="Grupo 1169721" transform="translate(-1286.466 3108.841) rotate(39)" opacity="0.59">
      <rect id="Rectángulo_414257" data-name="Rectángulo 414257" width="21.917" height="128.128" transform="translate(0 0.196)" fill="#98cfd6"/>
      <rect id="Rectángulo_414258" data-name="Rectángulo 414258" width="21.917" height="107.897" transform="translate(37.09 20.427)" fill="#98cfd6"/>
      <rect id="Rectángulo_414259" data-name="Rectángulo 414259" width="21.917" height="87.666" transform="translate(74.179 40.657)" fill="#98cfd6"/>
      <rect id="Rectángulo_414260" data-name="Rectángulo 414260" width="21.917" height="53.949" transform="translate(111.269 74.375)" fill="#98cfd6"/>
    </g>
  </g>
</svg>
