<svg xmlns="http://www.w3.org/2000/svg" xmlns:xlink="http://www.w3.org/1999/xlink" width="400" height="401" viewBox="0 0 400 401">
  <defs>
    <clipPath id="clip-path">
      <rect id="Rectángulo_415523" data-name="Rectángulo 415523" width="400" height="401" transform="translate(1019.62 254)" fill="#fff" stroke="#707070" stroke-width="1" opacity="0.64"/>
    </clipPath>
  </defs>
  <g id="Enmascarar_grupo_1098803" data-name="Enmascarar grupo 1098803" transform="translate(-1019.62 -254)" clip-path="url(#clip-path)">
    <g id="OBJECTS" transform="translate(994.739 208.321)">
      <path id="Trazado_1038653" data-name="Trazado 1038653" d="M84.064,100.337S40,139.994,40,216.666s50.233,214.15,237.945,187.712S473.589,125.013,315.84,69.492,84.064,100.337,84.064,100.337Z" transform="translate(-0.75)" fill="#fdf4ee"/>
      <g id="Grupo_1179475" data-name="Grupo 1179475" transform="translate(33.158 189.717)">
        <path id="Trazado_1038654" data-name="Trazado 1038654" d="M359.593,232.416l3.921,8.866,29.495-13.046-70.511,83.4-15.107-83.411L130.056,420.855,114.973,376.7,34.222,465.383H47.931l62.9-70.828,15.322,44.854L301.326,249.125l15.3,84.472,84.245-99.643L397.24,262.88l9.619,1.206,6.98-55.665Z" transform="translate(-34.222 -208.421)" fill="#fc6a5a"/>
      </g>
      <g id="Grupo_1179479" data-name="Grupo 1179479" transform="translate(297.972 52.473)">
        <g id="Grupo_1179477" data-name="Grupo 1179477" transform="translate(0 0)">
          <path id="Trazado_1038655" data-name="Trazado 1038655" d="M408,74.288c-4.1-1.2-5.567-1.659-10.6-2.953A42.571,42.571,0,1,0,376.2,153.8c4.943,1.271,6.439,1.612,10.689,2.623Z" transform="translate(-335.839 -54.741)" fill="#c47549"/>
          <g id="Grupo_1179476" data-name="Grupo 1179476">
            <circle id="Elipse_12318" data-name="Elipse 12318" cx="42.571" cy="42.571" r="42.571" transform="translate(0 60.204) rotate(-45)" fill="#ffa65b"/>
            <circle id="Elipse_12319" data-name="Elipse 12319" cx="34.614" cy="34.614" r="34.614" transform="translate(25.593 25.588)" fill="#d88a50"/>
          </g>
        </g>
        <g id="Grupo_1179478" data-name="Grupo 1179478" transform="translate(41.103 33.759)">
          <path id="Trazado_1038656" data-name="Trazado 1038656" d="M409.59,133.287q-3.8,2.416-9.832,1.95l-1.321,5.734-6.2-1.428,1.273-5.526a33.327,33.327,0,0,1-7.031-3.006,21.683,21.683,0,0,1-5.131-3.93l5.093-6.766a22.249,22.249,0,0,0,5.036,3.879,22,22,0,0,0,6.075,2.433q5.889,1.356,6.567-1.588a2.5,2.5,0,0,0-1.15-2.685,31.708,31.708,0,0,0-5.034-2.817,52.832,52.832,0,0,1-6.383-3.455,11.78,11.78,0,0,1-3.957-4.31,8.944,8.944,0,0,1-.583-6.443,10.624,10.624,0,0,1,4.957-6.881q3.934-2.438,10.144-1.769L403.423,91l6.2,1.428L408.336,98a30.99,30.99,0,0,1,5.418,2.336,21.45,21.45,0,0,1,4.365,3.126l-4.9,6.867a21.6,21.6,0,0,0-9.377-5.1,8.63,8.63,0,0,0-4.651-.12,2.783,2.783,0,0,0-1.936,2.029,2.389,2.389,0,0,0,1.154,2.55,30.527,30.527,0,0,0,4.974,2.723,51.085,51.085,0,0,1,6.409,3.462,12.116,12.116,0,0,1,3.962,4.285,8.785,8.785,0,0,1,.615,6.424A10.488,10.488,0,0,1,409.59,133.287Z" transform="translate(-381.35 -90.995)" fill="#ffa65b"/>
        </g>
      </g>
      <g id="Grupo_1179483" data-name="Grupo 1179483" transform="translate(25.261 243.547)">
        <g id="Grupo_1179481" data-name="Grupo 1179481" transform="translate(0 0)">
          <path id="Trazado_1038657" data-name="Trazado 1038657" d="M72.232,288.118c-4.126,1.121-5.612,1.5-10.582,3.034a42.571,42.571,0,0,0,25.1,81.359c4.877-1.5,6.33-2,10.481-3.36Z" transform="translate(-26.016 -271.713)" fill="#c47549"/>
          <g id="Grupo_1179480" data-name="Grupo 1179480">
            <circle id="Elipse_12320" data-name="Elipse 12320" cx="42.571" cy="42.571" r="42.571" transform="matrix(0.89, -0.456, 0.456, 0.89, 0, 38.833)" fill="#ffa65b"/>
            <circle id="Elipse_12321" data-name="Elipse 12321" cx="34.614" cy="34.614" r="34.614" transform="matrix(0.251, -0.968, 0.968, 0.251, 15.131, 82.146)" fill="#d88a50"/>
          </g>
        </g>
        <g id="Grupo_1179482" data-name="Grupo 1179482" transform="translate(28.405 30.836)">
          <path id="Trazado_1038658" data-name="Trazado 1038658" d="M106.3,336.555l5.345,2.771a20.209,20.209,0,0,1-5.81,7.545,28.012,28.012,0,0,1-20.074,5.878,23.258,23.258,0,0,1-9.815-3.39,22.956,22.956,0,0,1-7.319-7.352l-7.3,2.253-1.107-3.588,6.661-2.055q-.642-1.625-.939-2.587t-.681-2.665L58.6,335.419l-1.107-3.588,7.3-2.253a22.987,22.987,0,0,1,1.9-10.2,23.3,23.3,0,0,1,6.2-8.332,28.111,28.111,0,0,1,19.927-6.464,20.628,20.628,0,0,1,9,2.906l-2.854,5.3a17.563,17.563,0,0,0-14.323-1.4,18.592,18.592,0,0,0-9.32,6.172,16.754,16.754,0,0,0-3.743,9.924l20.3-6.264,1.107,3.588-21.2,6.541a17.621,17.621,0,0,0,.617,2.685,18.527,18.527,0,0,0,1,2.567l21.2-6.541,1.107,3.588-20.3,6.264A16.747,16.747,0,0,0,84.1,346a18.592,18.592,0,0,0,11.177-.152A17.6,17.6,0,0,0,106.3,336.555Z" transform="translate(-57.492 -304.492)" fill="#ffa65b"/>
        </g>
      </g>
      <g id="Grupo_1179529" data-name="Grupo 1179529" transform="translate(31.115 60.445)">
        <g id="Grupo_1179485" data-name="Grupo 1179485" transform="translate(111.747 221.764)">
          <path id="Trazado_1038659" data-name="Trazado 1038659" d="M190.37,324.511S137.26,389.036,168.6,477.843h63.558l-1.741-53.206,20.025,53.206h66.17s4.354-112.41-53.981-147.237S190.37,324.511,190.37,324.511Z" transform="translate(-158.705 -313.373)" fill="#5d8584"/>
          <g id="Grupo_1179484" data-name="Grupo 1179484" transform="translate(16.639)">
            <path id="Trazado_1038660" data-name="Trazado 1038660" d="M295.471,362.687c-7.54-12.894-17.478-24.251-30.594-32.081-58.334-34.826-72.265-6.095-72.265-6.095s-7.388,7.877-15.027,22.356C201.479,354.829,244.823,365.811,295.471,362.687Z" transform="translate(-177.585 -313.373)" fill="#4e7b7c"/>
            <path id="Trazado_1038661" data-name="Trazado 1038661" d="M186.732,418.879s15.672,35.7,48.3,51.707l-1.213-31.534A115.517,115.517,0,0,1,186.732,418.879Z" transform="translate(-178.671 -325.899)" fill="#4e7b7c"/>
          </g>
        </g>
        <g id="Grupo_1179489" data-name="Grupo 1179489" transform="translate(151.282 36.424)">
          <path id="Trazado_1038662" data-name="Trazado 1038662" d="M258.729,107.041s-17.564-11.61-36.5,4.844-7.753,62.875-16.052,85.165,1.732,41.178,50.809,33.682S258.729,107.041,258.729,107.041Z" transform="translate(-203.566 -103.064)" fill="#1f1a21"/>
          <g id="Grupo_1179488" data-name="Grupo 1179488" transform="translate(16.54 11.641)">
            <g id="Grupo_1179486" data-name="Grupo 1179486" transform="translate(0 61.301)">
              <path id="Trazado_1038663" data-name="Trazado 1038663" d="M283.812,225.71c-15.42-1.551-.685-39.877-.685-39.877l-31.448,6.226s4.422,24.566-3.63,27.188c-3.206,1.044-11.891-1.913-17.053-4.287-2.8,9.254-6.757,18.147-8.663,27.566,24.906,13.987,72.931,22.6,76.53,12.454C304,240.5,299.232,227.261,283.812,225.71Z" transform="translate(-222.334 -185.833)" fill="#965450"/>
            </g>
            <g id="Grupo_1179487" data-name="Grupo 1179487" transform="translate(29.346 61.3)">
              <path id="Trazado_1038664" data-name="Trazado 1038664" d="M255.778,214.518c12.949-2.031,21.076-11.255,28.92-21.634,1.283-4.185,2.383-7.053,2.383-7.053l-31.447,6.227S258.25,206.622,255.778,214.518Z" transform="translate(-255.633 -185.832)" fill="#76413b"/>
            </g>
            <path id="Trazado_1038665" data-name="Trazado 1038665" d="M272.128,116.639s-36.606-7.055-45.581,40.845,53.321,56.782,64.436,16.009S285.589,120.676,272.128,116.639Z" transform="translate(-222.73 -116.274)" fill="#965450"/>
          </g>
        </g>
        <g id="Grupo_1179518" data-name="Grupo 1179518" transform="translate(0 0)">
          <g id="Grupo_1179503" data-name="Grupo 1179503">
            <g id="Grupo_1179492" data-name="Grupo 1179492" transform="translate(74.906 109.058)">
              <g id="Grupo_1179490" data-name="Grupo 1179490">
                <path id="Trazado_1038666" data-name="Trazado 1038666" d="M212.651,244.209s-63.56,23.952-74.847,17.072-23.75-66.16-20.327-71.413c5.958-9.14,17.152-1.154,17.152-1.154l18.688,42.355s64.732-33.494,65.634-4.5S212.651,244.209,212.651,244.209Z" transform="translate(-116.9 -185.484)" fill="#965450"/>
                <path id="Trazado_1038667" data-name="Trazado 1038667" d="M226.43,230.513c-.573-18.428-26.927-11.615-46.062-4.2-.679,8.574-.98,17.254,1.337,25.59.751,2.7,1.593,5.434,2.535,8.154,18.31-5.281,35.889-11.9,35.889-11.9S227.331,259.509,226.43,230.513Z" transform="translate(-124.377 -189.427)" fill="#76413b"/>
              </g>
              <g id="Grupo_1179491" data-name="Grupo 1179491" transform="translate(58.55 24.284)">
                <path id="Trazado_1038668" data-name="Trazado 1038668" d="M198.236,252s-11.72-14.434-8.644-31.076c0,0,23.4-16.775,43.245-1.39Z" transform="translate(-184.019 -213.04)" fill="#ffa65b"/>
                <path id="Trazado_1038669" data-name="Trazado 1038669" d="M202.79,214.938a100.334,100.334,0,0,0-18.734,7.169c-3.075,16.643,4.731,35.781,4.731,35.781l10.428-6.72c.425,2.074,1.588,3.74,3.588.238.7-1.232,1.359-5.016,2.021-9.747C199.683,234.4,200.1,223.693,202.79,214.938Z" transform="translate(-183.338 -213.265)" fill="#e58b48"/>
              </g>
            </g>
            <g id="Grupo_1179502" data-name="Grupo 1179502">
              <g id="Grupo_1179494" data-name="Grupo 1179494">
                <g id="Grupo_1179493" data-name="Grupo 1179493" transform="translate(5.872 0.26)">
                  <circle id="Elipse_12322" data-name="Elipse 12322" cx="45.999" cy="45.999" r="45.999" transform="translate(0 79.588) rotate(-59.899)" fill="#588aaf"/>
                  <path id="Trazado_1038670" data-name="Trazado 1038670" d="M116.335,173.952A48.955,48.955,0,1,1,150.5,113.738,49.011,49.011,0,0,1,116.335,173.952ZM91.86,85.27A43.043,43.043,0,1,0,144.8,115.31,43.091,43.091,0,0,0,91.86,85.27Z" transform="translate(-40.44 -63.901)" fill="#588aaf"/>
                </g>
                <circle id="Elipse_12323" data-name="Elipse 12323" cx="45.999" cy="45.999" r="45.999" transform="translate(0 73.957) rotate(-53.503)" fill="#fdedee" stroke="#6f96bd" stroke-miterlimit="10" stroke-width="6.708"/>
              </g>
              <g id="Grupo_1179501" data-name="Grupo 1179501" transform="translate(26.52 26.203)">
                <g id="Grupo_1179495" data-name="Grupo 1179495" transform="translate(30.187 10.789)">
                  <path id="Trazado_1038671" data-name="Trazado 1038671" d="M100.217,135.608a4.344,4.344,0,1,0,3.032-5.343A4.344,4.344,0,0,0,100.217,135.608Z" transform="translate(-96.702 -106.844)" fill="#352c38"/>
                  <path id="Trazado_1038672" data-name="Trazado 1038672" d="M96.25,103.71l7.672,27.8,18.314-5.054" transform="translate(-96.25 -103.71)" fill="none" stroke="#352c38" stroke-linecap="round" stroke-linejoin="round" stroke-miterlimit="10" stroke-width="3.155"/>
                </g>
                <g id="Grupo_1179500" data-name="Grupo 1179500">
                  <g id="Grupo_1179496" data-name="Grupo 1179496" transform="translate(27.619)">
                    <line id="Línea_636" data-name="Línea 636" x2="1.652" y2="5.987" fill="none" stroke="#6f96bd" stroke-miterlimit="10" stroke-width="3.354"/>
                    <line id="Línea_637" data-name="Línea 637" x1="1.741" y2="5.961" transform="translate(18.55 0.053)" fill="none" stroke="#6f96bd" stroke-miterlimit="10" stroke-width="3.354"/>
                    <line id="Línea_638" data-name="Línea 638" x1="4.273" y2="4.505" transform="translate(33.135 9.507)" fill="none" stroke="#6f96bd" stroke-miterlimit="10" stroke-width="3.354"/>
                  </g>
                  <g id="Grupo_1179497" data-name="Grupo 1179497" transform="translate(0 11.066)">
                    <line id="Línea_639" data-name="Línea 639" y1="1.652" x2="5.987" transform="translate(0 35.756)" fill="none" stroke="#6f96bd" stroke-miterlimit="10" stroke-width="3.354"/>
                    <line id="Línea_640" data-name="Línea 640" x2="5.961" y2="1.741" transform="translate(0.054 17.117)" fill="none" stroke="#6f96bd" stroke-miterlimit="10" stroke-width="3.354"/>
                    <line id="Línea_641" data-name="Línea 641" x2="4.506" y2="4.274" transform="translate(9.507)" fill="none" stroke="#6f96bd" stroke-miterlimit="10" stroke-width="3.354"/>
                  </g>
                  <g id="Grupo_1179498" data-name="Grupo 1179498" transform="translate(10.786 62.075)">
                    <line id="Línea_642" data-name="Línea 642" x1="1.652" y1="5.987" transform="translate(35.756 8.027)" fill="none" stroke="#6f96bd" stroke-miterlimit="10" stroke-width="3.354"/>
                    <line id="Línea_643" data-name="Línea 643" y1="5.961" x2="1.741" transform="translate(17.117 7.999)" fill="none" stroke="#6f96bd" stroke-miterlimit="10" stroke-width="3.354"/>
                    <line id="Línea_644" data-name="Línea 644" y1="4.506" x2="4.274" fill="none" stroke="#6f96bd" stroke-miterlimit="10" stroke-width="3.354"/>
                  </g>
                  <g id="Grupo_1179499" data-name="Grupo 1179499" transform="translate(61.801 27.614)">
                    <line id="Línea_645" data-name="Línea 645" x1="5.987" y2="1.652" transform="translate(8.026)" fill="none" stroke="#6f96bd" stroke-miterlimit="10" stroke-width="3.354"/>
                    <line id="Línea_646" data-name="Línea 646" x1="5.961" y1="1.741" transform="translate(7.998 18.55)" fill="none" stroke="#6f96bd" stroke-miterlimit="10" stroke-width="3.354"/>
                    <line id="Línea_647" data-name="Línea 647" x1="4.505" y1="4.274" transform="translate(0 33.134)" fill="none" stroke="#6f96bd" stroke-miterlimit="10" stroke-width="3.354"/>
                  </g>
                </g>
              </g>
            </g>
            <path id="Trazado_1038673" data-name="Trazado 1038673" d="M122.8,189.992s-.728-13.409,15.289-14.288c0,0-1.22-11.967,2.094-11.689S151.056,189.028,128.5,192.7,122.8,189.992,122.8,189.992Z" transform="translate(-41.977 -73.876)" fill="#965450"/>
          </g>
          <g id="Grupo_1179504" data-name="Grupo 1179504" transform="translate(139.536 136.283)">
            <path id="Trazado_1038674" data-name="Trazado 1038674" d="M290.273,229.318c-2.805-1-5.015-.689-10.084-.6-7.162,6.448-14.5,11.878-24.987,10.889-11.581-1.091-19.832-8.737-22.228-19.675-7.661-2.59-10.73-4.153-14.365-3.338-15.345,3.438-12.035,19.324-12.035,19.324s-29.241,28.649-9.483,47.979L191.109,310.6s28.666,18.851,75.181,15.961C266.29,326.565,315.493,238.266,290.273,229.318Z" transform="translate(-190.237 -216.376)" fill="#ffa65b"/>
            <path id="Trazado_1038675" data-name="Trazado 1038675" d="M233.765,299.959c-13.443,5.827-27.337,10.023-41.758,11.432l-.781,3.485s28.666,18.85,75.181,15.961c0,0,29.4-51.4,30.624-78.478C281.244,273.674,257.62,289.62,233.765,299.959Z" transform="translate(-190.355 -220.648)" fill="#e58b48"/>
          </g>
          <g id="Grupo_1179517" data-name="Grupo 1179517" transform="translate(110.379 148.535)">
            <g id="Grupo_1179514" data-name="Grupo 1179514" transform="translate(0 19.954)">
              <g id="Grupo_1179505" data-name="Grupo 1179505" transform="translate(6.225 53.011)">
                <path id="Trazado_1038676" data-name="Trazado 1038676" d="M179.375,313.074s-13.179,13.658-14.859,18.108,4.269,3.224,4.269,3.224,1.154,5.3,4.087,4.767,15.912-17.77,15.912-17.77Z" transform="translate(-164.216 -313.074)" fill="#f28b8b"/>
                <path id="Trazado_1038677" data-name="Trazado 1038677" d="M232.781,328.734s8.339,17.049,11.948,20.149,4.487-2.912,4.487-2.912,5.375.724,5.875-2.215-11.271-21.023-11.271-21.023Z" transform="translate(-172.356 -314.221)" fill="#f28b8b"/>
                <path id="Trazado_1038678" data-name="Trazado 1038678" d="M185.387,320.286s-9.227,16.585-9.709,21.318,4.954,2.019,4.954,2.019,2.476,4.825,5.175,3.556,10.813-21.262,10.813-21.262Z" transform="translate(-165.573 -313.93)" fill="#ffac9d"/>
                <path id="Trazado_1038679" data-name="Trazado 1038679" d="M243.356,324.706s11.273,15.268,15.382,17.667,3.89-3.673,3.89-3.673,5.417-.256,5.38-3.237-14.873-18.649-14.873-18.649Z" transform="translate(-173.612 -313.518)" fill="#ffac9d"/>
              </g>
              <g id="Grupo_1179507" data-name="Grupo 1179507" transform="translate(10.465)">
                <g id="Grupo_1179506" data-name="Grupo 1179506">
                  <path id="Trazado_1038680" data-name="Trazado 1038680" d="M215,330.277q-19.588.13-32.754-11.459T169.028,290.5q-.05-17.074,12.635-27.268t31.023-10.312a57.256,57.256,0,0,1,23.769,4.9,46.279,46.279,0,0,1,18.175,13.819,30.839,30.839,0,0,1,6.93,19.3q.045,15.685-13.256,27.446T215,330.277Z" transform="translate(-169.028 -252.921)" fill="#ffac9d"/>
                </g>
                <path id="Trazado_1038681" data-name="Trazado 1038681" d="M224.68,253.211a59.592,59.592,0,0,0-6.274-.288c-.4,0-.8.018-1.2.029,3.51.692,11.3,3.065,15.126,10.858l2.827-.677A23.051,23.051,0,0,0,224.68,253.211Z" transform="translate(-174.748 -252.921)" fill="#352c38"/>
              </g>
              <g id="Grupo_1179513" data-name="Grupo 1179513" transform="translate(0 5.096)">
                <g id="Grupo_1179512" data-name="Grupo 1179512" transform="translate(0 31.861)">
                  <path id="Trazado_1038682" data-name="Trazado 1038682" d="M176.755,295.329l-10.614-.472-1.919,18.209,12.953,1.017Z" transform="translate(-157.992 -294.857)" fill="#ffac9d"/>
                  <g id="Grupo_1179511" data-name="Grupo 1179511" transform="translate(0 0.003)">
                    <g id="Grupo_1179508" data-name="Grupo 1179508">
                      <path id="Trazado_1038683" data-name="Trazado 1038683" d="M164.7,313.246a7.265,7.265,0,0,1-5.653-3.113,9.96,9.96,0,0,1-1.856-6.874,9.136,9.136,0,0,1,2.75-6.313,7.5,7.5,0,0,1,5.734-2.07,8.11,8.11,0,0,1,4.164,1.448,9.094,9.094,0,0,1,3.9,8.156,9.787,9.787,0,0,1-2.864,6.348A7.686,7.686,0,0,1,164.7,313.246Z" transform="translate(-157.153 -294.861)" fill="#f28b8b"/>
                    </g>
                    <g id="Grupo_1179509" data-name="Grupo 1179509" transform="translate(9.28 5.833)">
                      <path id="Trazado_1038684" data-name="Trazado 1038684" d="M168.845,308.727q-.716-.147-1.009-1.334a6.721,6.721,0,0,1-.023-2.747,5.741,5.741,0,0,1,.9-2.438q.628-.846,1.3-.709a1.238,1.238,0,0,1,.788.65,3.689,3.689,0,0,1,.439,1.436,6.336,6.336,0,0,1-.06,1.855,6.14,6.14,0,0,1-.928,2.45Q169.576,308.879,168.845,308.727Z" transform="translate(-167.683 -301.479)" fill="#352c38"/>
                    </g>
                    <g id="Grupo_1179510" data-name="Grupo 1179510" transform="translate(1.987 4.523)">
                      <path id="Trazado_1038685" data-name="Trazado 1038685" d="M160.569,307.24q-.716-.147-1.009-1.334a6.73,6.73,0,0,1-.024-2.746,5.741,5.741,0,0,1,.9-2.438q.628-.846,1.3-.709a1.238,1.238,0,0,1,.788.65,3.688,3.688,0,0,1,.439,1.436,6.337,6.337,0,0,1-.06,1.855,6.14,6.14,0,0,1-.928,2.45Q161.3,307.39,160.569,307.24Z" transform="translate(-159.407 -299.993)" fill="#352c38"/>
                    </g>
                  </g>
                </g>
                <path id="Trazado_1038686" data-name="Trazado 1038686" d="M176.7,285.83c-.163.664-.649,1.069-1.083.9a1.265,1.265,0,0,1-.492-1.5c.163-.664.649-1.069,1.083-.9A1.264,1.264,0,0,1,176.7,285.83Z" transform="translate(-159.28 -261.742)" fill="#352c38" stroke="#352c38" stroke-miterlimit="10" stroke-width="0.839"/>
                <path id="Trazado_1038687" data-name="Trazado 1038687" d="M195.747,287.724c-.164.664-.649,1.069-1.084.9a1.266,1.266,0,0,1-.492-1.5c.163-.664.649-1.069,1.084-.9A1.265,1.265,0,0,1,195.747,287.724Z" transform="translate(-161.541 -261.967)" fill="#352c38" stroke="#352c38" stroke-miterlimit="10" stroke-width="0.839"/>
                <path id="Trazado_1038688" data-name="Trazado 1038688" d="M203.234,280.383s-13.629-12.578-9.363-15.927,11.2-7.374,13.3-.86S205.933,280.723,203.234,280.383Z" transform="translate(-161.414 -258.872)" fill="#f28b8b"/>
                <path id="Trazado_1038689" data-name="Trazado 1038689" d="M175.033,277.417s11.219-12.028,6.452-14.617-11.235-7.412-12.215-.639S172.429,278.2,175.033,277.417Z" transform="translate(-158.574 -258.704)" fill="#f28b8b"/>
              </g>
            </g>
            <g id="Grupo_1179516" data-name="Grupo 1179516" transform="translate(53.025)">
              <g id="Grupo_1179515" data-name="Grupo 1179515" transform="translate(0 9.979)">
                <path id="Trazado_1038690" data-name="Trazado 1038690" d="M312.592,266.792s15.661,73.987-.668,83-130.852-62.157-78.769-37.761c0,0-36.435-25.307,1.231-5.829,0,0-32.753-25,3.991-3.373,0,0-28.953-17.262,6.875-2.389,0,0-9.926-23.08,5.89.5l32.517,10.147s-10.715-35.753-4.628-55.263S303.47,234.139,312.592,266.792Z" transform="translate(-217.321 -241.602)" fill="#965450"/>
                <path id="Trazado_1038691" data-name="Trazado 1038691" d="M313.623,290.406a102.075,102.075,0,0,0,10.287-5.391c-1.648-10.621-3.256-18.224-3.256-18.224-9.122-32.652-27.472-30.486-33.56-10.975-3.287,10.535-1.675,25.8.5,37.625C296.454,293.133,305.055,294.194,313.623,290.406Z" transform="translate(-225.383 -241.602)" fill="#76413b"/>
              </g>
              <path id="Trazado_1038692" data-name="Trazado 1038692" d="M281.42,288.526s-7.244-58.284,14.527-58.247S324.1,258.53,328.034,274.37C328.034,274.37,304.179,289.06,281.42,288.526Z" transform="translate(-224.794 -230.279)" fill="#ffa65b"/>
            </g>
          </g>
        </g>
        <g id="Grupo_1179528" data-name="Grupo 1179528" transform="translate(174.436 34.567)">
          <g id="Grupo_1179520" data-name="Grupo 1179520" transform="translate(24.266)">
            <path id="Trazado_1038693" data-name="Trazado 1038693" d="M257.892,113.353s-7.093,22.639,31.194,31.788c0,0-25.74,73.97-8.745,77.622s15.555-14.513,31.521,1.412c0,0,14.8-11.363,4.006-27.1s14.292-52.438-1.729-76.524S265.6,95.214,257.892,113.353Z" transform="translate(-257.374 -100.958)" fill="#352c38"/>
            <g id="Grupo_1179519" data-name="Grupo 1179519" transform="translate(33.607 58.444)">
              <path id="Trazado_1038694" data-name="Trazado 1038694" d="M307.247,167.851c-3.607-1.548-6.367.239-8.349,2.788-.315,5.53-2.125,10.181-3.389,17.133C307.727,198.446,314.872,171.121,307.247,167.851Z" transform="translate(-295.508 -167.275)" fill="#965450"/>
            </g>
          </g>
          <g id="Grupo_1179527" data-name="Grupo 1179527" transform="translate(0 42.013)">
            <g id="Grupo_1179524" data-name="Grupo 1179524" transform="translate(12.489 13.636)">
              <g id="Grupo_1179521" data-name="Grupo 1179521">
                <path id="Trazado_1038695" data-name="Trazado 1038695" d="M252.977,164.1a5.136,5.136,0,0,1,.088.917,6.624,6.624,0,0,1-.046.925,9.5,9.5,0,0,1-.369,1.824,11.39,11.39,0,0,1-.669,1.744,6.384,6.384,0,0,1-.426.833c-.16.266-.3.55-.48.8a13.329,13.329,0,0,1-1.1,1.508,16.85,16.85,0,0,1-1.257,1.371c-.436.44-.918.828-1.382,1.233-.489.375-1,.723-1.491,1.083l-.07-1.31c.446.285.872.6,1.306.907s.86.622,1.283.946a30.278,30.278,0,0,1,2.468,2.058,29.92,29.92,0,0,1-2.991-1.174c-.486-.216-.972-.433-1.446-.671s-.959-.456-1.423-.709l-.961-.525.892-.785,1.3-1.146.623-.595c.206-.2.431-.381.62-.594l.6-.614c.209-.2.384-.421.575-.632.389-.419.743-.861,1.1-1.3.189-.215.338-.456.508-.685s.338-.46.49-.7.327-.471.462-.722.306-.487.434-.744c.271-.506.538-1.022.764-1.562A11.714,11.714,0,0,0,252.977,164.1Z" transform="translate(-244.011 -164.104)" fill="#5e2626"/>
              </g>
              <g id="Grupo_1179522" data-name="Grupo 1179522" transform="translate(49.453 5.588)">
                <path id="Trazado_1038696" data-name="Trazado 1038696" d="M302.253,187.953a6.305,6.305,0,0,0,.449-1.431,2.935,2.935,0,0,0-.037-1.365c-.045-.1-.076-.193-.123-.281l-.172-.239c-.077-.065-.153-.126-.221-.193a1.358,1.358,0,0,0-.256-.157,2.767,2.767,0,0,0-.585-.227c-.216-.047-.444-.074-.661-.115l-.481-.09-.017-.518a37.833,37.833,0,0,1,.318-6.41,21.727,21.727,0,0,1,.719-3.214,8.471,8.471,0,0,1,.719-1.607,3.339,3.339,0,0,1,1.528-1.455l.308-.1.039-.011.019-.005.074-.014.048-.006.1-.013.391-.048a5.544,5.544,0,0,1,.993.031,5.03,5.03,0,0,1,1.79.576,4.3,4.3,0,0,1,1.386,1.266,4.857,4.857,0,0,1,.754,1.655c.07.288.086.583.128.871.02.288,0,.574,0,.857a7.208,7.208,0,0,1-.289,1.638,9.339,9.339,0,0,1-.552,1.526c-.207.494-.5.95-.747,1.414.115-.522.256-1.028.353-1.54a13.619,13.619,0,0,0,.213-1.531,9.027,9.027,0,0,0,.005-1.5c-.039-.241-.055-.484-.108-.715-.07-.226-.12-.457-.2-.671a3.493,3.493,0,0,0-.673-1.134,3.361,3.361,0,0,0-1-.758,3.431,3.431,0,0,0-1.221-.3,4.089,4.089,0,0,0-.581.011l-.389.066-.1.015-.048.008.052-.01h0l0,0-.008,0a.248.248,0,0,1-.066.025,1.745,1.745,0,0,0-.657.74,7.646,7.646,0,0,0-.54,1.28,20,20,0,0,0-.717,2.925c-.374,2.011-.626,4.092-.823,6.15l-.5-.608c.272.09.542.166.808.271a3.743,3.743,0,0,1,.77.446,2.284,2.284,0,0,1,.346.3c.1.121.2.244.288.37l.195.427a4.417,4.417,0,0,1,.1.444,2.872,2.872,0,0,1-.142,1.254,3.192,3.192,0,0,1-.143.375A5.23,5.23,0,0,1,302.253,187.953Z" transform="translate(-300.127 -170.445)" fill="#5e2626"/>
              </g>
              <g id="Grupo_1179523" data-name="Grupo 1179523" transform="translate(6.216 17.982)">
                <path id="Trazado_1038697" data-name="Trazado 1038697" d="M251.064,188.36s.267.086.732.2,1.126.273,1.914.412c.4.065.821.127,1.272.169.447.07.924.045,1.407.087.484-.016.985-.013,1.484-.076l.753-.089c.251-.035.493-.116.741-.171a8.062,8.062,0,0,0,1.446-.439,14.181,14.181,0,0,0,1.34-.615c.427-.22.8-.51,1.188-.739a2.97,2.97,0,0,0,.529-.387l.482-.389a8.619,8.619,0,0,0,.837-.709c.23-.234.443-.43.619-.6.353-.328.569-.513.569-.513s-.114.25-.339.684c-.115.215-.251.481-.425.778a5.5,5.5,0,0,1-.671.937,6.584,6.584,0,0,1-.919,1.028,10.487,10.487,0,0,1-1.2.988l-.709.433a3.3,3.3,0,0,1-.76.386,9.2,9.2,0,0,1-1.652.557c-.287.056-.571.136-.859.168l-.863.077a4.26,4.26,0,0,1-.848,0c-.279-.018-.554-.021-.823-.052a10.379,10.379,0,0,1-1.519-.3,8.806,8.806,0,0,1-1.3-.432,9.63,9.63,0,0,1-1.8-.945A5.4,5.4,0,0,1,251.064,188.36Z" transform="translate(-251.064 -184.508)" fill="#5e2626"/>
              </g>
            </g>
            <g id="Grupo_1179525" data-name="Grupo 1179525" transform="translate(26.99 2.937)">
              <path id="Trazado_1038698" data-name="Trazado 1038698" d="M260.465,154.943a6.528,6.528,0,0,0,1.01.48,7.887,7.887,0,0,0,1.162.332,6.11,6.11,0,0,0,1.456.058,5.881,5.881,0,0,0,1.57-.419,8.086,8.086,0,0,0,.79-.413l.881-.555a10.751,10.751,0,0,1,1.036-.609,11.265,11.265,0,0,1,1.147-.567,15.156,15.156,0,0,1,2.457-.871,13.552,13.552,0,0,1,2.632-.407c.446-.019.9,0,1.333.016.442.061.879.1,1.3.193a12.771,12.771,0,0,1,1.228.36c.384.174.768.311,1.112.51s.666.411.966.624l.794.7a8.143,8.143,0,0,1,1.11,1.424,6.994,6.994,0,0,1,.616,1.206c.262.7.367,1.1.367,1.1s-.336-.278-.848-.761c-.234-.259-.622-.478-.973-.784a3.761,3.761,0,0,0-.62-.412c-.229-.124-.433-.3-.689-.408l-.767-.363-.841-.286c-.289-.085-.6-.133-.9-.206-.308-.052-.632-.072-.95-.115l-.994-.021-1.03.08a16.459,16.459,0,0,0-2.112.41,19.946,19.946,0,0,0-2.111.66c-.72.262-1.3.5-2.031.828-.17.073-.353.161-.508.221l-.595.242a7.8,7.8,0,0,1-1.206.337,6.378,6.378,0,0,1-2.3-.016,5.4,5.4,0,0,1-2.816-1.61A3.713,3.713,0,0,1,260.465,154.943Z" transform="translate(-260.465 -151.964)" fill="#1f1a21"/>
            </g>
            <g id="Grupo_1179526" data-name="Grupo 1179526">
              <path id="Trazado_1038699" data-name="Trazado 1038699" d="M250.065,155.6l-.906-.559c-.573-.344-1.379-.827-2.347-1.333a15.829,15.829,0,0,0-7.066-2.119,9.644,9.644,0,0,0-1.88.188,11.6,11.6,0,0,0-1.8.519,15.81,15.81,0,0,0-1.664.774c-.276.12-.509.3-.762.437a7.386,7.386,0,0,0-.712.442c-.454.3-.885.568-1.247.843s-.709.489-.967.7c-.533.4-.872.62-.872.62s.13-.369.419-.994a7.961,7.961,0,0,1,.589-1.091,10.17,10.17,0,0,1,.92-1.339,11.534,11.534,0,0,1,1.338-1.427,11.154,11.154,0,0,1,1.811-1.321,9.848,9.848,0,0,1,4.838-1.306,10.61,10.61,0,0,1,4.8,1.231,12.658,12.658,0,0,1,3.3,2.49,12.813,12.813,0,0,1,1.728,2.278A6.894,6.894,0,0,1,250.065,155.6Z" transform="translate(-229.839 -148.631)" fill="#1f1a21"/>
            </g>
            <path id="Trazado_1038700" data-name="Trazado 1038700" d="M270.1,168.612c-.152,1.881-1.066,3.341-2.04,3.262s-1.641-1.667-1.488-3.548,1.066-3.341,2.04-3.262S270.256,166.731,270.1,168.612Z" transform="translate(-234.198 -150.582)" fill="#1f1a21"/>
            <path id="Trazado_1038701" data-name="Trazado 1038701" d="M238.03,163.64c-.152,1.881-1.066,3.342-2.04,3.262s-1.64-1.667-1.488-3.548,1.065-3.341,2.04-3.262S238.182,161.759,238.03,163.64Z" transform="translate(-230.39 -149.991)" fill="#1f1a21"/>
          </g>
        </g>
      </g>
    </g>
  </g>
</svg>
