<svg xmlns="http://www.w3.org/2000/svg" xmlns:xlink="http://www.w3.org/1999/xlink" width="93.934" height="93.934" viewBox="0 0 93.934 93.934">
  <defs>
    <filter id="Trazado_982547" x="0" y="0" width="93.934" height="93.934" filterUnits="userSpaceOnUse">
      <feOffset dy="3" input="SourceAlpha"/>
      <feGaussianBlur stdDeviation="3" result="blur"/>
      <feFlood flood-opacity="0.161"/>
      <feComposite operator="in" in2="blur"/>
      <feComposite in="SourceGraphic"/>
    </filter>
  </defs>
  <g id="Grupo_1179708" data-name="Grupo 1179708" transform="translate(-609 -2779)">
    <g id="Grupo_1174890" data-name="Grupo 1174890" transform="translate(419.967 793)">
      <g id="Grupo_1167337" data-name="Grupo 1167337" transform="translate(198.033 1992)">
        <g id="Grupo_1166720" data-name="Grupo 1166720">
          <g id="Grupo_1164305" data-name="Grupo 1164305">
            <g id="Grupo_1163948" data-name="Grupo 1163948">
              <g id="Grupo_1158168" data-name="Grupo 1158168">
                <g id="Grupo_1152576" data-name="Grupo 1152576">
                  <g id="Grupo_1148633" data-name="Grupo 1148633">
                    <g id="Grupo_1148525" data-name="Grupo 1148525">
                      <g transform="matrix(1, 0, 0, 1, -9, -6)" filter="url(#Trazado_982547)">
                        <g id="Trazado_982547-2" data-name="Trazado 982547" transform="translate(9 6)" fill="#e8edf7">
                          <path d="M 37.966796875 74.43359375 C 33.04315185546875 74.43359375 28.26757431030273 73.46962738037109 23.77274131774902 71.56847381591797 C 19.43047523498535 69.73184967041016 15.53040790557861 67.10224914550781 12.18087482452393 63.75271987915039 C 8.831341743469238 60.4031867980957 6.201741218566895 56.50312042236328 4.365118980407715 52.16086196899414 C 2.463963508605957 47.66601943969727 1.499996900558472 42.89044189453125 1.499996900558472 37.966796875 C 1.499996900558472 33.04315185546875 2.463963508605957 28.26757431030273 4.365118980407715 23.77274131774902 C 6.201741218566895 19.43047523498535 8.831341743469238 15.53040790557861 12.18087482452393 12.18087482452393 C 15.53040790557861 8.831341743469238 19.43047523498535 6.201741218566895 23.77274131774902 4.365118980407715 C 28.26757431030273 2.463963508605957 33.04315185546875 1.499996900558472 37.966796875 1.499996900558472 C 42.89044189453125 1.499996900558472 47.66601943969727 2.463963508605957 52.16086196899414 4.365118980407715 C 56.50312042236328 6.201741218566895 60.4031867980957 8.831341743469238 63.75271987915039 12.18087482452393 C 67.10224914550781 15.53040790557861 69.73184967041016 19.43047523498535 71.56847381591797 23.77274131774902 C 73.46962738037109 28.26757431030273 74.43359375 33.04315185546875 74.43359375 37.966796875 C 74.43359375 42.89044189453125 73.46962738037109 47.66601943969727 71.56847381591797 52.16086196899414 C 69.73184967041016 56.50313186645508 67.10224914550781 60.4031867980957 63.75271987915039 63.75271987915039 C 60.4031867980957 67.10224914550781 56.50313186645508 69.73184967041016 52.16086196899414 71.56847381591797 C 47.66601943969727 73.46962738037109 42.89044189453125 74.43359375 37.966796875 74.43359375 Z" stroke="none"/>
                          <path d="M 37.966796875 3 C 33.2449836730957 3 28.66600799560547 3.924095153808594 24.35705947875977 5.746635437011719 C 20.19359588623047 7.507637023925781 16.45379638671875 10.02928161621094 13.24153518676758 13.24153518676758 C 10.02927398681641 16.45379638671875 7.507621765136719 20.19359588623047 5.746635437011719 24.35705947875977 C 3.924095153808594 28.66600799560547 3 33.2449836730957 3 37.966796875 C 3 42.6886100769043 3.924095153808594 47.26758575439453 5.746635437011719 51.57653427124023 C 7.507621765136719 55.73999786376953 10.02927398681641 59.47979736328125 13.24153518676758 62.69205856323242 C 16.45379638671875 65.90431976318359 20.19359588623047 68.42597198486328 24.35705947875977 70.18695831298828 C 28.66600799560547 72.00949859619141 33.2449836730957 72.93359375 37.966796875 72.93359375 C 42.6886100769043 72.93359375 47.26758575439453 72.00949859619141 51.57653427124023 70.18695831298828 C 55.73999786376953 68.42597198486328 59.47979736328125 65.90431976318359 62.69205856323242 62.69205856323242 C 65.90431976318359 59.47979736328125 68.42597198486328 55.73999786376953 70.18695831298828 51.57653427124023 C 72.00949859619141 47.26758575439453 72.93359375 42.6886100769043 72.93359375 37.966796875 C 72.93359375 33.2449836730957 72.00949859619141 28.66600799560547 70.18695831298828 24.35705947875977 C 68.42597198486328 20.19359588623047 65.90431976318359 16.45379638671875 62.69205856323242 13.24153518676758 C 59.47979736328125 10.02928161621094 55.73999786376953 7.507637023925781 51.57653427124023 5.746635437011719 C 47.26758575439453 3.924095153808594 42.6886100769043 3 37.966796875 3 M 37.966796875 0 C 58.93528366088867 0 75.93359375 16.99832153320312 75.93359375 37.966796875 C 75.93359375 58.93528366088867 58.93528366088867 75.93359375 37.966796875 75.93359375 C 16.99831008911133 75.93359375 0 58.93528366088867 0 37.966796875 C 0 16.99832153320312 16.99831008911133 0 37.966796875 0 Z" stroke="none" fill="#2e5bb6"/>
                        </g>
                      </g>
                    </g>
                  </g>
                </g>
              </g>
            </g>
          </g>
        </g>
      </g>
    </g>
    <g id="target" transform="translate(621.165 2800)">
      <g id="Grupo_1179702" data-name="Grupo 1179702" transform="translate(14.498 0.663)">
        <g id="Grupo_1179691" data-name="Grupo 1179691" transform="translate(17.481)">
          <path id="Trazado_1038870" data-name="Trazado 1038870" d="M242.984,54.926H219.148l-.088.088V73.872A10.793,10.793,0,0,1,224.7,88.706h17.947a.428.428,0,0,0,.428-.428V55.014Z" transform="translate(-219.06 -50.733)" fill="#c8effe"/>
          <path id="Trazado_1038871" data-name="Trazado 1038871" d="M221.707,75.4V55.014l.088-.088h-2.647l-.088.088V73.872A10.778,10.778,0,0,1,221.707,75.4Z" transform="translate(-219.06 -50.733)" fill="#99e6fc"/>
          <g id="Grupo_1179677" data-name="Grupo 1179677">
            <path id="Trazado_1038872" data-name="Trazado 1038872" d="M243.073,11.781H219.06v-3.4a.884.884,0,0,1,.884-.884h22.244a.884.884,0,0,1,.884.884Z" transform="translate(-219.06 -7.5)" fill="#7ca1b1"/>
          </g>
          <g id="Grupo_1179678" data-name="Grupo 1179678">
            <path id="Trazado_1038873" data-name="Trazado 1038873" d="M219.944,7.5a.884.884,0,0,0-.884.884v3.4h5.305V7.5Z" transform="translate(-219.06 -7.5)" fill="#678d98"/>
          </g>
          <g id="Grupo_1179679" data-name="Grupo 1179679">
            <path id="Trazado_1038874" data-name="Trazado 1038874" d="M222.591,7.5h-2.647a.884.884,0,0,0-.884.884v3.4h2.647v-3.4A.884.884,0,0,1,222.591,7.5Z" transform="translate(-219.06 -7.5)" fill="#537983"/>
          </g>
          <g id="Grupo_1179682" data-name="Grupo 1179682" transform="translate(4.002 7.19)">
            <g id="Grupo_1179680" data-name="Grupo 1179680">
              <path id="Trazado_1038875" data-name="Trazado 1038875" d="M267.413,92.175h-2.82a.265.265,0,0,1-.265-.265v-2.82a.265.265,0,0,1,.265-.265h2.82a.265.265,0,0,1,.265.265v2.82A.265.265,0,0,1,267.413,92.175Z" transform="translate(-264.328 -88.824)" fill="#01d0fb"/>
            </g>
            <g id="Grupo_1179681" data-name="Grupo 1179681">
              <path id="Trazado_1038876" data-name="Trazado 1038876" d="M265.811,91.909v-2.82a.265.265,0,0,1,.265-.265h-1.483a.265.265,0,0,0-.265.265v2.82a.265.265,0,0,0,.265.265h1.483A.265.265,0,0,1,265.811,91.909Z" transform="translate(-264.328 -88.824)" fill="#01c0fa"/>
            </g>
          </g>
          <g id="Grupo_1179685" data-name="Grupo 1179685" transform="translate(4.002 13.123)">
            <g id="Grupo_1179683" data-name="Grupo 1179683">
              <path id="Trazado_1038877" data-name="Trazado 1038877" d="M267.413,159.287h-2.82a.265.265,0,0,1-.265-.265V156.2a.265.265,0,0,1,.265-.265h2.82a.265.265,0,0,1,.265.265v2.82A.265.265,0,0,1,267.413,159.287Z" transform="translate(-264.328 -155.936)" fill="#01d0fb"/>
            </g>
            <g id="Grupo_1179684" data-name="Grupo 1179684">
              <path id="Trazado_1038878" data-name="Trazado 1038878" d="M265.811,159.021V156.2a.265.265,0,0,1,.265-.265h-1.483a.265.265,0,0,0-.265.265v2.82a.265.265,0,0,0,.265.265h1.483A.265.265,0,0,1,265.811,159.021Z" transform="translate(-264.328 -155.936)" fill="#01c0fa"/>
            </g>
          </g>
          <g id="Grupo_1179688" data-name="Grupo 1179688" transform="translate(4.002 19.057)">
            <g id="Grupo_1179686" data-name="Grupo 1179686">
              <path id="Trazado_1038879" data-name="Trazado 1038879" d="M267.413,226.4h-2.82a.265.265,0,0,1-.265-.265v-2.82a.265.265,0,0,1,.265-.265h2.82a.265.265,0,0,1,.265.265v2.82A.265.265,0,0,1,267.413,226.4Z" transform="translate(-264.328 -223.048)" fill="#01d0fb"/>
            </g>
            <g id="Grupo_1179687" data-name="Grupo 1179687">
              <path id="Trazado_1038880" data-name="Trazado 1038880" d="M265.811,226.133v-2.82a.265.265,0,0,1,.265-.265h-1.483a.265.265,0,0,0-.265.265v2.82a.265.265,0,0,0,.265.265h1.483A.265.265,0,0,1,265.811,226.133Z" transform="translate(-264.328 -223.048)" fill="#01c0fa"/>
            </g>
          </g>
          <g id="Grupo_1179690" data-name="Grupo 1179690" transform="translate(4.002 24.99)">
            <path id="Trazado_1038881" data-name="Trazado 1038881" d="M267.413,290.159h-2.82a.265.265,0,0,0-.265.265v.68a10.805,10.805,0,0,1,1.64,2.4h1.446a.265.265,0,0,0,.265-.265v-2.82A.265.265,0,0,0,267.413,290.159Z" transform="translate(-264.328 -290.159)" fill="#01d0fb"/>
            <g id="Grupo_1179689" data-name="Grupo 1179689">
              <path id="Trazado_1038882" data-name="Trazado 1038882" d="M265.811,293.207v-2.783a.265.265,0,0,1,.265-.265h-1.483a.265.265,0,0,0-.265.265v.68A10.823,10.823,0,0,1,265.811,293.207Z" transform="translate(-264.328 -290.159)" fill="#01c0fa"/>
            </g>
          </g>
        </g>
        <g id="Grupo_1179698" data-name="Grupo 1179698" transform="translate(2.681 22.367)">
          <path id="Trazado_1038883" data-name="Trazado 1038883" d="M62.448,260.489a10.828,10.828,0,0,0-2.272.241,5.708,5.708,0,0,1-7.838,6.781,10.788,10.788,0,1,0,10.111-7.022Z" transform="translate(-51.662 -260.489)" fill="#fd5426"/>
          <g id="Grupo_1179692" data-name="Grupo 1179692" transform="translate(0 7.022)">
            <path id="Trazado_1038884" data-name="Trazado 1038884" d="M53.9,343.68a10.78,10.78,0,0,1,.5-3.264,5.676,5.676,0,0,1-2.066-.5,10.792,10.792,0,0,0,10.111,14.551,10.892,10.892,0,0,0,1.12-.058A10.788,10.788,0,0,1,53.9,343.68Z" transform="translate(-51.661 -339.915)" fill="#ef4424"/>
          </g>
          <path id="Trazado_1038885" data-name="Trazado 1038885" d="M98.558,300.1a7.25,7.25,0,0,0-2.453.426,5.719,5.719,0,0,1-3.98,3.445,7.283,7.283,0,1,0,6.433-3.871Z" transform="translate(-87.772 -296.599)" fill="#fff"/>
          <path id="Trazado_1038886" data-name="Trazado 1038886" d="M93.548,307.385a7.3,7.3,0,0,1,6.147-7.2,7.275,7.275,0,0,0-3.59.337,5.719,5.719,0,0,1-3.98,3.445A7.283,7.283,0,0,0,99.7,314.58,7.3,7.3,0,0,1,93.548,307.385Z" transform="translate(-87.772 -296.599)" fill="#eef5f6"/>
          <g id="Grupo_1179693" data-name="Grupo 1179693" transform="translate(24.296 8.263)">
            <path id="Trazado_1038887" data-name="Trazado 1038887" d="M333.561,353.952h-5.225a.265.265,0,0,0-.219.116l-1.643,2.408,1.643,2.408a.265.265,0,0,0,.219.116h5.225a.265.265,0,0,0,.216-.419l-1.5-2.1,1.5-2.1A.265.265,0,0,0,333.561,353.952Z" transform="translate(-326.474 -353.952)" fill="#fff"/>
          </g>
          <g id="Grupo_1179694" data-name="Grupo 1179694" transform="translate(24.296 8.263)">
            <path id="Trazado_1038888" data-name="Trazado 1038888" d="M333.561,353.952h-5.225a.265.265,0,0,0-.219.116l-1.643,2.408,1.643,2.408a.265.265,0,0,0,.219.116h5.225a.265.265,0,0,0,.216-.419l-1.5-2.1,1.5-2.1A.265.265,0,0,0,333.561,353.952Z" transform="translate(-326.474 -353.952)" fill="#fff"/>
          </g>
          <g id="Grupo_1179695" data-name="Grupo 1179695" transform="translate(24.296 8.263)">
            <path id="Trazado_1038889" data-name="Trazado 1038889" d="M330.36,358.882l-1.643-2.408,1.643-2.408a.265.265,0,0,1,.219-.116h-2.242a.265.265,0,0,0-.219.116l-1.643,2.408,1.643,2.408a.265.265,0,0,0,.219.116h2.242A.265.265,0,0,1,330.36,358.882Z" transform="translate(-326.475 -353.951)" fill="#eef5f6"/>
          </g>
          <g id="Grupo_1179696" data-name="Grupo 1179696" transform="translate(7.004 7.004)">
            <circle id="Elipse_12355" data-name="Elipse 12355" cx="3.782" cy="3.782" r="3.782" fill="#fd5426"/>
          </g>
          <g id="Grupo_1179697" data-name="Grupo 1179697" transform="translate(7.004 7.004)">
            <path id="Trazado_1038890" data-name="Trazado 1038890" d="M133.106,343.5a3.789,3.789,0,0,1,2.672-3.616,3.782,3.782,0,1,0,0,7.231A3.789,3.789,0,0,1,133.106,343.5Z" transform="translate(-130.886 -339.714)" fill="#ef4424"/>
          </g>
        </g>
        <g id="Grupo_1179701" data-name="Grupo 1179701" transform="translate(0 18.478)">
          <g id="Grupo_1179699" data-name="Grupo 1179699">
            <circle id="Elipse_12356" data-name="Elipse 12356" cx="5.709" cy="5.709" r="5.709" fill="#fed402"/>
          </g>
          <g id="Grupo_1179700" data-name="Grupo 1179700" transform="translate(0)">
            <path id="Trazado_1038891" data-name="Trazado 1038891" d="M24.311,222.211a5.711,5.711,0,0,1,4.221-5.512,5.709,5.709,0,1,0,0,11.024A5.711,5.711,0,0,1,24.311,222.211Z" transform="translate(-21.335 -216.502)" fill="#fac600"/>
          </g>
        </g>
      </g>
      <g id="Grupo_1179706" data-name="Grupo 1179706" transform="translate(19.419 4.332)">
        <g id="Grupo_1179704" data-name="Grupo 1179704" transform="translate(0 0)">
          <g id="Grupo_1179703" data-name="Grupo 1179703">
            <path id="Trazado_1038892" data-name="Trazado 1038892" d="M78.937,49.091l-1.846,1.846a.31.31,0,0,0-.091.219V61.2a.31.31,0,0,0,.31.31h9.368a.31.31,0,0,0,.31-.31V49.31a.31.31,0,0,0-.31-.31H79.156A.31.31,0,0,0,78.937,49.091Z" transform="translate(-77 -49)" fill="#fdf6ec"/>
          </g>
        </g>
        <g id="Grupo_1179705" data-name="Grupo 1179705" transform="translate(0)">
          <path id="Trazado_1038893" data-name="Trazado 1038893" d="M80.006,61.2V51.156a.31.31,0,0,1,.091-.219l1.846-1.846A.31.31,0,0,1,82.162,49H79.156a.31.31,0,0,0-.219.091l-1.846,1.846a.31.31,0,0,0-.091.219V61.2a.31.31,0,0,0,.31.31h3.006A.31.31,0,0,1,80.006,61.2Z" transform="translate(-77 -49)" fill="#fef1da"/>
        </g>
      </g>
      <g id="Grupo_1179707" data-name="Grupo 1179707" transform="translate(13.835)">
        <path id="Trazado_1038894" data-name="Trazado 1038894" d="M55.992,20.378a.663.663,0,0,0,.663-.663V1.547A1.549,1.549,0,0,0,55.107,0H32.863a1.549,1.549,0,0,0-1.547,1.547v21.32a11.454,11.454,0,0,0-5.182-.353,6.371,6.371,0,1,0-9.089,7.864A11.448,11.448,0,0,0,38.015,39.3H55.564a1.092,1.092,0,0,0,1.091-1.091V22.81a.663.663,0,0,0-1.326,0V37.973H38.634a11.369,11.369,0,0,0,.762-3.494h1.729L42.57,36.6a.927.927,0,0,0,.767.405h5.225a.928.928,0,0,0,.756-1.468l-.754-1.056H48.6a.663.663,0,1,0,0-1.326h-.032l.754-1.056a.928.928,0,0,0-.755-1.468H43.337a.928.928,0,0,0-.767.405l-1.446,2.118H39.4a11.371,11.371,0,0,0-.759-3.487h.43a.929.929,0,0,0,.928-.928v-2.82a.929.929,0,0,0-.928-.928h-2.82a.925.925,0,0,0-.666.284,11.484,11.484,0,0,0-2.938-1.907V5.607H55.328V19.715a.663.663,0,0,0,.663.663Zm-12.444,15.3-.817-1.2h4.2l.854,1.2Zm0-3.721H47.79l-.854,1.2h-4.2ZM15.161,24.85A5.046,5.046,0,1,1,20.207,29.9,5.052,5.052,0,0,1,15.161,24.85Zm12.8,19.09a10.125,10.125,0,0,1-9.7-13.021,6.347,6.347,0,0,0,1.942.3c.083,0,.166,0,.249-.006A7.943,7.943,0,0,0,32.31,40.467a.663.663,0,1,0-.727-1.109,6.617,6.617,0,0,1-9.592-8.391A6.4,6.4,0,0,0,26,27.493a6.619,6.619,0,0,1,8.551,5.66H32.361a4.445,4.445,0,1,0,0,1.326h2.192a6.589,6.589,0,0,1-.994,2.873.663.663,0,0,0,1.12.711,7.912,7.912,0,0,0,1.206-3.584h2.183a10.136,10.136,0,0,1-10.1,9.46Zm0-9.46h3.048a3.119,3.119,0,1,1,0-1.326H27.966a.663.663,0,1,0,0,1.326Zm8.678-8.163h2.024V28.34h-.65a11.5,11.5,0,0,0-1.375-1.984v-.04Zm1.423,6.837H35.885a7.944,7.944,0,0,0-9.414-7.142,6.3,6.3,0,0,0,.02-2.21,10.119,10.119,0,0,1,11.575,9.352ZM36.621,4.281H32.642V1.547a.221.221,0,0,1,.221-.221h3.758V4.281Zm1.326,0V1.326h17.16a.221.221,0,0,1,.221.221V4.281Z" transform="translate(-13.835 0)"/>
        <path id="Trazado_1038895" data-name="Trazado 1038895" d="M332.038,87.114H321.707a.663.663,0,1,0,0,1.326h10.331a.663.663,0,1,0,0-1.326Z" transform="translate(-293.884 -79.412)"/>
        <path id="Trazado_1038896" data-name="Trazado 1038896" d="M321.707,114.758h6.119a.663.663,0,1,0,0-1.326h-6.119a.663.663,0,1,0,0,1.326Z" transform="translate(-293.884 -103.403)"/>
        <path id="Trazado_1038897" data-name="Trazado 1038897" d="M332.038,154.226H321.707a.663.663,0,1,0,0,1.326h10.331a.663.663,0,1,0,0-1.326Z" transform="translate(-293.884 -140.591)"/>
        <path id="Trazado_1038898" data-name="Trazado 1038898" d="M321.707,181.87h6.119a.663.663,0,1,0,0-1.326h-6.119a.663.663,0,1,0,0,1.326Z" transform="translate(-293.884 -164.582)"/>
        <path id="Trazado_1038899" data-name="Trazado 1038899" d="M332.038,221.337H321.707a.663.663,0,1,0,0,1.326h10.331a.663.663,0,1,0,0-1.326Z" transform="translate(-293.884 -201.769)"/>
        <path id="Trazado_1038900" data-name="Trazado 1038900" d="M321.707,248.982h6.119a.663.663,0,1,0,0-1.326h-6.119a.663.663,0,1,0,0,1.326Z" transform="translate(-293.884 -225.761)"/>
        <path id="Trazado_1038901" data-name="Trazado 1038901" d="M261.5,82.252a.929.929,0,0,0-.928-.928h-2.82a.929.929,0,0,0-.928.928v2.82a.929.929,0,0,0,.928.928h2.82a.929.929,0,0,0,.928-.928Zm-1.326,2.422h-2.024V82.65h2.024Z" transform="translate(-235.345 -74.134)"/>
        <path id="Trazado_1038902" data-name="Trazado 1038902" d="M261.5,149.364a.929.929,0,0,0-.928-.928h-2.82a.929.929,0,0,0-.928.928v2.82a.929.929,0,0,0,.928.928h2.82a.929.929,0,0,0,.928-.928Zm-1.326,2.422h-2.024v-2.024h2.024Z" transform="translate(-235.345 -135.313)"/>
        <path id="Trazado_1038903" data-name="Trazado 1038903" d="M260.576,215.547h-2.82a.929.929,0,0,0-.928.928v2.82a.929.929,0,0,0,.928.928h2.82a.929.929,0,0,0,.928-.928v-2.82A.929.929,0,0,0,260.576,215.547Zm-.4,3.351h-2.024v-2.024h2.024Z" transform="translate(-235.345 -196.49)"/>
        <path id="Trazado_1038904" data-name="Trazado 1038904" d="M332.7,289.112a.663.663,0,0,0-.663-.663H321.707a.663.663,0,0,0,0,1.326h10.331A.663.663,0,0,0,332.7,289.112Z" transform="translate(-293.884 -262.947)"/>
        <path id="Trazado_1038905" data-name="Trazado 1038905" d="M321.707,314.768a.663.663,0,1,0,0,1.326h6.119a.663.663,0,1,0,0-1.326Z" transform="translate(-293.884 -286.939)"/>
        <path id="Trazado_1038906" data-name="Trazado 1038906" d="M61.964,242.956v-.479a1.772,1.772,0,0,0-.05-3.544H60.687a.447.447,0,1,1,0-.894h2.162a.663.663,0,1,0,0-1.326h-.885v-.476a.663.663,0,1,0-1.326,0v.479a1.772,1.772,0,0,0,.05,3.544h1.227a.447.447,0,0,1,0,.894H59.752a.663.663,0,1,0,0,1.326h.885v.476a.663.663,0,0,0,1.326,0Z" transform="translate(-54.929 -214.746)"/>
        <path id="Trazado_1038907" data-name="Trazado 1038907" d="M70.473,55.336h9.368a.974.974,0,0,0,.973-.973V49.855a.663.663,0,1,0-1.326,0V54.01H70.826V44.465l1.639-1.639h7.023V46.76a.663.663,0,1,0,1.326,0V42.473a.974.974,0,0,0-.973-.973H72.319a.967.967,0,0,0-.688.285l-1.845,1.846a.967.967,0,0,0-.285.688V54.363a.974.974,0,0,0,.973.973Z" transform="translate(-64.579 -37.831)"/>
        <path id="Trazado_1038908" data-name="Trazado 1038908" d="M107.18,74.185H103a.663.663,0,1,0,0,1.326h4.182a.663.663,0,0,0,0-1.326Z" transform="translate(-94.511 -67.626)"/>
        <path id="Trazado_1038909" data-name="Trazado 1038909" d="M107.18,99.448H103a.663.663,0,1,0,0,1.326h4.182a.663.663,0,0,0,0-1.326Z" transform="translate(-94.511 -90.656)"/>
        <path id="Trazado_1038910" data-name="Trazado 1038910" d="M107.844,125.6a.663.663,0,0,0-.663-.663H103a.663.663,0,1,0,0,1.326h4.182A.663.663,0,0,0,107.844,125.6Z" transform="translate(-94.511 -113.892)"/>
        <path id="Trazado_1038911" data-name="Trazado 1038911" d="M103,150.315a.663.663,0,1,0,0,1.326h1.875a.663.663,0,1,0,0-1.326Z" transform="translate(-94.511 -137.026)"/>
      </g>
    </g>
  </g>
</svg>
