<svg xmlns="http://www.w3.org/2000/svg" xmlns:xlink="http://www.w3.org/1999/xlink" width="295" height="525" viewBox="0 0 295 525">
  <defs>
    <clipPath id="clip-path">
      <rect id="Rectángulo_415525" data-name="Rectángulo 415525" width="295" height="525" fill="#fff" stroke="#707070" stroke-width="1"/>
    </clipPath>
  </defs>
  <g id="Grupo_1179713" data-name="Grupo 1179713" transform="translate(-1125 -6280.206)">
    <g id="Enmascarar_grupo_1098805" data-name="Enmascarar grupo 1098805" transform="translate(1125 6280.206)" clip-path="url(#clip-path)">
      <g id="Grupo_1179547" data-name="Grupo 1179547" transform="translate(-33 -26)">
        <path id="Fondo" d="M295,0H0V525.83H295Z" transform="translate(32.62 26)" fill="#fdf4ee"/>
        <g id="Elipse_12324" data-name="Elipse 12324" transform="translate(118 -11)" fill="none" stroke="#ee9865" stroke-width="10" opacity="0.38">
          <ellipse cx="49" cy="48.5" rx="49" ry="48.5" stroke="none"/>
          <ellipse cx="49" cy="48.5" rx="44" ry="43.5" fill="none"/>
        </g>
        <g id="Elipse_12325" data-name="Elipse 12325" transform="translate(-7 288.915)" fill="none" stroke="#ee9865" stroke-width="15" opacity="0.38">
          <ellipse cx="59" cy="58.5" rx="59" ry="58.5" stroke="none"/>
          <ellipse cx="59" cy="58.5" rx="51.5" ry="51" fill="none"/>
        </g>
        <g id="Elipse_12326" data-name="Elipse 12326" transform="translate(277 417.705)" fill="none" stroke="#ee9865" stroke-width="10" opacity="0.38">
          <ellipse cx="21.5" cy="21.148" rx="21.5" ry="21.148" stroke="none"/>
          <ellipse cx="21.5" cy="21.148" rx="16.5" ry="16.148" fill="none"/>
        </g>
        <g id="Elipse_12327" data-name="Elipse 12327" transform="translate(285 131)" fill="none" stroke="#ee9865" stroke-width="10" opacity="0.38">
          <ellipse cx="17.5" cy="17" rx="17.5" ry="17" stroke="none"/>
          <ellipse cx="17.5" cy="17" rx="12.5" ry="12" fill="none"/>
        </g>
        <g id="Elipse_12328" data-name="Elipse 12328" transform="translate(75 472)" fill="none" stroke="#ee9865" stroke-width="10" opacity="0.38">
          <ellipse cx="21.5" cy="21" rx="21.5" ry="21" stroke="none"/>
          <ellipse cx="21.5" cy="21" rx="16.5" ry="16" fill="none"/>
        </g>
        <g id="Elipse_12341" data-name="Elipse 12341" transform="translate(216 44.5)" fill="none" stroke="#ee9865" stroke-width="10" opacity="0.38">
          <ellipse cx="24" cy="23.5" rx="24" ry="23.5" stroke="none"/>
          <ellipse cx="24" cy="23.5" rx="19" ry="18.5" fill="none"/>
        </g>
      </g>
    </g>
    <g id="Grupo_1179652" data-name="Grupo 1179652" transform="translate(-492.446 6172.397)">
      <path id="Trazado_1038789" data-name="Trazado 1038789" d="M1689.952,178.622s-8.826-42.435-9.845-49.224-2.037-17.653-6.111-17.653-4.074,7.469-4.074,12.9a108.187,108.187,0,0,0,1.018,12.561,44.61,44.61,0,0,0-17.313-3.734c-9.505,0-32.59,5.771-35.306,8.826s1.358,9.166,5.771,10.863,30.892.679,34.627,4.413,6.111,25.121,6.111,25.121Z" transform="translate(0 0)" fill="#ffaf8a"/>
      <g id="Grupo_1179621" data-name="Grupo 1179621" transform="translate(1617.47 139.407)">
        <path id="Trazado_1038790" data-name="Trazado 1038790" d="M1618.064,203.146c9-2.077,17.567-5.083,26.781-6.2.546-.067.583-.88,0-.881-4.338,0-8.651,1.1-12.816,2.221-4.74,1.271-9.534,2.494-14.2,4.015a.441.441,0,0,0,.234.849Z" transform="translate(-1617.519 -196.061)" fill="#f29a77"/>
      </g>
      <g id="Grupo_1179622" data-name="Grupo 1179622" transform="translate(1621.982 146.02)">
        <path id="Trazado_1038791" data-name="Trazado 1038791" d="M1631.828,221.861c7.554-1.739,15.117-3.353,22.766-4.621.665-.11.383-1.123-.279-1.013-7.635,1.272-15.24,2.789-22.725,4.769a.449.449,0,0,0,.238.864Z" transform="translate(-1631.271 -216.219)" fill="#f29a77"/>
      </g>
      <g id="Grupo_1179623" data-name="Grupo 1179623" transform="translate(1656.234 140.816)">
        <path id="Trazado_1038792" data-name="Trazado 1038792" d="M1736.123,201.284a21.291,21.291,0,0,1,6.638,1.39.434.434,0,0,0,.333-.79,14.319,14.319,0,0,0-6.971-1.528.464.464,0,0,0,0,.928Z" transform="translate(-1735.675 -200.356)" fill="#f29a77"/>
      </g>
      <path id="Trazado_1038793" data-name="Trazado 1038793" d="M1723.831,996.07s-35.306-14.937-38.927-13.579-.453,4.979,1.811,6.337,6.789,3.621,6.789,3.621-28.516-3.508-31.684-4.074-3.169,6-1.131,8.827,6.36,6.313,8.713,7.242c4.3,1.7,16.182,3.055,19.237,3.847s20.708,6.224,20.708,6.224Z" transform="translate(-28.109 -585.019)" fill="#ffaf8a"/>
      <g id="Grupo_1179624" data-name="Grupo 1179624" transform="translate(1630.729 406.802)">
        <path id="Trazado_1038794" data-name="Trazado 1038794" d="M1658.2,1011.906a60.437,60.437,0,0,0,28.841,4.508c.553-.061.584-.886,0-.886a84.757,84.757,0,0,1-28.628-4.395c-.495-.173-.675.579-.213.772Z" transform="translate(-1657.935 -1011.108)" fill="#f29a77"/>
      </g>
      <g id="Grupo_1179625" data-name="Grupo 1179625" transform="translate(1632.673 412.186)">
        <path id="Trazado_1038795" data-name="Trazado 1038795" d="M1664,1028.2c2.537,2.165,5.472,2.973,8.712,3.535,4.73.82,9.495,1.562,14.25,2.223.588.082.857-.8.251-.91-3.952-.69-7.927-1.26-11.89-1.881-3.782-.593-7.652-1.073-10.745-3.544-.4-.325-.984.23-.577.577Z" transform="translate(-1663.858 -1027.52)" fill="#f29a77"/>
      </g>
      <g id="Grupo_1179626" data-name="Grupo 1179626" transform="translate(1670.225 411.793)">
        <path id="Trazado_1038796" data-name="Trazado 1038796" d="M1778.807,1027.339l4.625.454c1.669.164,3.5.076,4.888,1.158.356.277,1.018-.088.7-.537a3.859,3.859,0,0,0-3-1.4c-2.392-.293-4.807-.463-7.206-.691-.65-.063-.643.947,0,1.013Z" transform="translate(-1778.322 -1026.323)" fill="#f29a77"/>
      </g>
      <path id="Trazado_1038797" data-name="Trazado 1038797" d="M2061.919,383.325s-16.416,4.6-22,20.685S2035,537.969,2035,537.969l124.109,24.3s9.522-.985,11.164-10.835-8.537-20.685-8.537-20.685a17.08,17.08,0,0,0,6.9-18.058C2166,500.54,2150.569,496.6,2150.569,496.6a33.941,33.941,0,0,0,4.925-24.3c-2.626-13.79-13.79-15.432-13.79-15.432s-.657-33.162-6.239-48.921-21.013-32.833-42.026-32.833S2061.919,383.325,2061.919,383.325Z" transform="translate(-280.547 -176.967)"/>
      <path id="Trazado_1038798" data-name="Trazado 1038798" d="M2130.584,706.7l-.339,25.8s41.755,3.734,41.077,2.716,1.358-30.553,1.358-30.553Z" transform="translate(-344.563 -398.397)" fill="#f29a77"/>
      <path id="Trazado_1038799" data-name="Trazado 1038799" d="M2093.036,1421.952H1932.08c.175-15.548.91-50.96,4.021-72.388,4.075-28.066,12.222-45.717,12.222-45.717l-.312-12.111v0l-.141-5.54,98.673,8.6-.46,5.759-.443,5.556s18.1,18.108,25.8,38.927C2077.488,1361.4,2088.567,1404.324,2093.036,1421.952Z" transform="translate(-211.411 -789.143)" fill="#ecc0a8"/>
      <path id="Trazado_1038800" data-name="Trazado 1038800" d="M1956.828,514.339c-6.79-21.726-51.148-46.621-51.148-46.621s.453-8.6.453-11.769,0-3.621-6.79-2.263-34.853-2.716-37.569-3.621S1856.795,465,1856.795,465a195.226,195.226,0,0,1-16.295-11.316c-10.863-8.147-42.095-43.906-49.337-61.558s-22.179-88.264-22.179-88.264l-37.568,4.526s-4.074,90.074,22.632,148.011c18.82,40.83,53.863,71.969,53.863,75.137,0,.738.049,6.1.142,13.954l-37.937-13.049-17.879,31.232,56.127,42.548.747.513c.308,11.625.667,20.4,1.064,22.118,1.358,5.884,24.442,6.789,41.643,9.958s67.442,1.811,74.232.905S1961.047,527.843,1956.828,514.339Z" transform="translate(-76.429 -129.09)" fill="#abb9d3"/>
      <g id="Grupo_1179627" data-name="Grupo 1179627" transform="translate(1731.073 380.505)">
        <path id="Trazado_1038801" data-name="Trazado 1038801" d="M1963.8,931.411c.733,8.453.437,17.03,1.281,25.446a.43.43,0,0,0,.859,0c.782-8.31-.344-17.167-1.18-25.446-.062-.607-1.016-.619-.96,0Z" transform="translate(-1963.793 -930.952)" fill="#8599ba"/>
      </g>
      <g id="Grupo_1179628" data-name="Grupo 1179628" transform="translate(1692.965 273.069)">
        <path id="Trazado_1038802" data-name="Trazado 1038802" d="M1867.363,603.476c-6.448.078-13.35.742-19.412,3.071a.457.457,0,0,0,.242.88c6.43-1.4,12.542-2.782,19.169-2.964a.494.494,0,0,0,0-.987Z" transform="translate(-1847.635 -603.476)" fill="#8599ba"/>
      </g>
      <g id="Grupo_1179629" data-name="Grupo 1179629" transform="translate(1702.729 278.286)">
        <path id="Trazado_1038803" data-name="Trazado 1038803" d="M1881.157,619.606c-1.415,2.07-3.1,4.471-3.744,6.921a.464.464,0,0,0,.844.356c.685-1.082,1.137-2.328,1.751-3.457s1.3-2.237,2.02-3.312c.363-.541-.506-1.041-.87-.509Z" transform="translate(-1877.396 -619.379)" fill="#8599ba"/>
      </g>
      <g id="Grupo_1179630" data-name="Grupo 1179630" transform="translate(1732.821 394.528)">
        <path id="Trazado_1038804" data-name="Trazado 1038804" d="M2068.892,973.894q-15.807,21.219-31.523,42.5l-3.63,4.908a26.986,26.986,0,0,0-2.017,2.727c.025-.046-1.383,2.164-.846,1.974-.17.06-.738-.4-.914-.452-1.795-.49-3.67-1.814-5.332-2.635q-21.065-10.412-42.14-20.806l-12.5-6.17c-.662-.327-1.246.666-.581.994q26.617,13.138,53.236,26.273l7.666,3.778a.587.587,0,0,0,.775-.2q19.329-26.193,38.6-52.427c.351-.481-.447-.936-.8-.466Z" transform="translate(-1969.118 -973.697)" fill="#8599ba"/>
      </g>
      <g id="Grupo_1179631" data-name="Grupo 1179631" transform="translate(1732.168 449.34)">
        <path id="Trazado_1038805" data-name="Trazado 1038805" d="M2099.775,1140.924a291.952,291.952,0,0,1-25.744,27.7,160.014,160.014,0,0,1-15.823,13.066c-2.4,1.714-4.854,3.346-7.379,4.868-2.1,1.265-4.592,3.128-6.964,3.792-1.759.492-4.023.26-5.817.234a93.466,93.466,0,0,1-14.576-1.466c-11.864-2.054-23.208-5.968-34.283-10.618-7.2-3.021-14.362-6.256-21.291-9.859-.581-.3-1.1.576-.514.88,16.679,8.674,34.5,16.495,53.013,20.136a102.745,102.745,0,0,0,15.737,1.958,33.581,33.581,0,0,0,7.469-.158c3.48-.673,7.136-3.529,10.085-5.419a138.631,138.631,0,0,0,15.458-11.644c11.48-9.865,21.679-21.139,31.282-32.811.372-.453-.275-1.109-.652-.653Z" transform="translate(-1967.128 -1140.77)" fill="#8599ba"/>
      </g>
      <g id="Grupo_1179632" data-name="Grupo 1179632" transform="translate(1784.052 338.459)">
        <path id="Trazado_1038806" data-name="Trazado 1038806" d="M2125.407,803.656c3.483,4.07,8.532,5.87,13.681,6.783a75.318,75.318,0,0,0,20.411.975.47.47,0,0,0,0-.939c-10.808-.155-25.321,1.264-33.386-7.525-.439-.477-1.119.223-.7.705Z" transform="translate(-2125.278 -802.792)" fill="#8599ba"/>
      </g>
      <g id="Grupo_1179633" data-name="Grupo 1179633" transform="translate(1806.196 335.514)">
        <path id="Trazado_1038807" data-name="Trazado 1038807" d="M2193,794.64c2.549,1.483,6.062,2.3,8.94,1.363.432-.14.381-.845-.112-.823-3.061.134-5.552.056-8.376-1.315-.512-.249-.958.481-.452.774Z" transform="translate(-2192.773 -793.815)" fill="#8599ba"/>
      </g>
      <path id="Trazado_1038808" data-name="Trazado 1038808" d="M2076.375,437.167s-.656,15.432-8.865,23.312-14.447,13.133-14.447,13.133,1.642,28.565,5.582,39.728,15.432,20.028,30.207,21.67,35.132.657,43.668-15.1,4.925-46.623,4.925-46.623-4.925-10.835-13.461-13.133-11.82,1.642-24.953-.657S2076.375,437.167,2076.375,437.167Z" transform="translate(-292.703 -218.66)" fill="#ffaf8a"/>
      <path id="Trazado_1038809" data-name="Trazado 1038809" d="M2233.21,541.342a26.675,26.675,0,0,1,10.186-.567c2.984.341,6.465.868,8.516,3.215.436.5.167,1.5-.633,1.417-4.465-.48-8.947-.779-13.438-.866-1.084-.021-5.685.588-5.985-1.732C2231.756,542.038,2232.547,541.5,2233.21,541.342Z" transform="translate(-412.832 -288.115)"/>
      <path id="Trazado_1038810" data-name="Trazado 1038810" d="M2094.716,541.445a27.346,27.346,0,0,0-10.275-1.07c-3.035.193-6.583.547-8.773,2.79a.842.842,0,0,0,.57,1.446c4.541-.259,9.089-.335,13.636-.2,1.1.032,5.722.868,6.139-1.433C2096.149,542.212,2095.375,541.64,2094.716,541.445Z" transform="translate(-307.73 -287.951)"/>
      <g id="Grupo_1179634" data-name="Grupo 1179634" transform="translate(1797.878 267.118)">
        <path id="Trazado_1038811" data-name="Trazado 1038811" d="M2170.247,585.907a104.822,104.822,0,0,0-2.807,14.142c-.281,2.894,2.239,3.792,4.724,4.555a.808.808,0,0,0,.445-1.552c-2.126-.652-3.566-1.106-3.458-3.576a33.643,33.643,0,0,1,.8-4.566c.542-2.869,1.167-5.719,1.85-8.558.243-1.009-1.309-1.456-1.552-.445Z" transform="translate(-2167.419 -585.337)" fill="#f9a280"/>
      </g>
      <path id="Trazado_1038812" data-name="Trazado 1038812" d="M2071.869,605.58a10.167,10.167,0,0,1,13.29,2.274,5.735,5.735,0,0,1,1.4,3.25,5.035,5.035,0,0,1-2.3,4.173,10.026,10.026,0,0,1-4.677,1.526c-2.776.3-5.928-.134-7.695-2.3a7.691,7.691,0,0,1-1.256-2.41,8.021,8.021,0,0,1-.476-3.611A4.06,4.06,0,0,1,2071.869,605.58Z" transform="translate(-304.155 -330.796)" fill="#fc8d7c"/>
      <path id="Trazado_1038813" data-name="Trazado 1038813" d="M2256.289,606.856a10.166,10.166,0,0,0-13.124,3.089,5.732,5.732,0,0,0-1.2,3.331,5.036,5.036,0,0,0,2.551,4.023,10.026,10.026,0,0,0,4.762,1.235c2.79.131,5.908-.5,7.538-2.767a7.683,7.683,0,0,0,1.105-2.483,8.02,8.02,0,0,0,.252-3.633A4.059,4.059,0,0,0,2256.289,606.856Z" transform="translate(-419.633 -331.866)" fill="#fc8d7c"/>
      <path id="Trazado_1038814" data-name="Trazado 1038814" d="M2238.084,581.029a16.283,16.283,0,0,0,6.539-.138,9.8,9.8,0,0,0,3.618-1.5c1.141-.819,2.32-2.211,2.2-3.7-1.524-1.815-4.3-1.839-6.561-2.4a10.563,10.563,0,0,0-5.719-.045c-1.762.566-4.958,5.631-5,5.744A17.723,17.723,0,0,0,2238.084,581.029Z" transform="translate(-413.714 -309.844)" fill="#fff"/>
      <path id="Trazado_1038815" data-name="Trazado 1038815" d="M2247.012,571.718a3.453,3.453,0,0,1,2.937.974,4.879,4.879,0,0,1,1.36,2.846,3.689,3.689,0,0,1-.166,1.885,4.2,4.2,0,0,1-1.893,1.917,5.519,5.519,0,0,1-3.741.854,4.719,4.719,0,0,1-3.434-4.831,3.839,3.839,0,0,1,1.04-2.654,3.935,3.935,0,0,1,1.544-.859C2245.667,571.525,2246.756,571.45,2247.012,571.718Z" transform="translate(-419.703 -308.959)"/>
      <g id="Grupo_1179635" data-name="Grupo 1179635" transform="translate(1836.327 263.736)">
        <path id="Trazado_1038816" data-name="Trazado 1038816" d="M2286.858,575.139a4.05,4.05,0,0,1-.823,1.517c-.3.35-.833.909-1.347.77a.1.1,0,0,1-.057-.14,1.29,1.29,0,0,1,.417-.335,3.627,3.627,0,0,0,.7-.58,5.924,5.924,0,0,0,.948-1.3.088.088,0,0,1,.16.067Z" transform="translate(-2284.617 -575.029)"/>
      </g>
      <g id="Grupo_1179636" data-name="Grupo 1179636" transform="translate(1834.534 262.462)">
        <path id="Trazado_1038817" data-name="Trazado 1038817" d="M2282,571.277a4.826,4.826,0,0,1-1.189,1.713c-.4.366-1.005.873-1.584.731a.1.1,0,0,1-.042-.159c.432-.39,1.016-.563,1.462-.966a6.9,6.9,0,0,0,1.2-1.406.087.087,0,0,1,.15.088Z" transform="translate(-2279.152 -571.147)"/>
      </g>
      <g id="Grupo_1179637" data-name="Grupo 1179637" transform="translate(1832.645 261.384)">
        <path id="Trazado_1038818" data-name="Trazado 1038818" d="M2276.075,568.11a4.874,4.874,0,0,1-1.044,1.872c-.361.384-1.1.877-1.586.468a.18.18,0,0,1,.036-.28c.225-.138.479-.113.715-.235a2.165,2.165,0,0,0,.656-.58,7.169,7.169,0,0,0,.859-1.4c.1-.2.433-.06.364.153Z" transform="translate(-2273.393 -567.859)"/>
      </g>
      <g id="Grupo_1179639" data-name="Grupo 1179639" transform="translate(1819.182 262.18)">
        <g id="Grupo_1179638" data-name="Grupo 1179638">
          <path id="Trazado_1038819" data-name="Trazado 1038819" d="M2250.076,576.322a9.8,9.8,0,0,0-9-4.727,9.62,9.62,0,0,0-7.67,4.976c-.493,1.025-1.388-.036-.919-1.049,1.487-3.212,5.806-5.164,9.72-5.232,4.046-.071,7.814,2.493,8.693,5.8.121.463-.611.658-.824.229Z" transform="translate(-2232.356 -570.288)"/>
        </g>
      </g>
      <path id="Trazado_1038820" data-name="Trazado 1038820" d="M2094.891,576.295a16.288,16.288,0,0,1-6.535.265,9.8,9.8,0,0,1-3.7-1.276c-1.189-.746-2.452-2.063-2.421-3.558,1.409-1.905,4.175-2.1,6.4-2.8a10.562,10.562,0,0,1,5.705-.4c1.793.457,5.3,5.315,5.343,5.425A17.744,17.744,0,0,1,2094.891,576.295Z" transform="translate(-312.301 -306.77)" fill="#fff"/>
      <path id="Trazado_1038821" data-name="Trazado 1038821" d="M2092.216,568.351a3.454,3.454,0,0,0-2.871,1.153,4.884,4.884,0,0,0-1.183,2.924,3.7,3.7,0,0,0,.283,1.872,4.207,4.207,0,0,0,2.007,1.8,5.518,5.518,0,0,0,3.787.621,4.72,4.72,0,0,0,3.13-5.034,3.838,3.838,0,0,0-1.2-2.584,3.943,3.943,0,0,0-1.594-.763C2093.544,568.075,2092.455,568.067,2092.216,568.351Z" transform="translate(-316.276 -306.664)"/>
      <g id="Grupo_1179640" data-name="Grupo 1179640" transform="translate(1767.957 262.963)">
        <path id="Trazado_1038822" data-name="Trazado 1038822" d="M2076.383,572.712a6.037,6.037,0,0,0,.985,1.2,3.75,3.75,0,0,0,.678.517,1.729,1.729,0,0,1,.523.349.1.1,0,0,1-.042.16c-.5.169-1.071-.366-1.4-.7a4.034,4.034,0,0,1-.907-1.46c-.034-.1.11-.149.159-.067Z" transform="translate(-2076.219 -572.672)"/>
      </g>
      <g id="Grupo_1179641" data-name="Grupo 1179641" transform="translate(1769.062 261.619)">
        <path id="Trazado_1038823" data-name="Trazado 1038823" d="M2079.748,568.616a6.98,6.98,0,0,0,1.23,1.282c.479.393,1.082.539,1.559.905a.1.1,0,0,1-.022.174c-.572.166-1.191-.288-1.613-.628a4.857,4.857,0,0,1-1.3-1.646.087.087,0,0,1,.15-.088Z" transform="translate(-2079.585 -568.576)"/>
      </g>
      <g id="Grupo_1179642" data-name="Grupo 1179642" transform="translate(1771.049 260.41)">
        <path id="Trazado_1038824" data-name="Trazado 1038824" d="M2086.019,564.985a6.888,6.888,0,0,0,1,1.4,1.9,1.9,0,0,0,.72.51,3.827,3.827,0,0,1,.641.156.18.18,0,0,1,.036.28c-.439.42-1.185,0-1.557-.336a4.779,4.779,0,0,1-1.208-1.857c-.083-.213.255-.346.364-.154Z" transform="translate(-2085.643 -564.892)"/>
      </g>
      <g id="Grupo_1179644" data-name="Grupo 1179644" transform="translate(1769.055 260.814)">
        <g id="Grupo_1179643" data-name="Grupo 1179643" transform="translate(0)">
          <path id="Trazado_1038825" data-name="Trazado 1038825" d="M2080.41,572.641a9.8,9.8,0,0,1,8.691-5.273,9.619,9.619,0,0,1,7.962,4.493c.556.992,1.383-.122.853-1.1-1.682-3.114-6.114-4.8-10.024-4.623-4.043.179-7.646,2.97-8.318,6.328-.1.469.646.619.836.178Z" transform="translate(-2079.565 -566.123)"/>
        </g>
      </g>
      <g id="Grupo_1179645" data-name="Grupo 1179645" transform="translate(1798.063 266.259)">
        <path id="Trazado_1038826" data-name="Trazado 1038826" d="M2173.8,583.572a20.583,20.583,0,0,1-.9,7.817,25.605,25.605,0,0,0-.817,4.359,3.777,3.777,0,0,0,.018,1.668c.26.46.872.278,1.4.188,3.244-.556,3.869,4.5.556,4.807-3.958.37-6.487-1.971-6.009-6.348.469-4.294,2.28-8.474,3.633-12.512.33-.984,1.948-1.233,2.122.022Z" transform="translate(-2167.985 -582.72)" fill="#f9a280"/>
      </g>
      <g id="Grupo_1179646" data-name="Grupo 1179646" transform="translate(1797.871 266.972)">
        <path id="Trazado_1038827" data-name="Trazado 1038827" d="M2170.228,585.463a104.823,104.823,0,0,0-2.807,14.142c-.281,2.894,2.238,3.792,4.724,4.555a.808.808,0,0,0,.445-1.552c-2.126-.652-3.565-1.106-3.458-3.576a33.643,33.643,0,0,1,.8-4.566c.542-2.869,1.167-5.719,1.85-8.558.243-1.008-1.309-1.456-1.552-.445Z" transform="translate(-2167.399 -584.893)"/>
      </g>
      <g id="Grupo_1179647" data-name="Grupo 1179647" transform="translate(1791.952 293.528)">
        <path id="Trazado_1038828" data-name="Trazado 1038828" d="M2170.7,666.385c-1.841,3.689-6.938,5.421-10.792,5.524a14.962,14.962,0,0,1-6.225-1.187,15.19,15.19,0,0,1-2.958-1.657c-.653-.472-1.435-.873-1.358-1.764a.46.46,0,0,1,.329-.431c.759-.146.98.169,1.574.628a14.174,14.174,0,0,0,7.973,2.951c3.718.155,8.541-1.284,10.813-4.439a.373.373,0,0,1,.644.377Z" transform="translate(-2149.358 -665.837)"/>
      </g>
      <g id="Grupo_1179648" data-name="Grupo 1179648" transform="translate(1740.468 511.829)">
        <path id="Trazado_1038829" data-name="Trazado 1038829" d="M1993.027,1332.869a360.417,360.417,0,0,0,89.091,9.168.993.993,0,0,0,0-1.984,400.987,400.987,0,0,1-88.648-8.79c-1.04-.214-1.493,1.357-.443,1.606Z" transform="translate(-1992.43 -1331.243)" fill="#d8a68d"/>
      </g>
      <g id="Grupo_1179649" data-name="Grupo 1179649" transform="translate(1768.806 537.455)">
        <path id="Trazado_1038830" data-name="Trazado 1038830" d="M2082.232,1410.145c-.262,31.523-.83,63.041-1.391,94.561H2078.8c.5-31.523.988-63.045,1.784-94.561A.822.822,0,0,1,2082.232,1410.145Z" transform="translate(-2078.805 -1409.351)" fill="#d8a68d"/>
      </g>
      <g id="Grupo_1179650" data-name="Grupo 1179650" transform="translate(1815.995 524.674)">
        <path id="Trazado_1038831" data-name="Trazado 1038831" d="M2222.688,1371.56c2.32,7.817,4.793,15.911,8.323,23.279.439.918,1.97.273,1.648-.695-2.576-7.744-5.669-15.3-8.14-23.089-.368-1.158-2.183-.673-1.832.5Z" transform="translate(-2222.643 -1370.393)" fill="#d8a68d"/>
      </g>
      <g id="Grupo_1179651" data-name="Grupo 1179651" transform="translate(1740.793 514.28)">
        <path id="Trazado_1038832" data-name="Trazado 1038832" d="M1999.4,1339.316c-2.035,7.393-4.334,14.785-5.96,22.28a.871.871,0,0,0,1.678.463c2.321-7.309,4-14.865,5.919-22.291a.849.849,0,0,0-1.637-.452Z" transform="translate(-1993.42 -1338.714)" fill="#d8a68d"/>
      </g>
    </g>
  </g>
</svg>
