<svg xmlns="http://www.w3.org/2000/svg" xmlns:xlink="http://www.w3.org/1999/xlink" width="113" height="113" viewBox="0 0 113 113">
  <defs>
    <filter id="Trazado_982547" x="0" y="0" width="113" height="113" filterUnits="userSpaceOnUse">
      <feOffset dy="3" input="SourceAlpha"/>
      <feGaussianBlur stdDeviation="3" result="blur"/>
      <feFlood flood-opacity="0.161"/>
      <feComposite operator="in" in2="blur"/>
      <feComposite in="SourceGraphic"/>
    </filter>
  </defs>
  <g id="Grupo_1179084" data-name="Grupo 1179084" transform="translate(-171 -4713)">
    <g id="Grupo_1173818" data-name="Grupo 1173818" transform="translate(0 1432)">
      <g id="Grupo_1167519" data-name="Grupo 1167519" transform="translate(180 3287)">
        <g id="Grupo_1166845" data-name="Grupo 1166845" transform="translate(0)">
          <g id="Grupo_1166720" data-name="Grupo 1166720">
            <g id="Grupo_1164305" data-name="Grupo 1164305">
              <g id="Grupo_1163948" data-name="Grupo 1163948">
                <g id="Grupo_1158168" data-name="Grupo 1158168">
                  <g id="Grupo_1152576" data-name="Grupo 1152576">
                    <g id="Grupo_1148633" data-name="Grupo 1148633">
                      <g id="Grupo_1148525" data-name="Grupo 1148525">
                        <g transform="matrix(1, 0, 0, 1, -9, -6)" filter="url(#Trazado_982547)">
                          <g id="Trazado_982547-2" data-name="Trazado 982547" transform="translate(9 6)" fill="#e4f2f4">
                            <path d="M 47.5 93.5 C 41.28937149047852 93.5 35.26533508300781 92.28397369384766 29.59518623352051 89.88570404052734 C 24.11771965026855 87.56893157958984 19.19813346862793 84.25196075439453 14.97309303283691 80.02691650390625 C 10.74804019927979 75.80186462402344 7.431066513061523 70.88229370117188 5.114293098449707 65.40481567382812 C 2.716026782989502 59.73468017578125 1.5 53.71062850952148 1.5 47.5 C 1.5 41.28937149047852 2.716026782989502 35.26533508300781 5.114293098449707 29.59518623352051 C 7.431066513061523 24.11771965026855 10.74804019927979 19.19813346862793 14.97309303283691 14.97309303283691 C 19.19813346862793 10.74804019927979 24.11771965026855 7.431066513061523 29.59518623352051 5.114293098449707 C 35.26533508300781 2.716026782989502 41.28937149047852 1.5 47.5 1.5 C 53.71062850952148 1.5 59.73468017578125 2.716026782989502 65.40481567382812 5.114293098449707 C 70.88229370117188 7.431066513061523 75.80186462402344 10.74804019927979 80.02691650390625 14.97309303283691 C 84.25196075439453 19.19813346862793 87.56893157958984 24.11771965026855 89.88570404052734 29.59518623352051 C 92.28397369384766 35.26533508300781 93.5 41.28937149047852 93.5 47.5 C 93.5 53.71062850952148 92.28397369384766 59.73468017578125 89.88570404052734 65.40481567382812 C 87.56893157958984 70.88229370117188 84.25196075439453 75.80186462402344 80.02691650390625 80.02691650390625 C 75.80186462402344 84.25196075439453 70.88229370117188 87.56893157958984 65.40481567382812 89.88570404052734 C 59.73468017578125 92.28397369384766 53.71062850952148 93.5 47.5 93.5 Z" stroke="none"/>
                            <path d="M 47.5 3 C 41.49121475219727 3 35.66376876831055 4.176155090332031 30.17950439453125 6.495796203613281 C 24.88084411621094 8.736953735351562 20.12152099609375 11.94598388671875 16.03375244140625 16.03375244140625 C 11.94598388671875 20.12152099609375 8.736953735351562 24.88084411621094 6.495796203613281 30.17950439453125 C 4.176155090332031 35.66376876831055 3 41.49121475219727 3 47.5 C 3 53.50878524780273 4.176155090332031 59.33623123168945 6.495796203613281 64.82049560546875 C 8.736953735351562 70.11915588378906 11.94598388671875 74.87847900390625 16.03375244140625 78.96624755859375 C 20.12152099609375 83.05401611328125 24.88084411621094 86.26304626464844 30.17950439453125 88.50419616699219 C 35.66376876831055 90.82384490966797 41.49121475219727 92 47.5 92 C 53.50878524780273 92 59.33623123168945 90.82384490966797 64.82049560546875 88.50419616699219 C 70.11915588378906 86.26304626464844 74.87847900390625 83.05401611328125 78.96624755859375 78.96624755859375 C 83.05401611328125 74.87847900390625 86.26304626464844 70.11915588378906 88.50419616699219 64.82049560546875 C 90.82384490966797 59.33623123168945 92 53.50878524780273 92 47.5 C 92 41.49121475219727 90.82384490966797 35.66376876831055 88.50419616699219 30.17950439453125 C 86.26304626464844 24.88084411621094 83.05401611328125 20.12152099609375 78.96624755859375 16.03375244140625 C 74.87847900390625 11.94598388671875 70.11915588378906 8.736953735351562 64.82049560546875 6.495796203613281 C 59.33623123168945 4.176155090332031 53.50878524780273 3 47.5 3 M 47.5 0 C 73.7335205078125 0 95 21.2664794921875 95 47.5 C 95 73.7335205078125 73.7335205078125 95 47.5 95 C 21.2664794921875 95 0 73.7335205078125 0 47.5 C 0 21.2664794921875 21.2664794921875 0 47.5 0 Z" stroke="none" fill="#01899b"/>
                          </g>
                        </g>
                      </g>
                    </g>
                  </g>
                </g>
              </g>
            </g>
          </g>
        </g>
      </g>
    </g>
    <g id="budget-planning" transform="translate(179.718 4734.001)">
      <g id="Grupo_1179083" data-name="Grupo 1179083" transform="translate(20.253 1.97)">
        <g id="Grupo_1179079" data-name="Grupo 1179079" transform="translate(0 0)">
          <path id="Trazado_1038582" data-name="Trazado 1038582" d="M100.667,97.062H66.415a2.426,2.426,0,0,1-2.422-2.422V59.273A2.34,2.34,0,0,1,64.7,57.56L75.84,46.422a2.339,2.339,0,0,1,1.712-.709h23.114a2.426,2.426,0,0,1,2.422,2.422V94.64A2.426,2.426,0,0,1,100.667,97.062Z" transform="translate(-59.536 -41.256)" fill="#e2e3e3" fill-rule="evenodd"/>
          <path id="Trazado_1038583" data-name="Trazado 1038583" d="M63.952,60.347H29.7a2.426,2.426,0,0,1-2.422-2.422V22.558a2.34,2.34,0,0,1,.709-1.712L39.125,9.707A2.339,2.339,0,0,1,40.838,9H63.952a2.426,2.426,0,0,1,2.422,2.422V57.925A2.426,2.426,0,0,1,63.952,60.347Z" transform="translate(-27.278 -8.998)" fill="#eff4f7" fill-rule="evenodd"/>
          <path id="Trazado_1038584" data-name="Trazado 1038584" d="M40.644,11.227,29.506,22.364a2.427,2.427,0,0,0-.5.709h10.16a2.191,2.191,0,0,0,2.187-2.187V10.727A2.426,2.426,0,0,0,40.644,11.227Z" transform="translate(-28.797 -10.517)" fill="#e2e3e3" fill-rule="evenodd"/>
          <path id="Trazado_1038585" data-name="Trazado 1038585" d="M182.9,45.716H165.709a.487.487,0,0,0-.486.486v5.12a.487.487,0,0,0,.486.486H182.9a.487.487,0,0,0,.486-.486V46.2A.487.487,0,0,0,182.9,45.716Z" transform="translate(-148.478 -41.259)" fill="#28e7ef" fill-rule="evenodd"/>
        </g>
        <g id="Grupo_1179081" data-name="Grupo 1179081" transform="translate(28.268 37.09)">
          <path id="Trazado_1038586" data-name="Trazado 1038586" d="M260.147,348.054q19.361.011,19.35,0v14.741c0,2.247-4.332,4.069-9.675,4.069s-9.675-1.821-9.675-4.069Z" transform="translate(-260.147 -343.986)" fill="#ffc700" fill-rule="evenodd"/>
          <g id="Grupo_1179080" data-name="Grupo 1179080">
            <ellipse id="Elipse_12313" data-name="Elipse 12313" cx="9.675" cy="4.069" rx="9.675" ry="4.069" fill="#f4a40e"/>
            <path id="Trazado_1038587" data-name="Trazado 1038587" d="M269.808,392.6c-5.257,0-9.393-1.706-9.661-3.852v4.7c0,2.247,4.332,4.069,9.675,4.069s9.675-1.822,9.675-4.069l-.013-4.914C279.483,390.778,275.065,392.6,269.808,392.6Z" transform="translate(-260.147 -379.549)" fill="#f4a40e" fill-rule="evenodd"/>
          </g>
        </g>
        <g id="Grupo_1179082" data-name="Grupo 1179082" transform="translate(31.977 27.589)">
          <circle id="Elipse_12314" data-name="Elipse 12314" cx="11.776" cy="11.776" r="11.776" fill="#ffda2d"/>
          <circle id="Elipse_12315" data-name="Elipse 12315" cx="8.587" cy="8.587" r="8.587" transform="translate(3.189 3.189)" fill="#fdb800"/>
        </g>
      </g>
      <path id="Trazado_1038588" data-name="Trazado 1038588" d="M37.969,7.4h16.22v4.15H37.969ZM37,13.491H55.163a.971.971,0,0,0,.968-.971V6.427a.971.971,0,0,0-.968-.971H37a.971.971,0,0,0-.968.971v6.093A.971.971,0,0,0,37,13.491ZM49.1,30.67a.971.971,0,0,1-.968.971H37.019a.971.971,0,1,1,0-1.943H48.132A.971.971,0,0,1,49.1,30.67Zm4.5-3.78a.973.973,0,0,1-.973.972H37.019a.971.971,0,1,1,0-1.943H52.626A.972.972,0,0,1,53.6,26.889ZM36.046,22.049a.972.972,0,0,1,.973-.971H48.132a.971.971,0,0,1,0,1.942H37.019A.972.972,0,0,1,36.046,22.049Zm0,17.241a.972.972,0,0,1,.973-.972H48.132a.971.971,0,0,1,0,1.943H37.019A.972.972,0,0,1,36.046,39.29ZM53.6,18.268a.972.972,0,0,1-.973.971H37.019a.971.971,0,1,1,0-1.942H52.626A.972.972,0,0,1,53.6,18.268ZM33.229,26.285a.975.975,0,0,1,.006,1.375l-3.573,3.607a.979.979,0,0,1-.693.287.96.96,0,0,1-.676-.277l-2-1.944a.971.971,0,1,1,1.357-1.39l1.305,1.271,2.9-2.924a.973.973,0,0,1,1.374-.006Zm0-8.62a.973.973,0,0,1,.006,1.373l-3.573,3.609a.984.984,0,0,1-.693.287.96.96,0,0,1-.676-.277l-2-1.943a.971.971,0,1,1,1.357-1.39L28.958,20.6l2.9-2.925A.972.972,0,0,1,33.229,17.665Zm0,25.861a.973.973,0,0,1,.006,1.373l-3.573,3.608a.979.979,0,0,1-.693.287.963.963,0,0,1-.676-.275l-2-1.944a.972.972,0,0,1,1.357-1.391l1.305,1.271,2.9-2.923A.972.972,0,0,1,33.229,43.526Zm0-8.621a.975.975,0,0,1,.006,1.375l-3.573,3.607a.979.979,0,0,1-.693.287.963.963,0,0,1-.676-.275l-2-1.944a.971.971,0,1,1,1.357-1.391l1.305,1.271,2.9-2.923A.973.973,0,0,1,33.229,34.9Zm33.8,8.27a2.82,2.82,0,0,1-2.05,2.706v.34a.97.97,0,1,1-1.941,0v-.3a2.836,2.836,0,0,1-1.683-1.1.971.971,0,0,1,1.574-1.138.877.877,0,0,0,.7.364h.584a.869.869,0,0,0,0-1.738H63.8a2.812,2.812,0,0,1-.767-5.517v-.34a.97.97,0,1,1,1.941,0v.3a2.835,2.835,0,0,1,1.683,1.1.972.972,0,0,1-1.574,1.139.876.876,0,0,0-.7-.364H63.8a.869.869,0,1,0,0,1.738h.412a2.816,2.816,0,0,1,2.811,2.81Zm-3.017,5.776a7.616,7.616,0,1,0-7.62-7.615A7.625,7.625,0,0,0,64.008,48.951Zm0-17.174a9.558,9.558,0,1,0,9.556,9.558,9.57,9.57,0,0,0-9.556-9.558Zm0,20.364A10.806,10.806,0,1,0,53.2,41.336,10.818,10.818,0,0,0,64.008,52.141ZM58.2,60.966c-5.313,0-8.7-1.834-8.7-3.1v-1.9c1.907,1.255,5.032,2.026,8.685,2.026,3.252,0,6.653-.7,8.72-2.05v1.924c0,1.264-3.389,3.1-8.7,3.1ZM25.683,55.354V54.29H47.548v2.516H27.131A1.453,1.453,0,0,1,25.683,55.354ZM49.495,43.13v0c0-.58.658-1.223,1.763-1.766a12.816,12.816,0,0,0,.59,3.8C50.244,44.513,49.495,43.718,49.495,43.13Zm0,5.157V46.113a11.156,11.156,0,0,0,3.372,1.417A12.866,12.866,0,0,0,55.706,51c-3.658-.418-5.886-1.71-6.212-2.714Zm0,2.769c1.907,1.254,5.032,2.026,8.685,2.026.281,0,.561-.006.836-.016a12.76,12.76,0,0,0,7.408.787c-1.105,1.072-4.013,2.2-8.244,2.2-5.113,0-8.29-1.636-8.685-2.851ZM21.223,50.9a1.454,1.454,0,0,0,1.454,1.45H47.548V48.881H37.019a.971.971,0,1,1,0-1.943H47.548V45.1H37.019a.971.971,0,1,1,0-1.942H47.548v-.03c0-1.6,1.414-3.027,3.9-3.955a12.192,12.192,0,0,1,.773-2.692h-15.2a.971.971,0,1,1,0-1.943H52.626a.958.958,0,0,1,.51.145A12.871,12.871,0,0,1,58.38,29.9V4.392a1.454,1.454,0,0,0-1.454-1.451H33.784v9.4a3.164,3.164,0,0,1-3.16,3.157h-9.4c0,.011-.006.021-.006.031ZM31.838,4.315v8.026a1.215,1.215,0,0,1-1.214,1.215H22.6ZM61.386,7.4A1.454,1.454,0,0,1,62.834,8.85V28.643a12.641,12.641,0,0,0-2.513.491V7.4ZM76.753,41.336A12.765,12.765,0,0,0,64.775,28.612V8.85a3.393,3.393,0,0,0-3.389-3.394H60.321V4.392A3.4,3.4,0,0,0,56.926,1H33.813a3.335,3.335,0,0,0-2.4.995L20.278,13.131a3.32,3.32,0,0,0-1,2.4V50.9a3.4,3.4,0,0,0,3.4,3.392h1.059v1.065a3.4,3.4,0,0,0,3.4,3.393h20.56c.882,2.709,5.828,4.161,10.506,4.161,5.158,0,10.643-1.766,10.643-5.04V53.129a12.766,12.766,0,0,0,7.912-11.793Z" transform="translate(0 0)" fill-rule="evenodd"/>
    </g>
  </g>
</svg>
