<svg xmlns="http://www.w3.org/2000/svg" xmlns:xlink="http://www.w3.org/1999/xlink" width="295" height="525.33" viewBox="0 0 295 525.33">
  <defs>
    <clipPath id="clip-path">
      <rect id="Rectángulo_415525" data-name="Rectángulo 415525" width="295" height="525" transform="translate(179.62 6919)" fill="#fff" stroke="#707070" stroke-width="1"/>
    </clipPath>
  </defs>
  <g id="Grupo_1179548" data-name="Grupo 1179548" transform="translate(-179.62 -6919)">
    <g id="Enmascarar_grupo_1098805" data-name="Enmascarar grupo 1098805" clip-path="url(#clip-path)">
      <g id="Grupo_1179547" data-name="Grupo 1179547">
        <path id="Fondo" d="M0,0H295V525.83H0Z" transform="translate(180 6919)" fill="#fdf4ee"/>
        <g id="Elipse_12324" data-name="Elipse 12324" transform="translate(315.62 6893)" fill="none" stroke="#ee9865" stroke-width="10" opacity="0.38">
          <ellipse cx="43.5" cy="43" rx="43.5" ry="43" stroke="none"/>
          <ellipse cx="43.5" cy="43" rx="38.5" ry="38" fill="none"/>
        </g>
        <g id="Elipse_12325" data-name="Elipse 12325" transform="translate(389.62 7116)" fill="none" stroke="#ee9865" stroke-width="15" opacity="0.38">
          <ellipse cx="59" cy="58.5" rx="59" ry="58.5" stroke="none"/>
          <ellipse cx="59" cy="58.5" rx="51.5" ry="51" fill="none"/>
        </g>
        <g id="Elipse_12326" data-name="Elipse 12326" transform="translate(378.62 7245)" fill="none" stroke="#ee9865" stroke-width="10" opacity="0.38">
          <ellipse cx="30.5" cy="30" rx="30.5" ry="30" stroke="none"/>
          <ellipse cx="30.5" cy="30" rx="25.5" ry="25" fill="none"/>
        </g>
        <g id="Elipse_12327" data-name="Elipse 12327" transform="translate(187.62 6931)" fill="none" stroke="#ee9865" stroke-width="10" opacity="0.38">
          <ellipse cx="17.5" cy="17" rx="17.5" ry="17" stroke="none"/>
          <ellipse cx="17.5" cy="17" rx="12.5" ry="12" fill="none"/>
        </g>
        <g id="Elipse_12328" data-name="Elipse 12328" transform="translate(389.62 7399)" fill="none" stroke="#ee9865" stroke-width="10" opacity="0.38">
          <ellipse cx="13.5" cy="13" rx="13.5" ry="13" stroke="none"/>
          <ellipse cx="13.5" cy="13" rx="8.5" ry="8" fill="none"/>
        </g>
      </g>
    </g>
    <g id="_136881534_51aca451-26eb-4659-8b2e-f5e714fde315" data-name="136881534_51aca451-26eb-4659-8b2e-f5e714fde315" transform="translate(180 6956.359)">
      <path id="Trazado_1038033" data-name="Trazado 1038033" d="M863.417,380.923l-2.64-2.367-.042.047a276.237,276.237,0,0,1-30.419,28.651A239.1,239.1,0,0,0,804.5,431.348c-4.583,4.988-11.315,13.128-17.269,20.371a171.758,171.758,0,0,0-18.982,5.068,45.638,45.638,0,0,0-11.128-6.664l-.081-.035-.008.088c-.043.51-.08,1.019-.108,1.512v.029l.02.021a50.9,50.9,0,0,1,7.65,9.6c3.446,5.631,15.029,26.631,17.738,32.551.485,1.06.994,2.182,1.552,3.433h0l.117-.052c-.708-1.611-1.205-2.691-1.425-3.164a129.835,129.835,0,0,1,14.6,15.885c8.064,10.09,20.153,27.353,31.95,52.3l.118-.047a315.218,315.218,0,0,0-26.187-58.723c2.516-2.561,4.906-5.2,7.1-7.845l83.234-87.8.045-.047Z" transform="translate(-655.262 -318.894)" fill="#a75b3f"/>
      <path id="Trazado_1038034" data-name="Trazado 1038034" d="M499.615,892.415c-9.391-7.4-19.055-14.724-28.723-21.777q-.977-.713-1.955-1.423c.2-3.1.32-6.309.367-9.552-.332-1.495-.7-3.314-1.131-5.422a307.624,307.624,0,0,0-7.89-31.881c-4.745-15.082-10.707-28.115-17.722-38.738-19.431-29.424-44.286-50.808-70.6-73.447q-3.076-2.647-6.183-5.324c-4.153-3.584-13.4-17.331-14.857-24.042.055-.272.118-.552.19-.831l.047-.187-.149.122a43.514,43.514,0,0,0-10.274,11.851c-2.645,4.614-3.827,9.183-3.419,13.218-4.849,3.305-8.1,8.446-10.642,13.042A120.438,120.438,0,0,0,311.69,774.87c-.258,24.95,7.313,49.384,14.633,73.014,7.031,22.694,14.3,46.16,14.654,70.092.2,13.417-1.6,27.8-3.332,41.7-2.719,21.777-5.529,44.294-1.068,64.647l.006.027.022.014a45.714,45.714,0,0,0,8.841,3.938c13.059,4.465,33.575,7.442,54.881,7.962q3.418.084,6.772.083c20.945,0,39.922-2.422,53.994-6.934l.033-.011.009-.035a176.3,176.3,0,0,0,3.089-17.781c.993-7.168,2.018-14.579,4.171-21.619,3.211-10.5,6.667-21.12,10.009-31.391,1.41-4.335,2.869-8.817,4.289-13.229L518.719,972.5l.052.039L545.4,935.076l1.827-2.57.032-.046-.042-.038C531.829,918.638,515.814,905.179,499.615,892.415Zm-103.357,143.66c-7.1-.272-14.058-.817-20.648-1.606C382.175,1035.249,389.138,1035.8,396.258,1036.075Z" transform="translate(-311.684 -551.35)" fill="#a75b3f"/>
      <path id="Trazado_1038035" data-name="Trazado 1038035" d="M918.589,959.28q-1.668-3.76-3.35-7.313c-22.842-48.309-46.786-68.4-46.786-68.4s.569,1.2,1.552,3.434c25.4,56.9,30.139,103.152,28.881,129.927h0q-.072,4.785-.37,9.569.991.719,1.984,1.443,14.865,10.843,28.721,21.775C929.1,1033.959,928,980.5,918.589,959.28Z" transform="translate(-741.33 -708.598)" fill="#85392e"/>
      <path id="Trazado_1038036" data-name="Trazado 1038036" d="M1252.248,1797.4l-.051-.021-24.448,34.4-.039.052,8.79,6.167.055.039,22.282-37.5.034-.059Z" transform="translate(-1018.562 -1413.77)" fill="#e4f4fe"/>
      <path id="Trazado_1038037" data-name="Trazado 1038037" d="M1248.221,382.606l5.875-5.559.046-.044-19.449-20.366-5.253-5.5-6.605,8.637-.034.047,25.376,22.75Z" transform="translate(-1014.773 -297.733)" fill="#e4f4fe"/>
      <path id="Trazado_1038038" data-name="Trazado 1038038" d="M571.191,685.635c-2.71-5.921-14.343-27-17.742-32.557a50.866,50.866,0,0,0-7.66-9.612c-.821,13.76,3.366,20.507,3.366,20.507l4.446,15.385s-34.939-.991-57.074-36.341V627.142l-.7-.07c-4.57,1.522-10.654,5.459-12.393,12.209q-.108.417-.193.847c1.427,6.62,10.624,20.416,14.88,24.09,28.755,24.82,55.84,47.06,76.772,78.757,18.457,27.95,23.955,63.517,26.733,76.02h0c1.258-26.775-3.481-73.024-28.881-129.927Q571.979,687.359,571.191,685.635Z" transform="translate(-444.069 -510.668)" fill="#e4f4fe"/>
      <path id="Trazado_1038039" data-name="Trazado 1038039" d="M1358.81,1892.782c-3.569-7.654-9.051-13.774-14.258-20.321q-4.2-5.284-8.336-10.625-2.066-2.671-4.114-5.354c-.539-.707-3.056-4.989-3.808-5.022l6.742.3a24.86,24.86,0,0,0,7.653-.447,8.408,8.408,0,0,0,5.778-4.659c.471-1.2.451-2.786-.595-3.54a3.047,3.047,0,0,0-1.2-.465c-1.974-.4-4.009.026-6.021.089-9.309.291-17-6.935-25.812-9.936a42.9,42.9,0,0,0-8.188-1.79l-13.4,22.56c4.111,3.788,9.277,6.694,13.72,10.14,9.532,7.393,18.43,15.892,24.651,26.323,1.1,1.853,2.263,3.889,4.255,4.716a2.3,2.3,0,0,0,2.049.011,1.506,1.506,0,0,0,.473-.455q.6.615,1.214,1.209a4.932,4.932,0,0,0,2.31,1.471,1.876,1.876,0,0,0,2.129-1.039,39.809,39.809,0,0,0,4.12,3.909c1.154.947,2.757,1.863,4.044,1.107a2.773,2.773,0,0,0,1.158-2.434c.232.205.468.4.711.6a4.482,4.482,0,0,0,3.243,1.248,2.853,2.853,0,0,0,1.919-1.268,4.047,4.047,0,0,0,.7-2A9.044,9.044,0,0,0,1358.81,1892.782Z" transform="translate(-1069.135 -1439.725)" fill="#f7b7a1"/>
      <path id="Trazado_1038040" data-name="Trazado 1038040" d="M1288.167,218.323c3.434-4.028,7.1-7.885,10.664-11.8,5.131-5.634,10.751-12.141,12.825-19.615a6.6,6.6,0,0,0,.259-3.352,2.955,2.955,0,0,0-1.529-1.936,17.229,17.229,0,0,0,1.421-4.557,8.963,8.963,0,0,0,.133-1.4,4.1,4.1,0,0,0-.457-2.042,2.613,2.613,0,0,0-1.731-1.265,19.75,19.75,0,0,0,1.04-5.826c.036-1.4-.237-3.066-1.493-3.7a2.182,2.182,0,0,0-1.312-.189,23.392,23.392,0,0,0,.537-3.3,7.026,7.026,0,0,0-1.012-5.014,2.05,2.05,0,0,0-.9-.709c-1.2-.413-2.243.886-2.865,1.993-2.367,4.219-4.8,8.841-7.874,12.593a62.138,62.138,0,0,1-6.075,6.022,62.956,62.956,0,0,0-6.7,7.212l-.022.028a29.077,29.077,0,0,0-.749-13.781,2.91,2.91,0,0,0-1.024-1.7,2.109,2.109,0,0,0-2.658.721,6.58,6.58,0,0,0-.979,2.834q-.4,2.106-.942,4.181a67.307,67.307,0,0,0-1.861,7.639,20.523,20.523,0,0,0,.813,8.21c.7,2.661,2.646,4.87,2.837,7.694.087,1.287-1.808,4.306-3.819,6.937Z" transform="translate(-1054.816 -145.262)" fill="#f7b7a1"/>
      <path id="Trazado_1038041" data-name="Trazado 1038041" d="M534.231,332.5q-.162.988-.35,1.988a86.337,86.337,0,0,0-3.557-18.61,50.3,50.3,0,0,1-6.765-2.211c-1.892-.767-3.731-1.631-5.527-2.567,3.483,3.868,7.516,7.457,12.608,9.113a60.89,60.89,0,0,1-25.209-4.327c-5.909-2.392-11.364-5.72-17.449-7.706a41.926,41.926,0,0,0-5.29-1.349,40.352,40.352,0,0,1,6.957,4.688c5.064,3.882,10.494,8.453,16.237,11.265a67.616,67.616,0,0,1-12.2-5.317c-11.9-6.7-21.413-11.4-35.024-6.722q-.373.348-.715.729h0c-4.867,7.172-4.862,28.694-4.862,28.694-.225-.641-.479-1.3-.757-1.979a7.67,7.67,0,0,0-9.98,3.384c-2.765,4.713-1.6,11.612,2.6,15.41a8.141,8.141,0,0,0,8.964,1.748q.122.57.257,1.14a35.768,35.768,0,0,0,9.647,17.26V395.89c22.135,35.35,57.074,36.341,57.074,36.341l-4.446-15.385s-4.188-6.747-3.366-20.507q.044-.741.109-1.51a72.355,72.355,0,0,1,1.2-8.323,66.223,66.223,0,0,0,9.557-8.608c6.528-6.874,10.71-14.084,11.625-23.754.037-.389.068-.777.1-1.164a8.141,8.141,0,0,0,8.632-2.985c3.628-4.347,3.814-11.342.417-15.622A7.675,7.675,0,0,0,534.231,332.5Z" transform="translate(-411.352 -263.542)" fill="#f7b7a1"/>
      <path id="Trazado_1038042" data-name="Trazado 1038042" d="M747.415,481.556c-.265-3.76-5.481-6.521-11.951-6.521-.534,0-1.077.019-1.627.058-7.2.505-12.825,4.229-12.539,8.3.265,3.76,5.482,6.521,11.953,6.521q.8,0,1.624-.057C742.076,489.349,747.7,485.626,747.415,481.556Z" transform="translate(-627.767 -393.344)" fill="#f18c77"/>
      <path id="Trazado_1038043" data-name="Trazado 1038043" d="M539.4,490.917a19.105,19.105,0,0,0-9.371-1.5c-7.2.506-12.825,4.23-12.539,8.3.265,3.76,5.482,6.521,11.951,6.521q.8,0,1.627-.058a19.168,19.168,0,0,0,9.068-2.8c2.377-1.568,3.609-3.521,3.47-5.5S541.971,492.137,539.4,490.917Z" transform="translate(-470.49 -404.394)" fill="#f18c77"/>
      <path id="Trazado_1038044" data-name="Trazado 1038044" d="M596.811,1843.487l0-.024-1.908-1.438-.072-.053-.028.085c-1.429,4.44-2.9,8.951-4.316,13.313-3.343,10.272-6.8,20.893-10.01,31.393-2.155,7.05-3.183,14.466-4.176,21.639a176.451,176.451,0,0,1-3.078,17.734c-17.825,5.708-41.994,7.641-64.762,6.768-7.12-.279-14.083-.827-20.648-1.606-11.623-1.391-22.093-3.539-30.121-6.285l-.081-.027-.524,11.1,0,.066H609.671l0-.066C608.456,1904.792,602.006,1868.457,596.811,1843.487Z" transform="translate(-423.882 -1448.18)" fill="#421f35"/>
      <path id="Trazado_1038045" data-name="Trazado 1038045" d="M1199.136,1907.67a3.045,3.045,0,1,0,3.046,3.046A3.05,3.05,0,0,0,1199.136,1907.67Z" transform="translate(-994.162 -1498.878)" fill="#421f35"/>
      <path id="Trazado_1038046" data-name="Trazado 1038046" d="M595.752,653.8l-.058-.107c-5.14-9.315-1.068-23.56-.893-24.162l.047-.161-.142.089-.027.021c-.347.386-3.653,3.808-12.75,4.916-.775.118-1.568.206-2.361.264l-.062,0c-.89.06-1.787.08-2.669.065q-.4.006-.818.006c-13.507,0-26.774-12.693-28.245-14.142l-.475-.429.307.445A88.157,88.157,0,0,0,563.92,638.57a76.126,76.126,0,0,0,15.528,9.984c9.288,4.456,16.115,5.22,16.183,5.228Z" transform="translate(-493.503 -505.334)" fill="#421f35"/>
      <path id="Trazado_1038047" data-name="Trazado 1038047" d="M572.7,423.227a2.612,2.612,0,0,0-2.048,1.655,7.27,7.27,0,0,0-.634,3.665c.184,2.754,1.625,4.921,3.244,4.921l.121,0c1.667-.111,2.87-2.5,2.683-5.321a7.265,7.265,0,0,0-1.117-3.548A2.6,2.6,0,0,0,572.7,423.227Z" transform="translate(-511.019 -353.361)" fill="#421f35"/>
      <path id="Trazado_1038048" data-name="Trazado 1038048" d="M762.737,410.558l-.122,0a2.612,2.612,0,0,0-2.048,1.655,7.885,7.885,0,0,0,.483,7.214,2.677,2.677,0,0,0,2.124,1.373l.123,0a2.611,2.611,0,0,0,2.047-1.655,7.89,7.89,0,0,0-.481-7.214A2.68,2.68,0,0,0,762.737,410.558Z" transform="translate(-657.572 -343.589)" fill="#421f35"/>
      <path id="Trazado_1038049" data-name="Trazado 1038049" d="M653.9,474.192l.549-.08c4.43-.641,7.729-2.027,10.09-4.237l.04-.038-.379-.547c-2.616-4.1-3.648-9.09-4.645-13.92l-.083-.4-.029-.174c-.112-.661-.228-1.344-.37-2.018l-.108-.511-.017.522c-.23,6.842,1.048,12.49,3.8,16.789-2.25,1.946-5.1,3.148-8.328,4.409Z" transform="translate(-575.763 -375.778)" fill="#421f35"/>
      <path id="Trazado_1038050" data-name="Trazado 1038050" d="M446.95,191.915c.292.713.541,1.359.757,1.976l.123.353v-.374c0-.215.05-21.577,4.848-28.655.22-.245.455-.484.7-.713,13.3-4.567,22.481-.3,34.96,6.722a67.693,67.693,0,0,0,12.216,5.322l.047-.118c-4.772-2.336-9.279-5.852-13.64-9.252-.853-.665-1.735-1.353-2.584-2a40.508,40.508,0,0,0-6.6-4.5,42.03,42.03,0,0,1,4.874,1.268,82.349,82.349,0,0,1,10.285,4.426c2.321,1.127,4.72,2.291,7.159,3.279a60.963,60.963,0,0,0,22.75,4.382c.828,0,1.659-.017,2.486-.051l.354-.014-.337-.11c-5.357-1.742-9.4-5.591-12.345-8.834,1.792.922,3.5,1.711,5.22,2.407a50.4,50.4,0,0,0,6.74,2.206,86.969,86.969,0,0,1,3.543,18.56l.032.5.093-.5c.128-.678.246-1.348.351-1.989a96.143,96.143,0,0,0,1.231-15.6,35.663,35.663,0,0,0,10.207-.174l-.01-.063h0l-.01-.063h0l-.034,0c-.813,0-2.633-4.548-3.084-5.86a35.4,35.4,0,0,1-1.435-6.615,69.417,69.417,0,0,0-3.359-13.634,28.678,28.678,0,0,0-6.771-10.389,39.772,39.772,0,0,0-10.134-7.281c-6.253-3.17-12.893-4.349-18.707-3.319-8.743-4.009-16.586-5.969-23.908-5.969q-.94,0-1.868.043c-11.334.524-21.436,6.478-25.736,15.169a28.551,28.551,0,0,0-2.664,12.98c-4.182,2-6.8,4.7-8,8.238-2.775,8.169,2.816,19.148,7.749,28.833C444.152,185.868,445.768,189.04,446.95,191.915Z" transform="translate(-406.038 -117.247)" fill="#421f35"/>
      <path id="Trazado_1038051" data-name="Trazado 1038051" d="M735.271,360.228l.231-.22-.3.114a8.383,8.383,0,0,0-3.586,2.313,9.043,9.043,0,0,0-2.283,6.333l-.011.247.13-.211a3.084,3.084,0,0,1,1.021-.9,6.328,6.328,0,0,0,.607-.427,6.408,6.408,0,0,0-.2,1.77v.188l.113-.15c.775-1.038,12.675-3.187,21.109,1.331l.179.1-.092-.182c-3.669-7.192-11.054-8.792-15.268-7.654l.008-.01a11.1,11.1,0,0,0,1.222-1.746l.039-.073-.081-.018a6.04,6.04,0,0,0-4.175,1.25c.08-.185.167-.369.26-.55A5.981,5.981,0,0,1,735.271,360.228Z" transform="translate(-633.969 -304.581)" fill="#421f35"/>
      <path id="Trazado_1038052" data-name="Trazado 1038052" d="M509.844,385.446l-.067.192.164-.12c7.72-5.655,19.8-5.192,20.716-4.272l.132.133-.024-.186a6.467,6.467,0,0,0-.449-1.724,6.217,6.217,0,0,0,.66.339,3.091,3.091,0,0,1,1.138.744l.156.19-.046-.242a9.044,9.044,0,0,0-3.147-5.95,8.377,8.377,0,0,0-3.874-1.788l-.312-.072.26.186a5.9,5.9,0,0,1,1.276,1.339c.118.165.232.336.335.508a6.05,6.05,0,0,0-4.308-.654l-.077.029.047.067a11.355,11.355,0,0,0,1.458,1.561l.007.006C519.557,375.2,512.472,377.809,509.844,385.446Z" transform="translate(-464.548 -314.366)" fill="#421f35"/>
      <path id="Trazado_1038053" data-name="Trazado 1038053" d="M645.437,1503.466l3.63-13.763.011-.044-.038-.025c-35.061-23.156-64.905-49.725-83.767-67.937-20.438-19.733-32.741-34.175-32.863-34.319l-.1.079a645.943,645.943,0,0,0,51.363,61.081,116.265,116.265,0,0,1-44.689,25.673l-.061.019,4.651,15.23.019.061.061-.018a132.326,132.326,0,0,0,51.223-29.55c29.436,29.165,50.278,43.324,50.485,43.465Z" transform="translate(-481.937 -1097.38)" fill="#421f35"/>
      <path id="Trazado_1038054" data-name="Trazado 1038054" d="M813.848,1220.977a203.094,203.094,0,0,0-31.057-41.767l-.094.085a227.809,227.809,0,0,1,14.958,20.445c7.385,11.281,17.256,28.445,22.348,46.153l.006.022,9.866,7.021.091.064.759-7.924,0-.032-.024-.022c-.044-.04-4.444-4.026-7.618-4.765A147.97,147.97,0,0,0,813.848,1220.977Z" transform="translate(-675.155 -936.741)" fill="#421f35"/>
      <path id="Trazado_1038055" data-name="Trazado 1038055" d="M757.222,865.993l-.21.127a23.262,23.262,0,0,0-5.021,4.472,20.661,20.661,0,0,0-5.113,13.168l0,.244,10.223-17.8Z" transform="translate(-647.512 -695.038)" fill="#421f35"/>
      <path id="Trazado_1038056" data-name="Trazado 1038056" d="M817,730.669l.336.4c.182.214,18.261,21.624,30.528,41.813l.043.071,7.339-7.8.035-.037-.027-.042c-.088-.132-9.105-13.423-37.832-34.1Z" transform="translate(-701.624 -590.612)" fill="#421f35"/>
      <path id="Trazado_1038057" data-name="Trazado 1038057" d="M602.432,569.326l-.28-.065-.253.157-.065.285.158.248c4,2.821,7.485,4.135,10.95,4.135a14.324,14.324,0,0,0,4.683-.808.384.384,0,0,0,.237-.485.379.379,0,0,0-.485-.239h0C612.548,574.2,607.938,573.2,602.432,569.326Z" transform="translate(-535.587 -466.057)" fill="#421f35"/>
      <path id="Trazado_1038058" data-name="Trazado 1038058" d="M464.238,467.77a2.1,2.1,0,0,1,2.127.328,4.388,4.388,0,0,1,1.745,2.495h0a.376.376,0,0,0,.449.278.383.383,0,0,0,.3-.437c-.07-.413-.129-.832-.188-1.237l0-.016a17.232,17.232,0,0,0-.854-3.821,5.457,5.457,0,0,0-3.833-3.613,3.989,3.989,0,0,0-4.474,5.305l.2.215.291.01.214-.2.011-.293a3.225,3.225,0,0,1,3.618-4.288,4.7,4.7,0,0,1,3.259,3.139,13.113,13.113,0,0,1,.67,2.706,4.993,4.993,0,0,0-.971-.874,2.841,2.841,0,0,0-2.936-.363,2.579,2.579,0,0,0-1.162,2.368,6.85,6.85,0,0,0,.679,2.388.385.385,0,0,0,.361.231h0l.137-.029a.383.383,0,0,0,.2-.5,6.189,6.189,0,0,1-.619-2.116A1.818,1.818,0,0,1,464.238,467.77Z" transform="translate(-425.568 -383.039)" fill="#421f35"/>
      <path id="Trazado_1038059" data-name="Trazado 1038059" d="M859.214,440.274l.24.168a.381.381,0,0,0,.456-.288,3.989,3.989,0,0,0-5.141-4.664,5.455,5.455,0,0,0-3.318,4.089,17.152,17.152,0,0,0-.339,3.89v.022c0,.412-.008.838-.022,1.255a.378.378,0,0,0,.347.394l.267-.063.147-.271a4.4,4.4,0,0,1,1.4-2.7,2.1,2.1,0,0,1,2.064-.608,1.822,1.822,0,0,1,.99,1.558,6.18,6.18,0,0,1-.332,2.18.385.385,0,0,0,.275.472l.093.011a.384.384,0,0,0,.369-.283,6.849,6.849,0,0,0,.356-2.454,2.585,2.585,0,0,0-1.465-2.193,2.842,2.842,0,0,0-2.862.75,4.937,4.937,0,0,0-.849,1,13.108,13.108,0,0,1,.3-2.772,4.839,4.839,0,0,1,2.814-3.545,3.223,3.223,0,0,1,4.155,3.77Z" transform="translate(-727.932 -362.68)" fill="#421f35"/>
      <path id="Trazado_1038060" data-name="Trazado 1038060" d="M470.423,835.064l.288.066.228-.151,9.627-14.4,8.887,34.683.2.253.306.011.014-.006c.061-.024,6.144-2.488,15.7,1.482,12.053,5,30.363,20.593,49.146,66.441a.382.382,0,0,0,.362.236h0l.132-.027a.382.382,0,0,0,.209-.5c-18.882-46.09-37.372-61.8-49.558-66.857-8.472-3.517-14.215-2.168-15.875-1.629l-9-35.106a.384.384,0,0,0-.307-.282.393.393,0,0,0-.382.165l-9.869,14.775c-8.35-5.852-17.656-17.067-24-25.454-7.051-9.325-12.022-17.181-12.07-17.258a.382.382,0,0,0-.647.408C434.649,793.213,454.247,823.957,470.423,835.064Z" transform="translate(-405.891 -637.418)" fill="#421f35"/>
      <path id="Trazado_1038061" data-name="Trazado 1038061" d="M499.847,1344.525l-.164.242.055.287,4.1,6.205.312.177.2-.06.016-.007.164-.243-.055-.286-4.1-6.206h0A.383.383,0,0,0,499.847,1344.525Z" transform="translate(-456.759 -1064.262)" fill="#421f35"/>
      <path id="Trazado_1038062" data-name="Trazado 1038062" d="M494.892,1359.56l-.282.066-.155.248.065.285a23.585,23.585,0,0,0,4.639,4.865l.24.087.274-.134.022-.017.08-.281-.143-.257a22.749,22.749,0,0,1-4.487-4.707Z" transform="translate(-452.724 -1075.914)" fill="#421f35"/>
      <path id="Trazado_1038063" data-name="Trazado 1038063" d="M756.4,1149.6h0a.383.383,0,0,0-.009.539,27.789,27.789,0,0,1,4.023,5.327l.009.015.312.18.186-.049.016-.006a.381.381,0,0,0,.137-.522,28.4,28.4,0,0,0-4.133-5.474A.384.384,0,0,0,756.4,1149.6Z" transform="translate(-654.769 -913.812)" fill="#421f35"/>
      <path id="Trazado_1038064" data-name="Trazado 1038064" d="M770.464,1150.832l-.227-.186-.29.029a.383.383,0,0,0-.158.517,27.454,27.454,0,0,0,2.6,4l.3.151.221-.076.019-.01a.383.383,0,0,0,.065-.536A26.591,26.591,0,0,1,770.464,1150.832Z" transform="translate(-665.16 -914.699)" fill="#421f35"/>
      <path id="Trazado_1038065" data-name="Trazado 1038065" d="M614.978,1429.76l-.249.155a.382.382,0,0,0,.088.532,98.1,98.1,0,0,0,52.971,18.069.382.382,0,0,0,.013-.764,97.319,97.319,0,0,1-52.539-17.926Z" transform="translate(-545.483 -1130.085)" fill="#421f35"/>
      <path id="Trazado_1038066" data-name="Trazado 1038066" d="M884.941,1401.468a.383.383,0,0,0,.384.36h.018a.384.384,0,0,0,.361-.4,78.166,78.166,0,0,0-8.259-30.743.385.385,0,0,0-.512-.169h0l-.19.222.022.291A77.362,77.362,0,0,1,884.941,1401.468Z" transform="translate(-747.727 -1084.336)" fill="#421f35"/>
      <path id="Trazado_1038067" data-name="Trazado 1038067" d="M938.346,1480.771a.377.377,0,0,0-.454.291l-1.723,7.87a.384.384,0,0,0,.3.456l.076.008a.384.384,0,0,0,.373-.3l1.723-7.87a.383.383,0,0,0-.291-.455Z" transform="translate(-793.579 -1169.442)" fill="#421f35"/>
      <path id="Trazado_1038068" data-name="Trazado 1038068" d="M953.815,1491.632l-.276-.074a.383.383,0,0,0-.342.419,58.619,58.619,0,0,0,1.54,8.659.383.383,0,0,0,.371.287h0l.092-.012.234-.175.041-.289a57.741,57.741,0,0,1-1.52-8.547Z" transform="translate(-806.725 -1177.773)" fill="#421f35"/>
      <path id="Trazado_1038069" data-name="Trazado 1038069" d="M1310.754,1784.427a21.228,21.228,0,0,0-4.362,2.427.384.384,0,0,0-.087.533l.306.163.212-.069.018-.008a20.42,20.42,0,0,1,4.2-2.338l.208-.208v-.291A.379.379,0,0,0,1310.754,1784.427Z" transform="translate(-1079.157 -1403.751)" fill="#421f35"/>
      <path id="Trazado_1038070" data-name="Trazado 1038070" d="M1319.211,1793.274l-1.6,1.6a.382.382,0,0,0,0,.54l.27.117.249-.1,1.618-1.613a.382.382,0,0,0-.54-.54Z" transform="translate(-1087.851 -1410.515)" fill="#421f35"/>
      <path id="Trazado_1038071" data-name="Trazado 1038071" d="M1280.6,1756a.382.382,0,0,0-.382.382A65.25,65.25,0,0,1,1278.08,1773h0a.385.385,0,0,0,.281.468l.089.011a.386.386,0,0,0,.371-.285,66.135,66.135,0,0,0,2.159-16.815A.382.382,0,0,0,1280.6,1756Z" transform="translate(-1057.422 -1381.838)" fill="#421f35"/>
      <path id="Trazado_1038072" data-name="Trazado 1038072" d="M1211.786,1885.984l-.245-.155-.283.055-.16.256a17.284,17.284,0,0,0-.251,3.27.384.384,0,0,0,.382.375h.007l.269-.117.106-.272a16.524,16.524,0,0,1,.239-3.125Z" transform="translate(-1005.546 -1482.024)" fill="#421f35"/>
      <path id="Trazado_1038073" data-name="Trazado 1038073" d="M1220.769,1892.851a.383.383,0,0,0-.514.163l-1.219,2.342a.382.382,0,0,0,.162.516l.187.048.321-.194,1.226-2.359.026-.292Z" transform="translate(-1011.835 -1487.411)" fill="#421f35"/>
      <path id="Trazado_1038074" data-name="Trazado 1038074" d="M1179.947,1858.937l-.29-.031-.227.184a63.153,63.153,0,0,1-4.964,7.734.383.383,0,0,0,.076.536l.235.081.278-.139.022-.019a64.093,64.093,0,0,0,5.023-7.828A.384.384,0,0,0,1179.947,1858.937Z" transform="translate(-977.415 -1461.248)" fill="#421f35"/>
      <path id="Trazado_1038075" data-name="Trazado 1038075" d="M1255.32,1805.58l-.282.063-.153.258a65.3,65.3,0,0,1-3.571,13.565l.008.291.225.206.124.022a.384.384,0,0,0,.357-.245,66.1,66.1,0,0,0,3.613-13.725l-.071-.284Z" transform="translate(-1036.776 -1420.098)" fill="#421f35"/>
      <path id="Trazado_1038076" data-name="Trazado 1038076" d="M873.936,1356.645l.316.187.18-.047.015-.005a.383.383,0,0,0,.149-.52c-1.945-3.509-4.026-7.028-6.185-10.457a.383.383,0,0,0-.526-.119l-.169.238.048.289c2.139,3.4,4.212,6.9,6.163,10.42Z" transform="translate(-740.762 -1065.16)" fill="#421f35"/>
      <path id="Trazado_1038077" data-name="Trazado 1038077" d="M612.821,1409.39a68.431,68.431,0,0,1-11.175-8.63l-.264-.1h-.01l-.266.118-.106.273.118.267a69.3,69.3,0,0,0,11.3,8.725l.209.062.31-.172.009-.014A.382.382,0,0,0,612.821,1409.39Z" transform="translate(-534.943 -1107.626)" fill="#421f35"/>
      <path id="Trazado_1038078" data-name="Trazado 1038078" d="M807.417,1519.808a.382.382,0,0,0,.044-.762l-9.839-1.11a.368.368,0,0,0-.422.337.383.383,0,0,0,.336.423l9.841,1.11Z" transform="translate(-686.344 -1198.128)" fill="#421f35"/>
      <path id="Trazado_1038079" data-name="Trazado 1038079" d="M652.8,1648.78l.055.287.312.177.2-.06.016-.008a62.224,62.224,0,0,0,14.681-13.535l.08-.28-.143-.257-.284-.079-.253.144a61.536,61.536,0,0,1-14.5,13.37Z" transform="translate(-574.919 -1288.484)" fill="#421f35"/>
      <path id="Trazado_1038080" data-name="Trazado 1038080" d="M688.508,1629.553l.241.088.272-.132,3.94-4.951.081-.282-.142-.255a.381.381,0,0,0-.536.061l-3.918,4.934-.081.282Z" transform="translate(-602.362 -1279.928)" fill="#421f35"/>
      <path id="Trazado_1038081" data-name="Trazado 1038081" d="M947.431,668.08l.037,0a.382.382,0,0,0,.381-.341,153.911,153.911,0,0,0,.626-16.11h-.063l.063-.027c.024-7.962.046-15.482,2.052-23.683a.385.385,0,0,0-.281-.462.381.381,0,0,0-.463.28c-2.026,8.3-2.048,15.863-2.072,23.877v.014a153.155,153.155,0,0,1-.623,16.031l.083.28Z" transform="translate(-802.012 -510.958)" fill="#421f35"/>
      <path id="Trazado_1038082" data-name="Trazado 1038082" d="M935.164,784.264h.032a.38.38,0,0,0,.381-.347l.807-8.692a.382.382,0,0,0-.346-.415h-.031a.382.382,0,0,0-.384.347l-.807,8.692.086.279Z" transform="translate(-792.542 -624.674)" fill="#421f35"/>
      <path id="Trazado_1038083" data-name="Trazado 1038083" d="M1092.461,511.519l.042,0a.381.381,0,0,0,.38-.339,125.989,125.989,0,0,1,7-29.593.382.382,0,1,0-.716-.264,126.652,126.652,0,0,0-7.043,29.772l.081.281Z" transform="translate(-913.933 -398.005)" fill="#421f35"/>
      <path id="Trazado_1038084" data-name="Trazado 1038084" d="M1125.391,482.5l.077.008a.383.383,0,0,0,.374-.3l2.078-10.014a.382.382,0,0,0-.3-.451l-.288.051-.165.245-2.078,10.014A.384.384,0,0,0,1125.391,482.5Z" transform="translate(-939.369 -390.804)" fill="#421f35"/>
      <path id="Trazado_1038085" data-name="Trazado 1038085" d="M1210.618,451.54l.091.279.261.131H1211a.383.383,0,0,0,.381-.353,220.143,220.143,0,0,0-2.149-51.861.371.371,0,0,0-.439-.316.383.383,0,0,0-.317.437A219.281,219.281,0,0,1,1210.618,451.54Z" transform="translate(-1003.714 -334.991)" fill="#421f35"/>
      <path id="Trazado_1038086" data-name="Trazado 1038086" d="M1220.824,408.238a.385.385,0,0,0,.383.33h0l.048,0a.383.383,0,0,0,.327-.43l-.8-5.743a.383.383,0,0,0-.759.106Z" transform="translate(-1012.63 -337.033)" fill="#421f35"/>
      <path id="Trazado_1038087" data-name="Trazado 1038087" d="M1304.7,506.125l2.8-10.163a.384.384,0,0,0-.268-.47.379.379,0,0,0-.468.267l-2.8,10.163a.385.385,0,0,0,.275.472l.093.011A.38.38,0,0,0,1304.7,506.125Z" transform="translate(-1077.392 -409.12)" fill="#421f35"/>
      <path id="Trazado_1038088" data-name="Trazado 1038088" d="M1320.425,504.081l-.052,0a.381.381,0,0,0-.38.33,22.082,22.082,0,0,1-1,4.184l.017.291.229.2.114.018a.383.383,0,0,0,.361-.258,22.878,22.878,0,0,0,1.036-4.329.382.382,0,0,0-.327-.43h0Z" transform="translate(-1089.005 -415.756)" fill="#421f35"/>
      <path id="Trazado_1038089" data-name="Trazado 1038089" d="M1058.444,665.71l.205.059.311-.176.009-.014a250.713,250.713,0,0,0,16.944-33.819.382.382,0,1,0-.707-.289,249.875,249.875,0,0,1-16.894,33.716A.384.384,0,0,0,1058.444,665.71Z" transform="translate(-887.8 -513.879)" fill="#421f35"/>
      <path id="Trazado_1038090" data-name="Trazado 1038090" d="M1066.34,745.417l-.228.187c-2.207,4.15-4.571,8.283-7.026,12.285l-.046.289.172.237.207.062.31-.173.009-.014c2.463-4.014,4.833-8.161,7.048-12.327a.383.383,0,0,0-.158-.516Z" transform="translate(-888.403 -601.992)" fill="#421f35"/>
      <path id="Trazado_1038091" data-name="Trazado 1038091" d="M415.09,801.085l-.291-.011-.214.2A34.862,34.862,0,0,0,412.133,809a.382.382,0,0,0,.307.449l.067.006a.381.381,0,0,0,.374-.31,34.2,34.2,0,0,1,2.4-7.552A.384.384,0,0,0,415.09,801.085Z" transform="translate(-389.193 -644.942)" fill="#421f35"/>
      <path id="Trazado_1038092" data-name="Trazado 1038092" d="M431.316,809.168h0l.083-.011a.384.384,0,0,0,.281-.461,16.845,16.845,0,0,1-.416-5.653.383.383,0,0,0-.343-.417l-.276.08-.142.264a17.674,17.674,0,0,0,.433,5.908A.384.384,0,0,0,431.316,809.168Z" transform="translate(-403.314 -646.139)" fill="#421f35"/>
      <path id="Trazado_1038093" data-name="Trazado 1038093" d="M664.379,976.339a.383.383,0,0,0,.371.262h0l.108-.018.223-.19.022-.292a84.249,84.249,0,0,1-3.447-15.3l-.153-.258-.276-.071a.384.384,0,0,0-.329.429A85.129,85.129,0,0,0,664.379,976.339Z" transform="translate(-581.164 -767.947)" fill="#421f35"/>
      <path id="Trazado_1038094" data-name="Trazado 1038094" d="M551.229,924.782l.256.1.261-.117.021-.016a.381.381,0,0,0-.031-.539,101.548,101.548,0,0,1-8.73-8.794.384.384,0,0,0-.539-.035l-.13.262.1.277A101.946,101.946,0,0,0,551.229,924.782Z" transform="translate(-489.676 -733.08)" fill="#421f35"/>
      <path id="Trazado_1038095" data-name="Trazado 1038095" d="M793.608,1077.948a102.748,102.748,0,0,1,8.429,8.6l.286.137.234-.088.02-.012.131-.262-.093-.277a103.767,103.767,0,0,0-8.493-8.665.388.388,0,0,0-.54.025h0l-.1.276Z" transform="translate(-683.478 -858.087)" fill="#421f35"/>
      <path id="Trazado_1038096" data-name="Trazado 1038096" d="M804.424,862.768l-.2.211.007.292.213.2a23.08,23.08,0,0,1,10.535,8.278l.3.166.1-.011a.383.383,0,0,0,.291-.315,38.51,38.51,0,0,0,.342-8.427.379.379,0,0,0-.4-.355h-.011a.382.382,0,0,0-.353.407,37.83,37.83,0,0,1-.208,7.325,23.962,23.962,0,0,0-10.325-7.782Z" transform="translate(-691.767 -692.543)" fill="#421f35"/>
      <path id="Trazado_1038097" data-name="Trazado 1038097" d="M804.684,886l.02-.012.122-.266-.1-.274a71.02,71.02,0,0,0-5.856-5.646l-.277-.091-.261.131a.383.383,0,0,0,.041.539,70.294,70.294,0,0,1,5.791,5.584l.28.128Z" transform="translate(-687.148 -705.625)" fill="#421f35"/>
      <path id="Trazado_1038098" data-name="Trazado 1038098" d="M835.4,953.3a167.574,167.574,0,0,1,7.8,19.131.381.381,0,0,0,.372.267h0l.1-.017.225-.188.025-.291A168.026,168.026,0,0,0,836.105,953l-.019-.041c-3.885-8.506-7.9-17.3-9.7-26.586a.375.375,0,0,0-.448-.3.381.381,0,0,0-.3.447c1.811,9.374,5.847,18.21,9.754,26.766Z" transform="translate(-708.287 -741.391)" fill="#421f35"/>
      <path id="Trazado_1038099" data-name="Trazado 1038099" d="M810.453,941.779l.262.13a.366.366,0,0,0,.28-.089l.127-.267a2.366,2.366,0,0,0-.72-1.854.965.965,0,0,0-.99-.292,1,1,0,0,0-.586.88,7.967,7.967,0,0,0,.759,4.918,3.151,3.151,0,0,0,.979,1.22,1.164,1.164,0,0,0,.617.225h.027a1.1,1.1,0,0,0,.994-.821,2.451,2.451,0,0,0,0-1.067.378.378,0,0,0-.379-.322l-.058,0-.25.153-.069.284a1.774,1.774,0,0,1,.02.734.357.357,0,0,1-.251.271l-.223-.093a2.432,2.432,0,0,1-.728-.936,7.189,7.189,0,0,1-.686-4.446.738.738,0,0,1,.081-.27l.22.116a1.6,1.6,0,0,1,.48,1.244Z" transform="translate(-695.235 -751.656)" fill="#421f35"/>
      <path id="Trazado_1038100" data-name="Trazado 1038100" d="M843.785,1024.667a.381.381,0,0,0,.382-.376,1.834,1.834,0,0,0-.265-1.188,1,1,0,0,0-.855-.373.751.751,0,0,0-.62.4,1.085,1.085,0,0,0-.1.48,10.917,10.917,0,0,0,1.262,5.291,3.876,3.876,0,0,0,1.368,1.6,1.133,1.133,0,0,0,.582.182h0l.14-.013a.938.938,0,0,0,.716-.812,2.016,2.016,0,0,0-.1-.821.384.384,0,0,0-.469-.266h0l-.23.183-.032.293a1.464,1.464,0,0,1,.081.492l-.12.178-.174-.073a3.2,3.2,0,0,1-1.083-1.3,10.169,10.169,0,0,1-1.173-4.907l.048-.128.158.065a1.271,1.271,0,0,1,.1.7A.386.386,0,0,0,843.785,1024.667Z" transform="translate(-721.171 -815.987)" fill="#421f35"/>
      <path id="Trazado_1038101" data-name="Trazado 1038101" d="M520.253,1804.612l.317.19.19-.05a436.468,436.468,0,0,0,40.53-24.757c11.44-7.876,23.015-16.816,30.2-28.8a.383.383,0,0,0-.132-.524l-.293-.043-.231.175c-7.1,11.859-18.6,20.736-29.972,28.563a435.77,435.77,0,0,1-40.458,24.714l-.185.226.03.292Z" transform="translate(-472.603 -1377.691)" fill="#421f35"/>
      <path id="Trazado_1038102" data-name="Trazado 1038102" d="M799.456,1769.923l.269.116.251-.1.02-.014a63.371,63.371,0,0,0,10.419-13.843.384.384,0,0,0-.148-.519h0a.385.385,0,0,0-.52.148,62.517,62.517,0,0,1-10.292,13.676A.382.382,0,0,0,799.456,1769.923Z" transform="translate(-688 -1381.46)" fill="#421f35"/>
      <path id="Trazado_1038103" data-name="Trazado 1038103" d="M502.645,1956.023h0l.134-.027a37.318,37.318,0,0,0,9.894-6.052l.135-.26-.091-.278h0a.386.386,0,0,0-.538-.043,36.523,36.523,0,0,1-9.692,5.927l-.206.208v.292A.376.376,0,0,0,502.645,1956.023Z" transform="translate(-458.765 -1530.981)" fill="#421f35"/>
      <path id="Trazado_1038104" data-name="Trazado 1038104" d="M428.886,2155.143h0a.38.38,0,0,0-.5.2l-1.723,3.935a.384.384,0,0,0,.209.507l.14.028a.381.381,0,0,0,.35-.229l1.723-3.935A.384.384,0,0,0,428.886,2155.143Z" transform="translate(-400.384 -1689.823)" fill="#421f35"/>
      <path id="Trazado_1038105" data-name="Trazado 1038105" d="M438.861,2176.666l-.28-.072a10.837,10.837,0,0,0-4.046,1.345l-.179.23.037.291.007.014.315.183.183-.05.015-.006a10.083,10.083,0,0,1,3.761-1.25.384.384,0,0,0,.333-.426Z" transform="translate(-406.348 -1706.401)" fill="#421f35"/>
      <path id="Trazado_1038106" data-name="Trazado 1038106" d="M926.227,2174.781l-.218-.2-.291.015-.2.218.016.292a23.834,23.834,0,0,0,3.226,5.016l.29.142.227-.084.02-.01.136-.259-.088-.28A23.171,23.171,0,0,1,926.227,2174.781Z" transform="translate(-785.37 -1704.851)" fill="#421f35"/>
      <path id="Trazado_1038107" data-name="Trazado 1038107" d="M943.839,2158.2l.041,0,.255-.143.08-.281-.792-6.635-.147-.258-.277-.076-.255.143-.08.282.792,6.635A.382.382,0,0,0,943.839,2158.2Z" transform="translate(-798.598 -1686.503)" fill="#421f35"/>
      <path id="Trazado_1038108" data-name="Trazado 1038108" d="M984.768,1929.679l.174.044.32-.193.007-.016a90.162,90.162,0,0,0,6.283-15.029l-.025-.291-.225-.188-.291.024-.188.225a89.558,89.558,0,0,1-6.228,14.9A.384.384,0,0,0,984.768,1929.679Z" transform="translate(-830.921 -1503.767)" fill="#421f35"/>
      <path id="Trazado_1038109" data-name="Trazado 1038109" d="M984.339,1900.133l-.2-.209-.291-.006-.211.207a51.127,51.127,0,0,1-5.371,9.52l-.066.284.154.248.229.077.281-.146.023-.019a51.787,51.787,0,0,0,5.451-9.664Z" transform="translate(-826.017 -1492.896)" fill="#421f35"/>
      <path id="Trazado_1038110" data-name="Trazado 1038110" d="M674.086,1894.657l-.138-.258a.386.386,0,0,0-.539.052c-17.923,21.777-36.458,44.295-59.5,61.472l-.149.251.072.284.3.159.215-.072.019-.009c23.113-17.232,41.678-39.786,59.631-61.6Z" transform="translate(-544.791 -1488.571)" fill="#421f35"/>
      <path id="Trazado_1038111" data-name="Trazado 1038111" d="M718.9,2014.021l-.286-.068-.246.153a149.97,149.97,0,0,1-23.26,25.314.383.383,0,0,0-.041.539l.287.138.233-.087.019-.012a150.635,150.635,0,0,0,23.379-25.443l.069-.285Z" transform="translate(-607.462 -1580.894)" fill="#421f35"/>
      <path id="Trazado_1038112" data-name="Trazado 1038112" d="M890.525,1634.8a.382.382,0,0,0,.374-.307l-.056-.286-.244-.163a257.017,257.017,0,0,1-70.266-24.953.383.383,0,0,0-.358.676,257.813,257.813,0,0,0,70.481,25.027Z" transform="translate(-703.765 -1268.435)" fill="#421f35"/>
      <path id="Trazado_1038113" data-name="Trazado 1038113" d="M821.066,1592.471l8.117,4.673.2.056.315-.181.009-.015a.386.386,0,0,0-.141-.523l-8.118-4.673a.383.383,0,0,0-.521.14h0A.386.386,0,0,0,821.066,1592.471Z" transform="translate(-704.617 -1255.095)" fill="#421f35"/>
      <path id="Trazado_1038114" data-name="Trazado 1038114" d="M1104.679,1730.922a.383.383,0,0,0-.367-.4,178.488,178.488,0,0,1-20.127-1.941.379.379,0,0,0-.437.319l.069.284.25.152a179.219,179.219,0,0,0,20.229,1.95A.381.381,0,0,0,1104.679,1730.922Z" transform="translate(-907.47 -1360.677)" fill="#421f35"/>
      <path id="Trazado_1038115" data-name="Trazado 1038115" d="M1024.238,1482.568l.257-7.87a.384.384,0,0,0-.37-.394h-.013a.381.381,0,0,0-.382.37l-.257,7.87a.386.386,0,0,0,.382.394A.381.381,0,0,0,1024.238,1482.568Z" transform="translate(-860.957 -1164.458)" fill="#421f35"/>
      <path id="Trazado_1038116" data-name="Trazado 1038116" d="M1031.521,1494.246a.381.381,0,0,0,.375-.314l.948-5.172a.384.384,0,0,0-.307-.445h0a.394.394,0,0,0-.443.308l-.947,5.172a.384.384,0,0,0,.313.445Z" transform="translate(-866.872 -1175.268)" fill="#421f35"/>
      <path id="Trazado_1038117" data-name="Trazado 1038117" d="M1108.562,1572.96l-.294.016-.194.219.017.292,1.846,3.811a.38.38,0,0,0,.353.214h0l.153-.036.194-.219-.018-.291-1.846-3.811Z" transform="translate(-926.242 -1240.59)" fill="#421f35"/>
      <path id="Trazado_1038118" data-name="Trazado 1038118" d="M1119.753,1572.691h.028l.261-.132.09-.278a36.3,36.3,0,0,0-.621-4.474l-.166-.244-.285-.054a.383.383,0,0,0-.3.45,35.556,35.556,0,0,1,.609,4.381A.383.383,0,0,0,1119.753,1572.691Z" transform="translate(-934.482 -1236.382)" fill="#421f35"/>
      <path id="Trazado_1038119" data-name="Trazado 1038119" d="M916.81,970.245l-.226.185-.029.29,1.03,3.429a.385.385,0,0,0,.373.272h0l.1-.016.227-.185.029-.29-1.03-3.43A.373.373,0,0,0,916.81,970.245Z" transform="translate(-778.45 -775.473)" fill="#421f35"/>
      <path id="Trazado_1038120" data-name="Trazado 1038120" d="M928.129,978.736h0l.137-.028a.383.383,0,0,0,.2-.5A172.294,172.294,0,0,0,913.2,949.85l-.244-.162-.286.057a.383.383,0,0,0-.107.53,171.484,171.484,0,0,1,15.2,28.229A.384.384,0,0,0,928.129,978.736Z" transform="translate(-775.323 -759.624)" fill="#421f35"/>
      <path id="Trazado_1038121" data-name="Trazado 1038121" d="M982.611,1050.072l-.2.209,0,.292,2.511,5.88a.38.38,0,0,0,.359.231h0l.138-.029.2-.209,0-.293-2.511-5.88-.208-.2Z" transform="translate(-829.267 -837.086)" fill="#421f35"/>
      <path id="Trazado_1038122" data-name="Trazado 1038122" d="M1029.021,1155.159c2.571,9.967,4.118,20.312,5.613,30.317a.382.382,0,0,0,.383.325l.051,0,.251-.149.071-.285-.006-.038c-1.5-10.012-3.044-20.364-5.621-30.357-2.913-11.3-6.759-20.639-11.763-28.552a.385.385,0,0,0-.526-.119l-.169.24.051.288C1022.315,1134.672,1026.13,1143.939,1029.021,1155.159Z" transform="translate(-856.196 -895.865)" fill="#421f35"/>
      <path id="Trazado_1038123" data-name="Trazado 1038123" d="M1051.654,1243.928h.021a.383.383,0,0,0,.361-.4,72.983,72.983,0,0,0-3.794-19.616.382.382,0,1,0-.723.246,72.217,72.217,0,0,1,3.754,19.411A.381.381,0,0,0,1051.654,1243.928Z" transform="translate(-879.496 -971.036)" fill="#421f35"/>
      <path id="Trazado_1038124" data-name="Trazado 1038124" d="M1044.847,1384.548a.383.383,0,0,0-.214.5,76.506,76.506,0,0,1,4.724,17.786.385.385,0,0,0,.383.329h0l.048,0a.383.383,0,0,0,.326-.431,77.461,77.461,0,0,0-4.771-17.964h0A.383.383,0,0,0,1044.847,1384.548Z" transform="translate(-877.264 -1095.175)" fill="#421f35"/>
      <path id="Trazado_1038125" data-name="Trazado 1038125" d="M563.954,1568.872l-.13.262.1.277.284.135.235-.089.02-.012a102.64,102.64,0,0,0,18.575-21.559.382.382,0,0,0-.113-.528l-.287-.054-.241.168A101.851,101.851,0,0,1,563.954,1568.872Z" transform="translate(-506.255 -1220.793)" fill="#421f35"/>
      <path id="Trazado_1038126" data-name="Trazado 1038126" d="M609.58,1546.425l.235.082.277-.139.022-.019a63.05,63.05,0,0,0,5.265-8.257.383.383,0,0,0-.158-.517l-.291-.028-.225.185a62.254,62.254,0,0,1-5.2,8.157l-.073.283Z" transform="translate(-541.45 -1213.262)" fill="#421f35"/>
      <path id="Trazado_1038127" data-name="Trazado 1038127" d="M613.029,837.273H613l-.261.129-.1.277.13.262c4.114,3.61,8.394,7.148,12.721,10.515l.238.086.276-.135.021-.018.078-.282-.146-.254c-4.326-3.368-8.593-6.9-12.685-10.486Z" transform="translate(-543.931 -672.876)" fill="#421f35"/>
      <path id="Trazado_1038128" data-name="Trazado 1038128" d="M640.845,851.486l.242.089.272-.131.022-.017a.383.383,0,0,0-.06-.537l-6.152-4.915a.382.382,0,1,0-.477.6Z" transform="translate(-560.833 -679.526)" fill="#421f35"/>
      <path id="Trazado_1038129" data-name="Trazado 1038129" d="M492.579,694.122l.29.141.23-.084.019-.011a.384.384,0,0,0,.046-.539,38.085,38.085,0,0,1-3.556-4.99h0l-.236-.175-.287.043-.175.235.042.288A38.754,38.754,0,0,0,492.579,694.122Z" transform="translate(-448.445 -558.043)" fill="#421f35"/>
      <path id="Trazado_1038130" data-name="Trazado 1038130" d="M498.459,690.191l.274-.133.022-.017.08-.281-.143-.256-6.057-4.767-.281-.079-.255.143-.08.282.143.254,6.057,4.767Z" transform="translate(-450.845 -555.105)" fill="#421f35"/>
      <path id="Trazado_1038131" data-name="Trazado 1038131" d="M527.454,681.878l.228-.082.02-.011a.387.387,0,0,0,.052-.538,39.937,39.937,0,0,1-7.568-14.486l-.178-.229-.292-.036-.23.182-.034.29a40.7,40.7,0,0,0,7.71,14.766Z" transform="translate(-472.014 -541.091)" fill="#421f35"/>
      <path id="Trazado_1038132" data-name="Trazado 1038132" d="M631.669,800.16a.382.382,0,0,0,.163-.728,90.538,90.538,0,0,1-17.15-10.523l-.277-.08-.259.146-.078.282.146.255a91.228,91.228,0,0,0,17.306,10.617Z" transform="translate(-545.027 -635.492)" fill="#421f35"/>
      <path id="Trazado_1038133" data-name="Trazado 1038133" d="M739.6,857.612a.38.38,0,0,0,.381-.348l-.087-.279-.259-.136a51.073,51.073,0,0,1-7.327-1.209.388.388,0,0,0-.46.282.383.383,0,0,0,.282.461h0a51.974,51.974,0,0,0,7.439,1.227Z" transform="translate(-635.911 -687.043)" fill="#421f35"/>
      <path id="Trazado_1038134" data-name="Trazado 1038134" d="M778.961,768.838h0l.127-.023a.384.384,0,0,0,.228-.49,141.51,141.51,0,0,1-5.955-21.538.386.386,0,0,0-.447-.3.382.382,0,0,0-.3.448,142.1,142.1,0,0,0,5.985,21.655A.384.384,0,0,0,778.961,768.838Z" transform="translate(-667.37 -602.811)" fill="#421f35"/>
      <path id="Trazado_1038135" data-name="Trazado 1038135" d="M822.868,828.4h0l.1-.016.226-.19.025-.29a62.176,62.176,0,0,0-2.3-6.189.382.382,0,0,0-.7.3,61.323,61.323,0,0,1,2.276,6.113A.382.382,0,0,0,822.868,828.4Z" transform="translate(-704.086 -660.689)" fill="#421f35"/>
      <path id="Trazado_1038136" data-name="Trazado 1038136" d="M716.777,922.642l.009.014.311.174.19-.053.016-.007a.385.385,0,0,0,.128-.525,43.961,43.961,0,0,0-6.91-8.649l-.265-.108h0l-.272.116a.382.382,0,0,0,.009.54A43.17,43.17,0,0,1,716.777,922.642Z" transform="translate(-618.958 -731.688)" fill="#421f35"/>
      <path id="Trazado_1038137" data-name="Trazado 1038137" d="M1357.479,241.832a5.394,5.394,0,0,1,2.215,1.663l.3.151.221-.077.019-.01.143-.254-.08-.282a6.163,6.163,0,0,0-2.528-1.9l-.291,0-.205.21v.292Z" transform="translate(-1118.54 -212.839)" fill="#421f35"/>
      <path id="Trazado_1038138" data-name="Trazado 1038138" d="M1373.543,259.633c-.6-.5-1.241-.577-1.633-.185l-.112.271.112.27.27.111h0l.269-.112c.081-.078.369.035.6.229a6.419,6.419,0,0,1,1.487,1.806l.009.015.316.187.18-.047.015-.006a.383.383,0,0,0,.149-.52A7.185,7.185,0,0,0,1373.543,259.633Z" transform="translate(-1129.751 -226.787)" fill="#421f35"/>
      <path id="Trazado_1038139" data-name="Trazado 1038139" d="M1393.9,285.052l.082-.011.008,0,.233-.178.039-.289a4.3,4.3,0,0,0-2.152-2.681l-.29-.026-.226.191a.385.385,0,0,0,.167.514,3.531,3.531,0,0,1,1.763,2.2.384.384,0,0,0,.377.284h0Z" transform="translate(-1144.998 -244.28)" fill="#421f35"/>
      <path id="Trazado_1038140" data-name="Trazado 1038140" d="M1402.036,309.028l-.244-.09h-.032l-.261.135-.089.28.136.258a4.222,4.222,0,0,1,1.479,2.962.383.383,0,0,0,.384.361h.018a.382.382,0,0,0,.361-.4A5,5,0,0,0,1402.036,309.028Z" transform="translate(-1152.602 -265.171)" fill="#421f35"/>
      <path id="Trazado_1038141" data-name="Trazado 1038141" d="M1409.074,282.057a.385.385,0,0,0-.474.259,9.929,9.929,0,0,1-1.9,3.564l-.088.279.134.259.249.1.269-.125.021-.017a10.672,10.672,0,0,0,2.054-3.841A.38.38,0,0,0,1409.074,282.057Z" transform="translate(-1156.613 -244.416)" fill="#421f35"/>
      <path id="Trazado_1038142" data-name="Trazado 1038142" d="M1401.408,241.591l-.289-.029-.229.187a46.6,46.6,0,0,1-4.382,6.771l-.078.282.145.254.238.086.276-.135.021-.018a47.314,47.314,0,0,0,4.454-6.882l.029-.291Z" transform="translate(-1148.76 -213.178)" fill="#421f35"/>
      <path id="Trazado_1038143" data-name="Trazado 1038143" d="M1379.786,219.941l.231.08.28-.142.022-.019a41.725,41.725,0,0,0,4.992-8.884v-.291l-.208-.208h-.294l-.205.209a40.977,40.977,0,0,1-4.9,8.72l-.071.285Z" transform="translate(-1135.798 -189.191)" fill="#421f35"/>
      <path id="Trazado_1038144" data-name="Trazado 1038144" d="M1319.263,287.244a.382.382,0,0,0,.763.013,7.434,7.434,0,0,0-1.107-4.01.382.382,0,1,0-.648.4A6.673,6.673,0,0,1,1319.263,287.244Z" transform="translate(-1088.401 -245.207)" fill="#421f35"/>
      <path id="Trazado_1038145" data-name="Trazado 1038145" d="M1333.966,273.5a.385.385,0,0,0-.468-.269l-.233.179-.036.29a29.985,29.985,0,0,1-1.076,18.849.386.386,0,0,0,.225.5l.118.022h.013a.38.38,0,0,0,.355-.24A30.762,30.762,0,0,0,1333.966,273.5Z" transform="translate(-1099.138 -237.608)" fill="#421f35"/>
      <path id="Trazado_1038146" data-name="Trazado 1038146" d="M1352.18,327.483l-.287.055a21.4,21.4,0,0,0-7.644,8.891l-.01.292.213.22.146.03a.384.384,0,0,0,.348-.223,20.619,20.619,0,0,1,7.365-8.57l.166-.242-.055-.286Z" transform="translate(-1108.485 -279.482)" fill="#421f35"/>
      <path id="Trazado_1038147" data-name="Trazado 1038147" d="M1463.284,2064.64a.383.383,0,0,0-.612.46c1.373,1.822,2.684,3.728,3.9,5.666l.009.015.307.169.194-.056.016-.007a.382.382,0,0,0,.121-.527C1466,2068.412,1464.674,2066.49,1463.284,2064.64Z" transform="translate(-1199.817 -1619.892)" fill="#421f35"/>
      <path id="Trazado_1038148" data-name="Trazado 1038148" d="M1480.426,2056.68a.382.382,0,1,0-.617.449c2.461,3.38,4.866,6.865,7.147,10.357l.312.178.2-.059.016-.008.166-.244-.055-.285C1485.31,2063.566,1482.9,2060.07,1480.426,2056.68Z" transform="translate(-1213.044 -1613.744)" fill="#421f35"/>
      <path id="Trazado_1038149" data-name="Trazado 1038149" d="M1514.933,2064.8a139.69,139.69,0,0,0-8.124-12.345l-.25-.151-.284.07a.382.382,0,0,0-.081.534,139.378,139.378,0,0,1,8.079,12.277l.009.014.312.18.185-.05.016-.007A.383.383,0,0,0,1514.933,2064.8Z" transform="translate(-1233.405 -1610.485)" fill="#421f35"/>
    </g>
  </g>
</svg>
