<svg xmlns="http://www.w3.org/2000/svg" xmlns:xlink="http://www.w3.org/1999/xlink" width="110.186" height="110.186" viewBox="0 0 110.186 110.186">
  <defs>
    <filter id="Trazado_982547" x="0" y="0" width="110.186" height="110.186" filterUnits="userSpaceOnUse">
      <feOffset dy="3" input="SourceAlpha"/>
      <feGaussianBlur stdDeviation="3" result="blur"/>
      <feFlood flood-opacity="0.161"/>
      <feComposite operator="in" in2="blur"/>
      <feComposite in="SourceGraphic"/>
    </filter>
  </defs>
  <g id="Grupo_1179655" data-name="Grupo 1179655" transform="translate(-325 -8121.557)">
    <g id="Grupo_1173635" data-name="Grupo 1173635" transform="translate(334 8127.557)">
      <g id="Grupo_1173554" data-name="Grupo 1173554">
        <g id="Grupo_1172017" data-name="Grupo 1172017" transform="translate(0)">
          <g id="Grupo_1167337" data-name="Grupo 1167337" transform="translate(0)">
            <g id="Grupo_1166720" data-name="Grupo 1166720">
              <g id="Grupo_1164305" data-name="Grupo 1164305">
                <g id="Grupo_1163948" data-name="Grupo 1163948">
                  <g id="Grupo_1158168" data-name="Grupo 1158168">
                    <g id="Grupo_1152576" data-name="Grupo 1152576">
                      <g id="Grupo_1148633" data-name="Grupo 1148633">
                        <g id="Grupo_1148525" data-name="Grupo 1148525">
                          <g transform="matrix(1, 0, 0, 1, -9, -6)" filter="url(#Trazado_982547)">
                            <g id="Trazado_982547-2" data-name="Trazado 982547" transform="translate(9 6)" fill="#e8edf7">
                              <path d="M 46.09305953979492 90.68612670898438 C 40.07238006591797 90.68612670898438 34.23257827758789 89.50730133056641 28.73588562011719 87.18239593505859 C 23.42596626281738 84.93648529052734 18.65684700012207 81.72095489501953 14.56100654602051 77.62511444091797 C 10.46517944335938 73.52928924560547 7.249646186828613 68.76016998291016 5.003739356994629 63.45023345947266 C 2.678832769393921 57.95354080200195 1.500006198883057 52.11373901367188 1.500006198883057 46.09305953979492 C 1.500006198883057 40.07238006591797 2.678832769393921 34.23257827758789 5.003739356994629 28.73588562011719 C 7.249646186828613 23.42595291137695 10.46517944335938 18.65684700012207 14.56100654602051 14.56100654602051 C 18.65684700012207 10.46517944335938 23.42595291137695 7.249646186828613 28.73588562011719 5.003739356994629 C 34.23257827758789 2.678832769393921 40.07238006591797 1.500006198883057 46.09305953979492 1.500006198883057 C 52.11373901367188 1.500006198883057 57.95354080200195 2.678832769393921 63.45023345947266 5.003739356994629 C 68.76016998291016 7.249646186828613 73.52928924560547 10.46517944335938 77.62511444091797 14.56100654602051 C 81.72095489501953 18.65684700012207 84.93648529052734 23.42596626281738 87.18239593505859 28.73588562011719 C 89.50730133056641 34.23257827758789 90.68612670898438 40.07238006591797 90.68612670898438 46.09305953979492 C 90.68612670898438 52.11373901367188 89.50730133056641 57.95354080200195 87.18239593505859 63.45023345947266 C 84.93648529052734 68.76016998291016 81.72095489501953 73.52928924560547 77.62511444091797 77.62511444091797 C 73.52928924560547 81.72095489501953 68.76016998291016 84.93648529052734 63.45023345947266 87.18239593505859 C 57.95354080200195 89.50730133056641 52.11373901367188 90.68612670898438 46.09305953979492 90.68612670898438 Z" stroke="none"/>
                              <path d="M 46.09305953979492 3 C 40.27421569824219 3 34.63101577758789 4.138961791992188 29.32021713256836 6.385231018066406 C 24.1890869140625 8.555519104003906 19.58021545410156 11.66310119628906 15.62165832519531 15.62165832519531 C 11.66310119628906 19.58021545410156 8.555519104003906 24.1890869140625 6.385231018066406 29.32021713256836 C 4.138961791992188 34.63101577758789 3 40.27421569824219 3 46.09305953979492 C 3 51.91190338134766 4.138961791992188 57.55510330200195 6.385231018066406 62.86590194702148 C 8.555519104003906 67.99703216552734 11.66310119628906 72.60588836669922 15.62165832519531 76.56444549560547 C 19.58021545410156 80.52301788330078 24.1890869140625 83.63058471679688 29.32021713256836 85.80088806152344 C 34.63101577758789 88.04715728759766 40.27421569824219 89.18611907958984 46.09305953979492 89.18611907958984 C 51.91190338134766 89.18611907958984 57.55510330200195 88.04715728759766 62.86590194702148 85.80088806152344 C 67.99703216552734 83.63058471679688 72.60588836669922 80.52301788330078 76.56444549560547 76.56444549560547 C 80.52301788330078 72.60588836669922 83.63058471679688 67.99703216552734 85.80088806152344 62.86590194702148 C 88.04715728759766 57.55510330200195 89.18611907958984 51.91190338134766 89.18611907958984 46.09305953979492 C 89.18611907958984 40.27421569824219 88.04715728759766 34.63101577758789 85.80088806152344 29.32021713256836 C 83.63058471679688 24.1890869140625 80.52301788330078 19.58021545410156 76.56444549560547 15.62165832519531 C 72.60588836669922 11.66310119628906 67.99703216552734 8.555519104003906 62.86590194702148 6.385231018066406 C 57.55510330200195 4.138961791992188 51.91190338134766 3 46.09305953979492 3 M 46.09305953979492 0 C 71.54954528808594 0 92.18611907958984 20.63655853271484 92.18611907958984 46.09305953979492 C 92.18611907958984 71.54954528808594 71.54954528808594 92.18611907958984 46.09305953979492 92.18611907958984 C 20.63655853271484 92.18611907958984 0 71.54954528808594 0 46.09305953979492 C 0 20.63655853271484 20.63655853271484 0 46.09305953979492 0 Z" stroke="none" fill="#2e5bb6"/>
                            </g>
                          </g>
                        </g>
                      </g>
                    </g>
                  </g>
                </g>
              </g>
            </g>
          </g>
        </g>
      </g>
    </g>
    <g id="_26-Money_Management" data-name="26-Money Management" transform="translate(348.04 8141.61)">
      <path id="Trazado_1038833" data-name="Trazado 1038833" d="M60.92,30H52.9A20.989,20.989,0,0,0,34,11.1V3.08A28.95,28.95,0,0,1,60.92,30Z" fill="#64b5f6"/>
      <path id="Trazado_1038834" data-name="Trazado 1038834" d="M30,3.08V11.1A21.01,21.01,0,0,0,15.8,45.38l-5.66,5.66A28.979,28.979,0,0,1,30,3.08Z" fill="#ef5350"/>
      <path id="Trazado_1038835" data-name="Trazado 1038835" d="M32,53a21,21,0,0,0,13.38-4.8,23.472,23.472,0,0,0,2.82-2.82A20.9,20.9,0,0,0,52.9,34h8.02a28.661,28.661,0,0,1-7.06,17.04,25.03,25.03,0,0,1-2.82,2.82,28.957,28.957,0,0,1-38.08,0l5.66-5.66A21,21,0,0,0,32,53Z" fill="#81c784"/>
      <path id="Trazado_1038836" data-name="Trazado 1038836" d="M60.92,30h-5A28.982,28.982,0,0,0,34,3.85V3.08A28.95,28.95,0,0,1,60.92,30Z" fill="#42a5f5"/>
      <path id="Trazado_1038837" data-name="Trazado 1038837" d="M60.92,34a28.661,28.661,0,0,1-7.06,17.04,25.031,25.031,0,0,1-2.82,2.82A28.792,28.792,0,0,1,32,61c-.86,0-1.72-.04-2.56-.11A28.965,28.965,0,0,0,55.92,34Z" fill="#66bb6a"/>
      <circle id="Elipse_12342" data-name="Elipse 12342" cx="15" cy="15" r="15" transform="translate(17 17)" fill="#ffd54f"/>
      <path id="Trazado_1038838" data-name="Trazado 1038838" d="M47,32A15.006,15.006,0,0,1,32,47a14.6,14.6,0,0,1-2-.14,14.993,14.993,0,0,0,0-29.72A14.6,14.6,0,0,1,32,17,15.006,15.006,0,0,1,47,32Z" fill="#ffca28"/>
      <circle id="Elipse_12343" data-name="Elipse 12343" cx="11" cy="11" r="11" transform="translate(21 21)" fill="#ffb74d"/>
      <path id="Trazado_1038839" data-name="Trazado 1038839" d="M34,42.82a11,11,0,1,1,0-21.64,11,11,0,0,0,0,21.64Z" fill="#ffa726"/>
      <path id="Trazado_1038840" data-name="Trazado 1038840" d="M16,32A16,16,0,1,0,32,16,16,16,0,0,0,16,32ZM32,18A14,14,0,1,1,18,32,14,14,0,0,1,32,18Zm0,26A12,12,0,1,0,20,32,12,12,0,0,0,32,44Zm0-22A10,10,0,1,1,22,32,10,10,0,0,1,32,22Zm2,12.5A1.5,1.5,0,0,0,32.5,33h-1a3.492,3.492,0,0,1-.5-6.949V25a1,1,0,0,1,2,0v1h2a1,1,0,0,1,0,2H31.5a1.5,1.5,0,0,0,0,3h1a3.492,3.492,0,0,1,.5,6.95V39a1,1,0,0,1-2,0V38H29a1,1,0,0,1,0-2h3.5A1.5,1.5,0,0,0,34,34.5Zm-.094-22.4a19.971,19.971,0,0,1,18,18,1,1,0,0,0,1,.906h8.02a1,1,0,0,0,1-1.067A30.028,30.028,0,0,0,34.067,2.082a1.026,1.026,0,0,0-.75.268A1,1,0,0,0,33,3.08V11.1A1,1,0,0,0,33.906,12.1ZM35,4.17A28.036,28.036,0,0,1,59.83,29H53.792A21.978,21.978,0,0,0,35,10.208ZM16.572,44.744A20.091,20.091,0,0,1,12,32,19.89,19.89,0,0,1,30.093,12.1a1,1,0,0,0,.907-1V3.08a1,1,0,0,0-.317-.73,1.018,1.018,0,0,0-.75-.268A29.979,29.979,0,0,0,9.387,51.7a1,1,0,0,0,.72.341h.033a1,1,0,0,0,.707-.293l5.66-5.66A1,1,0,0,0,16.572,44.744ZM10.2,49.563A27.981,27.981,0,0,1,29,4.171v6.036A21.879,21.879,0,0,0,10,32a22.1,22.1,0,0,0,4.464,13.3ZM61.65,33.316A1,1,0,0,0,60.92,33H52.9a1,1,0,0,0-1,.907,19.839,19.839,0,0,1-4.469,10.828,22.64,22.64,0,0,1-2.691,2.693,20.05,20.05,0,0,1-25.488,0,1,1,0,0,0-1.343.064l-5.66,5.66a1,1,0,0,0,.049,1.46,29.957,29.957,0,0,0,39.387.008A26.011,26.011,0,0,0,54.612,51.7a29.48,29.48,0,0,0,7.306-17.633,1,1,0,0,0-.268-.75ZM53.1,50.392a24.059,24.059,0,0,1-2.717,2.716,27.96,27.96,0,0,1-35.944.69L18.7,49.537a22.049,22.049,0,0,0,27.326-.571,24.6,24.6,0,0,0,2.947-2.948A21.832,21.832,0,0,0,53.793,35h6.039A27.485,27.485,0,0,1,53.1,50.392Z"/>
    </g>
  </g>
</svg>
