<svg xmlns="http://www.w3.org/2000/svg" xmlns:xlink="http://www.w3.org/1999/xlink" width="113" height="113" viewBox="0 0 113 113">
  <defs>
    <filter id="Trazado_982547" x="0" y="0" width="113" height="113" filterUnits="userSpaceOnUse">
      <feOffset dy="3" input="SourceAlpha"/>
      <feGaussianBlur stdDeviation="3" result="blur"/>
      <feFlood flood-opacity="0.161"/>
      <feComposite operator="in" in2="blur"/>
      <feComposite in="SourceGraphic"/>
    </filter>
  </defs>
  <g id="Grupo_1179710" data-name="Grupo 1179710" transform="translate(-193 -4709)">
    <g id="Grupo_1174893" data-name="Grupo 1174893" transform="translate(202 4715)">
      <g id="Grupo_1167519" data-name="Grupo 1167519">
        <g id="Grupo_1166845" data-name="Grupo 1166845">
          <g id="Grupo_1166720" data-name="Grupo 1166720">
            <g id="Grupo_1164305" data-name="Grupo 1164305">
              <g id="Grupo_1163948" data-name="Grupo 1163948">
                <g id="Grupo_1158168" data-name="Grupo 1158168">
                  <g id="Grupo_1152576" data-name="Grupo 1152576">
                    <g id="Grupo_1148633" data-name="Grupo 1148633">
                      <g id="Grupo_1148525" data-name="Grupo 1148525">
                        <g transform="matrix(1, 0, 0, 1, -9, -6)" filter="url(#Trazado_982547)">
                          <g id="Trazado_982547-2" data-name="Trazado 982547" transform="translate(9 6)" fill="#f5fdfa">
                            <path d="M 47.5 93.5 C 41.28937149047852 93.5 35.26533508300781 92.28397369384766 29.59518623352051 89.88570404052734 C 24.11771965026855 87.56893157958984 19.19813346862793 84.25196075439453 14.97309303283691 80.02691650390625 C 10.74804019927979 75.80186462402344 7.431066513061523 70.88229370117188 5.114293098449707 65.40481567382812 C 2.716026782989502 59.73468017578125 1.5 53.71062850952148 1.5 47.5 C 1.5 41.28937149047852 2.716026782989502 35.26533508300781 5.114293098449707 29.59518623352051 C 7.431066513061523 24.11771965026855 10.74804019927979 19.19813346862793 14.97309303283691 14.97309303283691 C 19.19813346862793 10.74804019927979 24.11771965026855 7.431066513061523 29.59518623352051 5.114293098449707 C 35.26533508300781 2.716026782989502 41.28937149047852 1.5 47.5 1.5 C 53.71062850952148 1.5 59.73468017578125 2.716026782989502 65.40481567382812 5.114293098449707 C 70.88229370117188 7.431066513061523 75.80186462402344 10.74804019927979 80.02691650390625 14.97309303283691 C 84.25196075439453 19.19813346862793 87.56893157958984 24.11771965026855 89.88570404052734 29.59518623352051 C 92.28397369384766 35.26533508300781 93.5 41.28937149047852 93.5 47.5 C 93.5 53.71062850952148 92.28397369384766 59.73468017578125 89.88570404052734 65.40481567382812 C 87.56893157958984 70.88229370117188 84.25196075439453 75.80186462402344 80.02691650390625 80.02691650390625 C 75.80186462402344 84.25196075439453 70.88229370117188 87.56893157958984 65.40481567382812 89.88570404052734 C 59.73468017578125 92.28397369384766 53.71062850952148 93.5 47.5 93.5 Z" stroke="none"/>
                            <path d="M 47.5 3 C 41.49121475219727 3 35.66376876831055 4.176155090332031 30.17950439453125 6.495796203613281 C 24.88084411621094 8.736953735351562 20.12152099609375 11.94598388671875 16.03375244140625 16.03375244140625 C 11.94598388671875 20.12152099609375 8.736953735351562 24.88084411621094 6.495796203613281 30.17950439453125 C 4.176155090332031 35.66376876831055 3 41.49121475219727 3 47.5 C 3 53.50878524780273 4.176155090332031 59.33623123168945 6.495796203613281 64.82049560546875 C 8.736953735351562 70.11915588378906 11.94598388671875 74.87847900390625 16.03375244140625 78.96624755859375 C 20.12152099609375 83.05401611328125 24.88084411621094 86.26304626464844 30.17950439453125 88.50419616699219 C 35.66376876831055 90.82384490966797 41.49121475219727 92 47.5 92 C 53.50878524780273 92 59.33623123168945 90.82384490966797 64.82049560546875 88.50419616699219 C 70.11915588378906 86.26304626464844 74.87847900390625 83.05401611328125 78.96624755859375 78.96624755859375 C 83.05401611328125 74.87847900390625 86.26304626464844 70.11915588378906 88.50419616699219 64.82049560546875 C 90.82384490966797 59.33623123168945 92 53.50878524780273 92 47.5 C 92 41.49121475219727 90.82384490966797 35.66376876831055 88.50419616699219 30.17950439453125 C 86.26304626464844 24.88084411621094 83.05401611328125 20.12152099609375 78.96624755859375 16.03375244140625 C 74.87847900390625 11.94598388671875 70.11915588378906 8.736953735351562 64.82049560546875 6.495796203613281 C 59.33623123168945 4.176155090332031 53.50878524780273 3 47.5 3 M 47.5 0 C 73.7335205078125 0 95 21.2664794921875 95 47.5 C 95 73.7335205078125 73.7335205078125 95 47.5 95 C 21.2664794921875 95 0 73.7335205078125 0 47.5 C 0 21.2664794921875 21.2664794921875 0 47.5 0 Z" stroke="none" fill="#598475"/>
                          </g>
                        </g>
                      </g>
                    </g>
                  </g>
                </g>
              </g>
            </g>
          </g>
        </g>
      </g>
    </g>
    <g id="coding" transform="translate(222 4724.004)">
      <path id="Trazado_1038912" data-name="Trazado 1038912" d="M278.728,65.355a2.538,2.538,0,1,0,0,5.075h9.562a2.538,2.538,0,1,0,0-5.075Z" transform="translate(-246.657 -47.654)" fill="#ccf5fc" fill-rule="evenodd"/>
      <path id="Trazado_1038913" data-name="Trazado 1038913" d="M72.356,65.355A2.538,2.538,0,1,0,74.9,67.893,2.538,2.538,0,0,0,72.356,65.355Z" transform="translate(-62.352 -47.654)" fill="#ccf5fc" fill-rule="evenodd"/>
      <path id="Trazado_1038914" data-name="Trazado 1038914" d="M72.254,70.342a2.55,2.55,0,1,1,2.554-2.55A2.553,2.553,0,0,1,72.254,70.342Zm0-5.075a2.525,2.525,0,1,0,2.53,2.525A2.529,2.529,0,0,0,72.254,65.266Z" transform="translate(-62.25 -47.553)" fill="#8aa8bd"/>
      <g id="Grupo_1179709" data-name="Grupo 1179709" transform="translate(1.078 13.074)">
        <path id="Trazado_1038915" data-name="Trazado 1038915" d="M160.028,65.355a2.538,2.538,0,1,0,2.542,2.538A2.538,2.538,0,0,0,160.028,65.355Z" transform="translate(-141.728 -60.728)" fill="#dc72a9" fill-rule="evenodd"/>
        <path id="Trazado_1038916" data-name="Trazado 1038916" d="M337.154,319.737a5.507,5.507,0,1,0,5.508,5.508A5.508,5.508,0,0,0,337.154,319.737Z" transform="translate(-297.26 -287.91)" fill="#fff" fill-rule="evenodd"/>
        <path id="Trazado_1038917" data-name="Trazado 1038917" d="M274.8,253.9v1.233a10.4,10.4,0,0,0-3.2,1.342l-.87-.866a1.339,1.339,0,0,0-1.891,0l-1.379,1.378a1.337,1.337,0,0,0,0,1.89l.879.881a10.342,10.342,0,0,0-1.312,3.183h-1.236a1.34,1.34,0,0,0-1.336,1.335v1.953a1.34,1.34,0,0,0,1.336,1.335h1.239a10.286,10.286,0,0,0,1.33,3.2l-.876.872a1.343,1.343,0,0,0,0,1.89l1.382,1.381a1.339,1.339,0,0,0,1.891,0l.873-.872a10.356,10.356,0,0,0,3.206,1.326V276.6a1.343,1.343,0,0,0,1.336,1.339h1.954a1.343,1.343,0,0,0,1.336-1.339v-1.242a10.333,10.333,0,0,0,3.212-1.329l.876.872a1.339,1.339,0,0,0,1.891,0l1.379-1.381a1.337,1.337,0,0,0,0-1.89l-.873-.872a10.352,10.352,0,0,0,1.327-3.2h1.233a1.343,1.343,0,0,0,1.339-1.336v-1.953a1.343,1.343,0,0,0-1.339-1.336h-1.227a10.321,10.321,0,0,0-1.333-3.216l.873-.875a1.337,1.337,0,0,0,0-1.89l-.873-.872-.506-.506a1.339,1.339,0,0,0-1.891,0l-.876.872a10.34,10.34,0,0,0-3.248-1.338V253.9a1.343,1.343,0,0,0-1.339-1.339h-1.951A1.341,1.341,0,0,0,274.8,253.9Zm2.351,5.845a5.507,5.507,0,1,1-5.511,5.508A5.508,5.508,0,0,1,277.152,259.742Z" transform="translate(-237.258 -227.915)" fill="#ccf5fc" fill-rule="evenodd"/>
        <path id="Trazado_1038918" data-name="Trazado 1038918" d="M54.793,22.08H14.065c-2.191,0-3.981,2.138-3.981,4.754v9.5h48.69v-9.5C58.774,24.221,56.984,22.08,54.793,22.08ZM28.385,26.707a2.538,2.538,0,1,1-2.539,2.538A2.54,2.54,0,0,1,28.385,26.707Zm-9.374,0a2.538,2.538,0,1,1-2.539,2.538A2.54,2.54,0,0,1,19.01,26.707Zm19.528,2.538a2.545,2.545,0,0,1,2.539-2.538h9.562a2.538,2.538,0,1,1,0,5.075H41.077a2.545,2.545,0,0,1-2.539-2.538Z" transform="translate(-10.084 -22.08)" fill="#8aa8bd" fill-rule="evenodd"/>
        <path id="Trazado_1038919" data-name="Trazado 1038919" d="M26.854,155.36H10.084V176c0,2.613,1.794,4.754,3.981,4.754H38.619a1.34,1.34,0,0,1-1.336-1.336v-1.953a1.34,1.34,0,0,1,1.336-1.336h1.236a10.344,10.344,0,0,1,1.312-3.183l-.879-.881a1.337,1.337,0,0,1,0-1.89l1.379-1.378a1.339,1.339,0,0,1,1.891,0l.87.866a10.394,10.394,0,0,1,3.2-1.341v-1.233a1.341,1.341,0,0,1,1.336-1.339h1.951a1.343,1.343,0,0,1,1.339,1.339v1.214a10.338,10.338,0,0,1,3.248,1.339l.876-.872a1.339,1.339,0,0,1,1.891,0l.506.506V155.36Z" transform="translate(-10.084 -141.109)" fill="#fff" fill-rule="evenodd"/>
      </g>
      <path id="Trazado_1038920" data-name="Trazado 1038920" d="M63.35,55.271a3.616,3.616,0,1,0,3.62,3.616A3.621,3.621,0,0,0,63.35,55.271Zm0,5.075a1.459,1.459,0,1,1,1.464-1.459A1.462,1.462,0,0,1,63.35,60.346Z" transform="translate(-53.346 -38.648)"/>
      <path id="Trazado_1038921" data-name="Trazado 1038921" d="M279.285,55.271h-9.562a3.616,3.616,0,1,0,0,7.232h9.562a3.616,3.616,0,1,0,0-7.232Zm0,5.075h-9.562a1.459,1.459,0,1,1,0-2.919h9.562a1.459,1.459,0,1,1,0,2.919Z" transform="translate(-237.651 -38.648)"/>
      <path id="Trazado_1038922" data-name="Trazado 1038922" d="M151.022,55.271a3.616,3.616,0,1,0,3.62,3.616A3.621,3.621,0,0,0,151.022,55.271Zm0,5.075a1.459,1.459,0,1,1,1.464-1.459A1.462,1.462,0,0,1,151.022,60.346Z" transform="translate(-131.643 -38.648)"/>
      <path id="Trazado_1038923" data-name="Trazado 1038923" d="M135.824,222.195a1.078,1.078,0,0,0-1.3.8l-2.139,8.952a1.078,1.078,0,1,0,2.1.5l2.139-8.952A1.078,1.078,0,0,0,135.824,222.195Z" transform="translate(-118.203 -187.696)"/>
      <path id="Trazado_1038924" data-name="Trazado 1038924" d="M198.8,238.947a1.078,1.078,0,0,0,1.523-.088l3.024-3.394a1.5,1.5,0,0,0,0-1.977l-3.027-3.4a1.078,1.078,0,1,0-1.61,1.434l2.628,2.95-2.628,2.95A1.078,1.078,0,0,0,198.8,238.947Z" transform="translate(-177.219 -194.452)"/>
      <path id="Trazado_1038925" data-name="Trazado 1038925" d="M61.976,230a1.078,1.078,0,0,0-1.522.088l-3.023,3.394a1.5,1.5,0,0,0,0,1.977l3.027,3.4a1.078,1.078,0,1,0,1.611-1.434l-2.628-2.95,2.628-2.95A1.078,1.078,0,0,0,61.976,230Z" transform="translate(-50.954 -194.453)"/>
      <path id="Trazado_1038926" data-name="Trazado 1038926" d="M52.329,47.018h-.4a11.353,11.353,0,0,0-.813-1.961l.286-.287a2.416,2.416,0,0,0,0-3.417l-.557-.556V17.829c0-3.216-2.27-5.833-5.06-5.833H5.06C2.27,12,0,14.612,0,17.829V47.966C0,51.182,2.27,53.8,5.06,53.8h6.326a1.078,1.078,0,1,0,0-2.156H5.06c-1.574,0-2.9-1.684-2.9-3.676V28.4H48.69V39.3a2.452,2.452,0,0,0-.374-.031h0a2.39,2.39,0,0,0-1.7.7l-.291.29a11.384,11.384,0,0,0-1.993-.823v-.384a2.42,2.42,0,0,0-2.417-2.417H39.958a2.418,2.418,0,0,0-2.414,2.417v.41a11.446,11.446,0,0,0-1.947.815L35.317,40a2.394,2.394,0,0,0-1.705-.708h0A2.4,2.4,0,0,0,31.9,40L30.521,41.38a2.416,2.416,0,0,0,0,3.414l.3.3a11.387,11.387,0,0,0-.794,1.926h-.41A2.417,2.417,0,0,0,27.2,49.432v1.953a2.43,2.43,0,0,0,.014.257H20.939a1.078,1.078,0,1,0,0,2.156h9.088a11.32,11.32,0,0,0,.807,1.941l-.291.29a2.42,2.42,0,0,0,0,3.413l1.379,1.379a2.394,2.394,0,0,0,1.705.708h0a2.4,2.4,0,0,0,1.709-.706l.289-.289a11.392,11.392,0,0,0,1.949.808v.417a2.418,2.418,0,0,0,2.414,2.417h1.954a2.418,2.418,0,0,0,2.414-2.417v-.415a11.363,11.363,0,0,0,1.957-.81l.288.286a2.393,2.393,0,0,0,1.705.709h0a2.4,2.4,0,0,0,1.71-.707L51.4,59.445a2.416,2.416,0,0,0,0-3.417l-.288-.288a11.386,11.386,0,0,0,.806-1.941h.407a2.418,2.418,0,0,0,2.417-2.414V49.432a2.418,2.418,0,0,0-2.417-2.414ZM2.157,26.247V17.829c0-1.993,1.329-3.676,2.9-3.676H45.787c1.574,0,2.9,1.684,2.9,3.676v8.419H2.157ZM52.59,51.385a.266.266,0,0,1-.261.257H51.1a1.078,1.078,0,0,0-1.051.837,9.256,9.256,0,0,1-1.189,2.865,1.078,1.078,0,0,0,.151,1.337l.873.872a.259.259,0,0,1,.075.184.25.25,0,0,1-.076.181L48.5,59.3a.26.26,0,0,1-.184.075h0a.251.251,0,0,1-.183-.076l-.876-.872a1.079,1.079,0,0,0-1.335-.149,9.239,9.239,0,0,1-2.877,1.191,1.079,1.079,0,0,0-.839,1.052V61.76a.266.266,0,0,1-.258.26H39.994a.266.266,0,0,1-.258-.26V60.516a1.078,1.078,0,0,0-.84-1.052,9.252,9.252,0,0,1-2.872-1.189,1.078,1.078,0,0,0-1.334.151l-.872.872a.26.26,0,0,1-.184.075h0a.25.25,0,0,1-.182-.075L32.07,57.918a.265.265,0,0,1,0-.363l.876-.872a1.078,1.078,0,0,0,.151-1.34A9.191,9.191,0,0,1,31.9,52.48a1.078,1.078,0,0,0-1.051-.838H29.614a.261.261,0,0,1-.258-.257V49.432a.261.261,0,0,1,.258-.257H30.85a1.079,1.079,0,0,0,1.052-.839,9.25,9.25,0,0,1,1.175-2.851,1.078,1.078,0,0,0-.151-1.332l-.882-.885a.247.247,0,0,1-.073-.178.258.258,0,0,1,.075-.184l1.378-1.378a.26.26,0,0,1,.184-.075h0a.252.252,0,0,1,.183.076l.87.866A1.078,1.078,0,0,0,36,42.542a9.3,9.3,0,0,1,2.868-1.2,1.078,1.078,0,0,0,.832-1.05V39.057a.263.263,0,0,1,.258-.26h1.951a.264.264,0,0,1,.261.26v1.214a1.078,1.078,0,0,0,.844,1.052,9.245,9.245,0,0,1,2.909,1.2,1.079,1.079,0,0,0,1.334-.149l.879-.876a.249.249,0,0,1,.179-.073h0a.259.259,0,0,1,.184.075l1.379,1.378a.259.259,0,0,1,.075.184.251.251,0,0,1-.076.182L49,44.119a1.078,1.078,0,0,0-.148,1.337,9.23,9.23,0,0,1,1.194,2.88,1.078,1.078,0,0,0,1.051.839h1.227a.266.266,0,0,1,.261.257Z" transform="translate(0)"/>
      <path id="Trazado_1038927" data-name="Trazado 1038927" d="M328.149,309.652a6.585,6.585,0,1,0,6.587,6.587A6.6,6.6,0,0,0,328.149,309.652Zm0,11.014a4.429,4.429,0,1,1,4.43-4.427A4.435,4.435,0,0,1,328.149,320.666Z" transform="translate(-287.176 -265.829)"/>
      <path id="Trazado_1038928" data-name="Trazado 1038928" d="M142.271,382.778h-.021a1.078,1.078,0,0,0,0,2.157h.021a1.078,1.078,0,0,0,0-2.157Z" transform="translate(-126.077 -331.136)"/>
    </g>
  </g>
</svg>
