<svg xmlns="http://www.w3.org/2000/svg" xmlns:xlink="http://www.w3.org/1999/xlink" width="110.186" height="110.186" viewBox="0 0 110.186 110.186">
  <defs>
    <filter id="Trazado_982547" x="0" y="0" width="110.186" height="110.186" filterUnits="userSpaceOnUse">
      <feOffset dy="3" input="SourceAlpha"/>
      <feGaussianBlur stdDeviation="3" result="blur"/>
      <feFlood flood-opacity="0.161"/>
      <feComposite operator="in" in2="blur"/>
      <feComposite in="SourceGraphic"/>
    </filter>
  </defs>
  <g id="Grupo_1179657" data-name="Grupo 1179657" transform="translate(-325 -684)">
    <g id="Grupo_1174876" data-name="Grupo 1174876" transform="translate(334 690)">
      <g id="Grupo_1173554" data-name="Grupo 1173554">
        <g id="Grupo_1172017" data-name="Grupo 1172017" transform="translate(0)">
          <g id="Grupo_1167337" data-name="Grupo 1167337" transform="translate(0)">
            <g id="Grupo_1166720" data-name="Grupo 1166720">
              <g id="Grupo_1164305" data-name="Grupo 1164305">
                <g id="Grupo_1163948" data-name="Grupo 1163948">
                  <g id="Grupo_1158168" data-name="Grupo 1158168">
                    <g id="Grupo_1152576" data-name="Grupo 1152576">
                      <g id="Grupo_1148633" data-name="Grupo 1148633">
                        <g id="Grupo_1148525" data-name="Grupo 1148525">
                          <g transform="matrix(1, 0, 0, 1, -9, -6)" filter="url(#Trazado_982547)">
                            <g id="Trazado_982547-2" data-name="Trazado 982547" transform="translate(9 6)" fill="#e8edf7">
                              <path d="M 46.09305953979492 90.68612670898438 C 40.07238006591797 90.68612670898438 34.23257827758789 89.50730133056641 28.73588562011719 87.18239593505859 C 23.42596626281738 84.93648529052734 18.65684700012207 81.72095489501953 14.56100654602051 77.62511444091797 C 10.46517944335938 73.52928924560547 7.249646186828613 68.76016998291016 5.003739356994629 63.45023345947266 C 2.678832769393921 57.95354080200195 1.500006198883057 52.11373901367188 1.500006198883057 46.09305953979492 C 1.500006198883057 40.07238006591797 2.678832769393921 34.23257827758789 5.003739356994629 28.73588562011719 C 7.249646186828613 23.42595291137695 10.46517944335938 18.65684700012207 14.56100654602051 14.56100654602051 C 18.65684700012207 10.46517944335938 23.42595291137695 7.249646186828613 28.73588562011719 5.003739356994629 C 34.23257827758789 2.678832769393921 40.07238006591797 1.500006198883057 46.09305953979492 1.500006198883057 C 52.11373901367188 1.500006198883057 57.95354080200195 2.678832769393921 63.45023345947266 5.003739356994629 C 68.76016998291016 7.249646186828613 73.52928924560547 10.46517944335938 77.62511444091797 14.56100654602051 C 81.72095489501953 18.65684700012207 84.93648529052734 23.42596626281738 87.18239593505859 28.73588562011719 C 89.50730133056641 34.23257827758789 90.68612670898438 40.07238006591797 90.68612670898438 46.09305953979492 C 90.68612670898438 52.11373901367188 89.50730133056641 57.95354080200195 87.18239593505859 63.45023345947266 C 84.93648529052734 68.76016998291016 81.72095489501953 73.52928924560547 77.62511444091797 77.62511444091797 C 73.52928924560547 81.72095489501953 68.76016998291016 84.93648529052734 63.45023345947266 87.18239593505859 C 57.95354080200195 89.50730133056641 52.11373901367188 90.68612670898438 46.09305953979492 90.68612670898438 Z" stroke="none"/>
                              <path d="M 46.09305953979492 3 C 40.27421569824219 3 34.63101577758789 4.138961791992188 29.32021713256836 6.385231018066406 C 24.1890869140625 8.555519104003906 19.58021545410156 11.66310119628906 15.62165832519531 15.62165832519531 C 11.66310119628906 19.58021545410156 8.555519104003906 24.1890869140625 6.385231018066406 29.32021713256836 C 4.138961791992188 34.63101577758789 3 40.27421569824219 3 46.09305953979492 C 3 51.91190338134766 4.138961791992188 57.55510330200195 6.385231018066406 62.86590194702148 C 8.555519104003906 67.99703216552734 11.66310119628906 72.60588836669922 15.62165832519531 76.56444549560547 C 19.58021545410156 80.52301788330078 24.1890869140625 83.63058471679688 29.32021713256836 85.80088806152344 C 34.63101577758789 88.04715728759766 40.27421569824219 89.18611907958984 46.09305953979492 89.18611907958984 C 51.91190338134766 89.18611907958984 57.55510330200195 88.04715728759766 62.86590194702148 85.80088806152344 C 67.99703216552734 83.63058471679688 72.60588836669922 80.52301788330078 76.56444549560547 76.56444549560547 C 80.52301788330078 72.60588836669922 83.63058471679688 67.99703216552734 85.80088806152344 62.86590194702148 C 88.04715728759766 57.55510330200195 89.18611907958984 51.91190338134766 89.18611907958984 46.09305953979492 C 89.18611907958984 40.27421569824219 88.04715728759766 34.63101577758789 85.80088806152344 29.32021713256836 C 83.63058471679688 24.1890869140625 80.52301788330078 19.58021545410156 76.56444549560547 15.62165832519531 C 72.60588836669922 11.66310119628906 67.99703216552734 8.555519104003906 62.86590194702148 6.385231018066406 C 57.55510330200195 4.138961791992188 51.91190338134766 3 46.09305953979492 3 M 46.09305953979492 0 C 71.54954528808594 0 92.18611907958984 20.63655853271484 92.18611907958984 46.09305953979492 C 92.18611907958984 71.54954528808594 71.54954528808594 92.18611907958984 46.09305953979492 92.18611907958984 C 20.63655853271484 92.18611907958984 0 71.54954528808594 0 46.09305953979492 C 0 20.63655853271484 20.63655853271484 0 46.09305953979492 0 Z" stroke="none" fill="#2e5bb6"/>
                            </g>
                          </g>
                        </g>
                      </g>
                    </g>
                  </g>
                </g>
              </g>
            </g>
          </g>
        </g>
      </g>
    </g>
    <g id="asset-utilization" transform="translate(344.911 696.348)">
      <path id="Trazado_1038841" data-name="Trazado 1038841" d="M85.68,63.1l.746,2.847,3.412.914,2.073-2.1a.8.8,0,0,1,.982-.132L96.988,67a.8.8,0,0,1,.376.916l-.777,2.839,2.5,2.5,2.839-.777a.8.8,0,0,1,.916.376l2.369,4.095a.8.8,0,0,1-.132.982L102.98,80l.914,3.412,2.847.746a.8.8,0,0,1,.605.784v4.732a.8.8,0,0,1-.605.784l-2.847.746-.914,3.412,2.1,2.073a.8.8,0,0,1,.132.982l-2.369,4.095a.8.8,0,0,1-.916.376l-2.839-.777-2.5,2.5.777,2.839a.8.8,0,0,1-.376.916l-4.095,2.369a.8.8,0,0,1-.982-.132l-2.073-2.1-3.412.914-.746,2.847a.8.8,0,0,1-.784.605H80.164a.8.8,0,0,1-.784-.605l-.746-2.847-3.412-.914-2.073,2.1a.8.8,0,0,1-.982.132l-4.095-2.369a.8.8,0,0,1-.376-.916l.777-2.839-2.5-2.5-2.839.777a.8.8,0,0,1-.916-.376l-2.369-4.095a.8.8,0,0,1,.132-.982l2.1-2.073-.914-3.412-2.847-.746a.8.8,0,0,1-.605-.784V84.944a.8.8,0,0,1,.605-.784l2.847-.746L62.079,80l-2.1-2.073a.8.8,0,0,1-.132-.982l2.369-4.095a.8.8,0,0,1,.916-.376l2.839.777,2.5-2.5L67.7,67.916A.8.8,0,0,1,68.072,67l4.095-2.369a.8.8,0,0,1,.982.132l2.073,2.1,3.412-.914L79.38,63.1a.8.8,0,0,1,.784-.605H84.9a.8.8,0,0,1,.784.605Z" transform="translate(-47.692 -47.807)" fill="#9b827a" fill-rule="evenodd"/>
      <path id="Trazado_1038842" data-name="Trazado 1038842" d="M91.8,64.879l3.949,2.284a.8.8,0,0,1,.376.916l-.8,2.933,2.568,2.568,3.263-.894a.39.39,0,0,1,.164.164l2.369,4.095a.8.8,0,0,1-.132.982L101.454,80l.914,3.412,2.847.746a.8.8,0,0,1,.605.784v4.732a.8.8,0,0,1-.605.784l-2.847.746-.914,3.412,2.1,2.073a.8.8,0,0,1,.132.982l-2.369,4.095a.389.389,0,0,1-.164.164l-3.263-.894-2.568,2.568.8,2.933a.8.8,0,0,1-.376.916L91.8,109.738l-2.553-2.581L85.335,108.2l-.869,3.316a.8.8,0,0,1-.781.6H80.164a.8.8,0,0,1-.784-.605l-.746-2.847-4.279-1.146L72.011,109.9l-3.939-2.279a.8.8,0,0,1-.376-.916l.777-2.839-2.5-2.5-2.839.777a.8.8,0,0,1-.916-.376l-2.369-4.095a.8.8,0,0,1,.132-.982l2.1-2.073-.914-3.412-2.847-.746a.8.8,0,0,1-.605-.784V84.943a.8.8,0,0,1,.605-.784l2.847-.746L62.079,80l-2.1-2.073a.8.8,0,0,1-.132-.982l2.369-4.095a.8.8,0,0,1,.916-.376l2.839.777,2.5-2.5L67.7,67.916A.8.8,0,0,1,68.072,67l3.939-2.279,2.344,2.369,4.279-1.146L79.38,63.1a.8.8,0,0,1,.784-.605h3.517a.8.8,0,0,1,.784.605l.869,3.316,3.907,1.047L91.8,64.879Z" transform="translate(-47.692 -47.807)" fill="#c2a9a1" fill-rule="evenodd"/>
      <circle id="Elipse_12344" data-name="Elipse 12344" cx="16.822" cy="16.822" r="16.822" transform="translate(17.202 22.681)" fill="#9b827a"/>
      <circle id="Elipse_12345" data-name="Elipse 12345" cx="16.531" cy="16.531" r="16.531" transform="translate(18.307 22.972)" fill="#fff"/>
      <g id="Grupo_1179656" data-name="Grupo 1179656" transform="translate(24.401 32.452)">
        <path id="Trazado_1038843" data-name="Trazado 1038843" d="M169.83,286.473h4.784V298.1a16.507,16.507,0,0,1-4.784-2.72Z" transform="translate(-169.83 -275.514)" fill="#ff6b84" fill-rule="evenodd"/>
        <path id="Trazado_1038844" data-name="Trazado 1038844" d="M197.915,286.473H199.1V298.1q-.6-.219-1.182-.483Z" transform="translate(-194.313 -275.514)" fill="#ff5471" fill-rule="evenodd"/>
        <path id="Trazado_1038845" data-name="Trazado 1038845" d="M232.562,243.748h4.784v17.928a16.636,16.636,0,0,1-4.784,0Z" transform="translate(-224.516 -238.268)" fill="#ffeb87" fill-rule="evenodd"/>
        <path id="Trazado_1038846" data-name="Trazado 1038846" d="M260.646,243.747h1.182v17.928q-.585.085-1.182.129V243.747Z" transform="translate(-248.999 -238.267)" fill="#fcdb35" fill-rule="evenodd"/>
        <path id="Trazado_1038847" data-name="Trazado 1038847" d="M295.294,201.022h4.784V220.89a16.509,16.509,0,0,1-4.784,2.72Z" transform="translate(-279.203 -201.022)" fill="#85caff" fill-rule="evenodd"/>
        <path id="Trazado_1038848" data-name="Trazado 1038848" d="M323.378,201.022h1.182V220.89q-.57.465-1.182.879Z" transform="translate(-303.685 -201.022)" fill="#4eb1fc" fill-rule="evenodd"/>
      </g>
      <circle id="Elipse_12346" data-name="Elipse 12346" cx="9.491" cy="9.491" r="9.491" transform="translate(46.001 46.66) rotate(-77.173)" fill="#ffe259"/>
      <path id="Trazado_1038849" data-name="Trazado 1038849" d="M372.89,201.134a9.491,9.491,0,1,1,8.762-9.463A9.491,9.491,0,0,1,372.89,201.134Z" transform="translate(-314.808 -152.169)" fill="#ffeb87" fill-rule="evenodd"/>
      <path id="Trazado_1038850" data-name="Trazado 1038850" d="M38.521,28.419a1.024,1.024,0,0,0-.68-.492L34,27.13a1.026,1.026,0,1,0-.417,2.009l1.208.25L21.842,36.865a1.026,1.026,0,1,0,1.026,1.777l12.947-7.475-.386,1.172a1.026,1.026,0,0,0,1.948.643l1.23-3.728a1.02,1.02,0,0,0-.086-.834ZM59.906,39.266a8.221,8.221,0,0,0-2.369-.835c-.263-.063-.512-.122-.758-.191a2.138,2.138,0,0,1-1.334-.747.677.677,0,0,1,.134-.866,2.9,2.9,0,0,1,2.276-.508,2.021,2.021,0,0,1,1.512.77,1.026,1.026,0,0,0,1.807-.973,3.83,3.83,0,0,0-2.794-1.791v-.9a1.026,1.026,0,1,0-2.052,0v.894A4.07,4.07,0,0,0,54.1,35.205,2.7,2.7,0,0,0,53.7,38.58a4.084,4.084,0,0,0,2.523,1.637c.284.079.565.146.834.21a6.612,6.612,0,0,1,1.806.608c.576.338.592.629.561.874a.966.966,0,0,1-.548.736c-1.167.581-3.262.221-3.734-.643a1.026,1.026,0,0,0-1.8.985,4.173,4.173,0,0,0,2.982,1.885v.91a1.026,1.026,0,1,0,2.052,0v-.869a4.794,4.794,0,0,0,1.415-.43,3.013,3.013,0,0,0,1.671-2.325,2.857,2.857,0,0,0-1.561-2.891Zm5.942.237a8.493,8.493,0,1,1-8.493-8.494A8.5,8.5,0,0,1,65.848,39.5Zm2.052,0A10.545,10.545,0,1,1,57.354,28.958,10.557,10.557,0,0,1,67.9,39.5ZM4.3,35.154a.984.984,0,0,0,.179.016,1.028,1.028,0,0,0,1.009-.849,29.594,29.594,0,0,1,.759-3.25,1.026,1.026,0,1,0-1.968-.579,31.44,31.44,0,0,0-.812,3.475A1.024,1.024,0,0,0,4.3,35.154ZM61.136,55.733a1.026,1.026,0,0,0-.894-.164l-5.083,1.443a1.026,1.026,0,0,0,.561,1.974l2.192-.623a29.8,29.8,0,0,1-43.031,3.267,1.026,1.026,0,1,0-1.375,1.524,31.853,31.853,0,0,0,46.027-3.532l.028,2.368A1.027,1.027,0,0,0,60.587,63H60.6a1.025,1.025,0,0,0,1.013-1.038l-.064-5.423a1.028,1.028,0,0,0-.413-.81ZM5.617,45.367a30.076,30.076,0,0,1-.561-4.879,1.026,1.026,0,1,0-2.05.067,31.907,31.907,0,0,0,.6,5.214,1.026,1.026,0,0,0,2.012-.4Zm1.95,6.164a1.026,1.026,0,0,0-1.877.829,31.9,31.9,0,0,0,3.4,5.893,1.026,1.026,0,0,0,1.658-1.209,29.878,29.878,0,0,1-3.18-5.513ZM62.111,27.475a1.026,1.026,0,1,0,1.877-.829,31.842,31.842,0,0,0-3.4-5.892,1.026,1.026,0,0,0-1.658,1.209A29.811,29.811,0,0,1,62.111,27.475Zm-53.569-4.2a1.024,1.024,0,0,0,.893.165l5.084-1.444a1.026,1.026,0,1,0-.561-1.974l-2.192.623A29.8,29.8,0,0,1,54.8,17.375a1.026,1.026,0,1,0,1.375-1.523,31.855,31.855,0,0,0-46.029,3.531l-.027-2.367A1.028,1.028,0,0,0,9.092,16H9.079A1.025,1.025,0,0,0,8.066,17.04l.064,5.423a1.026,1.026,0,0,0,.412.809ZM45.277,49.884A1.027,1.027,0,0,0,46.3,48.859V32.453a1.027,1.027,0,0,0-1.027-1.026H40.493a1.026,1.026,0,0,0-1.026,1.026V51.578a1.026,1.026,0,1,0,2.052,0v-18.1h2.732v15.38a1.026,1.026,0,0,0,1.025,1.026Zm-8.046,3.539A1.026,1.026,0,0,1,36.2,52.4V38.959H33.473V52.4a1.026,1.026,0,0,1-2.052,0V37.933a1.027,1.027,0,0,1,1.027-1.026h4.784a1.026,1.026,0,0,1,1.026,1.026V52.4A1.026,1.026,0,0,1,37.231,53.424ZM29.185,52.6a1.026,1.026,0,0,0,1.026-1.027V43.413a1.026,1.026,0,0,0-1.026-1.026H24.4a1.026,1.026,0,0,0-1.027,1.026v5.446a1.026,1.026,0,0,0,2.052,0V44.438H28.16v7.14A1.026,1.026,0,0,0,29.185,52.6ZM49.229,31.3A1.026,1.026,0,0,1,47.808,31a15.5,15.5,0,1,0,0,17,1.026,1.026,0,1,1,1.715,1.127,17.557,17.557,0,1,1,0-19.256,1.026,1.026,0,0,1-.294,1.421Zm-35.6,23.189-2.371-4.1a1.838,1.838,0,0,1,.3-2.226l1.672-1.655-.605-2.263-2.273-.6A1.837,1.837,0,0,1,8.979,41.87V37.136a1.837,1.837,0,0,1,1.371-1.777l2.273-.6.605-2.262-1.672-1.655a1.838,1.838,0,0,1-.3-2.226l2.371-4.1a1.838,1.838,0,0,1,2.076-.852l2.266.62,1.656-1.657L19,20.367a1.84,1.84,0,0,1,.853-2.076l4.1-2.37a1.839,1.839,0,0,1,2.227.3l1.654,1.673,2.262-.606.6-2.272a1.839,1.839,0,0,1,1.777-1.372h4.735a1.838,1.838,0,0,1,1.777,1.372l.6,2.272,2.263.607L43.5,16.219a1.837,1.837,0,0,1,2.226-.3l4.1,2.37a1.837,1.837,0,0,1,.851,2.076l-.619,2.266,1.655,1.657,2.266-.62a1.836,1.836,0,0,1,2.075.852l1.131,1.955A1.025,1.025,0,1,1,55.407,27.5l-1.049-1.812-2.682.734a1.025,1.025,0,0,1-1-.264l-2.5-2.5a1.024,1.024,0,0,1-.265-1l.734-2.682-3.811-2.2-1.958,1.979a1.025,1.025,0,0,1-.995.27l-3.415-.915a1.028,1.028,0,0,1-.725-.731l-.706-2.689h-4.4l-.706,2.689a1.028,1.028,0,0,1-.727.731l-3.414.915a1.022,1.022,0,0,1-.994-.27l-1.958-1.979-3.81,2.2.733,2.682a1.025,1.025,0,0,1-.264,1l-2.5,2.5a1.025,1.025,0,0,1-1,.264l-2.681-.734-2.2,3.811L15.1,31.46a1.026,1.026,0,0,1,.27.995l-.915,3.414a1.025,1.025,0,0,1-.731.727l-2.689.7v4.4l2.689.7a1.026,1.026,0,0,1,.731.727l.915,3.415a1.026,1.026,0,0,1-.27.995L13.117,49.5l2.2,3.811L18,52.58a1.028,1.028,0,0,1,1,.264l2.5,2.5a1.027,1.027,0,0,1,.264,1l-.733,2.681,3.81,2.2L26.8,59.246a1.023,1.023,0,0,1,.994-.269l3.414.915a1.026,1.026,0,0,1,.727.731l.706,2.689h4.4l.706-2.689a1.025,1.025,0,0,1,.725-.731l3.416-.915a1.023,1.023,0,0,1,.994.269l1.958,1.979,3.811-2.2-.734-2.681a1.026,1.026,0,0,1,.265-1l2.5-2.5a1.029,1.029,0,0,1,1-.264l2.681.735L55.407,51.5a1.025,1.025,0,1,1,1.775,1.027L56.05,54.485a1.837,1.837,0,0,1-2.075.852l-2.266-.62-1.655,1.656.619,2.266a1.838,1.838,0,0,1-.851,2.076l-4.1,2.37a1.838,1.838,0,0,1-2.226-.3l-1.655-1.673-2.263.606-.6,2.272a1.839,1.839,0,0,1-1.777,1.372H32.471a1.839,1.839,0,0,1-1.777-1.372l-.6-2.272-2.262-.606-1.654,1.673a1.839,1.839,0,0,1-2.227.3l-4.1-2.37A1.84,1.84,0,0,1,19,58.64l.621-2.267-1.656-1.656-2.266.62a1.838,1.838,0,0,1-2.076-.852Z" transform="translate(0)" fill-rule="evenodd"/>
    </g>
  </g>
</svg>
