<svg xmlns="http://www.w3.org/2000/svg" xmlns:xlink="http://www.w3.org/1999/xlink" width="295" height="349" viewBox="0 0 295 349">
  <defs>
    <clipPath id="clip-path">
      <rect id="Rect치ngulo_415480" data-name="Rect치ngulo 415480" width="295" height="349" transform="translate(180 1037.852)" fill="#fff" stroke="#707070" stroke-width="1" opacity="0.6"/>
    </clipPath>
    <clipPath id="clip-path-2">
      <rect id="Rect치ngulo_415482" data-name="Rect치ngulo 415482" width="445" height="444" transform="translate(-0.362 0.207)"/>
    </clipPath>
    <clipPath id="clip-path-4">
      <path id="Trazado_1037964" data-name="Trazado 1037964" d="M96.172,261.378c.111-2.778-3.08-8.905-1.48-12.693,1.047-2.477,5.105-3.525,7.31-11.281,1.265-4.452.141-10,2.5-14.033,1.962-3.353,3.518-5.55,5.415-9.475.455-.942,1.182-3.729.162-4.549-2.315-1.86-4.69,1.829-6.956,5.289-1.975,3.017-4.566,6.807-4.534,6.737,2.56-5.541,5.866-11.848,6.845-16.748.431-2.154,1.818-6.573-1.24-7.588-2.985-.989-4.955,6.8-5.712,9.505a55.179,55.179,0,0,1-5.89,12.49c.717-1.941,2.174-6.825,3.676-11.725,1.567-5.116,2.713-15.223-.465-15.854-1.932-.383-4.138,2.812-4.4,6.079a56.566,56.566,0,0,1-5.33,18.84c.945-5.73,1.449-6.238,2.405-12.9.589-4.1,1.642-14.051-3.325-11.494-2.05,1.055-1.948,8.1-3.065,12.1-1.257,4.509-3.178,8.938-4.48,14.948-.332,1.535-3.153,5.32-4.617,1.328-.511-1.395-.553-5.882-.347-8.227.418-4.754-2.817-5.814-4.394-4.268-2.581,2.528-2.42,13.99-1.305,18.786.627,2.7,1.259,6.707,3.732,10.473,2.487,3.788,5.869,4.269,5.372,8.137l-4.977,10.85Z" transform="translate(-66.182 -191.423)"/>
    </clipPath>
    <clipPath id="clip-path-17">
      <path id="Trazado_1037991" data-name="Trazado 1037991" d="M287.984,475.483c1.911-11.36.044-27.617-1.43-41.319-1.509-14.02-7.538-38.953-7.622-42.8-.05-2.313,34.715,3.812,49.872-13.146,21-23.494,27.6-71.089,29.631-89.546.869-7.886.97-23.608.97-23.608s-14.811-4.825-24.814-6.873c-8.3-1.7-20.035-2.628-20.035-2.628s-5.04,16.65-6.036,21.988c-2.107,11.291-13.454,46.449-24.027,49.435-13.359,3.772-36.31-11.908-51.329-14.607a134.813,134.813,0,0,0-25.542-1.621c-33.768.622-54.234,5.843-77.344,31.254-23.645,26-34.953,58.335-49.4,92.118C77.9,441.1,68.845,471.46,73.993,478.755c2.782,3.941,6.272,1.071,10.3,1.642C94.267,481.808,278.131,473.441,287.984,475.483Z" transform="translate(-72.44 -255.56)" fill="#a4f1d6"/>
    </clipPath>
    <clipPath id="clip-path-18">
      <path id="Trazado_1037996" data-name="Trazado 1037996" d="M258.231,201.425c-36.948,8.682-39.736,26.523-35.548,51.909s27.939,44.792,51.2,41.692c24.852-3.312,38.506-30.495,34.319-55.881S296.792,192.363,258.231,201.425Z" transform="translate(-221.219 -199.306)"/>
    </clipPath>
  </defs>
  <g id="Enmascarar_grupo_1098798" data-name="Enmascarar grupo 1098798" transform="translate(-180 -1037.852)" clip-path="url(#clip-path)">
    <g id="OBJECTS" transform="translate(90.362 942.645)">
      <g id="Grupo_1178743" data-name="Grupo 1178743" transform="translate(0 0)">
        <g id="Grupo_1178722" data-name="Grupo 1178722" transform="translate(0 0)" clip-path="url(#clip-path-2)">
          <g id="Grupo_1178718" data-name="Grupo 1178718" transform="translate(240.751 365.269)">
            <path id="Trazado_1037954" data-name="Trazado 1037954" d="M9.836,463.523a101.141,101.141,0,0,1,24.789-6.81c7.73-1.047,16.609-1.1,23.52-5.219,3.176-1.891,6.941-5.428,6.683-9.473-.3-4.663-4.933-6.682-.589-11.279,3.795-4.016,10.262-5.21,15.336-6.729,7.79-2.332,16.347-5.04,22.963-9.919,1.677-1.236,4.354-3.017,4.013-5.47-.473-3.4-5.688-4.047-2.11-7.951,2.092-2.283,5.439-3.468,8.271-4.5,9.221-3.349,25.441-6.589,25.9-18.967A12.707,12.707,0,0,0,137,369.816c-3-4.643-8.752-1.19-12.175,1.12-5.883,3.969-18.323,13.337-25.792,12.089-5.033-.842.659-12.346-7.818-12.385-4.864-.021-8.207,4.663-10.183,8.531-3.824,7.482-5.85,18.3-13.1,23.476-3.435,2.45-4.457-2.338-6.018-4.42-2.186-2.915-6.078-3.318-9.194-1.694-9.245,4.816-11.96,21.531-17.9,29.865-4.433,6.221-7.808-4.163-13.284.834-3.365,3.072-4.535,8.331-5.508,12.592C14.232,447.711,12.175,455.761,9.836,463.523Z" transform="translate(5.311 -367.518)" fill="#c2dbd5" fill-rule="evenodd"/>
            <path id="Trazado_1037955" data-name="Trazado 1037955" d="M65.516,492.741c28.393-32.648,66.391-70.076,106.885-87.534a.165.165,0,0,1,.13.3c-40.451,17.439-78.4,54.834-106.767,87.447a.165.165,0,0,1-.233.016A.167.167,0,0,1,65.516,492.741Z" transform="translate(-65.475 -380.286)" fill="#4e212d" fill-rule="evenodd"/>
          </g>
          <g id="Grupo_1178719" data-name="Grupo 1178719" transform="translate(98.092 233.827)">
            <path id="Trazado_1037956" data-name="Trazado 1037956" d="M357.311,419.918a81.81,81.81,0,0,0-17.274-11.579c-5.662-2.785-12.46-5.105-16.707-10.033-1.952-2.264-3.934-5.944-2.7-8.981,1.423-3.5,5.5-3.862,3.342-8.5-1.881-4.054-6.537-6.627-10.041-9.094-5.379-3.786-11.25-8.057-15.075-13.5-.97-1.379-2.567-3.431-1.677-5.225,1.236-2.491,5.4-1.647,3.657-5.56-1.02-2.287-3.284-4.055-5.193-5.57-6.215-4.932-17.83-11.577-15.01-21.192a10.279,10.279,0,0,1,3.129-5.26c3.494-2.793,7.02,1.331,9.054,3.98,3.5,4.554,10.64,14.929,16.689,15.886,4.077.645,2.66-9.641,9.172-7.5,3.737,1.23,5.1,5.682,5.627,9.156,1.016,6.721-.2,15.543,4.033,21.369,2.008,2.761,4.02-.651,5.751-1.848a5.79,5.79,0,0,1,7.488,1.057c5.859,6.065,3.657,19.585,6.077,27.5,1.806,5.909,7.058-1.193,9.978,4.045,1.8,3.219,1.344,7.554,1,11.073C357.992,406.66,357.506,413.363,357.311,419.918Z" transform="translate(-280.199 -314.494)" fill="#f1d6c7" fill-rule="evenodd"/>
            <path id="Trazado_1037957" data-name="Trazado 1037957" d="M329.243,460.183c-13.415-32.327-32.975-70.783-59.568-94.556a.134.134,0,0,0-.178.2c26.565,23.748,46.1,62.167,59.5,94.46a.134.134,0,0,0,.247-.1Z" transform="translate(-244.758 -338.266)" fill="#4e212d" fill-rule="evenodd"/>
          </g>
          <g id="Grupo_1178720" data-name="Grupo 1178720" transform="translate(89.638 307.416)">
            <path id="Trazado_1037958" data-name="Trazado 1037958" d="M346.384,408.69a43.674,43.674,0,0,0-4.9-3.866,114.269,114.269,0,0,0-16.311-9.77c-3.131-1.554-7.089-3.648-10.72-3.191-1.616.2-4.792,1.786-4.689,3.813a6.09,6.09,0,0,0,1.327,3.082c2.582,3.591,7,5.821,11.193,6.855,2.012.5,4.062.692,6.1,1.038a78.931,78.931,0,0,0,8.034,1.263c3.269.216,6.792-.222,9.97.775a.576.576,0,0,0,.458.155Q346.614,408.763,346.384,408.69Zm13.515,7.062c.736-2.533-.418-5.649-1.247-8.035-2.113-6.088-4.742-12.562-8.7-17.715a19.245,19.245,0,0,0-5.071-4.988,3.25,3.25,0,0,0-2.375-.633c-1.007.3-1.268,1.677-1.3,2.565-.087,2.34,1.019,4.8,1.849,6.931,3.373,8.65,10.292,14.369,16.133,21.191l.128.235-.791-.114a61.484,61.484,0,0,0-27.214-4.079c-.835.072-1.387.134-2.219.268-2.04.329-7.857,1.691-5.91,5.038a4.179,4.179,0,0,0,.824,1.027c1.926,1.76,4.726,2.454,7.223,2.907,6.118,1.109,12.376.06,18.216-1.99,2.947-1.035,6.585-2.887,9.928-2.953l.353.264c.122-.253.1.34.174.08.128.711.061.21.092.212Zm8.2,6.115c1.435-1.944,1.478-5.135,1.322-7.392a64.512,64.512,0,0,0-3.992-17.364,14.791,14.791,0,0,0-3.494-5.766c-.7-.665-1.729-1.527-2.785-1.283a2.218,2.218,0,0,0-1.517,2.1c-.31,2.3.441,4.71,1.156,6.876,1.49,4.507,3.365,8.912,5.261,13.26,1.279,2.934,2.96,5.948,3.666,9.113l-.373.263a7.517,7.517,0,0,1-3.17-.019c-1.5-.17-2.985-.359-4.487-.475a136.711,136.711,0,0,0-13.733-.413c-3,.072-6.081.255-8.632,2.008-1.912,1.314-1.886,3.425.06,4.709a14.01,14.01,0,0,0,7.173,1.855,26.719,26.719,0,0,0,6.458-.848,60.981,60.981,0,0,0,10.713-3.425C363.991,424.089,365.8,422.77,368.1,421.868Zm8.434,4.838a24.724,24.724,0,0,0,6.034-19.164,16.665,16.665,0,0,0-.377-1.986c-.081-.31-.272-.988-.376-1.292-.738-2.151-3.355-6.239-6.029-3.894-1.419,1.245-1.492,3.649-1.5,5.356-.022,4.749,1.255,9.546,2,14.216a29.415,29.415,0,0,1,.483,4.139,2.932,2.932,0,0,1-.671,2.381,5.029,5.029,0,0,1-1.864.681c-1.519.344-3.071.514-4.615.706A101.961,101.961,0,0,0,356.818,430c-2.066.529-4.531,1.224-6.04,2.829a1.949,1.949,0,0,0,.682,3.152c2.053,1.121,4.889,1.056,7.125.662a30.323,30.323,0,0,0,13.065-5.5C373.4,429.809,374.778,428.027,376.532,426.706Zm10.311,5.926c-1.6.5-3.47.358-5.13.545a35.715,35.715,0,0,0-6.659,1.41,28.522,28.522,0,0,0-6.722,3.146,14.932,14.932,0,0,0-3.98,3.142,5.274,5.274,0,0,0-.752,1.329,3.97,3.97,0,0,0-.2.781c-.4,3.028,4.023,2.582,5.755,2.172a32.877,32.877,0,0,0,15.118-8.847c.681-.662,1.332-1.355,2.025-2a8.931,8.931,0,0,0,1.363-1.225c1.625-2.358,2.712-5.354,3.88-7.951,1.057-2.349,2.307-4.927,2.318-7.557,0-1-.133-2.414-.973-3.109a2.232,2.232,0,0,0-2.457.091,11.253,11.253,0,0,0-3.838,3.639,9.1,9.1,0,0,0-1.163,5.384c.052,3.042.3,6.355,1.671,9.136Zm11.311,7.122c-2.064.474-4.248.51-6.336.892a37.543,37.543,0,0,0-14.937,5.682,15.711,15.711,0,0,0-1.325,1.046c-1.32,1.189-4.092,4.282-2.07,6.019a4.326,4.326,0,0,0,3.708.536,26.372,26.372,0,0,0,7.747-3.137,60.326,60.326,0,0,0,5.9-3.609c1.832-1.347,3.508-2.912,5.265-4.353a39.991,39.991,0,0,0,3.456-2.493,9.578,9.578,0,0,0,1.07-1.839c.754-1.272,1.6-2.483,2.375-3.741,1.26-2.049,3.137-4.44,3.233-6.952a3.077,3.077,0,0,0-3.63-3.173,6.415,6.415,0,0,0-4.436,2.7c-1.992,2.963-1.166,6.791-.639,10.072a18.08,18.08,0,0,1,.553,2.323Z" transform="translate(-309.758 -384.319)" fill="#b1d4ca" fill-rule="evenodd"/>
            <path id="Trazado_1037959" data-name="Trazado 1037959" d="M366.269,470.279a435.461,435.461,0,0,0-46.8-31.3c-6.189-3.552-12.287-7.3-18.835-10.187a.134.134,0,0,1,.108-.244c6.557,2.888,12.663,6.643,18.86,10.2a435.63,435.63,0,0,1,46.83,31.321.134.134,0,0,1-.162.213Z" transform="translate(-265.081 -404.888)" fill="#4e212d" fill-rule="evenodd"/>
          </g>
          <g id="Grupo_1178721" data-name="Grupo 1178721" transform="translate(272.089 202.385)">
            <path id="Trazado_1037960" data-name="Trazado 1037960" d="M145.592,287.942a72.638,72.638,0,0,1,.966-10.329,189.891,189.891,0,0,1,6.93-30.818c1.717-5.549,3.731-12.709,8.442-16.555,2.1-1.711,7.638-3.721,9.959-1.273a10.12,10.12,0,0,1,2.187,5.127c1.362,7.221-1.012,15.088-4.574,21.321-1.709,2.989-3.822,5.68-5.74,8.529-2.525,3.75-4.78,7.631-7.684,11.114-3.485,4.181-8.049,7.918-10.488,12.884a.957.957,0,0,1-.339.729Q145.415,288.3,145.592,287.942Zm-6.986,24.353c-3.891-2.015-6.317-6.974-8.239-10.7-4.9-9.517-9.683-20.1-11.35-30.761-.593-3.791-1.069-8.027-.193-11.816.288-1.247.761-2.9,1.959-3.582,1.518-.866,3.471.394,4.578,1.373,2.915,2.576,4.612,6.729,6.221,10.164,6.544,13.969,5.5,28.844,7.016,43.687l.136.424.77-1.082a102.142,102.142,0,0,1,26.268-37.419c1.043-.921,1.75-1.516,2.864-2.363,2.733-2.077,11.036-7.516,12.833-1.339a6.954,6.954,0,0,1,.292,2.168c-.089,4.334-2.461,8.5-4.777,12.021-5.674,8.632-14.1,14.96-23.263,19.638-4.621,2.361-11.018,4.616-14.927,8.563l-.087.727c-.444-.143.3.507-.1.3.709.969.183.314.149.355Zm-2.034,16.872c-3.983-.5-7.871-4.1-10.409-6.878a107.154,107.154,0,0,1-16.32-24.7,24.562,24.562,0,0,1-2.936-10.809c0-1.6.143-3.83,1.645-4.821,1.411-.931,3.008-.332,4.259.576,3.128,2.267,5.163,5.927,6.948,9.268,3.717,6.956,6.868,14.259,9.928,21.521,2.066,4.9,3.765,10.376,6.766,14.852l.745-.148c1.577-.858,2.549-2.435,3.609-3.836,1.51-1.995,2.987-4,4.569-5.943a226.815,226.815,0,0,1,15.236-17c3.526-3.53,7.272-7.025,12.3-8.086,3.772-.8,6.281,1.653,5.6,5.467-.708,3.952-3.328,7.846-5.985,10.756a44.43,44.43,0,0,1-8.418,6.8,101.376,101.376,0,0,1-16.4,8.967C143.948,326.768,140.286,327.438,136.572,329.166Zm-3.84,15.691a41.08,41.08,0,0,1-29.972-14.695,27.869,27.869,0,0,1-1.957-2.73c-.282-.453-.879-1.46-1.124-1.932-1.743-3.353-3.663-11.185,2.221-11.715,3.124-.282,6.1,2.386,8.163,4.332,5.741,5.414,10.048,12.446,14.818,18.688a48.975,48.975,0,0,0,4.427,5.323c.952.937,2.206,2.1,3.634,1.92a8.365,8.365,0,0,0,2.954-1.463c2.155-1.434,4.137-3.106,6.138-4.745a169.275,169.275,0,0,1,17.246-12.93c3-1.88,6.663-4.05,10.323-4.027,2.466.015,3.61,2.191,3.011,4.432-1,3.755-4.33,7.093-7.366,9.332a50.379,50.379,0,0,1-21.579,9.425C140.051,344.644,136.329,344.259,132.732,344.857Zm-4.682,19.194c2.443-1.35,4.407-3.765,6.533-5.548a59.277,59.277,0,0,1,9.325-6.4,47.436,47.436,0,0,1,11.486-4.484c2.673-.675,5.551-1.467,8.341-1.19a8.8,8.8,0,0,1,2.46.618,6.614,6.614,0,0,1,1.164.658c4.1,2.985-1.5,7.8-3.98,9.413-8.343,5.437-18.165,7.677-27.964,8.055-1.575.06-3.156.05-4.73.141a14.8,14.8,0,0,1-3.035.236c-4.7-.746-9.549-2.871-14.012-4.441-4.037-1.42-8.57-2.869-11.749-5.868-1.213-1.144-2.752-2.927-2.626-4.733.107-1.542,1.61-2.415,2.924-2.852a18.7,18.7,0,0,1,8.775-.45c3.145.525,5.62,2.613,7.809,4.769,3.6,3.547,7.3,7.641,9.079,12.475Zm-4.389,21.768c2.936-1.94,5.481-4.527,8.331-6.6,7.238-5.271,15.109-9.651,23.949-11.463a26.332,26.332,0,0,1,2.776-.4c2.943-.226,9.84-.018,9.614,4.405-.114,2.228-1.91,3.889-3.6,5.076a43.857,43.857,0,0,1-12.649,5.727,99.875,99.875,0,0,1-11.1,2.96c-3.718.661-7.522.885-11.269,1.348-2.229.275-4.724,1.283-6.958,1.3a15.894,15.894,0,0,1-3.438-.818c-2.393-.551-4.821-.919-7.223-1.429-3.909-.831-8.936-1.313-12.068-4.074-2.613-2.3-2.205-5.849.34-8a10.656,10.656,0,0,1,8.327-2.248c5.847,1,9.507,6.377,12.85,10.769.769,1.01,1.266,2.442,2.162,3.326Z" transform="translate(-97.928 -227.828)" fill="#9ac0cc" fill-rule="evenodd"/>
            <path id="Trazado_1037961" data-name="Trazado 1037961" d="M137.878,419.845a723.906,723.906,0,0,1,15.963-92.228c2.819-11.532,5.3-23.18,9.334-34.379a.222.222,0,0,1,.418.151c-4.031,11.184-6.5,22.816-9.32,34.332a723.385,723.385,0,0,0-15.953,92.173.222.222,0,1,1-.442-.05Z" transform="translate(-115.264 -235.106)" fill="#4e212d" fill-rule="evenodd"/>
          </g>
        </g>
        <g id="Grupo_1178742" data-name="Grupo 1178742" transform="translate(0 0)" clip-path="url(#clip-path-2)">
          <path id="Trazado_1037962" data-name="Trazado 1037962" d="M96.172,261.378c.111-2.778-3.08-8.905-1.48-12.693,1.047-2.477,5.105-3.525,7.31-11.281,1.265-4.452.141-10,2.5-14.033,1.962-3.353,3.518-5.55,5.415-9.475.455-.942,1.182-3.729.162-4.549-2.315-1.86-4.69,1.829-6.956,5.289-1.975,3.017-4.566,6.807-4.534,6.737,2.56-5.541,5.866-11.848,6.845-16.748.431-2.154,1.818-6.573-1.24-7.588-2.985-.989-4.955,6.8-5.712,9.505a55.179,55.179,0,0,1-5.89,12.49c.717-1.941,2.174-6.825,3.676-11.725,1.567-5.116,2.713-15.223-.465-15.854-1.932-.383-4.138,2.812-4.4,6.079a56.566,56.566,0,0,1-5.33,18.84c.945-5.73,1.449-6.238,2.405-12.9.589-4.1,1.642-14.051-3.325-11.494-2.05,1.055-1.948,8.1-3.065,12.1-1.257,4.509-3.178,8.938-4.48,14.948-.332,1.535-3.153,5.32-4.617,1.328-.511-1.395-.553-5.882-.347-8.227.418-4.754-2.817-5.814-4.394-4.268-2.581,2.528-2.42,13.99-1.305,18.786.627,2.7,1.259,6.707,3.732,10.473,2.487,3.788,5.869,4.269,5.372,8.137l-4.977,10.85Z" transform="translate(273.536 -21.384)" fill="#fa9778" fill-rule="evenodd"/>
          <g id="Grupo_1178736" data-name="Grupo 1178736" transform="translate(339.719 170.039)">
            <g id="Grupo_1178723" data-name="Grupo 1178723" clip-path="url(#clip-path-4)">
              <path id="Trazado_1037963" data-name="Trazado 1037963" d="M95.365,231.7a21.554,21.554,0,0,0-10.984,14.193.222.222,0,1,1-.433-.1,21.992,21.992,0,0,1,11.206-14.485.222.222,0,1,1,.211.391Z" transform="translate(-66.849 -195.867)" fill="#4e212d" fill-rule="evenodd"/>
            </g>
            <g id="Grupo_1178724" data-name="Grupo 1178724" clip-path="url(#clip-path-4)">
              <path id="Trazado_1037965" data-name="Trazado 1037965" d="M95.336,237.881a8.413,8.413,0,0,0-3.022-5.116.222.222,0,1,1,.284-.341,8.854,8.854,0,0,1,3.176,5.383.223.223,0,0,1-.439.074Z" transform="translate(-74.512 -195.989)" fill="#4e212d" fill-rule="evenodd"/>
            </g>
            <g id="Grupo_1178725" data-name="Grupo 1178725" clip-path="url(#clip-path-4)">
              <path id="Trazado_1037967" data-name="Trazado 1037967" d="M95.743,201.188a6.45,6.45,0,0,1-2.065.063,3.022,3.022,0,0,1-1.448-.564.222.222,0,1,1,.277-.346,2.585,2.585,0,0,0,1.235.471,5.981,5.981,0,0,0,1.912-.059.222.222,0,0,1,.089.435Z" transform="translate(-74.577 -192.412)" fill="#4e212d" fill-rule="evenodd"/>
            </g>
            <g id="Grupo_1178726" data-name="Grupo 1178726" clip-path="url(#clip-path-4)">
              <path id="Trazado_1037969" data-name="Trazado 1037969" d="M97.578,210.465a5.533,5.533,0,0,1-3.462-.241.222.222,0,0,1,.194-.4,5.063,5.063,0,0,0,3.169.208.222.222,0,1,1,.1.433Z" transform="translate(-78.045 -193.472)" fill="#4e212d" fill-rule="evenodd"/>
            </g>
            <g id="Grupo_1178727" data-name="Grupo 1178727" clip-path="url(#clip-path-4)">
              <path id="Trazado_1037971" data-name="Trazado 1037971" d="M86.173,201.989a4.5,4.5,0,0,1-2.1.162,2.462,2.462,0,0,1-1.36-.574.222.222,0,0,1,.315-.315,2.01,2.01,0,0,0,1.112.45A4.027,4.027,0,0,0,86,201.58a.222.222,0,1,1,.173.409Z" transform="translate(-56.521 -192.513)" fill="#4e212d" fill-rule="evenodd"/>
            </g>
            <g id="Grupo_1178728" data-name="Grupo 1178728" clip-path="url(#clip-path-4)">
              <path id="Trazado_1037973" data-name="Trazado 1037973" d="M88.216,212.126a5.8,5.8,0,0,1-1.959-.28,2.841,2.841,0,0,1-1.2-.642.222.222,0,0,1,.329-.3,2.372,2.372,0,0,0,1.006.516,5.3,5.3,0,0,0,1.773.264.222.222,0,0,1,.056.441Z" transform="translate(-60.711 -193.587)" fill="#4e212d" fill-rule="evenodd"/>
            </g>
            <g id="Grupo_1178729" data-name="Grupo 1178729" clip-path="url(#clip-path-4)">
              <path id="Trazado_1037975" data-name="Trazado 1037975" d="M112.009,216.882a6.181,6.181,0,0,1-2.041.864.222.222,0,0,1-.106-.432,5.744,5.744,0,0,0,1.9-.8.222.222,0,1,1,.247.369Z" transform="translate(-106.353 -194.216)" fill="#4e212d" fill-rule="evenodd"/>
            </g>
            <g id="Grupo_1178730" data-name="Grupo 1178730" clip-path="url(#clip-path-4)">
              <path id="Trazado_1037977" data-name="Trazado 1037977" d="M111.016,227.589c-1.651,2.036-2.106,4.665-2.467,7.189a.222.222,0,1,1-.44-.063c.373-2.6.86-5.307,2.562-7.406a.222.222,0,0,1,.345.28Z" transform="translate(-103.902 -195.415)" fill="#4e212d" fill-rule="evenodd"/>
            </g>
            <g id="Grupo_1178731" data-name="Grupo 1178731" clip-path="url(#clip-path-4)">
              <path id="Trazado_1037979" data-name="Trazado 1037979" d="M76.393,207.428a5.842,5.842,0,0,1-2.318-.691.222.222,0,1,1,.215-.389,5.384,5.384,0,0,0,2.144.638.222.222,0,0,1-.041.443Z" transform="translate(-39.132 -193.084)" fill="#4e212d" fill-rule="evenodd"/>
            </g>
            <g id="Grupo_1178732" data-name="Grupo 1178732" clip-path="url(#clip-path-4)">
              <path id="Trazado_1037981" data-name="Trazado 1037981" d="M79.971,216.907a6.565,6.565,0,0,1-2.267-1.243.222.222,0,1,1,.313-.315,6.1,6.1,0,0,0,2.115,1.144.222.222,0,1,1-.162.414Z" transform="translate(-46.04 -194.084)" fill="#4e212d" fill-rule="evenodd"/>
            </g>
            <g id="Grupo_1178733" data-name="Grupo 1178733" clip-path="url(#clip-path-4)">
              <path id="Trazado_1037983" data-name="Trazado 1037983" d="M71.319,218.221a4.165,4.165,0,0,1-2.287-1.407.222.222,0,0,1,.357-.264,3.73,3.73,0,0,0,2.056,1.246.222.222,0,1,1-.126.426Z" transform="translate(-29.684 -194.215)" fill="#4e212d" fill-rule="evenodd"/>
            </g>
            <g id="Grupo_1178734" data-name="Grupo 1178734" clip-path="url(#clip-path-4)">
              <path id="Trazado_1037985" data-name="Trazado 1037985" d="M76.588,224.906a10.08,10.08,0,0,1-3.064-2.731.222.222,0,1,1,.354-.269,9.655,9.655,0,0,0,2.93,2.614.222.222,0,1,1-.219.387Z" transform="translate(-38.989 -194.812)" fill="#4e212d" fill-rule="evenodd"/>
            </g>
            <g id="Grupo_1178735" data-name="Grupo 1178735" clip-path="url(#clip-path-4)">
              <path id="Trazado_1037987" data-name="Trazado 1037987" d="M89.329,251.352c2.763,2.326,6.743,3.218,10.222,3.876a.222.222,0,1,1-.083.436c-3.55-.672-7.605-1.6-10.426-3.973a.222.222,0,1,1,.286-.339Z" transform="translate(-75.559 -198.1)" fill="#4e212d" fill-rule="evenodd"/>
            </g>
          </g>
          <path id="Trazado_1037989" data-name="Trazado 1037989" d="M287.984,475.483c1.911-11.36.044-27.617-1.43-41.319-1.509-14.02-7.538-38.953-7.622-42.8-.05-2.313,34.715,3.812,49.872-13.146,21-23.494,27.6-71.089,29.631-89.546.869-7.886.97-23.608.97-23.608s-14.811-4.825-24.814-6.873c-8.3-1.7-20.035-2.628-20.035-2.628s-5.04,16.65-6.036,21.988c-2.107,11.291-13.454,46.449-24.027,49.435-13.359,3.772-36.31-11.908-51.329-14.607a134.813,134.813,0,0,0-25.542-1.621c-33.768.622-54.234,5.843-77.344,31.254-23.645,26-34.953,58.335-49.4,92.118C77.9,441.1,68.845,471.46,73.993,478.755c2.782,3.941,6.272,1.071,10.3,1.642C94.267,481.808,278.131,473.441,287.984,475.483Z" transform="translate(19.168 -28.536)" fill="#e3fbf2" fill-rule="evenodd"/>
          <g id="Grupo_1178738" data-name="Grupo 1178738" transform="translate(91.608 227.024)">
            <g id="Grupo_1178737" data-name="Grupo 1178737" clip-path="url(#clip-path-17)">
              <path id="Trazado_1037990" data-name="Trazado 1037990" d="M308.984,419.289c-9.605,5.6-22.6,8.442-32.994,10.111a440.292,440.292,0,0,1-74.9,5.058,232.252,232.252,0,0,1-27.2-1.775c-.476-.061-2.47-.409-4.538-.719-.785-.117-2.559,9.017-7.537,20.643-2.294,5.358-4.825,11.217-7.523,16.867-2.376,4.974-5.13,9.638-7.418,14.094-1.986,3.867-4.9,7.352-5.942,10.789-2.531,8.362.478,14.642,1.561,14.852a286.963,286.963,0,0,0,50.086,5.256c27.742.48,58.133-1.589,85.3-8.921,12.2-3.294,27.226,1.553,36.322-9.722,10.56-13.089-8.15-59.079-5.216-76.534" transform="translate(-90.478 -273.817)" fill="#a4f1d6" fill-rule="evenodd"/>
            </g>
          </g>
          <path id="Trazado_1037992" data-name="Trazado 1037992" d="M332.245,243.937a15.8,15.8,0,1,0-21.614-13.071,20,20,0,0,0-4.816,38.293,15.385,15.385,0,0,0,13.894,21.7,15.078,15.078,0,0,0,6.513-1.47c1.428,5.367,5.839,9.283,11.053,9.283,6.369,0,11.54-5.842,11.54-13.037s-5.171-13.036-11.54-13.036a10.305,10.305,0,0,0-2.531.314,15.387,15.387,0,0,0-5.809-9.649,20,20,0,0,0,3.31-19.326Z" transform="translate(-166.584 -23.842)" fill="#4e212d" fill-rule="evenodd"/>
          <path id="Trazado_1037993" data-name="Trazado 1037993" d="M317.171,284.358c-.009.1-.021.219-.039.331-.114.736-.346,1.779-.366,1.823-.1.224-.212.445-.335.661-.02-.174-.033-.347-.039-.518A2.643,2.643,0,0,1,317.171,284.358Zm-15.554-51.006.066.055a11.04,11.04,0,0,1,1.03,1.086.226.226,0,0,1-.019.283.218.218,0,0,1-.172.073.382.382,0,0,1-.212-.108,7.344,7.344,0,0,1-1.013-1.076,5.409,5.409,0,0,0-2.453-.968c-2.2-.4-4.382.813-5.973,2.219-5.326,4.707-7.378,13.087-6.318,19.935a15.711,15.711,0,0,0,7.454,10.582,10.645,10.645,0,0,0,3.12,1.393l.139.021a7.177,7.177,0,0,1,.746-.313.741.741,0,0,1,.335-.049.231.231,0,0,1,.19.187.3.3,0,0,1-.076.254,1.257,1.257,0,0,1-1.109.374,4.149,4.149,0,0,0-1.387,1.257,10.067,10.067,0,0,0-1.5,5.566c-.22,6.1,2.676,10.939,7.355,14.676,3.382,2.7,7.769,4.281,11.638,1.578a10.348,10.348,0,0,0,2.609-2.621,8,8,0,0,1-.121-1.085,2.839,2.839,0,0,1,1.313-2.889.247.247,0,0,1,.169-.019.242.242,0,0,1,.143.1.616.616,0,0,1,.062.354,20.179,20.179,0,0,1-.463,2.479,8.531,8.531,0,0,1-.635,1.16,11.232,11.232,0,0,0,1.253,3.394c2.624,4.185,7.934,7.3,12.951,6.317,5.145-1,8.319-4.427,10.5-8.652,2.208-4.271,3.408-9.361,4.585-13.646a.222.222,0,1,1,.428.117c-1.184,4.314-2.4,9.434-4.618,13.733-2.246,4.345-5.521,7.851-10.812,8.884-5.192,1.014-10.7-2.187-13.412-6.517a11.557,11.557,0,0,1-1.223-3.134,10.9,10.9,0,0,1-2.478,2.391c-4.044,2.825-8.635,1.229-12.17-1.594-4.792-3.828-7.747-8.787-7.522-15.04a10.517,10.517,0,0,1,1.586-5.812,4.99,4.99,0,0,1,1.09-1.111,12.512,12.512,0,0,1-2.928-1.376,16.156,16.156,0,0,1-7.656-10.89c-1.081-6.986,1.028-15.532,6.463-20.336,1.687-1.491,4.01-2.743,6.346-2.323a7.285,7.285,0,0,1,1.8.536,10.115,10.115,0,0,1-1.132-5.526,18.467,18.467,0,0,1,4.827-11.255c6.406-6.283,16.527-5.116,22.594.918a.222.222,0,0,1-.314.315c-5.9-5.868-15.74-7.024-21.969-.916a17.982,17.982,0,0,0-4.694,10.96A9.132,9.132,0,0,0,301.617,233.352Z" transform="translate(-157.296 -23.658)" fill-rule="evenodd"/>
          <path id="Trazado_1037994" data-name="Trazado 1037994" d="M270.3,297.637,275.53,321.2s-16.673,12.889-37.894,4.833l-1.276-25.123Z" transform="translate(-42.599 -33.228)" fill="#fa9778" fill-rule="evenodd"/>
          <path id="Trazado_1037995" data-name="Trazado 1037995" d="M258.231,201.425c-36.948,8.682-39.736,26.523-35.548,51.909s27.939,44.792,51.2,41.692c24.852-3.312,38.506-30.495,34.319-55.881S296.792,192.363,258.231,201.425Z" transform="translate(-62.568 -22.263)" fill="#fa9778" fill-rule="evenodd"/>
          <g id="Grupo_1178741" data-name="Grupo 1178741" transform="translate(158.651 177.043)">
            <g id="Grupo_1178739" data-name="Grupo 1178739" clip-path="url(#clip-path-18)">
              <circle id="Elipse_12282" data-name="Elipse 12282" cx="7.61" cy="7.61" r="7.61" transform="translate(10.371 47.772)" fill="#fa7c55"/>
            </g>
            <g id="Grupo_1178740" data-name="Grupo 1178740" clip-path="url(#clip-path-18)">
              <path id="Trazado_1037997" data-name="Trazado 1037997" d="M235.759,245.155a7.61,7.61,0,1,0,7.61,7.611A7.614,7.614,0,0,0,235.759,245.155Z" transform="translate(-161.793 -204.419)" fill="#fa7c55" fill-rule="evenodd"/>
            </g>
          </g>
          <path id="Trazado_1037999" data-name="Trazado 1037999" d="M256.04,185.425a26.192,26.192,0,1,0-51.81-7.407A18.084,18.084,0,0,0,184.338,196q0,.857.079,1.693c-.309-.028-.623-.044-.94-.044a9.953,9.953,0,1,0,9.256,13.615,18.094,18.094,0,0,0,15.764,1.76,23.9,23.9,0,0,0,31.206.913,22.68,22.68,0,0,0,7.98,11.489,17.228,17.228,0,0,0,8.813,20.4,19.779,19.779,0,0,0-.979,13.584,13.91,13.91,0,1,0,23.7,13.7,19.732,19.732,0,0,0,10.527-31.671,19.995,19.995,0,0,0-6.154-39.018h-.143a22.647,22.647,0,0,0-27.4-17Z" transform="translate(-14.819 -17.26)" fill="#4e212d" fill-rule="evenodd"/>
          <path id="Trazado_1038000" data-name="Trazado 1038000" d="M205.67,179.56a13.99,13.99,0,0,0,.371,3.788,6.083,6.083,0,0,0,.741,1.862,1.565,1.565,0,0,0,.881.721,1.535,1.535,0,0,0,1.267-.393,2.329,2.329,0,0,0,.9-1.182,2.481,2.481,0,0,0-.338-1.93,6.419,6.419,0,0,0-2.769-2.477A9.929,9.929,0,0,0,205.67,179.56Zm51.617,11.589a4.967,4.967,0,0,0-.688.769,11.938,11.938,0,0,0-.749,1.394c-.019.047-.037.1-.051.15a.49.49,0,0,0,.169-.067,1.6,1.6,0,0,0,.407-.386,5.853,5.853,0,0,0,.842-1.606C257.241,191.318,257.265,191.233,257.287,191.148Zm-61.3,21.134a8.672,8.672,0,0,0,0-2.255,2.439,2.439,0,0,0-.807-1.621c-.122-.092-.206.034-.283.195a2.628,2.628,0,0,0,.02,1.933,7.662,7.662,0,0,0,.873,1.49C195.849,212.111,195.915,212.2,195.983,212.282Zm57.407,14.781a5.264,5.264,0,0,0,1.126-.452.867.867,0,0,0,.168-.125.281.281,0,0,0,.026-.033c-.067-.137-.215-.1-.381-.03A3.7,3.7,0,0,0,253.39,227.063Zm36.976,12.312c.049.059.1.118.161.177a6.457,6.457,0,0,0,1.2.906C291.57,240.32,290.871,239.754,290.366,239.375Zm-27.95,7.532a5.775,5.775,0,0,0,.824.19,1.374,1.374,0,0,0,1.181-.192.914.914,0,0,0,.181-.76.113.113,0,0,0-.021-.069c-.031-.032-.083-.032-.143-.032a1.61,1.61,0,0,0-.47.1A9.058,9.058,0,0,0,262.416,246.907Zm18.029,22.562a1.079,1.079,0,0,0,.376.931c-.109-.307-.221-.6-.323-.82C280.48,269.541,280.462,269.5,280.445,269.469ZM205.692,179.1a16.106,16.106,0,0,1,1.48-5.748c2.96-6.313,9.545-10.932,16.912-13.2s15.533-2.2,21.646.9a16.834,16.834,0,0,1,8.362,9.639c1.51,3.991,2.09,8.515,2.872,12.925a20.04,20.04,0,0,1,.474,6.836,5.734,5.734,0,0,0-1.2,1.211,10.362,10.362,0,0,0-.882,1.719.541.541,0,0,0-.005.336.267.267,0,0,0,.167.158.95.95,0,0,0,.955-.31,5.832,5.832,0,0,0,1.17-2.034q.121-.414.2-.833a11.488,11.488,0,0,1,3.3-1.559c4.465-1.389,9.546-1.332,13.64,1.075,5.386,3.167,7.739,9.563,7.551,15.433a.285.285,0,0,0,.166.3.344.344,0,0,0,.289-.02,3.167,3.167,0,0,0,.436-.307,1.507,1.507,0,0,1,.355-.233,8.876,8.876,0,0,1,2.62-.408,13.723,13.723,0,0,1,6.32,1.449c5.718,2.778,9.87,9.783,10.712,15.981.8,5.869-.376,13.826-5.518,17.493a5.682,5.682,0,0,1-4.957.994q-.325-.368-.679-.725c-.084-.085-1.649-1.347-1.98-1.525a.265.265,0,0,0-.327.029.228.228,0,0,0-.052.1,1.029,1.029,0,0,0,.277.844,6.294,6.294,0,0,0,1.61,1.278,5.625,5.625,0,0,0,.9.388,15.422,15.422,0,0,1,2.9,4.928c1.919,5.221,3.136,12.414.8,17.66a13.711,13.711,0,0,1-9.5,7.772,11.993,11.993,0,0,1-4.79-.615,4.767,4.767,0,0,1-.485-.216,10.228,10.228,0,0,0-.7-1.757.694.694,0,0,0-.178-.2.291.291,0,0,0-.155-.054.28.28,0,0,0-.291.217,1.663,1.663,0,0,0,.964,2.1,12.634,12.634,0,0,1,.383,1.354,10.509,10.509,0,0,1-2.313,7.795c-4.132,4.883-12.763,5.469-17.828,1.759-3.58-2.621-6.312-8.454-6.155-13.4.1-3.252,1.467-6.12,4.709-7.4a.485.485,0,0,0,.3-.272.613.613,0,0,0-.1-.529c-.2-.33-.659-.781-.947-1.294a7.164,7.164,0,0,1-.929-3.089,7.924,7.924,0,0,1,3.737-8.839,6.9,6.9,0,0,0,1.254.327,1.8,1.8,0,0,0,1.562-.321,1.328,1.328,0,0,0,.306-1.113.536.536,0,0,0-.151-.341.553.553,0,0,0-.32-.152,1.717,1.717,0,0,0-.748.114,10.619,10.619,0,0,0-1.952,1,9.926,9.926,0,0,1-2.218-1.114,26.514,26.514,0,0,1-7.3-11.873,8.1,8.1,0,0,1,.239-5.841,1.74,1.74,0,0,1,.247-.3c.082,0,.163,0,.244-.006a6.287,6.287,0,0,0,1.66-.6,1,1,0,0,0,.351-.321.4.4,0,0,0,.036-.355.586.586,0,0,0-.318-.349.864.864,0,0,0-.655.045,5.188,5.188,0,0,0-1.438,1.069c-.021.021-.043.042-.062.063a6.648,6.648,0,0,1-3.935-2.12,22.773,22.773,0,0,1-6.461-12.247.221.221,0,0,0-.379-.111c-5.806,6.172-14.522,7.362-21.972,4.858a15.1,15.1,0,0,1-6.247-4.017,4.65,4.65,0,0,1-1.064-2.187c.065-.15.123-.3.173-.459a9.645,9.645,0,0,0,.292-1.388,1.5,1.5,0,0,0,.009-.459.255.255,0,0,0-.1-.141.226.226,0,0,0-.193-.036.36.36,0,0,0-.214.205,3.765,3.765,0,0,0-.431,2.222,6.929,6.929,0,0,1-1.558,2.125,10.423,10.423,0,0,1-8.426,2.442,10.184,10.184,0,0,1-5.786-3.091,9.927,9.927,0,0,0,.049-2.781,2.876,2.876,0,0,0-.977-1.9.539.539,0,0,0-.435-.118.622.622,0,0,0-.36.225,1.761,1.761,0,0,0-.332.829,3.3,3.3,0,0,0,.181,1.71,8.206,8.206,0,0,0,.928,1.589q.227.307.476.593l-.034.218a8.411,8.411,0,0,1-9.446,7.3c-7.571-1-11.591-9.967-8.865-17.446a10.819,10.819,0,0,1,5.623-5.63,7.187,7.187,0,0,1,4.18-.8c.014.008.259.132.49.271a17.4,17.4,0,0,1,1.474,1,5.883,5.883,0,0,0,.689,1.231.433.433,0,0,0,.432.173.445.445,0,0,0,.285-.226.517.517,0,0,0-.062-.49,4.4,4.4,0,0,0-.98-.964c-.026-.06-.044-.1-.051-.121a12.523,12.523,0,0,1-.575-5.39,13.827,13.827,0,0,1,7.291-11.479,12.94,12.94,0,0,1,8.876-1.1,14.5,14.5,0,0,0,.378,4.018,6.336,6.336,0,0,0,.862,2.09,1.72,1.72,0,0,0,2.724.352,2.749,2.749,0,0,0,1.056-1.411,2.913,2.913,0,0,0-.378-2.275,6.9,6.9,0,0,0-2.976-2.665A10.448,10.448,0,0,0,205.692,179.1Zm52.247,10.992a12.539,12.539,0,0,1,3.068-1.383c4.582-1.426,9.8-1.354,14,1.116,5.45,3.2,7.893,9.62,7.777,15.574.082-.063.172-.137.261-.2a1.6,1.6,0,0,1,.395-.233,9.347,9.347,0,0,1,2.752-.43,14.157,14.157,0,0,1,6.522,1.494c5.843,2.838,10.1,9.988,10.958,16.321.817,6.015-.429,14.155-5.7,17.915a6.266,6.266,0,0,1-4.729,1.206,15.9,15.9,0,0,1,2.584,4.589c1.955,5.319,3.167,12.649.787,17.993a14.169,14.169,0,0,1-9.829,8.027,12.548,12.548,0,0,1-5.031-.637l-.144-.058a9.707,9.707,0,0,1,.284,1.06,10.931,10.931,0,0,1-2.418,8.109c-4.271,5.048-13.192,5.665-18.429,1.83-3.679-2.695-6.5-8.688-6.336-13.77.109-3.432,1.568-6.449,4.991-7.795a.347.347,0,0,0,.041-.022.8.8,0,0,0-.06-.137c-.2-.332-.664-.789-.953-1.306a7.588,7.588,0,0,1-.984-3.275,11.292,11.292,0,0,1,2.7-8.367,9.771,9.771,0,0,1,.969-.7,10.011,10.011,0,0,1-2.054-1.076,26.988,26.988,0,0,1-7.43-12.086,8.524,8.524,0,0,1,.265-6.147,1.04,1.04,0,0,1,.1-.156,7.49,7.49,0,0,1-3.885-2.211,23.164,23.164,0,0,1-6.5-12.061c-5.927,6.033-14.657,7.181-22.139,4.665a15.61,15.61,0,0,1-6.449-4.157,5.548,5.548,0,0,1-1.032-1.838,7.7,7.7,0,0,1-1.4,1.762,10.9,10.9,0,0,1-8.807,2.557,10.693,10.693,0,0,1-5.8-2.973,8.838,8.838,0,0,1-9.923,7.547c-7.837-1.031-12.046-10.295-9.224-18.04a11.281,11.281,0,0,1,5.853-5.88,7.613,7.613,0,0,1,4.466-.828,7.071,7.071,0,0,1,1.124.642c.148.1.3.2.457.31a13.823,13.823,0,0,1-.421-5.063,14.276,14.276,0,0,1,7.537-11.846,13.422,13.422,0,0,1,9.1-1.154,16.571,16.571,0,0,1,1.514-5.816c3.009-6.419,9.693-11.13,17.183-13.441s15.772-2.221,21.979.926a17.259,17.259,0,0,1,8.577,9.878c1.519,4.016,2.107,8.568,2.893,13A22.143,22.143,0,0,1,257.939,190.095Z" transform="translate(-17.57 -17.671)" fill-rule="evenodd"/>
          <circle id="Elipse_12283" data-name="Elipse 12283" cx="4.089" cy="4.089" r="4.089" transform="translate(180.473 214.938)" fill="#4e212d"/>
          <circle id="Elipse_12284" data-name="Elipse 12284" cx="4.089" cy="4.089" r="4.089" transform="translate(215.545 210.623)" fill="#4e212d"/>
          <path id="Trazado_1038001" data-name="Trazado 1038001" d="M259.393,265.645a2.136,2.136,0,0,0-1.438,2.924,9.416,9.416,0,0,0,18.195-2.674,2.109,2.109,0,0,0-2.179-2.36A73.027,73.027,0,0,0,259.393,265.645Z" transform="translate(-62.265 -29.425)" fill="#fff" fill-rule="evenodd"/>
          <path id="Trazado_1038002" data-name="Trazado 1038002" d="M272.94,250.543a10.89,10.89,0,0,0-.114-1.975c-.252-2.378-.811-6.085-1.061-7.613a.222.222,0,0,1,.439-.072c.25,1.534.81,5.253,1.064,7.638a10.918,10.918,0,0,1,.1,2.119.462.462,0,0,1-.14.24,1.113,1.113,0,0,1-.329.2c-.428.179-1.128.275-1.336.353a2.429,2.429,0,0,0-1.616,2.12,3.461,3.461,0,0,0,.972,2.609,2.756,2.756,0,0,0,2.553.895.222.222,0,1,1,.089.435,3.189,3.189,0,0,1-2.963-1.024,3.908,3.908,0,0,1-1.093-2.953,2.86,2.86,0,0,1,1.9-2.5c.179-.067.72-.148,1.141-.283a1.481,1.481,0,0,0,.312-.13A.582.582,0,0,0,272.94,250.543Z" transform="translate(-70.255 -26.878)" fill-rule="evenodd"/>
          <path id="Trazado_1038003" data-name="Trazado 1038003" d="M240.644,228.852a24.5,24.5,0,0,1,14.869,3.911.889.889,0,0,1-1.014,1.46,22.513,22.513,0,0,0-13.661-3.6.888.888,0,1,1-.194-1.766Z" transform="translate(-26.067 -25.548)" fill="#4e212d" fill-rule="evenodd"/>
          <path id="Trazado_1038004" data-name="Trazado 1038004" d="M300.858,234.637c-4.084,1.135-8.973,3.373-11.665,6.8a.889.889,0,0,1-1.4-1.1c2.913-3.709,8.169-6.187,12.587-7.414a.888.888,0,0,1,.475,1.712Z" transform="translate(-114.11 -26.008)" fill="#4e212d" fill-rule="evenodd"/>
          <circle id="Elipse_12285" data-name="Elipse 12285" cx="7.625" cy="7.625" r="7.625" transform="translate(149.638 221.078)" fill="#fa9778"/>
          <path id="Trazado_1038005" data-name="Trazado 1038005" d="M325,260.244c-1.658-2.212-3.345-4.558-6.151-5.322a.222.222,0,1,1,.116-.428c2.905.791,4.674,3.194,6.39,5.484a.222.222,0,1,1-.355.266Z" transform="translate(-165.607 -28.416)" fill-rule="evenodd"/>
          <path id="Trazado_1038006" data-name="Trazado 1038006" d="M324.509,257.849a3.531,3.531,0,0,0-2.788,1.227.222.222,0,1,1-.3-.326,3.922,3.922,0,0,1,3.1-1.344.222.222,0,1,1-.014.443Z" transform="translate(-167.319 -28.741)" fill-rule="evenodd"/>
          <path id="Trazado_1038007" data-name="Trazado 1038007" d="M262.154,302.642c-1.354,1.874-3.393,2.8-5.443,1.423a.222.222,0,1,1,.247-.369c1.826,1.223,3.629.354,4.835-1.315a.222.222,0,0,1,.361.26Z" transform="translate(-47.259 -33.746)" fill-rule="evenodd"/>
          <path id="Trazado_1038008" data-name="Trazado 1038008" d="M344.477,388.66c-1.863,8.295-2.921,16.772-4.928,25.031a272.134,272.134,0,0,1-11.842,36.026c-8.2,20.585-19.5,39.086-31.144,57.815a.2.2,0,0,1-.34-.211c11.629-18.71,22.922-37.19,31.112-57.752A271.565,271.565,0,0,0,339.159,413.6c2.007-8.256,3.065-16.73,4.928-25.023a.2.2,0,0,1,.391.088Z" transform="translate(-164.712 -43.35)" fill="#4e212d" fill-rule="evenodd"/>
          <path id="Trazado_1038009" data-name="Trazado 1038009" d="M294.9,386.158a12.2,12.2,0,0,0,2.311,4.534.2.2,0,0,1-.322.239,12.577,12.577,0,0,1-2.378-4.679.2.2,0,0,1,.389-.094Z" transform="translate(-115.984 -43.081)" fill="#4e212d" fill-rule="evenodd"/>
          <path id="Trazado_1038010" data-name="Trazado 1038010" d="M114.42,274.441a102.091,102.091,0,0,0-28.729-6.668c-3.187-.283-6.366-.07-9.546-.268a.2.2,0,0,1,.025-.4c3.183.2,6.366-.014,9.557.268a102.541,102.541,0,0,1,28.844,6.7.2.2,0,1,1-.15.371Z" transform="translate(260.752 -29.823)" fill="#4e212d" fill-rule="evenodd"/>
          <path id="Trazado_1038011" data-name="Trazado 1038011" d="M196.7,397.421c-1.31-8.226-4.631-16.2-7.853-23.832-6.181-14.636-14.073-28.222-25.523-39.36a.2.2,0,1,1,.28-.287c11.489,11.175,19.41,24.806,25.613,39.491,3.233,7.657,6.563,15.669,7.878,23.925a.2.2,0,0,1-.4.063Z" transform="translate(100.778 -37.27)" fill="#4e212d" fill-rule="evenodd"/>
          <path id="Trazado_1038012" data-name="Trazado 1038012" d="M164.587,271.314c-2.074,8.558-3.079,17.421-5.648,25.844-6.854,22.462-21.719,45.447-43.994,54.974-6.374,2.726-13.415,5.067-20.452,4.541a.2.2,0,1,1,.03-.4c6.973.522,13.948-1.809,20.265-4.51,22.168-9.48,36.947-32.368,43.768-54.722,2.568-8.415,3.57-17.27,5.642-25.82a.2.2,0,1,1,.389.094Z" transform="translate(194.55 -30.265)" fill="#4e212d" fill-rule="evenodd"/>
          <path id="Trazado_1038013" data-name="Trazado 1038013" d="M284.45,322.917c-7.192,6.466-16,12.378-25.653,14.2-8.939,1.689-18.573.043-26.95-3.227-3.176-1.241-6.16-2.9-9.216-4.392a.2.2,0,1,1,.176-.36c3.047,1.49,6.02,3.142,9.186,4.379,8.309,3.244,17.863,4.882,26.729,3.207,9.579-1.81,18.321-7.686,25.46-14.106a.2.2,0,0,1,.268.3Z" transform="translate(-39.287 -36.008)" fill="#4e212d" fill-rule="evenodd"/>
          <path id="Trazado_1038014" data-name="Trazado 1038014" d="M213.6,384.056a28.769,28.769,0,0,1-3.34,5.158.2.2,0,1,1-.315-.248,28.33,28.33,0,0,0,3.294-5.084.2.2,0,0,1,.361.174Z" transform="translate(42.813 -42.832)" fill="#4e212d" fill-rule="evenodd"/>
          <path id="Trazado_1038015" data-name="Trazado 1038015" d="M209.847,384.708a35.668,35.668,0,0,1,3.967,3.176.2.2,0,0,1-.259.3,35.43,35.43,0,0,0-3.922-3.142.2.2,0,0,1,.214-.339Z" transform="translate(42.876 -42.933)" fill="#4e212d" fill-rule="evenodd"/>
          <path id="Trazado_1038016" data-name="Trazado 1038016" d="M293.662,472.981c-1.643,2.065-3.238,4.278-4.752,6.439a.2.2,0,0,1-.329-.229c1.517-2.168,3.119-4.387,4.767-6.459a.2.2,0,1,1,.314.25Z" transform="translate(-107.141 -52.744)" fill="#4e212d" fill-rule="evenodd"/>
          <path id="Trazado_1038017" data-name="Trazado 1038017" d="M288.077,473.49c1.852,1.659,3.549,3.473,5.358,5.174a.2.2,0,0,1-.275.292c-1.807-1.7-3.5-3.51-5.351-5.167a.2.2,0,0,1,.267-.3Z" transform="translate(-106.221 -52.831)" fill="#4e212d" fill-rule="evenodd"/>
          <path id="Trazado_1038018" data-name="Trazado 1038018" d="M270.125,415.068c-.892,1.129-1.791,2.262-2.646,3.419a.2.2,0,0,1-.323-.238c.857-1.161,1.759-2.3,2.654-3.43a.2.2,0,0,1,.314.249Z" transform="translate(-64.566 -46.286)" fill="#4e212d" fill-rule="evenodd"/>
          <path id="Trazado_1038019" data-name="Trazado 1038019" d="M267.288,415.464c1.049.77,2.057,1.587,3.086,2.382a.2.2,0,1,1-.245.316c-1.025-.793-2.031-1.608-3.078-2.376a.2.2,0,0,1,.237-.323Z" transform="translate(-64.717 -46.362)" fill="#4e212d" fill-rule="evenodd"/>
          <path id="Trazado_1038020" data-name="Trazado 1038020" d="M185.457,460.042c-.916,1.051-1.789,2.155-2.64,3.259a.2.2,0,0,1-.317-.244c.856-1.111,1.733-2.22,2.655-3.278a.2.2,0,1,1,.3.263Z" transform="translate(95.315 -51.3)" fill="#4e212d" fill-rule="evenodd"/>
          <path id="Trazado_1038021" data-name="Trazado 1038021" d="M183.211,460.33c.918.749,1.81,1.529,2.753,2.246a.2.2,0,0,1-.242.319c-.948-.72-1.844-1.5-2.765-2.255a.2.2,0,1,1,.253-.31Z" transform="translate(94.4 -51.364)" fill="#4e212d" fill-rule="evenodd"/>
        </g>
      </g>
      <g id="Grupo_1178745" data-name="Grupo 1178745" transform="translate(278.281 99.514)">
        <path id="Trazado_1038022" data-name="Trazado 1038022" d="M112.341,109.211c0-23.839-19.637-43.193-43.824-43.193S24.693,85.372,24.693,109.211a42.934,42.934,0,0,0,15.086,32.61l-2.664,22.753,18.27-14.154a44.4,44.4,0,0,0,13.133,1.986C92.7,152.405,112.341,133.051,112.341,109.211Z" transform="translate(-24.693 -66.018)" fill="#a4f1d6" fill-rule="evenodd"/>
      </g>
    </g>
  </g>
</svg>
