<svg xmlns="http://www.w3.org/2000/svg" xmlns:xlink="http://www.w3.org/1999/xlink" width="113" height="113" viewBox="0 0 113 113">
  <defs>
    <filter id="Trazado_982547" x="0" y="0" width="113" height="113" filterUnits="userSpaceOnUse">
      <feOffset dy="3" input="SourceAlpha"/>
      <feGaussianBlur stdDeviation="3" result="blur"/>
      <feFlood flood-opacity="0.161"/>
      <feComposite operator="in" in2="blur"/>
      <feComposite in="SourceGraphic"/>
    </filter>
  </defs>
  <g id="Grupo_1178943" data-name="Grupo 1178943" transform="translate(-193 -1084.432)">
    <g id="Grupo_1173793" data-name="Grupo 1173793" transform="translate(202 1090.432)">
      <g id="Grupo_1167519" data-name="Grupo 1167519">
        <g id="Grupo_1166845" data-name="Grupo 1166845">
          <g id="Grupo_1166720" data-name="Grupo 1166720">
            <g id="Grupo_1164305" data-name="Grupo 1164305">
              <g id="Grupo_1163948" data-name="Grupo 1163948">
                <g id="Grupo_1158168" data-name="Grupo 1158168">
                  <g id="Grupo_1152576" data-name="Grupo 1152576">
                    <g id="Grupo_1148633" data-name="Grupo 1148633">
                      <g id="Grupo_1148525" data-name="Grupo 1148525">
                        <g transform="matrix(1, 0, 0, 1, -9, -6)" filter="url(#Trazado_982547)">
                          <g id="Trazado_982547-2" data-name="Trazado 982547" transform="translate(9 6)" fill="#fdf4ee">
                            <path d="M 47.5 93.5 C 41.28937149047852 93.5 35.26533508300781 92.28397369384766 29.59518623352051 89.88570404052734 C 24.11771965026855 87.56893157958984 19.19813346862793 84.25196075439453 14.97309303283691 80.02691650390625 C 10.74804019927979 75.80186462402344 7.431066513061523 70.88229370117188 5.114293098449707 65.40481567382812 C 2.716026782989502 59.73468017578125 1.5 53.71062850952148 1.5 47.5 C 1.5 41.28937149047852 2.716026782989502 35.26533508300781 5.114293098449707 29.59518623352051 C 7.431066513061523 24.11771965026855 10.74804019927979 19.19813346862793 14.97309303283691 14.97309303283691 C 19.19813346862793 10.74804019927979 24.11771965026855 7.431066513061523 29.59518623352051 5.114293098449707 C 35.26533508300781 2.716026782989502 41.28937149047852 1.5 47.5 1.5 C 53.71062850952148 1.5 59.73468017578125 2.716026782989502 65.40481567382812 5.114293098449707 C 70.88229370117188 7.431066513061523 75.80186462402344 10.74804019927979 80.02691650390625 14.97309303283691 C 84.25196075439453 19.19813346862793 87.56893157958984 24.11771965026855 89.88570404052734 29.59518623352051 C 92.28397369384766 35.26533508300781 93.5 41.28937149047852 93.5 47.5 C 93.5 53.71062850952148 92.28397369384766 59.73468017578125 89.88570404052734 65.40481567382812 C 87.56893157958984 70.88229370117188 84.25196075439453 75.80186462402344 80.02691650390625 80.02691650390625 C 75.80186462402344 84.25196075439453 70.88229370117188 87.56893157958984 65.40481567382812 89.88570404052734 C 59.73468017578125 92.28397369384766 53.71062850952148 93.5 47.5 93.5 Z" stroke="none"/>
                            <path d="M 47.5 3 C 41.49121475219727 3 35.66376876831055 4.176155090332031 30.17950439453125 6.495796203613281 C 24.88084411621094 8.736953735351562 20.12152099609375 11.94598388671875 16.03375244140625 16.03375244140625 C 11.94598388671875 20.12152099609375 8.736953735351562 24.88084411621094 6.495796203613281 30.17950439453125 C 4.176155090332031 35.66376876831055 3 41.49121475219727 3 47.5 C 3 53.50878524780273 4.176155090332031 59.33623123168945 6.495796203613281 64.82049560546875 C 8.736953735351562 70.11915588378906 11.94598388671875 74.87847900390625 16.03375244140625 78.96624755859375 C 20.12152099609375 83.05401611328125 24.88084411621094 86.26304626464844 30.17950439453125 88.50419616699219 C 35.66376876831055 90.82384490966797 41.49121475219727 92 47.5 92 C 53.50878524780273 92 59.33623123168945 90.82384490966797 64.82049560546875 88.50419616699219 C 70.11915588378906 86.26304626464844 74.87847900390625 83.05401611328125 78.96624755859375 78.96624755859375 C 83.05401611328125 74.87847900390625 86.26304626464844 70.11915588378906 88.50419616699219 64.82049560546875 C 90.82384490966797 59.33623123168945 92 53.50878524780273 92 47.5 C 92 41.49121475219727 90.82384490966797 35.66376876831055 88.50419616699219 30.17950439453125 C 86.26304626464844 24.88084411621094 83.05401611328125 20.12152099609375 78.96624755859375 16.03375244140625 C 74.87847900390625 11.94598388671875 70.11915588378906 8.736953735351562 64.82049560546875 6.495796203613281 C 59.33623123168945 4.176155090332031 53.50878524780273 3 47.5 3 M 47.5 0 C 73.7335205078125 0 95 21.2664794921875 95 47.5 C 95 73.7335205078125 73.7335205078125 95 47.5 95 C 21.2664794921875 95 0 73.7335205078125 0 47.5 C 0 21.2664794921875 21.2664794921875 0 47.5 0 Z" stroke="none" fill="#ee9865"/>
                          </g>
                        </g>
                      </g>
                    </g>
                  </g>
                </g>
              </g>
            </g>
          </g>
        </g>
      </g>
    </g>
    <g id="calculation" transform="translate(220.698 1080.632)">
      <g id="Grupo_1178922" data-name="Grupo 1178922" transform="translate(34.822 74.445)">
        <g id="Grupo_1178920" data-name="Grupo 1178920">
          <path id="Trazado_1038405" data-name="Trazado 1038405" d="M330.539,415.59H310.4a.9.9,0,0,1-.9-.9v-5.4a.9.9,0,0,1,.9-.9h20.139a.9.9,0,0,1,.9.9v5.4A.9.9,0,0,1,330.539,415.59Z" transform="translate(-309.5 -408.389)" fill="#ffd15b"/>
        </g>
        <g id="Grupo_1178921" data-name="Grupo 1178921" transform="translate(16.483)">
          <path id="Trazado_1038406" data-name="Trazado 1038406" d="M460.557,408.389H456a.9.9,0,0,1,.9.9v5.4a.9.9,0,0,1-.9.9h4.557a.9.9,0,0,0,.9-.9v-5.4A.9.9,0,0,0,460.557,408.389Z" transform="translate(-456 -408.389)" fill="#ffc344"/>
        </g>
      </g>
      <g id="Grupo_1178941" data-name="Grupo 1178941" transform="translate(0.844 32.954)">
        <path id="Trazado_1038407" data-name="Trazado 1038407" d="M62.292,39.611H8.625A1.125,1.125,0,0,0,7.5,40.736V76.544a1.125,1.125,0,0,0,1.125,1.125h3.527V56.652a1.688,1.688,0,0,1,1.688-1.688H36.784a1.688,1.688,0,0,1,1.688,1.688V77.669H62.292a1.125,1.125,0,0,0,1.125-1.125V40.736A1.125,1.125,0,0,0,62.292,39.611Z" transform="translate(-7.5 -39.611)" fill="#f2fbff"/>
        <g id="Grupo_1178923" data-name="Grupo 1178923" transform="translate(49.336 0)">
          <path id="Trazado_1038408" data-name="Trazado 1038408" d="M451.457,39.611H446a1.125,1.125,0,0,1,1.125,1.125V76.544A1.125,1.125,0,0,1,446,77.669h5.457a1.125,1.125,0,0,0,1.125-1.125V40.736A1.125,1.125,0,0,0,451.457,39.611Z" transform="translate(-446 -39.611)" fill="#dff6fd"/>
        </g>
        <g id="Grupo_1178927" data-name="Grupo 1178927" transform="translate(35.863 19.21)">
          <g id="Grupo_1178924" data-name="Grupo 1178924">
            <circle id="Elipse_12310" data-name="Elipse 12310" cx="7.351" cy="7.351" r="7.351" fill="#00f2a6"/>
          </g>
          <g id="Grupo_1178925" data-name="Grupo 1178925" transform="translate(0)">
            <path id="Trazado_1038409" data-name="Trazado 1038409" d="M333.608,217.7v-7.351a7.351,7.351,0,0,0-7.351,7.351Z" transform="translate(-326.257 -210.351)" fill="#ffd15b"/>
          </g>
          <g id="Grupo_1178926" data-name="Grupo 1178926" transform="translate(2.048 0.424)">
            <path id="Trazado_1038410" data-name="Trazado 1038410" d="M352.225,214.116a7.351,7.351,0,0,1-7.765,12.015,7.35,7.35,0,1,0,7.765-12.015Z" transform="translate(-344.46 -214.116)" fill="#0ed290"/>
          </g>
        </g>
        <g id="Grupo_1178937" data-name="Grupo 1178937" transform="translate(4.652 15.354)">
          <g id="Grupo_1178928" data-name="Grupo 1178928" transform="translate(0 0)">
            <path id="Trazado_1038411" data-name="Trazado 1038411" d="M73.477,209.413H50.533a1.688,1.688,0,0,1-1.688-1.688V177.763a1.688,1.688,0,0,1,1.688-1.688H73.477a1.688,1.688,0,0,1,1.688,1.688v29.963A1.688,1.688,0,0,1,73.477,209.413Z" transform="translate(-48.845 -176.075)" fill="#26a6fe"/>
          </g>
          <g id="Grupo_1178929" data-name="Grupo 1178929" transform="translate(2.924 2.924)">
            <path id="Trazado_1038412" data-name="Trazado 1038412" d="M74.838,207.331v-4.7a.563.563,0,0,1,.563-.563H94.746a.563.563,0,0,1,.563.563v4.7Z" transform="translate(-74.838 -202.067)" fill="#fff"/>
          </g>
          <path id="Trazado_1038413" data-name="Trazado 1038413" d="M224.429,176.075h-5.5a1.688,1.688,0,0,1,1.688,1.688V179h2.009a.563.563,0,0,1,.563.563v26.364a.563.563,0,0,1-.563.563h-2.009v1.237a1.688,1.688,0,0,1-1.688,1.688h5.5a1.688,1.688,0,0,0,1.688-1.688V177.763A1.688,1.688,0,0,0,224.429,176.075Z" transform="translate(-199.796 -176.075)" fill="#0593fc"/>
          <g id="Grupo_1178930" data-name="Grupo 1178930" transform="translate(2.924 8.188)">
            <path id="Trazado_1038414" data-name="Trazado 1038414" d="M75.4,271.079H94.746a.563.563,0,0,0,.563-.563V248.854H74.838v21.663A.563.563,0,0,0,75.4,271.079Z" transform="translate(-74.838 -248.854)" fill="#fff"/>
          </g>
          <g id="Grupo_1178931" data-name="Grupo 1178931" transform="translate(2.924 8.188)">
            <path id="Trazado_1038415" data-name="Trazado 1038415" d="M75.4,271.079H94.746a.563.563,0,0,0,.563-.563V248.854H74.838v21.663A.563.563,0,0,0,75.4,271.079Z" transform="translate(-74.838 -248.854)" fill="#9facba"/>
          </g>
          <g id="Grupo_1178932" data-name="Grupo 1178932" transform="translate(19.932 8.188)">
            <path id="Trazado_1038416" data-name="Trazado 1038416" d="M226.563,248.854v21.663a.563.563,0,0,1-.563.563h2.9a.563.563,0,0,0,.563-.563V248.854Z" transform="translate(-226 -248.854)" fill="#8d9ca8"/>
          </g>
          <g id="Grupo_1178933" data-name="Grupo 1178933" transform="translate(19.932 2.924)">
            <path id="Trazado_1038417" data-name="Trazado 1038417" d="M228.9,202.067H226a.563.563,0,0,1,.563.563v4.7h2.9v-4.7A.563.563,0,0,0,228.9,202.067Z" transform="translate(-226 -202.067)" fill="#f2fbff"/>
          </g>
          <g id="Grupo_1178935" data-name="Grupo 1178935" transform="translate(16.565 19.301)">
            <g id="Grupo_1178934" data-name="Grupo 1178934">
              <path id="Trazado_1038418" data-name="Trazado 1038418" d="M196.073,347.625v11.113h6.268a.563.563,0,0,0,.563-.563v-10.55Z" transform="translate(-196.073 -347.625)" fill="#ffd15b"/>
            </g>
          </g>
          <g id="Grupo_1178936" data-name="Grupo 1178936" transform="translate(19.932 19.301)">
            <path id="Trazado_1038419" data-name="Trazado 1038419" d="M226.563,347.625v10.55a.562.562,0,0,1-.562.563h2.9a.563.563,0,0,0,.562-.563v-10.55Z" transform="translate(-226.001 -347.625)" fill="#ffc344"/>
          </g>
        </g>
        <g id="Grupo_1178938" data-name="Grupo 1178938" transform="translate(4.652 7.882)">
          <path id="Trazado_1038420" data-name="Trazado 1038420" d="M74.6,113.28H49.408a.563.563,0,0,1-.563-.563v-2.49a.563.563,0,0,1,.563-.563H74.6a.563.563,0,0,1,.563.563v2.49A.563.563,0,0,1,74.6,113.28Z" transform="translate(-48.845 -109.665)" fill="#8ac9fe"/>
        </g>
        <g id="Grupo_1178939" data-name="Grupo 1178939" transform="translate(4.652 7.882)">
          <path id="Trazado_1038421" data-name="Trazado 1038421" d="M74.6,113.28H49.408a.563.563,0,0,1-.563-.563v-2.49a.563.563,0,0,1,.563-.563H74.6a.563.563,0,0,1,.563.563v2.49A.563.563,0,0,1,74.6,113.28Z" transform="translate(-48.845 -109.665)" fill="#8ac9fe"/>
        </g>
        <g id="Grupo_1178940" data-name="Grupo 1178940" transform="translate(4.652 7.882)">
          <path id="Trazado_1038422" data-name="Trazado 1038422" d="M49.408,109.665a.563.563,0,0,0-.563.563v2.49a.563.563,0,0,0,.563.563H67.814v-3.615Z" transform="translate(-48.845 -109.665)" fill="#fd6930"/>
        </g>
      </g>
      <g id="Grupo_1178942" data-name="Grupo 1178942" transform="translate(0 32.11)">
        <path id="Trazado_1038423" data-name="Trazado 1038423" d="M323.883,400.89h-5.007a.844.844,0,0,0,0,1.688h5.007a.056.056,0,0,1,.056.056v5.4a.056.056,0,0,1-.056.056H303.744a.056.056,0,0,1-.056-.056v-5.4a.056.056,0,0,1,.056-.056h11.195a.844.844,0,1,0,0-1.688H303.744A1.746,1.746,0,0,0,302,402.634v5.4a1.746,1.746,0,0,0,1.744,1.744h20.139a1.746,1.746,0,0,0,1.744-1.744v-5.4A1.746,1.746,0,0,0,323.883,400.89Z" transform="translate(-268.022 -359.399)"/>
        <path id="Trazado_1038424" data-name="Trazado 1038424" d="M330.5,433.734a.844.844,0,0,0,.844.844H346.87a.844.844,0,1,0,0-1.688H331.344A.844.844,0,0,0,330.5,433.734Z" transform="translate(-293.316 -387.798)"/>
        <path id="Trazado_1038425" data-name="Trazado 1038425" d="M55.636,32.11H41.291a.844.844,0,1,0,0,1.688H55.636a.282.282,0,0,1,.281.281V69.887a.282.282,0,0,1-.281.281H32.659V53.55h4.41l.708.708a8.22,8.22,0,1,0,1.212-1.175l-.974-.974a.844.844,0,0,0-.6-.247h-4.76V50a2.534,2.534,0,0,0-2.531-2.531H7.183A2.534,2.534,0,0,0,4.652,50V70.168H1.969a.282.282,0,0,1-.281-.281V34.079a.282.282,0,0,1,.281-.281H37.353a.844.844,0,0,0,0-1.688H1.969A1.971,1.971,0,0,0,0,34.079V69.887a1.971,1.971,0,0,0,1.969,1.969H4.652v8.1A2.534,2.534,0,0,0,7.183,82.49H30.128a2.534,2.534,0,0,0,2.531-2.531v-8.1H55.636A1.971,1.971,0,0,0,57.6,69.887V34.079A1.971,1.971,0,0,0,55.636,32.11ZM44.9,59.515V53.064a6.507,6.507,0,1,1-7.295,7.295h6.451A.844.844,0,0,0,44.9,59.515Zm-5.925-4.057.556.556a.844.844,0,1,0,1.193-1.193l-.534-.534a6.472,6.472,0,0,1,3.021-1.223v5.607H37.608a6.476,6.476,0,0,1,1.37-3.213Zm-8.006,24.5a.845.845,0,0,1-.844.844H7.183a.845.845,0,0,1-.844-.844V49.995a.845.845,0,0,1,.844-.844H30.128a.845.845,0,0,1,.844.844Z" transform="translate(0 -32.11)"/>
        <path id="Trazado_1038426" data-name="Trazado 1038426" d="M315.382,83.73V74.089a.844.844,0,1,0-1.688,0V83.73h-.323a.844.844,0,1,0,0,1.688h16.1a.844.844,0,1,0,0-1.688h-.323V75.053a.844.844,0,1,0-1.688,0v8.677h-1.755V80.476a.844.844,0,1,0-1.688,0v3.254h-1.755v-6.7a.844.844,0,0,0-1.688,0v6.7h-1.755V78.5a.844.844,0,1,0-1.688,0v5.226h-1.755Z" transform="translate(-277.366 -68.617)"/>
        <path id="Trazado_1038427" data-name="Trazado 1038427" d="M41.345,106.062a1.408,1.408,0,0,0,1.406,1.406H67.946a1.408,1.408,0,0,0,1.406-1.406v-2.49a1.408,1.408,0,0,0-1.406-1.406H42.751a1.408,1.408,0,0,0-1.406,1.406Zm26.32-.281H62v-1.928h5.664Zm-24.632-1.928H60.313v1.928H43.033Z" transform="translate(-36.693 -94.283)"/>
        <path id="Trazado_1038428" data-name="Trazado 1038428" d="M61.157,74.933a.844.844,0,1,0,0-1.688H42.189a.844.844,0,1,0,0,1.688Z" transform="translate(-36.693 -68.617)"/>
        <path id="Trazado_1038429" data-name="Trazado 1038429" d="M88.09,194.567H76.751a.844.844,0,0,0,0,1.688H87.809v3.576H69.026v-3.576h3.787a.844.844,0,1,0,0-1.688H68.744a1.408,1.408,0,0,0-1.406,1.406v26.364a1.408,1.408,0,0,0,1.406,1.406H88.09a1.408,1.408,0,0,0,1.406-1.406V195.973A1.408,1.408,0,0,0,88.09,194.567ZM74.169,222.056H69.026v-3.869h5.143Zm0-5.556H69.026v-3.869h5.143Zm0-5.556H69.026v-3.869h5.143Zm0-5.556H69.026v-3.869h5.143Zm6.809,16.669H75.856v-3.869h5.122Zm0-5.556H75.856v-3.869h5.122Zm0-5.556H75.856v-3.869h5.122Zm0-5.556H75.856v-3.869h5.122Zm6.831,16.669H82.666v-9.425h5.143Zm0-11.113H82.666v-3.869h5.143Zm0-5.556H82.666v-3.869h5.143Z" transform="translate(-59.762 -176.289)"/>
      </g>
    </g>
  </g>
</svg>
